<?xml version="1.0" encoding="utf-8" standalone="no"?>
<!DOCTYPE svg PUBLIC "-//W3C//DTD SVG 1.1//EN"
  "http://www.w3.org/Graphics/SVG/1.1/DTD/svg11.dtd">
<svg xmlns:xlink="http://www.w3.org/1999/xlink" width="501.408pt" height="330.949969pt" viewBox="0 0 501.408 330.949969" xmlns="http://www.w3.org/2000/svg" version="1.1">
 <metadata>
  <rdf:RDF xmlns:dc="http://purl.org/dc/elements/1.1/" xmlns:cc="http://creativecommons.org/ns#" xmlns:rdf="http://www.w3.org/1999/02/22-rdf-syntax-ns#">
   <cc:Work>
    <dc:type rdf:resource="http://purl.org/dc/dcmitype/StillImage"/>
    <dc:date>2026-06-25T13:47:05.131543</dc:date>
    <dc:format>image/svg+xml</dc:format>
    <dc:creator>
     <cc:Agent>
      <dc:title>Matplotlib v3.8.2, https://matplotlib.org/</dc:title>
     </cc:Agent>
    </dc:creator>
   </cc:Work>
  </rdf:RDF>
 </metadata>
 <defs>
  <style type="text/css">*{stroke-linejoin: round; stroke-linecap: butt}</style>
 </defs>
 <g id="figure_1">
  <g id="patch_1">
   <path d="M 0 330.949969 
L 501.408 330.949969 
L 501.408 0 
L 0 0 
z
" style="fill: #ffffff"/>
  </g>
  <g id="axes_1">
   <g id="patch_2">
    <path d="M 70.128 251.173969 
L 494.208 251.173969 
L 494.208 23.077969 
L 70.128 23.077969 
z
" style="fill: #ffffff"/>
   </g>
   <g id="PolyCollection_1">
    <defs>
     <path id="m81b5e2b295" d="M 149.34126 -110.991668 
L 106.572922 -110.991668 
L 105.224878 -112.140538 
L 103.921944 -113.289407 
L 102.674846 -114.438276 
L 101.492586 -115.587145 
L 100.382189 -116.736015 
L 99.348536 -117.884884 
L 98.394294 -119.033753 
L 97.519934 -120.182622 
L 96.723853 -121.331492 
L 96.002576 -122.480361 
L 95.351032 -123.62923 
L 94.762896 -124.7781 
L 94.23097 -125.926969 
L 93.747584 -127.075838 
L 93.305016 -128.224707 
L 92.895885 -129.373577 
L 92.51352 -130.522446 
L 92.152289 -131.671315 
L 91.807863 -132.820185 
L 91.477414 -133.969054 
L 91.159741 -135.117923 
L 90.85531 -136.266792 
L 90.566218 -137.415662 
L 90.296075 -138.564531 
L 90.049808 -139.7134 
L 89.833401 -140.862269 
L 89.653581 -142.011139 
L 89.517458 -143.160008 
L 89.432143 -144.308877 
L 89.404364 -145.457747 
L 89.440087 -146.606616 
L 89.544187 -147.755485 
L 89.72016 -148.904354 
L 89.969917 -150.053224 
L 90.293662 -151.202093 
L 90.68986 -152.350962 
L 91.155313 -153.499832 
L 91.685326 -154.648701 
L 92.27396 -155.79757 
L 92.91436 -156.946439 
L 93.599129 -158.095309 
L 94.32073 -159.244178 
L 95.071888 -160.393047 
L 95.845961 -161.541916 
L 96.637252 -162.690786 
L 97.441257 -163.839655 
L 98.254801 -164.988524 
L 99.076087 -166.137394 
L 99.904628 -167.286263 
L 100.74109 -168.435132 
L 101.587034 -169.584001 
L 102.44461 -170.732871 
L 103.316194 -171.88174 
L 104.20402 -173.030609 
L 105.109823 -174.179479 
L 106.034522 -175.328348 
L 106.977969 -176.477217 
L 107.938773 -177.626086 
L 108.914222 -178.774956 
L 109.900292 -179.923825 
L 110.891751 -181.072694 
L 111.88234 -182.221564 
L 112.865025 -183.370433 
L 113.832283 -184.519302 
L 114.776419 -185.668171 
L 115.689886 -186.817041 
L 116.565582 -187.96591 
L 117.397114 -189.114779 
L 118.179013 -190.263648 
L 118.906891 -191.412518 
L 119.577542 -192.561387 
L 120.188979 -193.710256 
L 120.740414 -194.859126 
L 121.232199 -196.007995 
L 121.665721 -197.156864 
L 122.043278 -198.305733 
L 122.367933 -199.454603 
L 122.64337 -200.603472 
L 122.873744 -201.752341 
L 123.063545 -202.901211 
L 123.217479 -204.05008 
L 123.340353 -205.198949 
L 123.436988 -206.347818 
L 123.512139 -207.496688 
L 123.570432 -208.645557 
L 123.616311 -209.794426 
L 123.653989 -210.943295 
L 123.687413 -212.092165 
L 123.720221 -213.241034 
L 123.755714 -214.389903 
L 123.796819 -215.538773 
L 123.846066 -216.687642 
L 123.905557 -217.836511 
L 123.97695 -218.98538 
L 124.061437 -220.13425 
L 124.159747 -221.283119 
L 124.272139 -222.431988 
L 124.398421 -223.580858 
L 124.537968 -224.729727 
L 131.376214 -224.729727 
L 131.376214 -224.729727 
L 131.515761 -223.580858 
L 131.642042 -222.431988 
L 131.754435 -221.283119 
L 131.852744 -220.13425 
L 131.937232 -218.98538 
L 132.008625 -217.836511 
L 132.068116 -216.687642 
L 132.117363 -215.538773 
L 132.158468 -214.389903 
L 132.193961 -213.241034 
L 132.226769 -212.092165 
L 132.260192 -210.943295 
L 132.297871 -209.794426 
L 132.34375 -208.645557 
L 132.402043 -207.496688 
L 132.477194 -206.347818 
L 132.573829 -205.198949 
L 132.696703 -204.05008 
L 132.850636 -202.901211 
L 133.040438 -201.752341 
L 133.270812 -200.603472 
L 133.546249 -199.454603 
L 133.870904 -198.305733 
L 134.248461 -197.156864 
L 134.681983 -196.007995 
L 135.173768 -194.859126 
L 135.725203 -193.710256 
L 136.33664 -192.561387 
L 137.007291 -191.412518 
L 137.735169 -190.263648 
L 138.517068 -189.114779 
L 139.3486 -187.96591 
L 140.224296 -186.817041 
L 141.137763 -185.668171 
L 142.081899 -184.519302 
L 143.049157 -183.370433 
L 144.031842 -182.221564 
L 145.022431 -181.072694 
L 146.01389 -179.923825 
L 146.99996 -178.774956 
L 147.975409 -177.626086 
L 148.936213 -176.477217 
L 149.87966 -175.328348 
L 150.804359 -174.179479 
L 151.710162 -173.030609 
L 152.597988 -171.88174 
L 153.469571 -170.732871 
L 154.327147 -169.584001 
L 155.173092 -168.435132 
L 156.009553 -167.286263 
L 156.838095 -166.137394 
L 157.659381 -164.988524 
L 158.472925 -163.839655 
L 159.276929 -162.690786 
L 160.068221 -161.541916 
L 160.842293 -160.393047 
L 161.593452 -159.244178 
L 162.315053 -158.095309 
L 162.999822 -156.946439 
L 163.640222 -155.79757 
L 164.228856 -154.648701 
L 164.758869 -153.499832 
L 165.224322 -152.350962 
L 165.62052 -151.202093 
L 165.944265 -150.053224 
L 166.194022 -148.904354 
L 166.369995 -147.755485 
L 166.474095 -146.606616 
L 166.509818 -145.457747 
L 166.482038 -144.308877 
L 166.396724 -143.160008 
L 166.260601 -142.011139 
L 166.080781 -140.862269 
L 165.864374 -139.7134 
L 165.618107 -138.564531 
L 165.347964 -137.415662 
L 165.058872 -136.266792 
L 164.754441 -135.117923 
L 164.436767 -133.969054 
L 164.106319 -132.820185 
L 163.761892 -131.671315 
L 163.400662 -130.522446 
L 163.018297 -129.373577 
L 162.609165 -128.224707 
L 162.166598 -127.075838 
L 161.683212 -125.926969 
L 161.151286 -124.7781 
L 160.56315 -123.62923 
L 159.911606 -122.480361 
L 159.190329 -121.331492 
L 158.394248 -120.182622 
L 157.519888 -119.033753 
L 156.565645 -117.884884 
L 155.531993 -116.736015 
L 154.421596 -115.587145 
L 153.239335 -114.438276 
L 151.992238 -113.289407 
L 150.689304 -112.140538 
L 149.34126 -110.991668 
z
" style="stroke: #ffffff; stroke-opacity: 0.38"/>
    </defs>
    <g clip-path="url(#pc0c4279151)">
     <use xlink:href="#m81b5e2b295" x="0" y="330.949969" style="fill: #0072b2; fill-opacity: 0.38; stroke: #ffffff; stroke-opacity: 0.38"/>
    </g>
   </g>
   <g id="PolyCollection_2">
    <defs>
     <path id="m8133743ae5" d="M 291.51896 -90.198116 
L 272.81704 -90.198116 
L 272.226815 -91.696234 
L 271.647914 -93.194352 
L 271.084858 -94.69247 
L 270.541694 -96.190588 
L 270.021836 -97.688706 
L 269.527908 -99.186824 
L 269.06161 -100.684941 
L 268.623605 -102.183059 
L 268.21343 -103.681177 
L 267.829455 -105.179295 
L 267.468863 -106.677413 
L 267.127691 -108.175531 
L 266.800901 -109.673649 
L 266.482501 -111.171767 
L 266.165708 -112.669885 
L 265.84314 -114.168003 
L 265.507053 -115.666121 
L 265.149586 -117.164239 
L 264.763036 -118.662357 
L 264.340125 -120.160475 
L 263.874269 -121.658593 
L 263.359833 -123.156711 
L 262.792349 -124.654829 
L 262.168716 -126.152947 
L 261.487341 -127.651065 
L 260.748239 -129.149183 
L 259.953083 -130.647301 
L 259.10519 -132.145419 
L 258.209465 -133.643537 
L 257.272278 -135.141654 
L 256.301312 -136.639772 
L 255.30536 -138.13789 
L 254.294092 -139.636008 
L 253.277804 -141.134126 
L 252.267157 -142.632244 
L 251.272907 -144.130362 
L 250.305651 -145.62848 
L 249.375585 -147.126598 
L 248.492292 -148.624716 
L 247.664554 -150.122834 
L 246.900208 -151.620952 
L 246.206028 -153.11907 
L 245.587657 -154.617188 
L 245.049567 -156.115306 
L 244.595058 -157.613424 
L 244.226285 -159.111542 
L 243.944316 -160.60966 
L 243.749205 -162.107778 
L 243.640086 -163.605896 
L 243.615273 -165.104014 
L 243.672371 -166.602132 
L 243.808385 -168.100249 
L 244.01983 -169.598367 
L 244.302833 -171.096485 
L 244.653226 -172.594603 
L 245.066642 -174.092721 
L 245.53858 -175.590839 
L 246.064479 -177.088957 
L 246.639765 -178.587075 
L 247.259896 -180.085193 
L 247.920389 -181.583311 
L 248.616841 -183.081429 
L 249.344929 -184.579547 
L 250.100414 -186.077665 
L 250.879127 -187.575783 
L 251.676953 -189.073901 
L 252.489808 -190.572019 
L 253.313623 -192.070137 
L 254.144322 -193.568255 
L 254.977813 -195.066373 
L 255.809981 -196.564491 
L 256.636705 -198.062609 
L 257.453878 -199.560727 
L 258.257448 -201.058844 
L 259.043485 -202.556962 
L 259.808244 -204.05508 
L 260.548262 -205.553198 
L 261.260456 -207.051316 
L 261.942222 -208.549434 
L 262.591546 -210.047552 
L 263.207094 -211.54567 
L 263.788297 -213.043788 
L 264.335413 -214.541906 
L 264.849557 -216.040024 
L 265.33271 -217.538142 
L 265.787681 -219.03626 
L 266.218041 -220.534378 
L 266.628019 -222.032496 
L 267.022361 -223.530614 
L 267.406171 -225.028732 
L 267.784721 -226.52685 
L 268.163257 -228.024968 
L 268.546793 -229.523086 
L 268.939922 -231.021204 
L 269.346633 -232.519322 
L 269.77016 -234.017439 
L 270.212859 -235.515557 
L 270.676124 -237.013675 
L 271.160346 -238.511793 
L 293.175654 -238.511793 
L 293.175654 -238.511793 
L 293.659876 -237.013675 
L 294.123141 -235.515557 
L 294.56584 -234.017439 
L 294.989367 -232.519322 
L 295.396078 -231.021204 
L 295.789207 -229.523086 
L 296.172743 -228.024968 
L 296.551279 -226.52685 
L 296.929829 -225.028732 
L 297.313639 -223.530614 
L 297.707981 -222.032496 
L 298.117959 -220.534378 
L 298.548319 -219.03626 
L 299.00329 -217.538142 
L 299.486443 -216.040024 
L 300.000587 -214.541906 
L 300.547703 -213.043788 
L 301.128906 -211.54567 
L 301.744454 -210.047552 
L 302.393778 -208.549434 
L 303.075544 -207.051316 
L 303.787738 -205.553198 
L 304.527756 -204.05508 
L 305.292515 -202.556962 
L 306.078552 -201.058844 
L 306.882122 -199.560727 
L 307.699295 -198.062609 
L 308.526019 -196.564491 
L 309.358187 -195.066373 
L 310.191678 -193.568255 
L 311.022377 -192.070137 
L 311.846192 -190.572019 
L 312.659047 -189.073901 
L 313.456873 -187.575783 
L 314.235586 -186.077665 
L 314.991071 -184.579547 
L 315.719159 -183.081429 
L 316.415611 -181.583311 
L 317.076104 -180.085193 
L 317.696235 -178.587075 
L 318.271521 -177.088957 
L 318.79742 -175.590839 
L 319.269358 -174.092721 
L 319.682774 -172.594603 
L 320.033167 -171.096485 
L 320.31617 -169.598367 
L 320.527615 -168.100249 
L 320.663629 -166.602132 
L 320.720727 -165.104014 
L 320.695914 -163.605896 
L 320.586795 -162.107778 
L 320.391684 -160.60966 
L 320.109715 -159.111542 
L 319.740942 -157.613424 
L 319.286433 -156.115306 
L 318.748343 -154.617188 
L 318.129972 -153.11907 
L 317.435792 -151.620952 
L 316.671446 -150.122834 
L 315.843708 -148.624716 
L 314.960415 -147.126598 
L 314.030349 -145.62848 
L 313.063093 -144.130362 
L 312.068843 -142.632244 
L 311.058196 -141.134126 
L 310.041908 -139.636008 
L 309.03064 -138.13789 
L 308.034688 -136.639772 
L 307.063722 -135.141654 
L 306.126535 -133.643537 
L 305.23081 -132.145419 
L 304.382917 -130.647301 
L 303.587761 -129.149183 
L 302.848659 -127.651065 
L 302.167284 -126.152947 
L 301.543651 -124.654829 
L 300.976167 -123.156711 
L 300.461731 -121.658593 
L 299.995875 -120.160475 
L 299.572964 -118.662357 
L 299.186414 -117.164239 
L 298.828947 -115.666121 
L 298.49286 -114.168003 
L 298.170292 -112.669885 
L 297.853499 -111.171767 
L 297.535099 -109.673649 
L 297.208309 -108.175531 
L 296.867137 -106.677413 
L 296.506545 -105.179295 
L 296.12257 -103.681177 
L 295.712395 -102.183059 
L 295.27439 -100.684941 
L 294.808092 -99.186824 
L 294.314164 -97.688706 
L 293.794306 -96.190588 
L 293.251142 -94.69247 
L 292.688086 -93.194352 
L 292.109185 -91.696234 
L 291.51896 -90.198116 
z
" style="stroke: #ffffff; stroke-opacity: 0.38"/>
    </defs>
    <g clip-path="url(#pc0c4279151)">
     <use xlink:href="#m8133743ae5" x="0" y="330.949969" style="fill: #e69f00; fill-opacity: 0.38; stroke: #ffffff; stroke-opacity: 0.38"/>
    </g>
   </g>
   <g id="PolyCollection_3">
    <defs>
     <path id="madad9d66d3" d="M 440.436927 -90.144 
L 432.320892 -90.144 
L 432.001207 -92.238545 
L 431.677805 -94.333091 
L 431.349726 -96.427636 
L 431.015218 -98.522182 
L 430.671768 -100.616727 
L 430.316153 -102.711273 
L 429.944536 -104.805818 
L 429.552567 -106.900364 
L 429.135497 -108.994909 
L 428.688307 -111.089455 
L 428.20582 -113.184 
L 427.682822 -115.278545 
L 427.114172 -117.373091 
L 426.494914 -119.467636 
L 425.820385 -121.562182 
L 425.086337 -123.656727 
L 424.289062 -125.751273 
L 423.425535 -127.845818 
L 422.49357 -129.940364 
L 421.491993 -132.034909 
L 420.420832 -134.129455 
L 419.281505 -136.224 
L 418.077014 -138.318545 
L 416.812117 -140.413091 
L 415.493474 -142.507636 
L 414.129737 -144.602182 
L 412.731576 -146.696727 
L 411.311618 -148.791273 
L 409.884281 -150.885818 
L 408.465507 -152.980364 
L 407.072379 -155.074909 
L 405.722644 -157.169455 
L 404.434154 -159.264 
L 403.224265 -161.358545 
L 402.109225 -163.453091 
L 401.103595 -165.547636 
L 400.219751 -167.642182 
L 399.467499 -169.736727 
L 398.853833 -171.831273 
L 398.382854 -173.925818 
L 398.055844 -176.020364 
L 397.871483 -178.114909 
L 397.826182 -180.209455 
L 397.914481 -182.304 
L 398.129491 -184.398545 
L 398.463311 -186.493091 
L 398.907408 -188.587636 
L 399.452922 -190.682182 
L 400.090888 -192.776727 
L 400.812377 -194.871273 
L 401.608575 -196.965818 
L 402.470809 -199.060364 
L 403.390564 -201.154909 
L 404.359501 -203.249455 
L 405.369506 -205.344 
L 406.412775 -207.438545 
L 407.481926 -209.533091 
L 408.570151 -211.627636 
L 409.671363 -213.722182 
L 410.780323 -215.816727 
L 411.892736 -217.911273 
L 413.005268 -220.005818 
L 414.115504 -222.100364 
L 415.221811 -224.194909 
L 416.323141 -226.289455 
L 417.418781 -228.384 
L 418.508066 -230.478545 
L 419.590107 -232.573091 
L 420.663534 -234.667636 
L 421.726307 -236.762182 
L 422.77559 -238.856727 
L 423.807713 -240.951273 
L 424.818217 -243.045818 
L 425.801972 -245.140364 
L 426.753357 -247.234909 
L 427.666487 -249.329455 
L 428.53546 -251.424 
L 429.354608 -253.518545 
L 430.118739 -255.613091 
L 430.823357 -257.707636 
L 431.464847 -259.802182 
L 432.040621 -261.896727 
L 432.549231 -263.991273 
L 432.99044 -266.085818 
L 433.365255 -268.180364 
L 433.675921 -270.274909 
L 433.925885 -272.369455 
L 434.119709 -274.464 
L 434.262961 -276.558545 
L 434.362058 -278.653091 
L 434.424075 -280.747636 
L 434.456525 -282.842182 
L 434.467109 -284.936727 
L 434.463455 -287.031273 
L 434.452846 -289.125818 
L 434.441963 -291.220364 
L 434.436653 -293.314909 
L 434.441734 -295.409455 
L 434.460859 -297.504 
L 438.296959 -297.504 
L 438.296959 -297.504 
L 438.316084 -295.409455 
L 438.321166 -293.314909 
L 438.315855 -291.220364 
L 438.304972 -289.125818 
L 438.294363 -287.031273 
L 438.290709 -284.936727 
L 438.301293 -282.842182 
L 438.333743 -280.747636 
L 438.39576 -278.653091 
L 438.494857 -276.558545 
L 438.638109 -274.464 
L 438.831933 -272.369455 
L 439.081897 -270.274909 
L 439.392564 -268.180364 
L 439.767378 -266.085818 
L 440.208588 -263.991273 
L 440.717198 -261.896727 
L 441.292971 -259.802182 
L 441.934461 -257.707636 
L 442.639079 -255.613091 
L 443.40321 -253.518545 
L 444.222358 -251.424 
L 445.091331 -249.329455 
L 446.004461 -247.234909 
L 446.955847 -245.140364 
L 447.939601 -243.045818 
L 448.950105 -240.951273 
L 449.982228 -238.856727 
L 451.031511 -236.762182 
L 452.094284 -234.667636 
L 453.167711 -232.573091 
L 454.249752 -230.478545 
L 455.339038 -228.384 
L 456.434677 -226.289455 
L 457.536008 -224.194909 
L 458.642314 -222.100364 
L 459.75255 -220.005818 
L 460.865083 -217.911273 
L 461.977495 -215.816727 
L 463.086455 -213.722182 
L 464.187667 -211.627636 
L 465.275892 -209.533091 
L 466.345044 -207.438545 
L 467.388312 -205.344 
L 468.398318 -203.249455 
L 469.367254 -201.154909 
L 470.287009 -199.060364 
L 471.149243 -196.965818 
L 471.945441 -194.871273 
L 472.666931 -192.776727 
L 473.304896 -190.682182 
L 473.85041 -188.587636 
L 474.294507 -186.493091 
L 474.628327 -184.398545 
L 474.843337 -182.304 
L 474.931636 -180.209455 
L 474.886335 -178.114909 
L 474.701975 -176.020364 
L 474.374965 -173.925818 
L 473.903985 -171.831273 
L 473.290319 -169.736727 
L 472.538067 -167.642182 
L 471.654223 -165.547636 
L 470.648593 -163.453091 
L 469.533553 -161.358545 
L 468.323664 -159.264 
L 467.035174 -157.169455 
L 465.685439 -155.074909 
L 464.292311 -152.980364 
L 462.873537 -150.885818 
L 461.446201 -148.791273 
L 460.026242 -146.696727 
L 458.628081 -144.602182 
L 457.264344 -142.507636 
L 455.945701 -140.413091 
L 454.680804 -138.318545 
L 453.476313 -136.224 
L 452.336986 -134.129455 
L 451.265825 -132.034909 
L 450.264248 -129.940364 
L 449.332283 -127.845818 
L 448.468756 -125.751273 
L 447.671481 -123.656727 
L 446.937433 -121.562182 
L 446.262904 -119.467636 
L 445.643646 -117.373091 
L 445.074996 -115.278545 
L 444.551998 -113.184 
L 444.069511 -111.089455 
L 443.622321 -108.994909 
L 443.205251 -106.900364 
L 442.813282 -104.805818 
L 442.441665 -102.711273 
L 442.086051 -100.616727 
L 441.7426 -98.522182 
L 441.408092 -96.427636 
L 441.080013 -94.333091 
L 440.756611 -92.238545 
L 440.436927 -90.144 
z
" style="stroke: #ffffff; stroke-opacity: 0.38"/>
    </defs>
    <g clip-path="url(#pc0c4279151)">
     <use xlink:href="#madad9d66d3" x="0" y="330.949969" style="fill: #cc79a7; fill-opacity: 0.38; stroke: #ffffff; stroke-opacity: 0.38"/>
    </g>
   </g>
   <g id="PathCollection_1">
    <defs>
     <path id="C0_0_4c69e65637" d="M 0 1.870829 
C 0.49615 1.870829 0.972045 1.673706 1.322876 1.322876 
C 1.673706 0.972045 1.870829 0.49615 1.870829 -0 
C 1.870829 -0.49615 1.673706 -0.972045 1.322876 -1.322876 
C 0.972045 -1.673706 0.49615 -1.870829 0 -1.870829 
C -0.49615 -1.870829 -0.972045 -1.673706 -1.322876 -1.322876 
C -1.673706 -0.972045 -1.870829 -0.49615 -1.870829 0 
C -1.870829 0.49615 -1.673706 0.972045 -1.322876 1.322876 
C -0.972045 1.673706 -0.49615 1.870829 0 1.870829 
z
"/>
    </defs>
    <g clip-path="url(#pc0c4279151)">
     <use xlink:href="#C0_0_4c69e65637" x="124.08672" y="212.701878" style="fill: #0072b2; fill-opacity: 0.65"/>
    </g>
    <g clip-path="url(#pc0c4279151)">
     <use xlink:href="#C0_0_4c69e65637" x="131.592689" y="156.357759" style="fill: #0072b2; fill-opacity: 0.65"/>
    </g>
    <g clip-path="url(#pc0c4279151)">
     <use xlink:href="#C0_0_4c69e65637" x="130.36398" y="173.752804" style="fill: #0072b2; fill-opacity: 0.65"/>
    </g>
    <g clip-path="url(#pc0c4279151)">
     <use xlink:href="#C0_0_4c69e65637" x="135.053886" y="172.074298" style="fill: #0072b2; fill-opacity: 0.65"/>
    </g>
    <g clip-path="url(#pc0c4279151)">
     <use xlink:href="#C0_0_4c69e65637" x="129.920073" y="161.405227" style="fill: #0072b2; fill-opacity: 0.65"/>
    </g>
    <g clip-path="url(#pc0c4279151)">
     <use xlink:href="#C0_0_4c69e65637" x="131.759588" y="202.605925" style="fill: #0072b2; fill-opacity: 0.65"/>
    </g>
    <g clip-path="url(#pc0c4279151)">
     <use xlink:href="#C0_0_4c69e65637" x="128.079491" y="156.834942" style="fill: #0072b2; fill-opacity: 0.65"/>
    </g>
    <g clip-path="url(#pc0c4279151)">
     <use xlink:href="#C0_0_4c69e65637" x="139.253079" y="134.488402" style="fill: #0072b2; fill-opacity: 0.65"/>
    </g>
    <g clip-path="url(#pc0c4279151)">
     <use xlink:href="#C0_0_4c69e65637" x="130.934843" y="208.800246" style="fill: #0072b2; fill-opacity: 0.65"/>
    </g>
    <g clip-path="url(#pc0c4279151)">
     <use xlink:href="#C0_0_4c69e65637" x="132.75415" y="202.432724" style="fill: #0072b2; fill-opacity: 0.65"/>
    </g>
    <g clip-path="url(#pc0c4279151)">
     <use xlink:href="#C0_0_4c69e65637" x="120.777828" y="195.725494" style="fill: #0072b2; fill-opacity: 0.65"/>
    </g>
    <g clip-path="url(#pc0c4279151)">
     <use xlink:href="#C0_0_4c69e65637" x="143.853419" y="197.835755" style="fill: #0072b2; fill-opacity: 0.65"/>
    </g>
    <g clip-path="url(#pc0c4279151)">
     <use xlink:href="#C0_0_4c69e65637" x="126.701186" y="185.729577" style="fill: #0072b2; fill-opacity: 0.65"/>
    </g>
    <g clip-path="url(#pc0c4279151)">
     <use xlink:href="#C0_0_4c69e65637" x="115.43913" y="174.055579" style="fill: #0072b2; fill-opacity: 0.65"/>
    </g>
    <g clip-path="url(#pc0c4279151)">
     <use xlink:href="#C0_0_4c69e65637" x="122.962513" y="106.220242" style="fill: #0072b2; fill-opacity: 0.65"/>
    </g>
    <g clip-path="url(#pc0c4279151)">
     <use xlink:href="#C0_0_4c69e65637" x="126.885154" y="211.409554" style="fill: #0072b2; fill-opacity: 0.65"/>
    </g>
    <g clip-path="url(#pc0c4279151)">
     <use xlink:href="#C0_0_4c69e65637" x="137.080361" y="157.338" style="fill: #0072b2; fill-opacity: 0.65"/>
    </g>
    <g clip-path="url(#pc0c4279151)">
     <use xlink:href="#C0_0_4c69e65637" x="133.899071" y="174.107435" style="fill: #0072b2; fill-opacity: 0.65"/>
    </g>
    <g clip-path="url(#pc0c4279151)">
     <use xlink:href="#C0_0_4c69e65637" x="134.014683" y="150.547913" style="fill: #0072b2; fill-opacity: 0.65"/>
    </g>
    <g clip-path="url(#pc0c4279151)">
     <use xlink:href="#C0_0_4c69e65637" x="126.150097" y="182.991696" style="fill: #0072b2; fill-opacity: 0.65"/>
    </g>
    <g clip-path="url(#pc0c4279151)">
     <use xlink:href="#C0_0_4c69e65637" x="124.546377" y="171.794178" style="fill: #0072b2; fill-opacity: 0.65"/>
    </g>
    <g clip-path="url(#pc0c4279151)">
     <use xlink:href="#C0_0_4c69e65637" x="120.47562" y="183.808431" style="fill: #0072b2; fill-opacity: 0.65"/>
    </g>
    <g clip-path="url(#pc0c4279151)">
     <use xlink:href="#C0_0_4c69e65637" x="134.365046" y="153.214471" style="fill: #0072b2; fill-opacity: 0.65"/>
    </g>
    <g clip-path="url(#pc0c4279151)">
     <use xlink:href="#C0_0_4c69e65637" x="125.365785" y="180.067604" style="fill: #0072b2; fill-opacity: 0.65"/>
    </g>
    <g clip-path="url(#pc0c4279151)">
     <use xlink:href="#C0_0_4c69e65637" x="135.47691" y="157.196799" style="fill: #0072b2; fill-opacity: 0.65"/>
    </g>
    <g clip-path="url(#pc0c4279151)">
     <use xlink:href="#C0_0_4c69e65637" x="129.295687" y="180.83236" style="fill: #0072b2; fill-opacity: 0.65"/>
    </g>
    <g clip-path="url(#pc0c4279151)">
     <use xlink:href="#C0_0_4c69e65637" x="130.308329" y="117.963623" style="fill: #0072b2; fill-opacity: 0.65"/>
    </g>
    <g clip-path="url(#pc0c4279151)">
     <use xlink:href="#C0_0_4c69e65637" x="129.820225" y="201.129972" style="fill: #0072b2; fill-opacity: 0.65"/>
    </g>
    <g clip-path="url(#pc0c4279151)">
     <use xlink:href="#C0_0_4c69e65637" x="113.462999" y="219.958301" style="fill: #0072b2; fill-opacity: 0.65"/>
    </g>
    <g clip-path="url(#pc0c4279151)">
     <use xlink:href="#C0_0_4c69e65637" x="127.212706" y="192.878198" style="fill: #0072b2; fill-opacity: 0.65"/>
    </g>
    <g clip-path="url(#pc0c4279151)">
     <use xlink:href="#C0_0_4c69e65637" x="125.928246" y="214.626667" style="fill: #0072b2; fill-opacity: 0.65"/>
    </g>
    <g clip-path="url(#pc0c4279151)">
     <use xlink:href="#C0_0_4c69e65637" x="123.85181" y="218.590987" style="fill: #0072b2; fill-opacity: 0.65"/>
    </g>
    <g clip-path="url(#pc0c4279151)">
     <use xlink:href="#C0_0_4c69e65637" x="122.20879" y="183.59348" style="fill: #0072b2; fill-opacity: 0.65"/>
    </g>
    <g clip-path="url(#pc0c4279151)">
     <use xlink:href="#C0_0_4c69e65637" x="118.734383" y="179.514232" style="fill: #0072b2; fill-opacity: 0.65"/>
    </g>
    <g clip-path="url(#pc0c4279151)">
     <use xlink:href="#C0_0_4c69e65637" x="132.112051" y="212.259736" style="fill: #0072b2; fill-opacity: 0.65"/>
    </g>
    <g clip-path="url(#pc0c4279151)">
     <use xlink:href="#C0_0_4c69e65637" x="138.384831" y="214.258337" style="fill: #0072b2; fill-opacity: 0.65"/>
    </g>
    <g clip-path="url(#pc0c4279151)">
     <use xlink:href="#C0_0_4c69e65637" x="119.209199" y="187.05703" style="fill: #0072b2; fill-opacity: 0.65"/>
    </g>
    <g clip-path="url(#pc0c4279151)">
     <use xlink:href="#C0_0_4c69e65637" x="121.756765" y="183.367599" style="fill: #0072b2; fill-opacity: 0.65"/>
    </g>
    <g clip-path="url(#pc0c4279151)">
     <use xlink:href="#C0_0_4c69e65637" x="127.166963" y="158.491632" style="fill: #0072b2; fill-opacity: 0.65"/>
    </g>
    <g clip-path="url(#pc0c4279151)">
     <use xlink:href="#C0_0_4c69e65637" x="122.764639" y="197.451807" style="fill: #0072b2; fill-opacity: 0.65"/>
    </g>
    <g clip-path="url(#pc0c4279151)">
     <use xlink:href="#C0_0_4c69e65637" x="127.226228" y="197.5444" style="fill: #0072b2; fill-opacity: 0.65"/>
    </g>
    <g clip-path="url(#pc0c4279151)">
     <use xlink:href="#C0_0_4c69e65637" x="124.974477" y="174.964676" style="fill: #0072b2; fill-opacity: 0.65"/>
    </g>
    <g clip-path="url(#pc0c4279151)">
     <use xlink:href="#C0_0_4c69e65637" x="129.349865" y="189.849483" style="fill: #0072b2; fill-opacity: 0.65"/>
    </g>
    <g clip-path="url(#pc0c4279151)">
     <use xlink:href="#C0_0_4c69e65637" x="131.256069" y="217.773951" style="fill: #0072b2; fill-opacity: 0.65"/>
    </g>
    <g clip-path="url(#pc0c4279151)">
     <use xlink:href="#C0_0_4c69e65637" x="132.619781" y="210.925339" style="fill: #0072b2; fill-opacity: 0.65"/>
    </g>
   </g>
   <g id="PathCollection_2">
    <defs>
     <path id="C1_0_8cf45b1c7d" d="M 0 1.870829 
C 0.49615 1.870829 0.972045 1.673706 1.322876 1.322876 
C 1.673706 0.972045 1.870829 0.49615 1.870829 -0 
C 1.870829 -0.49615 1.673706 -0.972045 1.322876 -1.322876 
C 0.972045 -1.673706 0.49615 -1.870829 0 -1.870829 
C -0.49615 -1.870829 -0.972045 -1.673706 -1.322876 -1.322876 
C -1.673706 -0.972045 -1.870829 -0.49615 -1.870829 0 
C -1.870829 0.49615 -1.673706 0.972045 -1.322876 1.322876 
C -0.972045 1.673706 -0.49615 1.870829 0 1.870829 
z
"/>
    </defs>
    <g clip-path="url(#pc0c4279151)">
     <use xlink:href="#C1_0_8cf45b1c7d" x="282.709553" y="136.4569" style="fill: #e69f00; fill-opacity: 0.65"/>
    </g>
    <g clip-path="url(#pc0c4279151)">
     <use xlink:href="#C1_0_8cf45b1c7d" x="273.904674" y="126.322924" style="fill: #e69f00; fill-opacity: 0.65"/>
    </g>
    <g clip-path="url(#pc0c4279151)">
     <use xlink:href="#C1_0_8cf45b1c7d" x="280.334512" y="150.946388" style="fill: #e69f00; fill-opacity: 0.65"/>
    </g>
    <g clip-path="url(#pc0c4279151)">
     <use xlink:href="#C1_0_8cf45b1c7d" x="288.647409" y="132.7728" style="fill: #e69f00; fill-opacity: 0.65"/>
    </g>
    <g clip-path="url(#pc0c4279151)">
     <use xlink:href="#C1_0_8cf45b1c7d" x="282.099096" y="118.35204" style="fill: #e69f00; fill-opacity: 0.65"/>
    </g>
    <g clip-path="url(#pc0c4279151)">
     <use xlink:href="#C1_0_8cf45b1c7d" x="278.394772" y="240.751853" style="fill: #e69f00; fill-opacity: 0.65"/>
    </g>
    <g clip-path="url(#pc0c4279151)">
     <use xlink:href="#C1_0_8cf45b1c7d" x="281.815381" y="132.224331" style="fill: #e69f00; fill-opacity: 0.65"/>
    </g>
    <g clip-path="url(#pc0c4279151)">
     <use xlink:href="#C1_0_8cf45b1c7d" x="281.012664" y="219.994734" style="fill: #e69f00; fill-opacity: 0.65"/>
    </g>
    <g clip-path="url(#pc0c4279151)">
     <use xlink:href="#C1_0_8cf45b1c7d" x="274.893134" y="224.237319" style="fill: #e69f00; fill-opacity: 0.65"/>
    </g>
    <g clip-path="url(#pc0c4279151)">
     <use xlink:href="#C1_0_8cf45b1c7d" x="292.368802" y="182.515112" style="fill: #e69f00; fill-opacity: 0.65"/>
    </g>
    <g clip-path="url(#pc0c4279151)">
     <use xlink:href="#C1_0_8cf45b1c7d" x="283.562351" y="95.407411" style="fill: #e69f00; fill-opacity: 0.65"/>
    </g>
    <g clip-path="url(#pc0c4279151)">
     <use xlink:href="#C1_0_8cf45b1c7d" x="278.15435" y="92.438175" style="fill: #e69f00; fill-opacity: 0.65"/>
    </g>
    <g clip-path="url(#pc0c4279151)">
     <use xlink:href="#C1_0_8cf45b1c7d" x="284.282081" y="157.878747" style="fill: #e69f00; fill-opacity: 0.65"/>
    </g>
    <g clip-path="url(#pc0c4279151)">
     <use xlink:href="#C1_0_8cf45b1c7d" x="271.285204" y="135.150087" style="fill: #e69f00; fill-opacity: 0.65"/>
    </g>
    <g clip-path="url(#pc0c4279151)">
     <use xlink:href="#C1_0_8cf45b1c7d" x="269.098562" y="99.363457" style="fill: #e69f00; fill-opacity: 0.65"/>
    </g>
    <g clip-path="url(#pc0c4279151)">
     <use xlink:href="#C1_0_8cf45b1c7d" x="272.065463" y="151.687379" style="fill: #e69f00; fill-opacity: 0.65"/>
    </g>
    <g clip-path="url(#pc0c4279151)">
     <use xlink:href="#C1_0_8cf45b1c7d" x="292.386876" y="155.577423" style="fill: #e69f00; fill-opacity: 0.65"/>
    </g>
    <g clip-path="url(#pc0c4279151)">
     <use xlink:href="#C1_0_8cf45b1c7d" x="296.88807" y="184.597872" style="fill: #e69f00; fill-opacity: 0.65"/>
    </g>
    <g clip-path="url(#pc0c4279151)">
     <use xlink:href="#C1_0_8cf45b1c7d" x="281.329741" y="165.153653" style="fill: #e69f00; fill-opacity: 0.65"/>
    </g>
    <g clip-path="url(#pc0c4279151)">
     <use xlink:href="#C1_0_8cf45b1c7d" x="292.215631" y="179.247716" style="fill: #e69f00; fill-opacity: 0.65"/>
    </g>
    <g clip-path="url(#pc0c4279151)">
     <use xlink:href="#C1_0_8cf45b1c7d" x="283.408529" y="153.278947" style="fill: #e69f00; fill-opacity: 0.65"/>
    </g>
    <g clip-path="url(#pc0c4279151)">
     <use xlink:href="#C1_0_8cf45b1c7d" x="289.437941" y="213.98982" style="fill: #e69f00; fill-opacity: 0.65"/>
    </g>
    <g clip-path="url(#pc0c4279151)">
     <use xlink:href="#C1_0_8cf45b1c7d" x="287.15993" y="162.339775" style="fill: #e69f00; fill-opacity: 0.65"/>
    </g>
    <g clip-path="url(#pc0c4279151)">
     <use xlink:href="#C1_0_8cf45b1c7d" x="289.223401" y="162.93473" style="fill: #e69f00; fill-opacity: 0.65"/>
    </g>
    <g clip-path="url(#pc0c4279151)">
     <use xlink:href="#C1_0_8cf45b1c7d" x="286.74132" y="98.632935" style="fill: #e69f00; fill-opacity: 0.65"/>
    </g>
    <g clip-path="url(#pc0c4279151)">
     <use xlink:href="#C1_0_8cf45b1c7d" x="276.537542" y="230.349474" style="fill: #e69f00; fill-opacity: 0.65"/>
    </g>
    <g clip-path="url(#pc0c4279151)">
     <use xlink:href="#C1_0_8cf45b1c7d" x="271.775466" y="175.588112" style="fill: #e69f00; fill-opacity: 0.65"/>
    </g>
    <g clip-path="url(#pc0c4279151)">
     <use xlink:href="#C1_0_8cf45b1c7d" x="272.220845" y="153.947169" style="fill: #e69f00; fill-opacity: 0.65"/>
    </g>
    <g clip-path="url(#pc0c4279151)">
     <use xlink:href="#C1_0_8cf45b1c7d" x="286.555405" y="127.767181" style="fill: #e69f00; fill-opacity: 0.65"/>
    </g>
    <g clip-path="url(#pc0c4279151)">
     <use xlink:href="#C1_0_8cf45b1c7d" x="291.020705" y="164.062468" style="fill: #e69f00; fill-opacity: 0.65"/>
    </g>
    <g clip-path="url(#pc0c4279151)">
     <use xlink:href="#C1_0_8cf45b1c7d" x="295.66477" y="220.967418" style="fill: #e69f00; fill-opacity: 0.65"/>
    </g>
    <g clip-path="url(#pc0c4279151)">
     <use xlink:href="#C1_0_8cf45b1c7d" x="264.481961" y="99.575932" style="fill: #e69f00; fill-opacity: 0.65"/>
    </g>
    <g clip-path="url(#pc0c4279151)">
     <use xlink:href="#C1_0_8cf45b1c7d" x="277.139951" y="182.997447" style="fill: #e69f00; fill-opacity: 0.65"/>
    </g>
    <g clip-path="url(#pc0c4279151)">
     <use xlink:href="#C1_0_8cf45b1c7d" x="285.15275" y="146.915167" style="fill: #e69f00; fill-opacity: 0.65"/>
    </g>
    <g clip-path="url(#pc0c4279151)">
     <use xlink:href="#C1_0_8cf45b1c7d" x="282.697231" y="184.865867" style="fill: #e69f00; fill-opacity: 0.65"/>
    </g>
    <g clip-path="url(#pc0c4279151)">
     <use xlink:href="#C1_0_8cf45b1c7d" x="271.889171" y="187.644418" style="fill: #e69f00; fill-opacity: 0.65"/>
    </g>
    <g clip-path="url(#pc0c4279151)">
     <use xlink:href="#C1_0_8cf45b1c7d" x="270.632644" y="173.522958" style="fill: #e69f00; fill-opacity: 0.65"/>
    </g>
    <g clip-path="url(#pc0c4279151)">
     <use xlink:href="#C1_0_8cf45b1c7d" x="281.085251" y="201.529891" style="fill: #e69f00; fill-opacity: 0.65"/>
    </g>
    <g clip-path="url(#pc0c4279151)">
     <use xlink:href="#C1_0_8cf45b1c7d" x="263.14775" y="230.086858" style="fill: #e69f00; fill-opacity: 0.65"/>
    </g>
    <g clip-path="url(#pc0c4279151)">
     <use xlink:href="#C1_0_8cf45b1c7d" x="275.926073" y="173.436695" style="fill: #e69f00; fill-opacity: 0.65"/>
    </g>
    <g clip-path="url(#pc0c4279151)">
     <use xlink:href="#C1_0_8cf45b1c7d" x="276.008544" y="185.402739" style="fill: #e69f00; fill-opacity: 0.65"/>
    </g>
    <g clip-path="url(#pc0c4279151)">
     <use xlink:href="#C1_0_8cf45b1c7d" x="297.290352" y="192.98402" style="fill: #e69f00; fill-opacity: 0.65"/>
    </g>
    <g clip-path="url(#pc0c4279151)">
     <use xlink:href="#C1_0_8cf45b1c7d" x="276.767443" y="171.595251" style="fill: #e69f00; fill-opacity: 0.65"/>
    </g>
    <g clip-path="url(#pc0c4279151)">
     <use xlink:href="#C1_0_8cf45b1c7d" x="289.708351" y="170.880624" style="fill: #e69f00; fill-opacity: 0.65"/>
    </g>
    <g clip-path="url(#pc0c4279151)">
     <use xlink:href="#C1_0_8cf45b1c7d" x="278.581515" y="143.748048" style="fill: #e69f00; fill-opacity: 0.65"/>
    </g>
   </g>
   <g id="PathCollection_3">
    <defs>
     <path id="C2_0_08da3bae2e" d="M 0 1.870829 
C 0.49615 1.870829 0.972045 1.673706 1.322876 1.322876 
C 1.673706 0.972045 1.870829 0.49615 1.870829 -0 
C 1.870829 -0.49615 1.673706 -0.972045 1.322876 -1.322876 
C 0.972045 -1.673706 0.49615 -1.870829 0 -1.870829 
C -0.49615 -1.870829 -0.972045 -1.673706 -1.322876 -1.322876 
C -1.673706 -0.972045 -1.870829 -0.49615 -1.870829 0 
C -1.870829 0.49615 -1.673706 0.972045 -1.322876 1.322876 
C -0.972045 1.673706 -0.49615 1.870829 0 1.870829 
z
"/>
    </defs>
    <g clip-path="url(#pc0c4279151)">
     <use xlink:href="#C2_0_08da3bae2e" x="431.674433" y="147.108941" style="fill: #cc79a7; fill-opacity: 0.65"/>
    </g>
    <g clip-path="url(#pc0c4279151)">
     <use xlink:href="#C2_0_08da3bae2e" x="424.892155" y="92.004603" style="fill: #cc79a7; fill-opacity: 0.65"/>
    </g>
    <g clip-path="url(#pc0c4279151)">
     <use xlink:href="#C2_0_08da3bae2e" x="443.947043" y="121.684888" style="fill: #cc79a7; fill-opacity: 0.65"/>
    </g>
    <g clip-path="url(#pc0c4279151)">
     <use xlink:href="#C2_0_08da3bae2e" x="435.707822" y="98.146679" style="fill: #cc79a7; fill-opacity: 0.65"/>
    </g>
    <g clip-path="url(#pc0c4279151)">
     <use xlink:href="#C2_0_08da3bae2e" x="432.782301" y="102.959114" style="fill: #cc79a7; fill-opacity: 0.65"/>
    </g>
    <g clip-path="url(#pc0c4279151)">
     <use xlink:href="#C2_0_08da3bae2e" x="434.543957" y="240.805969" style="fill: #cc79a7; fill-opacity: 0.65"/>
    </g>
    <g clip-path="url(#pc0c4279151)">
     <use xlink:href="#C2_0_08da3bae2e" x="430.595439" y="170.114125" style="fill: #cc79a7; fill-opacity: 0.65"/>
    </g>
    <g clip-path="url(#pc0c4279151)">
     <use xlink:href="#C2_0_08da3bae2e" x="433.785359" y="136.697494" style="fill: #cc79a7; fill-opacity: 0.65"/>
    </g>
    <g clip-path="url(#pc0c4279151)">
     <use xlink:href="#C2_0_08da3bae2e" x="438.221399" y="160.531181" style="fill: #cc79a7; fill-opacity: 0.65"/>
    </g>
    <g clip-path="url(#pc0c4279151)">
     <use xlink:href="#C2_0_08da3bae2e" x="436.387572" y="157.111595" style="fill: #cc79a7; fill-opacity: 0.65"/>
    </g>
    <g clip-path="url(#pc0c4279151)">
     <use xlink:href="#C2_0_08da3bae2e" x="425.872969" y="33.445969" style="fill: #cc79a7; fill-opacity: 0.65"/>
    </g>
    <g clip-path="url(#pc0c4279151)">
     <use xlink:href="#C2_0_08da3bae2e" x="441.91206" y="192.254758" style="fill: #cc79a7; fill-opacity: 0.65"/>
    </g>
    <g clip-path="url(#pc0c4279151)">
     <use xlink:href="#C2_0_08da3bae2e" x="431.705216" y="135.821006" style="fill: #cc79a7; fill-opacity: 0.65"/>
    </g>
    <g clip-path="url(#pc0c4279151)">
     <use xlink:href="#C2_0_08da3bae2e" x="435.098784" y="185.67653" style="fill: #cc79a7; fill-opacity: 0.65"/>
    </g>
    <g clip-path="url(#pc0c4279151)">
     <use xlink:href="#C2_0_08da3bae2e" x="430.891461" y="189.068393" style="fill: #cc79a7; fill-opacity: 0.65"/>
    </g>
    <g clip-path="url(#pc0c4279151)">
     <use xlink:href="#C2_0_08da3bae2e" x="426.841418" y="102.686693" style="fill: #cc79a7; fill-opacity: 0.65"/>
    </g>
    <g clip-path="url(#pc0c4279151)">
     <use xlink:href="#C2_0_08da3bae2e" x="451.490876" y="149.310804" style="fill: #cc79a7; fill-opacity: 0.65"/>
    </g>
    <g clip-path="url(#pc0c4279151)">
     <use xlink:href="#C2_0_08da3bae2e" x="432.082808" y="176.542528" style="fill: #cc79a7; fill-opacity: 0.65"/>
    </g>
    <g clip-path="url(#pc0c4279151)">
     <use xlink:href="#C2_0_08da3bae2e" x="437.756671" y="144.866056" style="fill: #cc79a7; fill-opacity: 0.65"/>
    </g>
    <g clip-path="url(#pc0c4279151)">
     <use xlink:href="#C2_0_08da3bae2e" x="434.935731" y="149.415811" style="fill: #cc79a7; fill-opacity: 0.65"/>
    </g>
    <g clip-path="url(#pc0c4279151)">
     <use xlink:href="#C2_0_08da3bae2e" x="438.231071" y="121.080103" style="fill: #cc79a7; fill-opacity: 0.65"/>
    </g>
    <g clip-path="url(#pc0c4279151)">
     <use xlink:href="#C2_0_08da3bae2e" x="436.276443" y="134.721798" style="fill: #cc79a7; fill-opacity: 0.65"/>
    </g>
    <g clip-path="url(#pc0c4279151)">
     <use xlink:href="#C2_0_08da3bae2e" x="442.409475" y="175.833076" style="fill: #cc79a7; fill-opacity: 0.65"/>
    </g>
    <g clip-path="url(#pc0c4279151)">
     <use xlink:href="#C2_0_08da3bae2e" x="433.827216" y="226.452144" style="fill: #cc79a7; fill-opacity: 0.65"/>
    </g>
    <g clip-path="url(#pc0c4279151)">
     <use xlink:href="#C2_0_08da3bae2e" x="434.042087" y="184.873441" style="fill: #cc79a7; fill-opacity: 0.65"/>
    </g>
    <g clip-path="url(#pc0c4279151)">
     <use xlink:href="#C2_0_08da3bae2e" x="440.436889" y="166.642264" style="fill: #cc79a7; fill-opacity: 0.65"/>
    </g>
    <g clip-path="url(#pc0c4279151)">
     <use xlink:href="#C2_0_08da3bae2e" x="442.275794" y="154.211933" style="fill: #cc79a7; fill-opacity: 0.65"/>
    </g>
    <g clip-path="url(#pc0c4279151)">
     <use xlink:href="#C2_0_08da3bae2e" x="445.201489" y="147.312342" style="fill: #cc79a7; fill-opacity: 0.65"/>
    </g>
    <g clip-path="url(#pc0c4279151)">
     <use xlink:href="#C2_0_08da3bae2e" x="431.431554" y="163.028011" style="fill: #cc79a7; fill-opacity: 0.65"/>
    </g>
    <g clip-path="url(#pc0c4279151)">
     <use xlink:href="#C2_0_08da3bae2e" x="442.698033" y="207.322352" style="fill: #cc79a7; fill-opacity: 0.65"/>
    </g>
    <g clip-path="url(#pc0c4279151)">
     <use xlink:href="#C2_0_08da3bae2e" x="425.265809" y="128.419661" style="fill: #cc79a7; fill-opacity: 0.65"/>
    </g>
    <g clip-path="url(#pc0c4279151)">
     <use xlink:href="#C2_0_08da3bae2e" x="437.003661" y="159.764178" style="fill: #cc79a7; fill-opacity: 0.65"/>
    </g>
    <g clip-path="url(#pc0c4279151)">
     <use xlink:href="#C2_0_08da3bae2e" x="435.83058" y="165.910781" style="fill: #cc79a7; fill-opacity: 0.65"/>
    </g>
    <g clip-path="url(#pc0c4279151)">
     <use xlink:href="#C2_0_08da3bae2e" x="439.771362" y="168.199851" style="fill: #cc79a7; fill-opacity: 0.65"/>
    </g>
    <g clip-path="url(#pc0c4279151)">
     <use xlink:href="#C2_0_08da3bae2e" x="454.510752" y="119.713071" style="fill: #cc79a7; fill-opacity: 0.65"/>
    </g>
    <g clip-path="url(#pc0c4279151)">
     <use xlink:href="#C2_0_08da3bae2e" x="425.022986" y="127.974703" style="fill: #cc79a7; fill-opacity: 0.65"/>
    </g>
    <g clip-path="url(#pc0c4279151)">
     <use xlink:href="#C2_0_08da3bae2e" x="438.32734" y="127.161536" style="fill: #cc79a7; fill-opacity: 0.65"/>
    </g>
    <g clip-path="url(#pc0c4279151)">
     <use xlink:href="#C2_0_08da3bae2e" x="438.032208" y="160.899922" style="fill: #cc79a7; fill-opacity: 0.65"/>
    </g>
    <g clip-path="url(#pc0c4279151)">
     <use xlink:href="#C2_0_08da3bae2e" x="439.367757" y="80.34874" style="fill: #cc79a7; fill-opacity: 0.65"/>
    </g>
    <g clip-path="url(#pc0c4279151)">
     <use xlink:href="#C2_0_08da3bae2e" x="429.073796" y="139.401385" style="fill: #cc79a7; fill-opacity: 0.65"/>
    </g>
    <g clip-path="url(#pc0c4279151)">
     <use xlink:href="#C2_0_08da3bae2e" x="434.022837" y="103.716645" style="fill: #cc79a7; fill-opacity: 0.65"/>
    </g>
    <g clip-path="url(#pc0c4279151)">
     <use xlink:href="#C2_0_08da3bae2e" x="430.909386" y="159.47819" style="fill: #cc79a7; fill-opacity: 0.65"/>
    </g>
    <g clip-path="url(#pc0c4279151)">
     <use xlink:href="#C2_0_08da3bae2e" x="441.393935" y="113.383341" style="fill: #cc79a7; fill-opacity: 0.65"/>
    </g>
    <g clip-path="url(#pc0c4279151)">
     <use xlink:href="#C2_0_08da3bae2e" x="430.715577" y="134.139218" style="fill: #cc79a7; fill-opacity: 0.65"/>
    </g>
    <g clip-path="url(#pc0c4279151)">
     <use xlink:href="#C2_0_08da3bae2e" x="447.03511" y="209.112644" style="fill: #cc79a7; fill-opacity: 0.65"/>
    </g>
   </g>
   <g id="matplotlib.axis_1">
    <g id="xtick_1">
     <g id="line2d_1">
      <path d="M 127.957091 251.173969 
L 127.957091 23.077969 
" clip-path="url(#pc0c4279151)" style="fill: none; stroke: #d9dedb; stroke-opacity: 0.85; stroke-width: 0.8; stroke-linecap: square"/>
     </g>
     <g id="line2d_2"/>
     <g id="text_1">
      <!-- 20-39 years -->
      <g style="fill: #56636f" transform="translate(98.078966 262.272406) scale(0.1 -0.1)">
       <defs>
        <path id="DejaVuSans-32" d="M 1228 531 
L 3431 531 
L 3431 0 
L 469 0 
L 469 531 
Q 828 903 1448 1529 
Q 2069 2156 2228 2338 
Q 2531 2678 2651 2914 
Q 2772 3150 2772 3378 
Q 2772 3750 2511 3984 
Q 2250 4219 1831 4219 
Q 1534 4219 1204 4116 
Q 875 4013 500 3803 
L 500 4441 
Q 881 4594 1212 4672 
Q 1544 4750 1819 4750 
Q 2544 4750 2975 4387 
Q 3406 4025 3406 3419 
Q 3406 3131 3298 2873 
Q 3191 2616 2906 2266 
Q 2828 2175 2409 1742 
Q 1991 1309 1228 531 
z
" transform="scale(0.015625)"/>
        <path id="DejaVuSans-30" d="M 2034 4250 
Q 1547 4250 1301 3770 
Q 1056 3291 1056 2328 
Q 1056 1369 1301 889 
Q 1547 409 2034 409 
Q 2525 409 2770 889 
Q 3016 1369 3016 2328 
Q 3016 3291 2770 3770 
Q 2525 4250 2034 4250 
z
M 2034 4750 
Q 2819 4750 3233 4129 
Q 3647 3509 3647 2328 
Q 3647 1150 3233 529 
Q 2819 -91 2034 -91 
Q 1250 -91 836 529 
Q 422 1150 422 2328 
Q 422 3509 836 4129 
Q 1250 4750 2034 4750 
z
" transform="scale(0.015625)"/>
        <path id="DejaVuSans-2d" d="M 313 2009 
L 1997 2009 
L 1997 1497 
L 313 1497 
L 313 2009 
z
" transform="scale(0.015625)"/>
        <path id="DejaVuSans-33" d="M 2597 2516 
Q 3050 2419 3304 2112 
Q 3559 1806 3559 1356 
Q 3559 666 3084 287 
Q 2609 -91 1734 -91 
Q 1441 -91 1130 -33 
Q 819 25 488 141 
L 488 750 
Q 750 597 1062 519 
Q 1375 441 1716 441 
Q 2309 441 2620 675 
Q 2931 909 2931 1356 
Q 2931 1769 2642 2001 
Q 2353 2234 1838 2234 
L 1294 2234 
L 1294 2753 
L 1863 2753 
Q 2328 2753 2575 2939 
Q 2822 3125 2822 3475 
Q 2822 3834 2567 4026 
Q 2313 4219 1838 4219 
Q 1578 4219 1281 4162 
Q 984 4106 628 3988 
L 628 4550 
Q 988 4650 1302 4700 
Q 1616 4750 1894 4750 
Q 2613 4750 3031 4423 
Q 3450 4097 3450 3541 
Q 3450 3153 3228 2886 
Q 3006 2619 2597 2516 
z
" transform="scale(0.015625)"/>
        <path id="DejaVuSans-39" d="M 703 97 
L 703 672 
Q 941 559 1184 500 
Q 1428 441 1663 441 
Q 2288 441 2617 861 
Q 2947 1281 2994 2138 
Q 2813 1869 2534 1725 
Q 2256 1581 1919 1581 
Q 1219 1581 811 2004 
Q 403 2428 403 3163 
Q 403 3881 828 4315 
Q 1253 4750 1959 4750 
Q 2769 4750 3195 4129 
Q 3622 3509 3622 2328 
Q 3622 1225 3098 567 
Q 2575 -91 1691 -91 
Q 1453 -91 1209 -44 
Q 966 3 703 97 
z
M 1959 2075 
Q 2384 2075 2632 2365 
Q 2881 2656 2881 3163 
Q 2881 3666 2632 3958 
Q 2384 4250 1959 4250 
Q 1534 4250 1286 3958 
Q 1038 3666 1038 3163 
Q 1038 2656 1286 2365 
Q 1534 2075 1959 2075 
z
" transform="scale(0.015625)"/>
        <path id="DejaVuSans-20" transform="scale(0.015625)"/>
        <path id="DejaVuSans-79" d="M 2059 -325 
Q 1816 -950 1584 -1140 
Q 1353 -1331 966 -1331 
L 506 -1331 
L 506 -850 
L 844 -850 
Q 1081 -850 1212 -737 
Q 1344 -625 1503 -206 
L 1606 56 
L 191 3500 
L 800 3500 
L 1894 763 
L 2988 3500 
L 3597 3500 
L 2059 -325 
z
" transform="scale(0.015625)"/>
        <path id="DejaVuSans-65" d="M 3597 1894 
L 3597 1613 
L 953 1613 
Q 991 1019 1311 708 
Q 1631 397 2203 397 
Q 2534 397 2845 478 
Q 3156 559 3463 722 
L 3463 178 
Q 3153 47 2828 -22 
Q 2503 -91 2169 -91 
Q 1331 -91 842 396 
Q 353 884 353 1716 
Q 353 2575 817 3079 
Q 1281 3584 2069 3584 
Q 2775 3584 3186 3129 
Q 3597 2675 3597 1894 
z
M 3022 2063 
Q 3016 2534 2758 2815 
Q 2500 3097 2075 3097 
Q 1594 3097 1305 2825 
Q 1016 2553 972 2059 
L 3022 2063 
z
" transform="scale(0.015625)"/>
        <path id="DejaVuSans-61" d="M 2194 1759 
Q 1497 1759 1228 1600 
Q 959 1441 959 1056 
Q 959 750 1161 570 
Q 1363 391 1709 391 
Q 2188 391 2477 730 
Q 2766 1069 2766 1631 
L 2766 1759 
L 2194 1759 
z
M 3341 1997 
L 3341 0 
L 2766 0 
L 2766 531 
Q 2569 213 2275 61 
Q 1981 -91 1556 -91 
Q 1019 -91 701 211 
Q 384 513 384 1019 
Q 384 1609 779 1909 
Q 1175 2209 1959 2209 
L 2766 2209 
L 2766 2266 
Q 2766 2663 2505 2880 
Q 2244 3097 1772 3097 
Q 1472 3097 1187 3025 
Q 903 2953 641 2809 
L 641 3341 
Q 956 3463 1253 3523 
Q 1550 3584 1831 3584 
Q 2591 3584 2966 3190 
Q 3341 2797 3341 1997 
z
" transform="scale(0.015625)"/>
        <path id="DejaVuSans-72" d="M 2631 2963 
Q 2534 3019 2420 3045 
Q 2306 3072 2169 3072 
Q 1681 3072 1420 2755 
Q 1159 2438 1159 1844 
L 1159 0 
L 581 0 
L 581 3500 
L 1159 3500 
L 1159 2956 
Q 1341 3275 1631 3429 
Q 1922 3584 2338 3584 
Q 2397 3584 2469 3576 
Q 2541 3569 2628 3553 
L 2631 2963 
z
" transform="scale(0.015625)"/>
        <path id="DejaVuSans-73" d="M 2834 3397 
L 2834 2853 
Q 2591 2978 2328 3040 
Q 2066 3103 1784 3103 
Q 1356 3103 1142 2972 
Q 928 2841 928 2578 
Q 928 2378 1081 2264 
Q 1234 2150 1697 2047 
L 1894 2003 
Q 2506 1872 2764 1633 
Q 3022 1394 3022 966 
Q 3022 478 2636 193 
Q 2250 -91 1575 -91 
Q 1294 -91 989 -36 
Q 684 19 347 128 
L 347 722 
Q 666 556 975 473 
Q 1284 391 1588 391 
Q 1994 391 2212 530 
Q 2431 669 2431 922 
Q 2431 1156 2273 1281 
Q 2116 1406 1581 1522 
L 1381 1569 
Q 847 1681 609 1914 
Q 372 2147 372 2553 
Q 372 3047 722 3315 
Q 1072 3584 1716 3584 
Q 2034 3584 2315 3537 
Q 2597 3491 2834 3397 
z
" transform="scale(0.015625)"/>
       </defs>
       <use xlink:href="#DejaVuSans-32"/>
       <use xlink:href="#DejaVuSans-30" x="63.623047"/>
       <use xlink:href="#DejaVuSans-2d" x="127.246094"/>
       <use xlink:href="#DejaVuSans-33" x="163.330078"/>
       <use xlink:href="#DejaVuSans-39" x="226.953125"/>
       <use xlink:href="#DejaVuSans-20" x="290.576172"/>
       <use xlink:href="#DejaVuSans-79" x="322.363281"/>
       <use xlink:href="#DejaVuSans-65" x="381.542969"/>
       <use xlink:href="#DejaVuSans-61" x="443.066406"/>
       <use xlink:href="#DejaVuSans-72" x="504.345703"/>
       <use xlink:href="#DejaVuSans-73" x="545.458984"/>
      </g>
     </g>
    </g>
    <g id="xtick_2">
     <g id="line2d_3">
      <path d="M 282.168 251.173969 
L 282.168 23.077969 
" clip-path="url(#pc0c4279151)" style="fill: none; stroke: #d9dedb; stroke-opacity: 0.85; stroke-width: 0.8; stroke-linecap: square"/>
     </g>
     <g id="line2d_4"/>
     <g id="text_2">
      <!-- 40-59 years -->
      <g style="fill: #56636f" transform="translate(252.289875 262.272406) scale(0.1 -0.1)">
       <defs>
        <path id="DejaVuSans-34" d="M 2419 4116 
L 825 1625 
L 2419 1625 
L 2419 4116 
z
M 2253 4666 
L 3047 4666 
L 3047 1625 
L 3713 1625 
L 3713 1100 
L 3047 1100 
L 3047 0 
L 2419 0 
L 2419 1100 
L 313 1100 
L 313 1709 
L 2253 4666 
z
" transform="scale(0.015625)"/>
        <path id="DejaVuSans-35" d="M 691 4666 
L 3169 4666 
L 3169 4134 
L 1269 4134 
L 1269 2991 
Q 1406 3038 1543 3061 
Q 1681 3084 1819 3084 
Q 2600 3084 3056 2656 
Q 3513 2228 3513 1497 
Q 3513 744 3044 326 
Q 2575 -91 1722 -91 
Q 1428 -91 1123 -41 
Q 819 9 494 109 
L 494 744 
Q 775 591 1075 516 
Q 1375 441 1709 441 
Q 2250 441 2565 725 
Q 2881 1009 2881 1497 
Q 2881 1984 2565 2268 
Q 2250 2553 1709 2553 
Q 1456 2553 1204 2497 
Q 953 2441 691 2322 
L 691 4666 
z
" transform="scale(0.015625)"/>
       </defs>
       <use xlink:href="#DejaVuSans-34"/>
       <use xlink:href="#DejaVuSans-30" x="63.623047"/>
       <use xlink:href="#DejaVuSans-2d" x="127.246094"/>
       <use xlink:href="#DejaVuSans-35" x="163.330078"/>
       <use xlink:href="#DejaVuSans-39" x="226.953125"/>
       <use xlink:href="#DejaVuSans-20" x="290.576172"/>
       <use xlink:href="#DejaVuSans-79" x="322.363281"/>
       <use xlink:href="#DejaVuSans-65" x="381.542969"/>
       <use xlink:href="#DejaVuSans-61" x="443.066406"/>
       <use xlink:href="#DejaVuSans-72" x="504.345703"/>
       <use xlink:href="#DejaVuSans-73" x="545.458984"/>
      </g>
     </g>
    </g>
    <g id="xtick_3">
     <g id="line2d_5">
      <path d="M 436.378909 251.173969 
L 436.378909 23.077969 
" clip-path="url(#pc0c4279151)" style="fill: none; stroke: #d9dedb; stroke-opacity: 0.85; stroke-width: 0.8; stroke-linecap: square"/>
     </g>
     <g id="line2d_6"/>
     <g id="text_3">
      <!-- 60+ years -->
      <g style="fill: #56636f" transform="translate(410.477347 262.272406) scale(0.1 -0.1)">
       <defs>
        <path id="DejaVuSans-36" d="M 2113 2584 
Q 1688 2584 1439 2293 
Q 1191 2003 1191 1497 
Q 1191 994 1439 701 
Q 1688 409 2113 409 
Q 2538 409 2786 701 
Q 3034 994 3034 1497 
Q 3034 2003 2786 2293 
Q 2538 2584 2113 2584 
z
M 3366 4563 
L 3366 3988 
Q 3128 4100 2886 4159 
Q 2644 4219 2406 4219 
Q 1781 4219 1451 3797 
Q 1122 3375 1075 2522 
Q 1259 2794 1537 2939 
Q 1816 3084 2150 3084 
Q 2853 3084 3261 2657 
Q 3669 2231 3669 1497 
Q 3669 778 3244 343 
Q 2819 -91 2113 -91 
Q 1303 -91 875 529 
Q 447 1150 447 2328 
Q 447 3434 972 4092 
Q 1497 4750 2381 4750 
Q 2619 4750 2861 4703 
Q 3103 4656 3366 4563 
z
" transform="scale(0.015625)"/>
        <path id="DejaVuSans-2b" d="M 2944 4013 
L 2944 2272 
L 4684 2272 
L 4684 1741 
L 2944 1741 
L 2944 0 
L 2419 0 
L 2419 1741 
L 678 1741 
L 678 2272 
L 2419 2272 
L 2419 4013 
L 2944 4013 
z
" transform="scale(0.015625)"/>
       </defs>
       <use xlink:href="#DejaVuSans-36"/>
       <use xlink:href="#DejaVuSans-30" x="63.623047"/>
       <use xlink:href="#DejaVuSans-2b" x="127.246094"/>
       <use xlink:href="#DejaVuSans-20" x="211.035156"/>
       <use xlink:href="#DejaVuSans-79" x="242.822266"/>
       <use xlink:href="#DejaVuSans-65" x="302.001953"/>
       <use xlink:href="#DejaVuSans-61" x="363.525391"/>
       <use xlink:href="#DejaVuSans-72" x="424.804688"/>
       <use xlink:href="#DejaVuSans-73" x="465.917969"/>
      </g>
     </g>
    </g>
    <g id="text_4">
     <!-- Age group -->
     <g style="fill: #17212b" transform="translate(256.388312 275.950531) scale(0.1 -0.1)">
      <defs>
       <path id="DejaVuSans-41" d="M 2188 4044 
L 1331 1722 
L 3047 1722 
L 2188 4044 
z
M 1831 4666 
L 2547 4666 
L 4325 0 
L 3669 0 
L 3244 1197 
L 1141 1197 
L 716 0 
L 50 0 
L 1831 4666 
z
" transform="scale(0.015625)"/>
       <path id="DejaVuSans-67" d="M 2906 1791 
Q 2906 2416 2648 2759 
Q 2391 3103 1925 3103 
Q 1463 3103 1205 2759 
Q 947 2416 947 1791 
Q 947 1169 1205 825 
Q 1463 481 1925 481 
Q 2391 481 2648 825 
Q 2906 1169 2906 1791 
z
M 3481 434 
Q 3481 -459 3084 -895 
Q 2688 -1331 1869 -1331 
Q 1566 -1331 1297 -1286 
Q 1028 -1241 775 -1147 
L 775 -588 
Q 1028 -725 1275 -790 
Q 1522 -856 1778 -856 
Q 2344 -856 2625 -561 
Q 2906 -266 2906 331 
L 2906 616 
Q 2728 306 2450 153 
Q 2172 0 1784 0 
Q 1141 0 747 490 
Q 353 981 353 1791 
Q 353 2603 747 3093 
Q 1141 3584 1784 3584 
Q 2172 3584 2450 3431 
Q 2728 3278 2906 2969 
L 2906 3500 
L 3481 3500 
L 3481 434 
z
" transform="scale(0.015625)"/>
       <path id="DejaVuSans-6f" d="M 1959 3097 
Q 1497 3097 1228 2736 
Q 959 2375 959 1747 
Q 959 1119 1226 758 
Q 1494 397 1959 397 
Q 2419 397 2687 759 
Q 2956 1122 2956 1747 
Q 2956 2369 2687 2733 
Q 2419 3097 1959 3097 
z
M 1959 3584 
Q 2709 3584 3137 3096 
Q 3566 2609 3566 1747 
Q 3566 888 3137 398 
Q 2709 -91 1959 -91 
Q 1206 -91 779 398 
Q 353 888 353 1747 
Q 353 2609 779 3096 
Q 1206 3584 1959 3584 
z
" transform="scale(0.015625)"/>
       <path id="DejaVuSans-75" d="M 544 1381 
L 544 3500 
L 1119 3500 
L 1119 1403 
Q 1119 906 1312 657 
Q 1506 409 1894 409 
Q 2359 409 2629 706 
Q 2900 1003 2900 1516 
L 2900 3500 
L 3475 3500 
L 3475 0 
L 2900 0 
L 2900 538 
Q 2691 219 2414 64 
Q 2138 -91 1772 -91 
Q 1169 -91 856 284 
Q 544 659 544 1381 
z
M 1991 3584 
L 1991 3584 
z
" transform="scale(0.015625)"/>
       <path id="DejaVuSans-70" d="M 1159 525 
L 1159 -1331 
L 581 -1331 
L 581 3500 
L 1159 3500 
L 1159 2969 
Q 1341 3281 1617 3432 
Q 1894 3584 2278 3584 
Q 2916 3584 3314 3078 
Q 3713 2572 3713 1747 
Q 3713 922 3314 415 
Q 2916 -91 2278 -91 
Q 1894 -91 1617 61 
Q 1341 213 1159 525 
z
M 3116 1747 
Q 3116 2381 2855 2742 
Q 2594 3103 2138 3103 
Q 1681 3103 1420 2742 
Q 1159 2381 1159 1747 
Q 1159 1113 1420 752 
Q 1681 391 2138 391 
Q 2594 391 2855 752 
Q 3116 1113 3116 1747 
z
" transform="scale(0.015625)"/>
      </defs>
      <use xlink:href="#DejaVuSans-41"/>
      <use xlink:href="#DejaVuSans-67" x="68.408203"/>
      <use xlink:href="#DejaVuSans-65" x="131.884766"/>
      <use xlink:href="#DejaVuSans-20" x="193.408203"/>
      <use xlink:href="#DejaVuSans-67" x="225.195312"/>
      <use xlink:href="#DejaVuSans-72" x="288.671875"/>
      <use xlink:href="#DejaVuSans-6f" x="327.535156"/>
      <use xlink:href="#DejaVuSans-75" x="388.716797"/>
      <use xlink:href="#DejaVuSans-70" x="452.095703"/>
     </g>
    </g>
   </g>
   <g id="matplotlib.axis_2">
    <g id="ytick_1">
     <g id="line2d_7">
      <path d="M 70.128 248.277308 
L 494.208 248.277308 
" clip-path="url(#pc0c4279151)" style="fill: none; stroke: #d9dedb; stroke-opacity: 0.85; stroke-width: 0.8; stroke-linecap: square"/>
     </g>
     <g id="line2d_8"/>
     <g id="text_5">
      <!-- 40 -->
      <g style="fill: #56636f" transform="translate(53.903 252.076526) scale(0.1 -0.1)">
       <use xlink:href="#DejaVuSans-34"/>
       <use xlink:href="#DejaVuSans-30" x="63.623047"/>
      </g>
     </g>
    </g>
    <g id="ytick_2">
     <g id="line2d_9">
      <path d="M 70.128 200.984705 
L 494.208 200.984705 
" clip-path="url(#pc0c4279151)" style="fill: none; stroke: #d9dedb; stroke-opacity: 0.85; stroke-width: 0.8; stroke-linecap: square"/>
     </g>
     <g id="line2d_10"/>
     <g id="text_6">
      <!-- 60 -->
      <g style="fill: #56636f" transform="translate(53.903 204.783924) scale(0.1 -0.1)">
       <use xlink:href="#DejaVuSans-36"/>
       <use xlink:href="#DejaVuSans-30" x="63.623047"/>
      </g>
     </g>
    </g>
    <g id="ytick_3">
     <g id="line2d_11">
      <path d="M 70.128 153.692102 
L 494.208 153.692102 
" clip-path="url(#pc0c4279151)" style="fill: none; stroke: #d9dedb; stroke-opacity: 0.85; stroke-width: 0.8; stroke-linecap: square"/>
     </g>
     <g id="line2d_12"/>
     <g id="text_7">
      <!-- 80 -->
      <g style="fill: #56636f" transform="translate(53.903 157.491321) scale(0.1 -0.1)">
       <defs>
        <path id="DejaVuSans-38" d="M 2034 2216 
Q 1584 2216 1326 1975 
Q 1069 1734 1069 1313 
Q 1069 891 1326 650 
Q 1584 409 2034 409 
Q 2484 409 2743 651 
Q 3003 894 3003 1313 
Q 3003 1734 2745 1975 
Q 2488 2216 2034 2216 
z
M 1403 2484 
Q 997 2584 770 2862 
Q 544 3141 544 3541 
Q 544 4100 942 4425 
Q 1341 4750 2034 4750 
Q 2731 4750 3128 4425 
Q 3525 4100 3525 3541 
Q 3525 3141 3298 2862 
Q 3072 2584 2669 2484 
Q 3125 2378 3379 2068 
Q 3634 1759 3634 1313 
Q 3634 634 3220 271 
Q 2806 -91 2034 -91 
Q 1263 -91 848 271 
Q 434 634 434 1313 
Q 434 1759 690 2068 
Q 947 2378 1403 2484 
z
M 1172 3481 
Q 1172 3119 1398 2916 
Q 1625 2713 2034 2713 
Q 2441 2713 2670 2916 
Q 2900 3119 2900 3481 
Q 2900 3844 2670 4047 
Q 2441 4250 2034 4250 
Q 1625 4250 1398 4047 
Q 1172 3844 1172 3481 
z
" transform="scale(0.015625)"/>
       </defs>
       <use xlink:href="#DejaVuSans-38"/>
       <use xlink:href="#DejaVuSans-30" x="63.623047"/>
      </g>
     </g>
    </g>
    <g id="ytick_4">
     <g id="line2d_13">
      <path d="M 70.128 106.399499 
L 494.208 106.399499 
" clip-path="url(#pc0c4279151)" style="fill: none; stroke: #d9dedb; stroke-opacity: 0.85; stroke-width: 0.8; stroke-linecap: square"/>
     </g>
     <g id="line2d_14"/>
     <g id="text_8">
      <!-- 100 -->
      <g style="fill: #56636f" transform="translate(47.5405 110.198718) scale(0.1 -0.1)">
       <defs>
        <path id="DejaVuSans-31" d="M 794 531 
L 1825 531 
L 1825 4091 
L 703 3866 
L 703 4441 
L 1819 4666 
L 2450 4666 
L 2450 531 
L 3481 531 
L 3481 0 
L 794 0 
L 794 531 
z
" transform="scale(0.015625)"/>
       </defs>
       <use xlink:href="#DejaVuSans-31"/>
       <use xlink:href="#DejaVuSans-30" x="63.623047"/>
       <use xlink:href="#DejaVuSans-30" x="127.246094"/>
      </g>
     </g>
    </g>
    <g id="ytick_5">
     <g id="line2d_15">
      <path d="M 70.128 59.106896 
L 494.208 59.106896 
" clip-path="url(#pc0c4279151)" style="fill: none; stroke: #d9dedb; stroke-opacity: 0.85; stroke-width: 0.8; stroke-linecap: square"/>
     </g>
     <g id="line2d_16"/>
     <g id="text_9">
      <!-- 120 -->
      <g style="fill: #56636f" transform="translate(47.5405 62.906115) scale(0.1 -0.1)">
       <use xlink:href="#DejaVuSans-31"/>
       <use xlink:href="#DejaVuSans-32" x="63.623047"/>
       <use xlink:href="#DejaVuSans-30" x="127.246094"/>
      </g>
     </g>
    </g>
    <g id="text_10">
     <!-- Daily MVPA minutes -->
     <g style="fill: #17212b" transform="translate(41.460812 187.044719) rotate(-90) scale(0.1 -0.1)">
      <defs>
       <path id="DejaVuSans-44" d="M 1259 4147 
L 1259 519 
L 2022 519 
Q 2988 519 3436 956 
Q 3884 1394 3884 2338 
Q 3884 3275 3436 3711 
Q 2988 4147 2022 4147 
L 1259 4147 
z
M 628 4666 
L 1925 4666 
Q 3281 4666 3915 4102 
Q 4550 3538 4550 2338 
Q 4550 1131 3912 565 
Q 3275 0 1925 0 
L 628 0 
L 628 4666 
z
" transform="scale(0.015625)"/>
       <path id="DejaVuSans-69" d="M 603 3500 
L 1178 3500 
L 1178 0 
L 603 0 
L 603 3500 
z
M 603 4863 
L 1178 4863 
L 1178 4134 
L 603 4134 
L 603 4863 
z
" transform="scale(0.015625)"/>
       <path id="DejaVuSans-6c" d="M 603 4863 
L 1178 4863 
L 1178 0 
L 603 0 
L 603 4863 
z
" transform="scale(0.015625)"/>
       <path id="DejaVuSans-4d" d="M 628 4666 
L 1569 4666 
L 2759 1491 
L 3956 4666 
L 4897 4666 
L 4897 0 
L 4281 0 
L 4281 4097 
L 3078 897 
L 2444 897 
L 1241 4097 
L 1241 0 
L 628 0 
L 628 4666 
z
" transform="scale(0.015625)"/>
       <path id="DejaVuSans-56" d="M 1831 0 
L 50 4666 
L 709 4666 
L 2188 738 
L 3669 4666 
L 4325 4666 
L 2547 0 
L 1831 0 
z
" transform="scale(0.015625)"/>
       <path id="DejaVuSans-50" d="M 1259 4147 
L 1259 2394 
L 2053 2394 
Q 2494 2394 2734 2622 
Q 2975 2850 2975 3272 
Q 2975 3691 2734 3919 
Q 2494 4147 2053 4147 
L 1259 4147 
z
M 628 4666 
L 2053 4666 
Q 2838 4666 3239 4311 
Q 3641 3956 3641 3272 
Q 3641 2581 3239 2228 
Q 2838 1875 2053 1875 
L 1259 1875 
L 1259 0 
L 628 0 
L 628 4666 
z
" transform="scale(0.015625)"/>
       <path id="DejaVuSans-6d" d="M 3328 2828 
Q 3544 3216 3844 3400 
Q 4144 3584 4550 3584 
Q 5097 3584 5394 3201 
Q 5691 2819 5691 2113 
L 5691 0 
L 5113 0 
L 5113 2094 
Q 5113 2597 4934 2840 
Q 4756 3084 4391 3084 
Q 3944 3084 3684 2787 
Q 3425 2491 3425 1978 
L 3425 0 
L 2847 0 
L 2847 2094 
Q 2847 2600 2669 2842 
Q 2491 3084 2119 3084 
Q 1678 3084 1418 2786 
Q 1159 2488 1159 1978 
L 1159 0 
L 581 0 
L 581 3500 
L 1159 3500 
L 1159 2956 
Q 1356 3278 1631 3431 
Q 1906 3584 2284 3584 
Q 2666 3584 2933 3390 
Q 3200 3197 3328 2828 
z
" transform="scale(0.015625)"/>
       <path id="DejaVuSans-6e" d="M 3513 2113 
L 3513 0 
L 2938 0 
L 2938 2094 
Q 2938 2591 2744 2837 
Q 2550 3084 2163 3084 
Q 1697 3084 1428 2787 
Q 1159 2491 1159 1978 
L 1159 0 
L 581 0 
L 581 3500 
L 1159 3500 
L 1159 2956 
Q 1366 3272 1645 3428 
Q 1925 3584 2291 3584 
Q 2894 3584 3203 3211 
Q 3513 2838 3513 2113 
z
" transform="scale(0.015625)"/>
       <path id="DejaVuSans-74" d="M 1172 4494 
L 1172 3500 
L 2356 3500 
L 2356 3053 
L 1172 3053 
L 1172 1153 
Q 1172 725 1289 603 
Q 1406 481 1766 481 
L 2356 481 
L 2356 0 
L 1766 0 
Q 1100 0 847 248 
Q 594 497 594 1153 
L 594 3053 
L 172 3053 
L 172 3500 
L 594 3500 
L 594 4494 
L 1172 4494 
z
" transform="scale(0.015625)"/>
      </defs>
      <use xlink:href="#DejaVuSans-44"/>
      <use xlink:href="#DejaVuSans-61" x="77.001953"/>
      <use xlink:href="#DejaVuSans-69" x="138.28125"/>
      <use xlink:href="#DejaVuSans-6c" x="166.064453"/>
      <use xlink:href="#DejaVuSans-79" x="193.847656"/>
      <use xlink:href="#DejaVuSans-20" x="253.027344"/>
      <use xlink:href="#DejaVuSans-4d" x="284.814453"/>
      <use xlink:href="#DejaVuSans-56" x="371.09375"/>
      <use xlink:href="#DejaVuSans-50" x="439.501953"/>
      <use xlink:href="#DejaVuSans-41" x="493.429688"/>
      <use xlink:href="#DejaVuSans-20" x="561.837891"/>
      <use xlink:href="#DejaVuSans-6d" x="593.625"/>
      <use xlink:href="#DejaVuSans-69" x="691.037109"/>
      <use xlink:href="#DejaVuSans-6e" x="718.820312"/>
      <use xlink:href="#DejaVuSans-75" x="782.199219"/>
      <use xlink:href="#DejaVuSans-74" x="845.578125"/>
      <use xlink:href="#DejaVuSans-65" x="884.787109"/>
      <use xlink:href="#DejaVuSans-73" x="946.310547"/>
     </g>
    </g>
   </g>
   <g id="LineCollection_1">
    <path d="M 108.680727 106.220242 
L 147.233455 106.220242 
" clip-path="url(#pc0c4279151)" style="fill: none; stroke: #1f77b4; stroke-width: 1.5"/>
    <path d="M 262.891636 92.438175 
L 301.444364 92.438175 
" clip-path="url(#pc0c4279151)" style="fill: none; stroke: #1f77b4; stroke-width: 1.5"/>
    <path d="M 417.102545 33.445969 
L 455.655273 33.445969 
" clip-path="url(#pc0c4279151)" style="fill: none; stroke: #1f77b4; stroke-width: 1.5"/>
   </g>
   <g id="LineCollection_2">
    <path d="M 108.680727 219.958301 
L 147.233455 219.958301 
" clip-path="url(#pc0c4279151)" style="fill: none; stroke: #1f77b4; stroke-width: 1.5"/>
    <path d="M 262.891636 240.751853 
L 301.444364 240.751853 
" clip-path="url(#pc0c4279151)" style="fill: none; stroke: #1f77b4; stroke-width: 1.5"/>
    <path d="M 417.102545 240.805969 
L 455.655273 240.805969 
" clip-path="url(#pc0c4279151)" style="fill: none; stroke: #1f77b4; stroke-width: 1.5"/>
   </g>
   <g id="LineCollection_3">
    <path d="M 127.957091 219.958301 
L 127.957091 106.220242 
" clip-path="url(#pc0c4279151)" style="fill: none; stroke: #1f77b4; stroke-width: 1.5"/>
    <path d="M 282.168 240.751853 
L 282.168 92.438175 
" clip-path="url(#pc0c4279151)" style="fill: none; stroke: #1f77b4; stroke-width: 1.5"/>
    <path d="M 436.378909 240.805969 
L 436.378909 33.445969 
" clip-path="url(#pc0c4279151)" style="fill: none; stroke: #1f77b4; stroke-width: 1.5"/>
   </g>
   <g id="LineCollection_4">
    <path d="M 108.680727 183.59348 
L 147.233455 183.59348 
" clip-path="url(#pc0c4279151)" style="fill: none; stroke: #17212b; stroke-width: 1.5"/>
    <path d="M 262.891636 164.062468 
L 301.444364 164.062468 
" clip-path="url(#pc0c4279151)" style="fill: none; stroke: #17212b; stroke-width: 1.5"/>
    <path d="M 417.102545 149.310804 
L 455.655273 149.310804 
" clip-path="url(#pc0c4279151)" style="fill: none; stroke: #17212b; stroke-width: 1.5"/>
   </g>
   <g id="patch_3">
    <path d="M 70.128 251.173969 
L 70.128 23.077969 
" style="fill: none; stroke: #d9dedb; stroke-width: 0.8; stroke-linejoin: miter; stroke-linecap: square"/>
   </g>
   <g id="patch_4">
    <path d="M 70.128 251.173969 
L 494.208 251.173969 
" style="fill: none; stroke: #d9dedb; stroke-width: 0.8; stroke-linejoin: miter; stroke-linecap: square"/>
   </g>
   <g id="text_11">
    <!-- Participant-level daily MVPA minutes by age group -->
    <g style="fill: #17212b" transform="translate(95.992766 17.077969) scale(0.13 -0.13)">
     <defs>
      <path id="DejaVuSans-Bold-50" d="M 588 4666 
L 2584 4666 
Q 3475 4666 3951 4270 
Q 4428 3875 4428 3144 
Q 4428 2409 3951 2014 
Q 3475 1619 2584 1619 
L 1791 1619 
L 1791 0 
L 588 0 
L 588 4666 
z
M 1791 3794 
L 1791 2491 
L 2456 2491 
Q 2806 2491 2997 2661 
Q 3188 2831 3188 3144 
Q 3188 3456 2997 3625 
Q 2806 3794 2456 3794 
L 1791 3794 
z
" transform="scale(0.015625)"/>
      <path id="DejaVuSans-Bold-61" d="M 2106 1575 
Q 1756 1575 1579 1456 
Q 1403 1338 1403 1106 
Q 1403 894 1545 773 
Q 1688 653 1941 653 
Q 2256 653 2472 879 
Q 2688 1106 2688 1447 
L 2688 1575 
L 2106 1575 
z
M 3816 1997 
L 3816 0 
L 2688 0 
L 2688 519 
Q 2463 200 2181 54 
Q 1900 -91 1497 -91 
Q 953 -91 614 226 
Q 275 544 275 1050 
Q 275 1666 698 1953 
Q 1122 2241 2028 2241 
L 2688 2241 
L 2688 2328 
Q 2688 2594 2478 2717 
Q 2269 2841 1825 2841 
Q 1466 2841 1156 2769 
Q 847 2697 581 2553 
L 581 3406 
Q 941 3494 1303 3539 
Q 1666 3584 2028 3584 
Q 2975 3584 3395 3211 
Q 3816 2838 3816 1997 
z
" transform="scale(0.015625)"/>
      <path id="DejaVuSans-Bold-72" d="M 3138 2547 
Q 2991 2616 2845 2648 
Q 2700 2681 2553 2681 
Q 2122 2681 1889 2404 
Q 1656 2128 1656 1613 
L 1656 0 
L 538 0 
L 538 3500 
L 1656 3500 
L 1656 2925 
Q 1872 3269 2151 3426 
Q 2431 3584 2822 3584 
Q 2878 3584 2943 3579 
Q 3009 3575 3134 3559 
L 3138 2547 
z
" transform="scale(0.015625)"/>
      <path id="DejaVuSans-Bold-74" d="M 1759 4494 
L 1759 3500 
L 2913 3500 
L 2913 2700 
L 1759 2700 
L 1759 1216 
Q 1759 972 1856 886 
Q 1953 800 2241 800 
L 2816 800 
L 2816 0 
L 1856 0 
Q 1194 0 917 276 
Q 641 553 641 1216 
L 641 2700 
L 84 2700 
L 84 3500 
L 641 3500 
L 641 4494 
L 1759 4494 
z
" transform="scale(0.015625)"/>
      <path id="DejaVuSans-Bold-69" d="M 538 3500 
L 1656 3500 
L 1656 0 
L 538 0 
L 538 3500 
z
M 538 4863 
L 1656 4863 
L 1656 3950 
L 538 3950 
L 538 4863 
z
" transform="scale(0.015625)"/>
      <path id="DejaVuSans-Bold-63" d="M 3366 3391 
L 3366 2478 
Q 3138 2634 2908 2709 
Q 2678 2784 2431 2784 
Q 1963 2784 1702 2511 
Q 1441 2238 1441 1747 
Q 1441 1256 1702 982 
Q 1963 709 2431 709 
Q 2694 709 2930 787 
Q 3166 866 3366 1019 
L 3366 103 
Q 3103 6 2833 -42 
Q 2563 -91 2291 -91 
Q 1344 -91 809 395 
Q 275 881 275 1747 
Q 275 2613 809 3098 
Q 1344 3584 2291 3584 
Q 2566 3584 2833 3536 
Q 3100 3488 3366 3391 
z
" transform="scale(0.015625)"/>
      <path id="DejaVuSans-Bold-70" d="M 1656 506 
L 1656 -1331 
L 538 -1331 
L 538 3500 
L 1656 3500 
L 1656 2988 
Q 1888 3294 2169 3439 
Q 2450 3584 2816 3584 
Q 3463 3584 3878 3070 
Q 4294 2556 4294 1747 
Q 4294 938 3878 423 
Q 3463 -91 2816 -91 
Q 2450 -91 2169 54 
Q 1888 200 1656 506 
z
M 2400 2772 
Q 2041 2772 1848 2508 
Q 1656 2244 1656 1747 
Q 1656 1250 1848 986 
Q 2041 722 2400 722 
Q 2759 722 2948 984 
Q 3138 1247 3138 1747 
Q 3138 2247 2948 2509 
Q 2759 2772 2400 2772 
z
" transform="scale(0.015625)"/>
      <path id="DejaVuSans-Bold-6e" d="M 4056 2131 
L 4056 0 
L 2931 0 
L 2931 347 
L 2931 1631 
Q 2931 2084 2911 2256 
Q 2891 2428 2841 2509 
Q 2775 2619 2662 2680 
Q 2550 2741 2406 2741 
Q 2056 2741 1856 2470 
Q 1656 2200 1656 1722 
L 1656 0 
L 538 0 
L 538 3500 
L 1656 3500 
L 1656 2988 
Q 1909 3294 2193 3439 
Q 2478 3584 2822 3584 
Q 3428 3584 3742 3212 
Q 4056 2841 4056 2131 
z
" transform="scale(0.015625)"/>
      <path id="DejaVuSans-Bold-2d" d="M 347 2297 
L 2309 2297 
L 2309 1388 
L 347 1388 
L 347 2297 
z
" transform="scale(0.015625)"/>
      <path id="DejaVuSans-Bold-6c" d="M 538 4863 
L 1656 4863 
L 1656 0 
L 538 0 
L 538 4863 
z
" transform="scale(0.015625)"/>
      <path id="DejaVuSans-Bold-65" d="M 4031 1759 
L 4031 1441 
L 1416 1441 
Q 1456 1047 1700 850 
Q 1944 653 2381 653 
Q 2734 653 3104 758 
Q 3475 863 3866 1075 
L 3866 213 
Q 3469 63 3072 -14 
Q 2675 -91 2278 -91 
Q 1328 -91 801 392 
Q 275 875 275 1747 
Q 275 2603 792 3093 
Q 1309 3584 2216 3584 
Q 3041 3584 3536 3087 
Q 4031 2591 4031 1759 
z
M 2881 2131 
Q 2881 2450 2695 2645 
Q 2509 2841 2209 2841 
Q 1884 2841 1681 2658 
Q 1478 2475 1428 2131 
L 2881 2131 
z
" transform="scale(0.015625)"/>
      <path id="DejaVuSans-Bold-76" d="M 97 3500 
L 1216 3500 
L 2088 1081 
L 2956 3500 
L 4078 3500 
L 2700 0 
L 1472 0 
L 97 3500 
z
" transform="scale(0.015625)"/>
      <path id="DejaVuSans-Bold-20" transform="scale(0.015625)"/>
      <path id="DejaVuSans-Bold-64" d="M 2919 2988 
L 2919 4863 
L 4044 4863 
L 4044 0 
L 2919 0 
L 2919 506 
Q 2688 197 2409 53 
Q 2131 -91 1766 -91 
Q 1119 -91 703 423 
Q 288 938 288 1747 
Q 288 2556 703 3070 
Q 1119 3584 1766 3584 
Q 2128 3584 2408 3439 
Q 2688 3294 2919 2988 
z
M 2181 722 
Q 2541 722 2730 984 
Q 2919 1247 2919 1747 
Q 2919 2247 2730 2509 
Q 2541 2772 2181 2772 
Q 1825 2772 1636 2509 
Q 1447 2247 1447 1747 
Q 1447 1247 1636 984 
Q 1825 722 2181 722 
z
" transform="scale(0.015625)"/>
      <path id="DejaVuSans-Bold-79" d="M 78 3500 
L 1197 3500 
L 2138 1125 
L 2938 3500 
L 4056 3500 
L 2584 -331 
Q 2363 -916 2067 -1148 
Q 1772 -1381 1288 -1381 
L 641 -1381 
L 641 -647 
L 991 -647 
Q 1275 -647 1404 -556 
Q 1534 -466 1606 -231 
L 1638 -134 
L 78 3500 
z
" transform="scale(0.015625)"/>
      <path id="DejaVuSans-Bold-4d" d="M 588 4666 
L 2119 4666 
L 3181 2169 
L 4250 4666 
L 5778 4666 
L 5778 0 
L 4641 0 
L 4641 3413 
L 3566 897 
L 2803 897 
L 1728 3413 
L 1728 0 
L 588 0 
L 588 4666 
z
" transform="scale(0.015625)"/>
      <path id="DejaVuSans-Bold-56" d="M 31 4666 
L 1241 4666 
L 2478 1222 
L 3713 4666 
L 4922 4666 
L 3194 0 
L 1759 0 
L 31 4666 
z
" transform="scale(0.015625)"/>
      <path id="DejaVuSans-Bold-41" d="M 3419 850 
L 1538 850 
L 1241 0 
L 31 0 
L 1759 4666 
L 3194 4666 
L 4922 0 
L 3713 0 
L 3419 850 
z
M 1838 1716 
L 3116 1716 
L 2478 3572 
L 1838 1716 
z
" transform="scale(0.015625)"/>
      <path id="DejaVuSans-Bold-6d" d="M 3781 2919 
Q 3994 3244 4286 3414 
Q 4578 3584 4928 3584 
Q 5531 3584 5847 3212 
Q 6163 2841 6163 2131 
L 6163 0 
L 5038 0 
L 5038 1825 
Q 5041 1866 5042 1909 
Q 5044 1953 5044 2034 
Q 5044 2406 4934 2573 
Q 4825 2741 4581 2741 
Q 4263 2741 4089 2478 
Q 3916 2216 3909 1719 
L 3909 0 
L 2784 0 
L 2784 1825 
Q 2784 2406 2684 2573 
Q 2584 2741 2328 2741 
Q 2006 2741 1831 2477 
Q 1656 2213 1656 1722 
L 1656 0 
L 531 0 
L 531 3500 
L 1656 3500 
L 1656 2988 
Q 1863 3284 2130 3434 
Q 2397 3584 2719 3584 
Q 3081 3584 3359 3409 
Q 3638 3234 3781 2919 
z
" transform="scale(0.015625)"/>
      <path id="DejaVuSans-Bold-75" d="M 500 1363 
L 500 3500 
L 1625 3500 
L 1625 3150 
Q 1625 2866 1622 2436 
Q 1619 2006 1619 1863 
Q 1619 1441 1641 1255 
Q 1663 1069 1716 984 
Q 1784 875 1895 815 
Q 2006 756 2150 756 
Q 2500 756 2700 1025 
Q 2900 1294 2900 1772 
L 2900 3500 
L 4019 3500 
L 4019 0 
L 2900 0 
L 2900 506 
Q 2647 200 2364 54 
Q 2081 -91 1741 -91 
Q 1134 -91 817 281 
Q 500 653 500 1363 
z
" transform="scale(0.015625)"/>
      <path id="DejaVuSans-Bold-73" d="M 3272 3391 
L 3272 2541 
Q 2913 2691 2578 2766 
Q 2244 2841 1947 2841 
Q 1628 2841 1473 2761 
Q 1319 2681 1319 2516 
Q 1319 2381 1436 2309 
Q 1553 2238 1856 2203 
L 2053 2175 
Q 2913 2066 3209 1816 
Q 3506 1566 3506 1031 
Q 3506 472 3093 190 
Q 2681 -91 1863 -91 
Q 1516 -91 1145 -36 
Q 775 19 384 128 
L 384 978 
Q 719 816 1070 734 
Q 1422 653 1784 653 
Q 2113 653 2278 743 
Q 2444 834 2444 1013 
Q 2444 1163 2330 1236 
Q 2216 1309 1875 1350 
L 1678 1375 
Q 931 1469 631 1722 
Q 331 1975 331 2491 
Q 331 3047 712 3315 
Q 1094 3584 1881 3584 
Q 2191 3584 2531 3537 
Q 2872 3491 3272 3391 
z
" transform="scale(0.015625)"/>
      <path id="DejaVuSans-Bold-62" d="M 2400 722 
Q 2759 722 2948 984 
Q 3138 1247 3138 1747 
Q 3138 2247 2948 2509 
Q 2759 2772 2400 2772 
Q 2041 2772 1848 2508 
Q 1656 2244 1656 1747 
Q 1656 1250 1848 986 
Q 2041 722 2400 722 
z
M 1656 2988 
Q 1888 3294 2169 3439 
Q 2450 3584 2816 3584 
Q 3463 3584 3878 3070 
Q 4294 2556 4294 1747 
Q 4294 938 3878 423 
Q 3463 -91 2816 -91 
Q 2450 -91 2169 54 
Q 1888 200 1656 506 
L 1656 0 
L 538 0 
L 538 4863 
L 1656 4863 
L 1656 2988 
z
" transform="scale(0.015625)"/>
      <path id="DejaVuSans-Bold-67" d="M 2919 594 
Q 2688 288 2409 144 
Q 2131 0 1766 0 
Q 1125 0 706 504 
Q 288 1009 288 1791 
Q 288 2575 706 3076 
Q 1125 3578 1766 3578 
Q 2131 3578 2409 3434 
Q 2688 3291 2919 2981 
L 2919 3500 
L 4044 3500 
L 4044 353 
Q 4044 -491 3511 -936 
Q 2978 -1381 1966 -1381 
Q 1638 -1381 1331 -1331 
Q 1025 -1281 716 -1178 
L 716 -306 
Q 1009 -475 1290 -558 
Q 1572 -641 1856 -641 
Q 2406 -641 2662 -400 
Q 2919 -159 2919 353 
L 2919 594 
z
M 2181 2772 
Q 1834 2772 1640 2515 
Q 1447 2259 1447 1791 
Q 1447 1309 1634 1061 
Q 1822 813 2181 813 
Q 2531 813 2725 1069 
Q 2919 1325 2919 1791 
Q 2919 2259 2725 2515 
Q 2531 2772 2181 2772 
z
" transform="scale(0.015625)"/>
      <path id="DejaVuSans-Bold-6f" d="M 2203 2784 
Q 1831 2784 1636 2517 
Q 1441 2250 1441 1747 
Q 1441 1244 1636 976 
Q 1831 709 2203 709 
Q 2569 709 2762 976 
Q 2956 1244 2956 1747 
Q 2956 2250 2762 2517 
Q 2569 2784 2203 2784 
z
M 2203 3584 
Q 3106 3584 3614 3096 
Q 4122 2609 4122 1747 
Q 4122 884 3614 396 
Q 3106 -91 2203 -91 
Q 1297 -91 786 396 
Q 275 884 275 1747 
Q 275 2609 786 3096 
Q 1297 3584 2203 3584 
z
" transform="scale(0.015625)"/>
     </defs>
     <use xlink:href="#DejaVuSans-Bold-50"/>
     <use xlink:href="#DejaVuSans-Bold-61" x="70.666016"/>
     <use xlink:href="#DejaVuSans-Bold-72" x="138.146484"/>
     <use xlink:href="#DejaVuSans-Bold-74" x="187.462891"/>
     <use xlink:href="#DejaVuSans-Bold-69" x="235.265625"/>
     <use xlink:href="#DejaVuSans-Bold-63" x="269.542969"/>
     <use xlink:href="#DejaVuSans-Bold-69" x="328.820312"/>
     <use xlink:href="#DejaVuSans-Bold-70" x="363.097656"/>
     <use xlink:href="#DejaVuSans-Bold-61" x="434.679688"/>
     <use xlink:href="#DejaVuSans-Bold-6e" x="502.160156"/>
     <use xlink:href="#DejaVuSans-Bold-74" x="573.351562"/>
     <use xlink:href="#DejaVuSans-Bold-2d" x="621.154297"/>
     <use xlink:href="#DejaVuSans-Bold-6c" x="662.658203"/>
     <use xlink:href="#DejaVuSans-Bold-65" x="696.935547"/>
     <use xlink:href="#DejaVuSans-Bold-76" x="764.757812"/>
     <use xlink:href="#DejaVuSans-Bold-65" x="829.943359"/>
     <use xlink:href="#DejaVuSans-Bold-6c" x="897.765625"/>
     <use xlink:href="#DejaVuSans-Bold-20" x="932.042969"/>
     <use xlink:href="#DejaVuSans-Bold-64" x="966.857422"/>
     <use xlink:href="#DejaVuSans-Bold-61" x="1038.439453"/>
     <use xlink:href="#DejaVuSans-Bold-69" x="1105.919922"/>
     <use xlink:href="#DejaVuSans-Bold-6c" x="1140.197266"/>
     <use xlink:href="#DejaVuSans-Bold-79" x="1174.474609"/>
     <use xlink:href="#DejaVuSans-Bold-20" x="1239.660156"/>
     <use xlink:href="#DejaVuSans-Bold-4d" x="1274.474609"/>
     <use xlink:href="#DejaVuSans-Bold-56" x="1373.986328"/>
     <use xlink:href="#DejaVuSans-Bold-50" x="1451.378906"/>
     <use xlink:href="#DejaVuSans-Bold-41" x="1515.544922"/>
     <use xlink:href="#DejaVuSans-Bold-20" x="1592.9375"/>
     <use xlink:href="#DejaVuSans-Bold-6d" x="1627.751953"/>
     <use xlink:href="#DejaVuSans-Bold-69" x="1731.951172"/>
     <use xlink:href="#DejaVuSans-Bold-6e" x="1766.228516"/>
     <use xlink:href="#DejaVuSans-Bold-75" x="1837.419922"/>
     <use xlink:href="#DejaVuSans-Bold-74" x="1908.611328"/>
     <use xlink:href="#DejaVuSans-Bold-65" x="1956.414062"/>
     <use xlink:href="#DejaVuSans-Bold-73" x="2024.236328"/>
     <use xlink:href="#DejaVuSans-Bold-20" x="2083.757812"/>
     <use xlink:href="#DejaVuSans-Bold-62" x="2118.572266"/>
     <use xlink:href="#DejaVuSans-Bold-79" x="2190.154297"/>
     <use xlink:href="#DejaVuSans-Bold-20" x="2255.339844"/>
     <use xlink:href="#DejaVuSans-Bold-61" x="2290.154297"/>
     <use xlink:href="#DejaVuSans-Bold-67" x="2357.634766"/>
     <use xlink:href="#DejaVuSans-Bold-65" x="2429.216797"/>
     <use xlink:href="#DejaVuSans-Bold-20" x="2497.039062"/>
     <use xlink:href="#DejaVuSans-Bold-67" x="2531.853516"/>
     <use xlink:href="#DejaVuSans-Bold-72" x="2603.435547"/>
     <use xlink:href="#DejaVuSans-Bold-6f" x="2652.751953"/>
     <use xlink:href="#DejaVuSans-Bold-75" x="2721.453125"/>
     <use xlink:href="#DejaVuSans-Bold-70" x="2792.644531"/>
    </g>
   </g>
  </g>
  <g id="text_12">
   <g id="patch_5">
    <path d="M 5.68 325.269969 
L 239.98625 325.269969 
L 239.98625 314.487469 
L 5.68 314.487469 
z
" style="fill: #ffffff; opacity: 0.92"/>
   </g>
   <!-- Illustrative example generated from simulated mock data -->
   <g style="fill: #56636f" transform="translate(7.2 322.086219) scale(0.08 -0.08)">
    <defs>
     <path id="DejaVuSans-49" d="M 628 4666 
L 1259 4666 
L 1259 0 
L 628 0 
L 628 4666 
z
" transform="scale(0.015625)"/>
     <path id="DejaVuSans-76" d="M 191 3500 
L 800 3500 
L 1894 563 
L 2988 3500 
L 3597 3500 
L 2284 0 
L 1503 0 
L 191 3500 
z
" transform="scale(0.015625)"/>
     <path id="DejaVuSans-78" d="M 3513 3500 
L 2247 1797 
L 3578 0 
L 2900 0 
L 1881 1375 
L 863 0 
L 184 0 
L 1544 1831 
L 300 3500 
L 978 3500 
L 1906 2253 
L 2834 3500 
L 3513 3500 
z
" transform="scale(0.015625)"/>
     <path id="DejaVuSans-64" d="M 2906 2969 
L 2906 4863 
L 3481 4863 
L 3481 0 
L 2906 0 
L 2906 525 
Q 2725 213 2448 61 
Q 2172 -91 1784 -91 
Q 1150 -91 751 415 
Q 353 922 353 1747 
Q 353 2572 751 3078 
Q 1150 3584 1784 3584 
Q 2172 3584 2448 3432 
Q 2725 3281 2906 2969 
z
M 947 1747 
Q 947 1113 1208 752 
Q 1469 391 1925 391 
Q 2381 391 2643 752 
Q 2906 1113 2906 1747 
Q 2906 2381 2643 2742 
Q 2381 3103 1925 3103 
Q 1469 3103 1208 2742 
Q 947 2381 947 1747 
z
" transform="scale(0.015625)"/>
     <path id="DejaVuSans-66" d="M 2375 4863 
L 2375 4384 
L 1825 4384 
Q 1516 4384 1395 4259 
Q 1275 4134 1275 3809 
L 1275 3500 
L 2222 3500 
L 2222 3053 
L 1275 3053 
L 1275 0 
L 697 0 
L 697 3053 
L 147 3053 
L 147 3500 
L 697 3500 
L 697 3744 
Q 697 4328 969 4595 
Q 1241 4863 1831 4863 
L 2375 4863 
z
" transform="scale(0.015625)"/>
     <path id="DejaVuSans-63" d="M 3122 3366 
L 3122 2828 
Q 2878 2963 2633 3030 
Q 2388 3097 2138 3097 
Q 1578 3097 1268 2742 
Q 959 2388 959 1747 
Q 959 1106 1268 751 
Q 1578 397 2138 397 
Q 2388 397 2633 464 
Q 2878 531 3122 666 
L 3122 134 
Q 2881 22 2623 -34 
Q 2366 -91 2075 -91 
Q 1284 -91 818 406 
Q 353 903 353 1747 
Q 353 2603 823 3093 
Q 1294 3584 2113 3584 
Q 2378 3584 2631 3529 
Q 2884 3475 3122 3366 
z
" transform="scale(0.015625)"/>
     <path id="DejaVuSans-6b" d="M 581 4863 
L 1159 4863 
L 1159 1991 
L 2875 3500 
L 3609 3500 
L 1753 1863 
L 3688 0 
L 2938 0 
L 1159 1709 
L 1159 0 
L 581 0 
L 581 4863 
z
" transform="scale(0.015625)"/>
    </defs>
    <use xlink:href="#DejaVuSans-49"/>
    <use xlink:href="#DejaVuSans-6c" x="29.492188"/>
    <use xlink:href="#DejaVuSans-6c" x="57.275391"/>
    <use xlink:href="#DejaVuSans-75" x="85.058594"/>
    <use xlink:href="#DejaVuSans-73" x="148.4375"/>
    <use xlink:href="#DejaVuSans-74" x="200.537109"/>
    <use xlink:href="#DejaVuSans-72" x="239.746094"/>
    <use xlink:href="#DejaVuSans-61" x="280.859375"/>
    <use xlink:href="#DejaVuSans-74" x="342.138672"/>
    <use xlink:href="#DejaVuSans-69" x="381.347656"/>
    <use xlink:href="#DejaVuSans-76" x="409.130859"/>
    <use xlink:href="#DejaVuSans-65" x="468.310547"/>
    <use xlink:href="#DejaVuSans-20" x="529.833984"/>
    <use xlink:href="#DejaVuSans-65" x="561.621094"/>
    <use xlink:href="#DejaVuSans-78" x="621.394531"/>
    <use xlink:href="#DejaVuSans-61" x="680.574219"/>
    <use xlink:href="#DejaVuSans-6d" x="741.853516"/>
    <use xlink:href="#DejaVuSans-70" x="839.265625"/>
    <use xlink:href="#DejaVuSans-6c" x="902.742188"/>
    <use xlink:href="#DejaVuSans-65" x="930.525391"/>
    <use xlink:href="#DejaVuSans-20" x="992.048828"/>
    <use xlink:href="#DejaVuSans-67" x="1023.835938"/>
    <use xlink:href="#DejaVuSans-65" x="1087.3125"/>
    <use xlink:href="#DejaVuSans-6e" x="1148.835938"/>
    <use xlink:href="#DejaVuSans-65" x="1212.214844"/>
    <use xlink:href="#DejaVuSans-72" x="1273.738281"/>
    <use xlink:href="#DejaVuSans-61" x="1314.851562"/>
    <use xlink:href="#DejaVuSans-74" x="1376.130859"/>
    <use xlink:href="#DejaVuSans-65" x="1415.339844"/>
    <use xlink:href="#DejaVuSans-64" x="1476.863281"/>
    <use xlink:href="#DejaVuSans-20" x="1540.339844"/>
    <use xlink:href="#DejaVuSans-66" x="1572.126953"/>
    <use xlink:href="#DejaVuSans-72" x="1607.332031"/>
    <use xlink:href="#DejaVuSans-6f" x="1646.195312"/>
    <use xlink:href="#DejaVuSans-6d" x="1707.376953"/>
    <use xlink:href="#DejaVuSans-20" x="1804.789062"/>
    <use xlink:href="#DejaVuSans-73" x="1836.576172"/>
    <use xlink:href="#DejaVuSans-69" x="1888.675781"/>
    <use xlink:href="#DejaVuSans-6d" x="1916.458984"/>
    <use xlink:href="#DejaVuSans-75" x="2013.871094"/>
    <use xlink:href="#DejaVuSans-6c" x="2077.25"/>
    <use xlink:href="#DejaVuSans-61" x="2105.033203"/>
    <use xlink:href="#DejaVuSans-74" x="2166.3125"/>
    <use xlink:href="#DejaVuSans-65" x="2205.521484"/>
    <use xlink:href="#DejaVuSans-64" x="2267.044922"/>
    <use xlink:href="#DejaVuSans-20" x="2330.521484"/>
    <use xlink:href="#DejaVuSans-6d" x="2362.308594"/>
    <use xlink:href="#DejaVuSans-6f" x="2459.720703"/>
    <use xlink:href="#DejaVuSans-63" x="2520.902344"/>
    <use xlink:href="#DejaVuSans-6b" x="2575.882812"/>
    <use xlink:href="#DejaVuSans-20" x="2633.792969"/>
    <use xlink:href="#DejaVuSans-64" x="2665.580078"/>
    <use xlink:href="#DejaVuSans-61" x="2729.056641"/>
    <use xlink:href="#DejaVuSans-74" x="2790.335938"/>
    <use xlink:href="#DejaVuSans-61" x="2829.544922"/>
   </g>
  </g>
 </g>
 <defs>
  <clipPath id="pc0c4279151">
   <rect x="70.128" y="23.077969" width="424.08" height="228.096"/>
  </clipPath>
 </defs>
</svg>
