<?xml version="1.0" encoding="utf-8" standalone="no"?>
<!DOCTYPE svg PUBLIC "-//W3C//DTD SVG 1.1//EN"
  "http://www.w3.org/Graphics/SVG/1.1/DTD/svg11.dtd">
<svg xmlns:xlink="http://www.w3.org/1999/xlink" width="501.408pt" height="330.949969pt" viewBox="0 0 501.408 330.949969" xmlns="http://www.w3.org/2000/svg" version="1.1">
 <metadata>
  <rdf:RDF xmlns:dc="http://purl.org/dc/elements/1.1/" xmlns:cc="http://creativecommons.org/ns#" xmlns:rdf="http://www.w3.org/1999/02/22-rdf-syntax-ns#">
   <cc:Work>
    <dc:type rdf:resource="http://purl.org/dc/dcmitype/StillImage"/>
    <dc:date>2026-06-25T11:31:57.614203</dc:date>
    <dc:format>image/svg+xml</dc:format>
    <dc:creator>
     <cc:Agent>
      <dc:title>Matplotlib v3.8.2, https://matplotlib.org/</dc:title>
     </cc:Agent>
    </dc:creator>
   </cc:Work>
  </rdf:RDF>
 </metadata>
 <defs>
  <style type="text/css">*{stroke-linejoin: round; stroke-linecap: butt}</style>
 </defs>
 <g id="figure_1">
  <g id="patch_1">
   <path d="M 0 330.949969 
L 501.408 330.949969 
L 501.408 0 
L 0 0 
z
" style="fill: #ffffff"/>
  </g>
  <g id="axes_1">
   <g id="patch_2">
    <path d="M 70.128 289.189969 
L 494.208 289.189969 
L 494.208 23.077969 
L 70.128 23.077969 
z
" style="fill: #ffffff"/>
   </g>
   <g id="PolyCollection_1">
    <defs>
     <path id="m75154f072b" d="M 149.34126 -78.17828 
L 106.572922 -78.17828 
L 105.224878 -79.518627 
L 103.921944 -80.858975 
L 102.674846 -82.199322 
L 101.492586 -83.53967 
L 100.382189 -84.880017 
L 99.348536 -86.220365 
L 98.394294 -87.560712 
L 97.519934 -88.90106 
L 96.723853 -90.241407 
L 96.002576 -91.581755 
L 95.351032 -92.922102 
L 94.762896 -94.262449 
L 94.23097 -95.602797 
L 93.747584 -96.943144 
L 93.305016 -98.283492 
L 92.895885 -99.623839 
L 92.51352 -100.964187 
L 92.152289 -102.304534 
L 91.807863 -103.644882 
L 91.477414 -104.985229 
L 91.159741 -106.325577 
L 90.85531 -107.665924 
L 90.566218 -109.006272 
L 90.296075 -110.346619 
L 90.049808 -111.686967 
L 89.833401 -113.027314 
L 89.653581 -114.367662 
L 89.517458 -115.708009 
L 89.432143 -117.048357 
L 89.404364 -118.388704 
L 89.440087 -119.729052 
L 89.544187 -121.069399 
L 89.72016 -122.409747 
L 89.969917 -123.750094 
L 90.293662 -125.090442 
L 90.68986 -126.430789 
L 91.155313 -127.771137 
L 91.685326 -129.111484 
L 92.27396 -130.451832 
L 92.91436 -131.792179 
L 93.599129 -133.132527 
L 94.32073 -134.472874 
L 95.071888 -135.813222 
L 95.845961 -137.153569 
L 96.637252 -138.493917 
L 97.441257 -139.834264 
L 98.254801 -141.174612 
L 99.076087 -142.514959 
L 99.904628 -143.855307 
L 100.74109 -145.195654 
L 101.587034 -146.536002 
L 102.44461 -147.876349 
L 103.316194 -149.216697 
L 104.20402 -150.557044 
L 105.109823 -151.897392 
L 106.034522 -153.237739 
L 106.977969 -154.578087 
L 107.938773 -155.918434 
L 108.914222 -157.258782 
L 109.900292 -158.599129 
L 110.891751 -159.939477 
L 111.88234 -161.279824 
L 112.865025 -162.620172 
L 113.832283 -163.960519 
L 114.776419 -165.300867 
L 115.689886 -166.641214 
L 116.565582 -167.981562 
L 117.397114 -169.321909 
L 118.179013 -170.662257 
L 118.906891 -172.002604 
L 119.577542 -173.342952 
L 120.188979 -174.683299 
L 120.740414 -176.023647 
L 121.232199 -177.363994 
L 121.665721 -178.704341 
L 122.043278 -180.044689 
L 122.367933 -181.385036 
L 122.64337 -182.725384 
L 122.873744 -184.065731 
L 123.063545 -185.406079 
L 123.217479 -186.746426 
L 123.340353 -188.086774 
L 123.436988 -189.427121 
L 123.512139 -190.767469 
L 123.570432 -192.107816 
L 123.616311 -193.448164 
L 123.653989 -194.788511 
L 123.687413 -196.128859 
L 123.720221 -197.469206 
L 123.755714 -198.809554 
L 123.796819 -200.149901 
L 123.846066 -201.490249 
L 123.905557 -202.830596 
L 123.97695 -204.170944 
L 124.061437 -205.511291 
L 124.159747 -206.851639 
L 124.272139 -208.191986 
L 124.398421 -209.532334 
L 124.537968 -210.872681 
L 131.376214 -210.872681 
L 131.376214 -210.872681 
L 131.515761 -209.532334 
L 131.642042 -208.191986 
L 131.754435 -206.851639 
L 131.852744 -205.511291 
L 131.937232 -204.170944 
L 132.008625 -202.830596 
L 132.068116 -201.490249 
L 132.117363 -200.149901 
L 132.158468 -198.809554 
L 132.193961 -197.469206 
L 132.226769 -196.128859 
L 132.260192 -194.788511 
L 132.297871 -193.448164 
L 132.34375 -192.107816 
L 132.402043 -190.767469 
L 132.477194 -189.427121 
L 132.573829 -188.086774 
L 132.696703 -186.746426 
L 132.850636 -185.406079 
L 133.040438 -184.065731 
L 133.270812 -182.725384 
L 133.546249 -181.385036 
L 133.870904 -180.044689 
L 134.248461 -178.704341 
L 134.681983 -177.363994 
L 135.173768 -176.023647 
L 135.725203 -174.683299 
L 136.33664 -173.342952 
L 137.007291 -172.002604 
L 137.735169 -170.662257 
L 138.517068 -169.321909 
L 139.3486 -167.981562 
L 140.224296 -166.641214 
L 141.137763 -165.300867 
L 142.081899 -163.960519 
L 143.049157 -162.620172 
L 144.031842 -161.279824 
L 145.022431 -159.939477 
L 146.01389 -158.599129 
L 146.99996 -157.258782 
L 147.975409 -155.918434 
L 148.936213 -154.578087 
L 149.87966 -153.237739 
L 150.804359 -151.897392 
L 151.710162 -150.557044 
L 152.597988 -149.216697 
L 153.469571 -147.876349 
L 154.327147 -146.536002 
L 155.173092 -145.195654 
L 156.009553 -143.855307 
L 156.838095 -142.514959 
L 157.659381 -141.174612 
L 158.472925 -139.834264 
L 159.276929 -138.493917 
L 160.068221 -137.153569 
L 160.842293 -135.813222 
L 161.593452 -134.472874 
L 162.315053 -133.132527 
L 162.999822 -131.792179 
L 163.640222 -130.451832 
L 164.228856 -129.111484 
L 164.758869 -127.771137 
L 165.224322 -126.430789 
L 165.62052 -125.090442 
L 165.944265 -123.750094 
L 166.194022 -122.409747 
L 166.369995 -121.069399 
L 166.474095 -119.729052 
L 166.509818 -118.388704 
L 166.482038 -117.048357 
L 166.396724 -115.708009 
L 166.260601 -114.367662 
L 166.080781 -113.027314 
L 165.864374 -111.686967 
L 165.618107 -110.346619 
L 165.347964 -109.006272 
L 165.058872 -107.665924 
L 164.754441 -106.325577 
L 164.436767 -104.985229 
L 164.106319 -103.644882 
L 163.761892 -102.304534 
L 163.400662 -100.964187 
L 163.018297 -99.623839 
L 162.609165 -98.283492 
L 162.166598 -96.943144 
L 161.683212 -95.602797 
L 161.151286 -94.262449 
L 160.56315 -92.922102 
L 159.911606 -91.581755 
L 159.190329 -90.241407 
L 158.394248 -88.90106 
L 157.519888 -87.560712 
L 156.565645 -86.220365 
L 155.531993 -84.880017 
L 154.421596 -83.53967 
L 153.239335 -82.199322 
L 151.992238 -80.858975 
L 150.689304 -79.518627 
L 149.34126 -78.17828 
z
" style="stroke: #ffffff; stroke-opacity: 0.38"/>
    </defs>
    <g clip-path="url(#pb4bdf3721c)">
     <use xlink:href="#m75154f072b" x="0" y="330.949969" style="fill: #0072b2; fill-opacity: 0.38; stroke: #ffffff; stroke-opacity: 0.38"/>
    </g>
   </g>
   <g id="PolyCollection_2">
    <defs>
     <path id="m82556b3553" d="M 291.51896 -53.919135 
L 272.81704 -53.919135 
L 272.226815 -55.666939 
L 271.647914 -57.414744 
L 271.084858 -59.162548 
L 270.541694 -60.910352 
L 270.021836 -62.658157 
L 269.527908 -64.405961 
L 269.06161 -66.153765 
L 268.623605 -67.901569 
L 268.21343 -69.649374 
L 267.829455 -71.397178 
L 267.468863 -73.144982 
L 267.127691 -74.892786 
L 266.800901 -76.640591 
L 266.482501 -78.388395 
L 266.165708 -80.136199 
L 265.84314 -81.884004 
L 265.507053 -83.631808 
L 265.149586 -85.379612 
L 264.763036 -87.127416 
L 264.340125 -88.875221 
L 263.874269 -90.623025 
L 263.359833 -92.370829 
L 262.792349 -94.118634 
L 262.168716 -95.866438 
L 261.487341 -97.614242 
L 260.748239 -99.362046 
L 259.953083 -101.109851 
L 259.10519 -102.857655 
L 258.209465 -104.605459 
L 257.272278 -106.353264 
L 256.301312 -108.101068 
L 255.30536 -109.848872 
L 254.294092 -111.596676 
L 253.277804 -113.344481 
L 252.267157 -115.092285 
L 251.272907 -116.840089 
L 250.305651 -118.587893 
L 249.375585 -120.335698 
L 248.492292 -122.083502 
L 247.664554 -123.831306 
L 246.900208 -125.579111 
L 246.206028 -127.326915 
L 245.587657 -129.074719 
L 245.049567 -130.822523 
L 244.595058 -132.570328 
L 244.226285 -134.318132 
L 243.944316 -136.065936 
L 243.749205 -137.813741 
L 243.640086 -139.561545 
L 243.615273 -141.309349 
L 243.672371 -143.057153 
L 243.808385 -144.804958 
L 244.01983 -146.552762 
L 244.302833 -148.300566 
L 244.653226 -150.048371 
L 245.066642 -151.796175 
L 245.53858 -153.543979 
L 246.064479 -155.291783 
L 246.639765 -157.039588 
L 247.259896 -158.787392 
L 247.920389 -160.535196 
L 248.616841 -162.283001 
L 249.344929 -164.030805 
L 250.100414 -165.778609 
L 250.879127 -167.526413 
L 251.676953 -169.274218 
L 252.489808 -171.022022 
L 253.313623 -172.769826 
L 254.144322 -174.51763 
L 254.977813 -176.265435 
L 255.809981 -178.013239 
L 256.636705 -179.761043 
L 257.453878 -181.508848 
L 258.257448 -183.256652 
L 259.043485 -185.004456 
L 259.808244 -186.75226 
L 260.548262 -188.500065 
L 261.260456 -190.247869 
L 261.942222 -191.995673 
L 262.591546 -193.743478 
L 263.207094 -195.491282 
L 263.788297 -197.239086 
L 264.335413 -198.98689 
L 264.849557 -200.734695 
L 265.33271 -202.482499 
L 265.787681 -204.230303 
L 266.218041 -205.978108 
L 266.628019 -207.725912 
L 267.022361 -209.473716 
L 267.406171 -211.22152 
L 267.784721 -212.969325 
L 268.163257 -214.717129 
L 268.546793 -216.464933 
L 268.939922 -218.212737 
L 269.346633 -219.960542 
L 269.77016 -221.708346 
L 270.212859 -223.45615 
L 270.676124 -225.203955 
L 271.160346 -226.951759 
L 293.175654 -226.951759 
L 293.175654 -226.951759 
L 293.659876 -225.203955 
L 294.123141 -223.45615 
L 294.56584 -221.708346 
L 294.989367 -219.960542 
L 295.396078 -218.212737 
L 295.789207 -216.464933 
L 296.172743 -214.717129 
L 296.551279 -212.969325 
L 296.929829 -211.22152 
L 297.313639 -209.473716 
L 297.707981 -207.725912 
L 298.117959 -205.978108 
L 298.548319 -204.230303 
L 299.00329 -202.482499 
L 299.486443 -200.734695 
L 300.000587 -198.98689 
L 300.547703 -197.239086 
L 301.128906 -195.491282 
L 301.744454 -193.743478 
L 302.393778 -191.995673 
L 303.075544 -190.247869 
L 303.787738 -188.500065 
L 304.527756 -186.75226 
L 305.292515 -185.004456 
L 306.078552 -183.256652 
L 306.882122 -181.508848 
L 307.699295 -179.761043 
L 308.526019 -178.013239 
L 309.358187 -176.265435 
L 310.191678 -174.51763 
L 311.022377 -172.769826 
L 311.846192 -171.022022 
L 312.659047 -169.274218 
L 313.456873 -167.526413 
L 314.235586 -165.778609 
L 314.991071 -164.030805 
L 315.719159 -162.283001 
L 316.415611 -160.535196 
L 317.076104 -158.787392 
L 317.696235 -157.039588 
L 318.271521 -155.291783 
L 318.79742 -153.543979 
L 319.269358 -151.796175 
L 319.682774 -150.048371 
L 320.033167 -148.300566 
L 320.31617 -146.552762 
L 320.527615 -144.804958 
L 320.663629 -143.057153 
L 320.720727 -141.309349 
L 320.695914 -139.561545 
L 320.586795 -137.813741 
L 320.391684 -136.065936 
L 320.109715 -134.318132 
L 319.740942 -132.570328 
L 319.286433 -130.822523 
L 318.748343 -129.074719 
L 318.129972 -127.326915 
L 317.435792 -125.579111 
L 316.671446 -123.831306 
L 315.843708 -122.083502 
L 314.960415 -120.335698 
L 314.030349 -118.587893 
L 313.063093 -116.840089 
L 312.068843 -115.092285 
L 311.058196 -113.344481 
L 310.041908 -111.596676 
L 309.03064 -109.848872 
L 308.034688 -108.101068 
L 307.063722 -106.353264 
L 306.126535 -104.605459 
L 305.23081 -102.857655 
L 304.382917 -101.109851 
L 303.587761 -99.362046 
L 302.848659 -97.614242 
L 302.167284 -95.866438 
L 301.543651 -94.118634 
L 300.976167 -92.370829 
L 300.461731 -90.623025 
L 299.995875 -88.875221 
L 299.572964 -87.127416 
L 299.186414 -85.379612 
L 298.828947 -83.631808 
L 298.49286 -81.884004 
L 298.170292 -80.136199 
L 297.853499 -78.388395 
L 297.535099 -76.640591 
L 297.208309 -74.892786 
L 296.867137 -73.144982 
L 296.506545 -71.397178 
L 296.12257 -69.649374 
L 295.712395 -67.901569 
L 295.27439 -66.153765 
L 294.808092 -64.405961 
L 294.314164 -62.658157 
L 293.794306 -60.910352 
L 293.251142 -59.162548 
L 292.688086 -57.414744 
L 292.109185 -55.666939 
L 291.51896 -53.919135 
z
" style="stroke: #ffffff; stroke-opacity: 0.38"/>
    </defs>
    <g clip-path="url(#pb4bdf3721c)">
     <use xlink:href="#m82556b3553" x="0" y="330.949969" style="fill: #e69f00; fill-opacity: 0.38; stroke: #ffffff; stroke-opacity: 0.38"/>
    </g>
   </g>
   <g id="PolyCollection_3">
    <defs>
     <path id="mbe826c135c" d="M 440.436927 -53.856 
L 432.320892 -53.856 
L 432.001207 -56.299636 
L 431.677805 -58.743273 
L 431.349726 -61.186909 
L 431.015218 -63.630545 
L 430.671768 -66.074182 
L 430.316153 -68.517818 
L 429.944536 -70.961455 
L 429.552567 -73.405091 
L 429.135497 -75.848727 
L 428.688307 -78.292364 
L 428.20582 -80.736 
L 427.682822 -83.179636 
L 427.114172 -85.623273 
L 426.494914 -88.066909 
L 425.820385 -90.510545 
L 425.086337 -92.954182 
L 424.289062 -95.397818 
L 423.425535 -97.841455 
L 422.49357 -100.285091 
L 421.491993 -102.728727 
L 420.420832 -105.172364 
L 419.281505 -107.616 
L 418.077014 -110.059636 
L 416.812117 -112.503273 
L 415.493474 -114.946909 
L 414.129737 -117.390545 
L 412.731576 -119.834182 
L 411.311618 -122.277818 
L 409.884281 -124.721455 
L 408.465507 -127.165091 
L 407.072379 -129.608727 
L 405.722644 -132.052364 
L 404.434154 -134.496 
L 403.224265 -136.939636 
L 402.109225 -139.383273 
L 401.103595 -141.826909 
L 400.219751 -144.270545 
L 399.467499 -146.714182 
L 398.853833 -149.157818 
L 398.382854 -151.601455 
L 398.055844 -154.045091 
L 397.871483 -156.488727 
L 397.826182 -158.932364 
L 397.914481 -161.376 
L 398.129491 -163.819636 
L 398.463311 -166.263273 
L 398.907408 -168.706909 
L 399.452922 -171.150545 
L 400.090888 -173.594182 
L 400.812377 -176.037818 
L 401.608575 -178.481455 
L 402.470809 -180.925091 
L 403.390564 -183.368727 
L 404.359501 -185.812364 
L 405.369506 -188.256 
L 406.412775 -190.699636 
L 407.481926 -193.143273 
L 408.570151 -195.586909 
L 409.671363 -198.030545 
L 410.780323 -200.474182 
L 411.892736 -202.917818 
L 413.005268 -205.361455 
L 414.115504 -207.805091 
L 415.221811 -210.248727 
L 416.323141 -212.692364 
L 417.418781 -215.136 
L 418.508066 -217.579636 
L 419.590107 -220.023273 
L 420.663534 -222.466909 
L 421.726307 -224.910545 
L 422.77559 -227.354182 
L 423.807713 -229.797818 
L 424.818217 -232.241455 
L 425.801972 -234.685091 
L 426.753357 -237.128727 
L 427.666487 -239.572364 
L 428.53546 -242.016 
L 429.354608 -244.459636 
L 430.118739 -246.903273 
L 430.823357 -249.346909 
L 431.464847 -251.790545 
L 432.040621 -254.234182 
L 432.549231 -256.677818 
L 432.99044 -259.121455 
L 433.365255 -261.565091 
L 433.675921 -264.008727 
L 433.925885 -266.452364 
L 434.119709 -268.896 
L 434.262961 -271.339636 
L 434.362058 -273.783273 
L 434.424075 -276.226909 
L 434.456525 -278.670545 
L 434.467109 -281.114182 
L 434.463455 -283.557818 
L 434.452846 -286.001455 
L 434.441963 -288.445091 
L 434.436653 -290.888727 
L 434.441734 -293.332364 
L 434.460859 -295.776 
L 438.296959 -295.776 
L 438.296959 -295.776 
L 438.316084 -293.332364 
L 438.321166 -290.888727 
L 438.315855 -288.445091 
L 438.304972 -286.001455 
L 438.294363 -283.557818 
L 438.290709 -281.114182 
L 438.301293 -278.670545 
L 438.333743 -276.226909 
L 438.39576 -273.783273 
L 438.494857 -271.339636 
L 438.638109 -268.896 
L 438.831933 -266.452364 
L 439.081897 -264.008727 
L 439.392564 -261.565091 
L 439.767378 -259.121455 
L 440.208588 -256.677818 
L 440.717198 -254.234182 
L 441.292971 -251.790545 
L 441.934461 -249.346909 
L 442.639079 -246.903273 
L 443.40321 -244.459636 
L 444.222358 -242.016 
L 445.091331 -239.572364 
L 446.004461 -237.128727 
L 446.955847 -234.685091 
L 447.939601 -232.241455 
L 448.950105 -229.797818 
L 449.982228 -227.354182 
L 451.031511 -224.910545 
L 452.094284 -222.466909 
L 453.167711 -220.023273 
L 454.249752 -217.579636 
L 455.339038 -215.136 
L 456.434677 -212.692364 
L 457.536008 -210.248727 
L 458.642314 -207.805091 
L 459.75255 -205.361455 
L 460.865083 -202.917818 
L 461.977495 -200.474182 
L 463.086455 -198.030545 
L 464.187667 -195.586909 
L 465.275892 -193.143273 
L 466.345044 -190.699636 
L 467.388312 -188.256 
L 468.398318 -185.812364 
L 469.367254 -183.368727 
L 470.287009 -180.925091 
L 471.149243 -178.481455 
L 471.945441 -176.037818 
L 472.666931 -173.594182 
L 473.304896 -171.150545 
L 473.85041 -168.706909 
L 474.294507 -166.263273 
L 474.628327 -163.819636 
L 474.843337 -161.376 
L 474.931636 -158.932364 
L 474.886335 -156.488727 
L 474.701975 -154.045091 
L 474.374965 -151.601455 
L 473.903985 -149.157818 
L 473.290319 -146.714182 
L 472.538067 -144.270545 
L 471.654223 -141.826909 
L 470.648593 -139.383273 
L 469.533553 -136.939636 
L 468.323664 -134.496 
L 467.035174 -132.052364 
L 465.685439 -129.608727 
L 464.292311 -127.165091 
L 462.873537 -124.721455 
L 461.446201 -122.277818 
L 460.026242 -119.834182 
L 458.628081 -117.390545 
L 457.264344 -114.946909 
L 455.945701 -112.503273 
L 454.680804 -110.059636 
L 453.476313 -107.616 
L 452.336986 -105.172364 
L 451.265825 -102.728727 
L 450.264248 -100.285091 
L 449.332283 -97.841455 
L 448.468756 -95.397818 
L 447.671481 -92.954182 
L 446.937433 -90.510545 
L 446.262904 -88.066909 
L 445.643646 -85.623273 
L 445.074996 -83.179636 
L 444.551998 -80.736 
L 444.069511 -78.292364 
L 443.622321 -75.848727 
L 443.205251 -73.405091 
L 442.813282 -70.961455 
L 442.441665 -68.517818 
L 442.086051 -66.074182 
L 441.7426 -63.630545 
L 441.408092 -61.186909 
L 441.080013 -58.743273 
L 440.756611 -56.299636 
L 440.436927 -53.856 
z
" style="stroke: #ffffff; stroke-opacity: 0.38"/>
    </defs>
    <g clip-path="url(#pb4bdf3721c)">
     <use xlink:href="#mbe826c135c" x="0" y="330.949969" style="fill: #009e73; fill-opacity: 0.38; stroke: #ffffff; stroke-opacity: 0.38"/>
    </g>
   </g>
   <g id="PathCollection_1">
    <defs>
     <path id="C0_0_e009b58218" d="M 0 1.870829 
C 0.49615 1.870829 0.972045 1.673706 1.322876 1.322876 
C 1.673706 0.972045 1.870829 0.49615 1.870829 -0 
C 1.870829 -0.49615 1.673706 -0.972045 1.322876 -1.322876 
C 0.972045 -1.673706 0.49615 -1.870829 0 -1.870829 
C -0.49615 -1.870829 -0.972045 -1.673706 -1.322876 -1.322876 
C -1.673706 -0.972045 -1.870829 -0.49615 -1.870829 0 
C -1.870829 0.49615 -1.673706 0.972045 -1.322876 1.322876 
C -0.972045 1.673706 -0.49615 1.870829 0 1.870829 
z
"/>
    </defs>
    <g clip-path="url(#pb4bdf3721c)">
     <use xlink:href="#C0_0_e009b58218" x="124.08672" y="244.305862" style="fill: #0072b2; fill-opacity: 0.65"/>
    </g>
    <g clip-path="url(#pb4bdf3721c)">
     <use xlink:href="#C0_0_e009b58218" x="131.592689" y="178.571057" style="fill: #0072b2; fill-opacity: 0.65"/>
    </g>
    <g clip-path="url(#pb4bdf3721c)">
     <use xlink:href="#C0_0_e009b58218" x="130.36398" y="198.865276" style="fill: #0072b2; fill-opacity: 0.65"/>
    </g>
    <g clip-path="url(#pb4bdf3721c)">
     <use xlink:href="#C0_0_e009b58218" x="135.053886" y="196.907019" style="fill: #0072b2; fill-opacity: 0.65"/>
    </g>
    <g clip-path="url(#pb4bdf3721c)">
     <use xlink:href="#C0_0_e009b58218" x="129.920073" y="184.45977" style="fill: #0072b2; fill-opacity: 0.65"/>
    </g>
    <g clip-path="url(#pb4bdf3721c)">
     <use xlink:href="#C0_0_e009b58218" x="131.759588" y="232.527251" style="fill: #0072b2; fill-opacity: 0.65"/>
    </g>
    <g clip-path="url(#pb4bdf3721c)">
     <use xlink:href="#C0_0_e009b58218" x="128.079491" y="179.127771" style="fill: #0072b2; fill-opacity: 0.65"/>
    </g>
    <g clip-path="url(#pb4bdf3721c)">
     <use xlink:href="#C0_0_e009b58218" x="139.253079" y="153.056808" style="fill: #0072b2; fill-opacity: 0.65"/>
    </g>
    <g clip-path="url(#pb4bdf3721c)">
     <use xlink:href="#C0_0_e009b58218" x="130.934843" y="239.753958" style="fill: #0072b2; fill-opacity: 0.65"/>
    </g>
    <g clip-path="url(#pb4bdf3721c)">
     <use xlink:href="#C0_0_e009b58218" x="132.75415" y="232.325183" style="fill: #0072b2; fill-opacity: 0.65"/>
    </g>
    <g clip-path="url(#pb4bdf3721c)">
     <use xlink:href="#C0_0_e009b58218" x="120.777828" y="224.500081" style="fill: #0072b2; fill-opacity: 0.65"/>
    </g>
    <g clip-path="url(#pb4bdf3721c)">
     <use xlink:href="#C0_0_e009b58218" x="143.853419" y="226.962052" style="fill: #0072b2; fill-opacity: 0.65"/>
    </g>
    <g clip-path="url(#pb4bdf3721c)">
     <use xlink:href="#C0_0_e009b58218" x="126.701186" y="212.838178" style="fill: #0072b2; fill-opacity: 0.65"/>
    </g>
    <g clip-path="url(#pb4bdf3721c)">
     <use xlink:href="#C0_0_e009b58218" x="115.43913" y="199.218514" style="fill: #0072b2; fill-opacity: 0.65"/>
    </g>
    <g clip-path="url(#pb4bdf3721c)">
     <use xlink:href="#C0_0_e009b58218" x="122.962513" y="120.077287" style="fill: #0072b2; fill-opacity: 0.65"/>
    </g>
    <g clip-path="url(#pb4bdf3721c)">
     <use xlink:href="#C0_0_e009b58218" x="126.885154" y="242.798152" style="fill: #0072b2; fill-opacity: 0.65"/>
    </g>
    <g clip-path="url(#pb4bdf3721c)">
     <use xlink:href="#C0_0_e009b58218" x="137.080361" y="179.714672" style="fill: #0072b2; fill-opacity: 0.65"/>
    </g>
    <g clip-path="url(#pb4bdf3721c)">
     <use xlink:href="#C0_0_e009b58218" x="133.899071" y="199.279013" style="fill: #0072b2; fill-opacity: 0.65"/>
    </g>
    <g clip-path="url(#pb4bdf3721c)">
     <use xlink:href="#C0_0_e009b58218" x="134.014683" y="171.792904" style="fill: #0072b2; fill-opacity: 0.65"/>
    </g>
    <g clip-path="url(#pb4bdf3721c)">
     <use xlink:href="#C0_0_e009b58218" x="126.150097" y="209.643984" style="fill: #0072b2; fill-opacity: 0.65"/>
    </g>
    <g clip-path="url(#pb4bdf3721c)">
     <use xlink:href="#C0_0_e009b58218" x="124.546377" y="196.580213" style="fill: #0072b2; fill-opacity: 0.65"/>
    </g>
    <g clip-path="url(#pb4bdf3721c)">
     <use xlink:href="#C0_0_e009b58218" x="120.47562" y="210.596841" style="fill: #0072b2; fill-opacity: 0.65"/>
    </g>
    <g clip-path="url(#pb4bdf3721c)">
     <use xlink:href="#C0_0_e009b58218" x="134.365046" y="174.903889" style="fill: #0072b2; fill-opacity: 0.65"/>
    </g>
    <g clip-path="url(#pb4bdf3721c)">
     <use xlink:href="#C0_0_e009b58218" x="125.365785" y="206.232543" style="fill: #0072b2; fill-opacity: 0.65"/>
    </g>
    <g clip-path="url(#pb4bdf3721c)">
     <use xlink:href="#C0_0_e009b58218" x="135.47691" y="179.549937" style="fill: #0072b2; fill-opacity: 0.65"/>
    </g>
    <g clip-path="url(#pb4bdf3721c)">
     <use xlink:href="#C0_0_e009b58218" x="129.295687" y="207.124759" style="fill: #0072b2; fill-opacity: 0.65"/>
    </g>
    <g clip-path="url(#pb4bdf3721c)">
     <use xlink:href="#C0_0_e009b58218" x="130.308329" y="133.777898" style="fill: #0072b2; fill-opacity: 0.65"/>
    </g>
    <g clip-path="url(#pb4bdf3721c)">
     <use xlink:href="#C0_0_e009b58218" x="129.820225" y="230.805306" style="fill: #0072b2; fill-opacity: 0.65"/>
    </g>
    <g clip-path="url(#pb4bdf3721c)">
     <use xlink:href="#C0_0_e009b58218" x="113.462999" y="252.771689" style="fill: #0072b2; fill-opacity: 0.65"/>
    </g>
    <g clip-path="url(#pb4bdf3721c)">
     <use xlink:href="#C0_0_e009b58218" x="127.212706" y="221.178237" style="fill: #0072b2; fill-opacity: 0.65"/>
    </g>
    <g clip-path="url(#pb4bdf3721c)">
     <use xlink:href="#C0_0_e009b58218" x="125.928246" y="246.55145" style="fill: #0072b2; fill-opacity: 0.65"/>
    </g>
    <g clip-path="url(#pb4bdf3721c)">
     <use xlink:href="#C0_0_e009b58218" x="123.85181" y="251.17649" style="fill: #0072b2; fill-opacity: 0.65"/>
    </g>
    <g clip-path="url(#pb4bdf3721c)">
     <use xlink:href="#C0_0_e009b58218" x="122.20879" y="210.346065" style="fill: #0072b2; fill-opacity: 0.65"/>
    </g>
    <g clip-path="url(#pb4bdf3721c)">
     <use xlink:href="#C0_0_e009b58218" x="118.734383" y="205.586942" style="fill: #0072b2; fill-opacity: 0.65"/>
    </g>
    <g clip-path="url(#pb4bdf3721c)">
     <use xlink:href="#C0_0_e009b58218" x="132.112051" y="243.79003" style="fill: #0072b2; fill-opacity: 0.65"/>
    </g>
    <g clip-path="url(#pb4bdf3721c)">
     <use xlink:href="#C0_0_e009b58218" x="138.384831" y="246.121732" style="fill: #0072b2; fill-opacity: 0.65"/>
    </g>
    <g clip-path="url(#pb4bdf3721c)">
     <use xlink:href="#C0_0_e009b58218" x="119.209199" y="214.386874" style="fill: #0072b2; fill-opacity: 0.65"/>
    </g>
    <g clip-path="url(#pb4bdf3721c)">
     <use xlink:href="#C0_0_e009b58218" x="121.756765" y="210.082538" style="fill: #0072b2; fill-opacity: 0.65"/>
    </g>
    <g clip-path="url(#pb4bdf3721c)">
     <use xlink:href="#C0_0_e009b58218" x="127.166963" y="181.060576" style="fill: #0072b2; fill-opacity: 0.65"/>
    </g>
    <g clip-path="url(#pb4bdf3721c)">
     <use xlink:href="#C0_0_e009b58218" x="122.764639" y="226.514113" style="fill: #0072b2; fill-opacity: 0.65"/>
    </g>
    <g clip-path="url(#pb4bdf3721c)">
     <use xlink:href="#C0_0_e009b58218" x="127.226228" y="226.622138" style="fill: #0072b2; fill-opacity: 0.65"/>
    </g>
    <g clip-path="url(#pb4bdf3721c)">
     <use xlink:href="#C0_0_e009b58218" x="124.974477" y="200.279127" style="fill: #0072b2; fill-opacity: 0.65"/>
    </g>
    <g clip-path="url(#pb4bdf3721c)">
     <use xlink:href="#C0_0_e009b58218" x="129.349865" y="217.644735" style="fill: #0072b2; fill-opacity: 0.65"/>
    </g>
    <g clip-path="url(#pb4bdf3721c)">
     <use xlink:href="#C0_0_e009b58218" x="131.256069" y="250.223282" style="fill: #0072b2; fill-opacity: 0.65"/>
    </g>
    <g clip-path="url(#pb4bdf3721c)">
     <use xlink:href="#C0_0_e009b58218" x="132.619781" y="242.233234" style="fill: #0072b2; fill-opacity: 0.65"/>
    </g>
   </g>
   <g id="PathCollection_2">
    <defs>
     <path id="C1_0_ddec86932c" d="M 0 1.870829 
C 0.49615 1.870829 0.972045 1.673706 1.322876 1.322876 
C 1.673706 0.972045 1.870829 0.49615 1.870829 -0 
C 1.870829 -0.49615 1.673706 -0.972045 1.322876 -1.322876 
C 0.972045 -1.673706 0.49615 -1.870829 0 -1.870829 
C -0.49615 -1.870829 -0.972045 -1.673706 -1.322876 -1.322876 
C -1.673706 -0.972045 -1.870829 -0.49615 -1.870829 0 
C -1.870829 0.49615 -1.673706 0.972045 -1.322876 1.322876 
C -0.972045 1.673706 -0.49615 1.870829 0 1.870829 
z
"/>
    </defs>
    <g clip-path="url(#pb4bdf3721c)">
     <use xlink:href="#C1_0_ddec86932c" x="282.709553" y="155.353389" style="fill: #e69f00; fill-opacity: 0.65"/>
    </g>
    <g clip-path="url(#pb4bdf3721c)">
     <use xlink:href="#C1_0_ddec86932c" x="273.904674" y="143.530417" style="fill: #e69f00; fill-opacity: 0.65"/>
    </g>
    <g clip-path="url(#pb4bdf3721c)">
     <use xlink:href="#C1_0_ddec86932c" x="280.334512" y="172.257791" style="fill: #e69f00; fill-opacity: 0.65"/>
    </g>
    <g clip-path="url(#pb4bdf3721c)">
     <use xlink:href="#C1_0_ddec86932c" x="288.647409" y="151.055271" style="fill: #e69f00; fill-opacity: 0.65"/>
    </g>
    <g clip-path="url(#pb4bdf3721c)">
     <use xlink:href="#C1_0_ddec86932c" x="282.099096" y="134.231052" style="fill: #e69f00; fill-opacity: 0.65"/>
    </g>
    <g clip-path="url(#pb4bdf3721c)">
     <use xlink:href="#C1_0_ddec86932c" x="278.394772" y="277.030834" style="fill: #e69f00; fill-opacity: 0.65"/>
    </g>
    <g clip-path="url(#pb4bdf3721c)">
     <use xlink:href="#C1_0_ddec86932c" x="281.815381" y="150.415391" style="fill: #e69f00; fill-opacity: 0.65"/>
    </g>
    <g clip-path="url(#pb4bdf3721c)">
     <use xlink:href="#C1_0_ddec86932c" x="281.012664" y="252.814195" style="fill: #e69f00; fill-opacity: 0.65"/>
    </g>
    <g clip-path="url(#pb4bdf3721c)">
     <use xlink:href="#C1_0_ddec86932c" x="274.893134" y="257.763877" style="fill: #e69f00; fill-opacity: 0.65"/>
    </g>
    <g clip-path="url(#pb4bdf3721c)">
     <use xlink:href="#C1_0_ddec86932c" x="292.368802" y="209.087969" style="fill: #e69f00; fill-opacity: 0.65"/>
    </g>
    <g clip-path="url(#pb4bdf3721c)">
     <use xlink:href="#C1_0_ddec86932c" x="283.562351" y="107.462319" style="fill: #e69f00; fill-opacity: 0.65"/>
    </g>
    <g clip-path="url(#pb4bdf3721c)">
     <use xlink:href="#C1_0_ddec86932c" x="278.15435" y="103.99821" style="fill: #e69f00; fill-opacity: 0.65"/>
    </g>
    <g clip-path="url(#pb4bdf3721c)">
     <use xlink:href="#C1_0_ddec86932c" x="284.282081" y="180.345543" style="fill: #e69f00; fill-opacity: 0.65"/>
    </g>
    <g clip-path="url(#pb4bdf3721c)">
     <use xlink:href="#C1_0_ddec86932c" x="271.285204" y="153.828773" style="fill: #e69f00; fill-opacity: 0.65"/>
    </g>
    <g clip-path="url(#pb4bdf3721c)">
     <use xlink:href="#C1_0_ddec86932c" x="269.098562" y="112.077706" style="fill: #e69f00; fill-opacity: 0.65"/>
    </g>
    <g clip-path="url(#pb4bdf3721c)">
     <use xlink:href="#C1_0_ddec86932c" x="272.065463" y="173.122281" style="fill: #e69f00; fill-opacity: 0.65"/>
    </g>
    <g clip-path="url(#pb4bdf3721c)">
     <use xlink:href="#C1_0_ddec86932c" x="292.386876" y="177.660666" style="fill: #e69f00; fill-opacity: 0.65"/>
    </g>
    <g clip-path="url(#pb4bdf3721c)">
     <use xlink:href="#C1_0_ddec86932c" x="296.88807" y="211.517855" style="fill: #e69f00; fill-opacity: 0.65"/>
    </g>
    <g clip-path="url(#pb4bdf3721c)">
     <use xlink:href="#C1_0_ddec86932c" x="281.329741" y="188.832934" style="fill: #e69f00; fill-opacity: 0.65"/>
    </g>
    <g clip-path="url(#pb4bdf3721c)">
     <use xlink:href="#C1_0_ddec86932c" x="292.215631" y="205.276008" style="fill: #e69f00; fill-opacity: 0.65"/>
    </g>
    <g clip-path="url(#pb4bdf3721c)">
     <use xlink:href="#C1_0_ddec86932c" x="283.408529" y="174.97911" style="fill: #e69f00; fill-opacity: 0.65"/>
    </g>
    <g clip-path="url(#pb4bdf3721c)">
     <use xlink:href="#C1_0_ddec86932c" x="289.437941" y="245.808462" style="fill: #e69f00; fill-opacity: 0.65"/>
    </g>
    <g clip-path="url(#pb4bdf3721c)">
     <use xlink:href="#C1_0_ddec86932c" x="287.15993" y="185.550076" style="fill: #e69f00; fill-opacity: 0.65"/>
    </g>
    <g clip-path="url(#pb4bdf3721c)">
     <use xlink:href="#C1_0_ddec86932c" x="289.223401" y="186.24419" style="fill: #e69f00; fill-opacity: 0.65"/>
    </g>
    <g clip-path="url(#pb4bdf3721c)">
     <use xlink:href="#C1_0_ddec86932c" x="286.74132" y="111.225429" style="fill: #e69f00; fill-opacity: 0.65"/>
    </g>
    <g clip-path="url(#pb4bdf3721c)">
     <use xlink:href="#C1_0_ddec86932c" x="276.537542" y="264.894725" style="fill: #e69f00; fill-opacity: 0.65"/>
    </g>
    <g clip-path="url(#pb4bdf3721c)">
     <use xlink:href="#C1_0_ddec86932c" x="271.775466" y="201.00647" style="fill: #e69f00; fill-opacity: 0.65"/>
    </g>
    <g clip-path="url(#pb4bdf3721c)">
     <use xlink:href="#C1_0_ddec86932c" x="272.220845" y="175.758703" style="fill: #e69f00; fill-opacity: 0.65"/>
    </g>
    <g clip-path="url(#pb4bdf3721c)">
     <use xlink:href="#C1_0_ddec86932c" x="286.555405" y="145.215383" style="fill: #e69f00; fill-opacity: 0.65"/>
    </g>
    <g clip-path="url(#pb4bdf3721c)">
     <use xlink:href="#C1_0_ddec86932c" x="291.020705" y="187.559884" style="fill: #e69f00; fill-opacity: 0.65"/>
    </g>
    <g clip-path="url(#pb4bdf3721c)">
     <use xlink:href="#C1_0_ddec86932c" x="295.66477" y="253.948993" style="fill: #e69f00; fill-opacity: 0.65"/>
    </g>
    <g clip-path="url(#pb4bdf3721c)">
     <use xlink:href="#C1_0_ddec86932c" x="264.481961" y="112.325593" style="fill: #e69f00; fill-opacity: 0.65"/>
    </g>
    <g clip-path="url(#pb4bdf3721c)">
     <use xlink:href="#C1_0_ddec86932c" x="277.139951" y="209.650693" style="fill: #e69f00; fill-opacity: 0.65"/>
    </g>
    <g clip-path="url(#pb4bdf3721c)">
     <use xlink:href="#C1_0_ddec86932c" x="285.15275" y="167.5547" style="fill: #e69f00; fill-opacity: 0.65"/>
    </g>
    <g clip-path="url(#pb4bdf3721c)">
     <use xlink:href="#C1_0_ddec86932c" x="282.697231" y="211.830517" style="fill: #e69f00; fill-opacity: 0.65"/>
    </g>
    <g clip-path="url(#pb4bdf3721c)">
     <use xlink:href="#C1_0_ddec86932c" x="271.889171" y="215.072159" style="fill: #e69f00; fill-opacity: 0.65"/>
    </g>
    <g clip-path="url(#pb4bdf3721c)">
     <use xlink:href="#C1_0_ddec86932c" x="270.632644" y="198.597123" style="fill: #e69f00; fill-opacity: 0.65"/>
    </g>
    <g clip-path="url(#pb4bdf3721c)">
     <use xlink:href="#C1_0_ddec86932c" x="281.085251" y="231.271878" style="fill: #e69f00; fill-opacity: 0.65"/>
    </g>
    <g clip-path="url(#pb4bdf3721c)">
     <use xlink:href="#C1_0_ddec86932c" x="263.14775" y="264.58834" style="fill: #e69f00; fill-opacity: 0.65"/>
    </g>
    <g clip-path="url(#pb4bdf3721c)">
     <use xlink:href="#C1_0_ddec86932c" x="275.926073" y="198.496482" style="fill: #e69f00; fill-opacity: 0.65"/>
    </g>
    <g clip-path="url(#pb4bdf3721c)">
     <use xlink:href="#C1_0_ddec86932c" x="276.008544" y="212.456867" style="fill: #e69f00; fill-opacity: 0.65"/>
    </g>
    <g clip-path="url(#pb4bdf3721c)">
     <use xlink:href="#C1_0_ddec86932c" x="297.290352" y="221.301696" style="fill: #e69f00; fill-opacity: 0.65"/>
    </g>
    <g clip-path="url(#pb4bdf3721c)">
     <use xlink:href="#C1_0_ddec86932c" x="276.767443" y="196.348131" style="fill: #e69f00; fill-opacity: 0.65"/>
    </g>
    <g clip-path="url(#pb4bdf3721c)">
     <use xlink:href="#C1_0_ddec86932c" x="289.708351" y="195.5144" style="fill: #e69f00; fill-opacity: 0.65"/>
    </g>
    <g clip-path="url(#pb4bdf3721c)">
     <use xlink:href="#C1_0_ddec86932c" x="278.581515" y="163.859728" style="fill: #e69f00; fill-opacity: 0.65"/>
    </g>
   </g>
   <g id="PathCollection_3">
    <defs>
     <path id="C2_0_99bac5354a" d="M 0 1.870829 
C 0.49615 1.870829 0.972045 1.673706 1.322876 1.322876 
C 1.673706 0.972045 1.870829 0.49615 1.870829 -0 
C 1.870829 -0.49615 1.673706 -0.972045 1.322876 -1.322876 
C 0.972045 -1.673706 0.49615 -1.870829 0 -1.870829 
C -0.49615 -1.870829 -0.972045 -1.673706 -1.322876 -1.322876 
C -1.673706 -0.972045 -1.870829 -0.49615 -1.870829 0 
C -1.870829 0.49615 -1.673706 0.972045 -1.322876 1.322876 
C -0.972045 1.673706 -0.49615 1.870829 0 1.870829 
z
"/>
    </defs>
    <g clip-path="url(#pb4bdf3721c)">
     <use xlink:href="#C2_0_99bac5354a" x="431.674433" y="167.780769" style="fill: #009e73; fill-opacity: 0.65"/>
    </g>
    <g clip-path="url(#pb4bdf3721c)">
     <use xlink:href="#C2_0_99bac5354a" x="424.892155" y="103.492375" style="fill: #009e73; fill-opacity: 0.65"/>
    </g>
    <g clip-path="url(#pb4bdf3721c)">
     <use xlink:href="#C2_0_99bac5354a" x="443.947043" y="138.119375" style="fill: #009e73; fill-opacity: 0.65"/>
    </g>
    <g clip-path="url(#pb4bdf3721c)">
     <use xlink:href="#C2_0_99bac5354a" x="435.707822" y="110.65813" style="fill: #009e73; fill-opacity: 0.65"/>
    </g>
    <g clip-path="url(#pb4bdf3721c)">
     <use xlink:href="#C2_0_99bac5354a" x="432.782301" y="116.272638" style="fill: #009e73; fill-opacity: 0.65"/>
    </g>
    <g clip-path="url(#pb4bdf3721c)">
     <use xlink:href="#C2_0_99bac5354a" x="434.543957" y="277.093969" style="fill: #009e73; fill-opacity: 0.65"/>
    </g>
    <g clip-path="url(#pb4bdf3721c)">
     <use xlink:href="#C2_0_99bac5354a" x="430.595439" y="194.620151" style="fill: #009e73; fill-opacity: 0.65"/>
    </g>
    <g clip-path="url(#pb4bdf3721c)">
     <use xlink:href="#C2_0_99bac5354a" x="433.785359" y="155.634081" style="fill: #009e73; fill-opacity: 0.65"/>
    </g>
    <g clip-path="url(#pb4bdf3721c)">
     <use xlink:href="#C2_0_99bac5354a" x="438.221399" y="183.44005" style="fill: #009e73; fill-opacity: 0.65"/>
    </g>
    <g clip-path="url(#pb4bdf3721c)">
     <use xlink:href="#C2_0_99bac5354a" x="436.387572" y="179.450532" style="fill: #009e73; fill-opacity: 0.65"/>
    </g>
    <g clip-path="url(#pb4bdf3721c)">
     <use xlink:href="#C2_0_99bac5354a" x="425.872969" y="35.173969" style="fill: #009e73; fill-opacity: 0.65"/>
    </g>
    <g clip-path="url(#pb4bdf3721c)">
     <use xlink:href="#C2_0_99bac5354a" x="441.91206" y="220.45089" style="fill: #009e73; fill-opacity: 0.65"/>
    </g>
    <g clip-path="url(#pb4bdf3721c)">
     <use xlink:href="#C2_0_99bac5354a" x="431.705216" y="154.611512" style="fill: #009e73; fill-opacity: 0.65"/>
    </g>
    <g clip-path="url(#pb4bdf3721c)">
     <use xlink:href="#C2_0_99bac5354a" x="435.098784" y="212.776291" style="fill: #009e73; fill-opacity: 0.65"/>
    </g>
    <g clip-path="url(#pb4bdf3721c)">
     <use xlink:href="#C2_0_99bac5354a" x="430.891461" y="216.733464" style="fill: #009e73; fill-opacity: 0.65"/>
    </g>
    <g clip-path="url(#pb4bdf3721c)">
     <use xlink:href="#C2_0_99bac5354a" x="426.841418" y="115.954814" style="fill: #009e73; fill-opacity: 0.65"/>
    </g>
    <g clip-path="url(#pb4bdf3721c)">
     <use xlink:href="#C2_0_99bac5354a" x="451.490876" y="170.349609" style="fill: #009e73; fill-opacity: 0.65"/>
    </g>
    <g clip-path="url(#pb4bdf3721c)">
     <use xlink:href="#C2_0_99bac5354a" x="432.082808" y="202.119954" style="fill: #009e73; fill-opacity: 0.65"/>
    </g>
    <g clip-path="url(#pb4bdf3721c)">
     <use xlink:href="#C2_0_99bac5354a" x="437.756671" y="165.164071" style="fill: #009e73; fill-opacity: 0.65"/>
    </g>
    <g clip-path="url(#pb4bdf3721c)">
     <use xlink:href="#C2_0_99bac5354a" x="434.935731" y="170.472118" style="fill: #009e73; fill-opacity: 0.65"/>
    </g>
    <g clip-path="url(#pb4bdf3721c)">
     <use xlink:href="#C2_0_99bac5354a" x="438.231071" y="137.413792" style="fill: #009e73; fill-opacity: 0.65"/>
    </g>
    <g clip-path="url(#pb4bdf3721c)">
     <use xlink:href="#C2_0_99bac5354a" x="436.276443" y="153.329103" style="fill: #009e73; fill-opacity: 0.65"/>
    </g>
    <g clip-path="url(#pb4bdf3721c)">
     <use xlink:href="#C2_0_99bac5354a" x="442.409475" y="201.29226" style="fill: #009e73; fill-opacity: 0.65"/>
    </g>
    <g clip-path="url(#pb4bdf3721c)">
     <use xlink:href="#C2_0_99bac5354a" x="433.827216" y="260.34784" style="fill: #009e73; fill-opacity: 0.65"/>
    </g>
    <g clip-path="url(#pb4bdf3721c)">
     <use xlink:href="#C2_0_99bac5354a" x="434.042087" y="211.839353" style="fill: #009e73; fill-opacity: 0.65"/>
    </g>
    <g clip-path="url(#pb4bdf3721c)">
     <use xlink:href="#C2_0_99bac5354a" x="440.436889" y="190.569646" style="fill: #009e73; fill-opacity: 0.65"/>
    </g>
    <g clip-path="url(#pb4bdf3721c)">
     <use xlink:href="#C2_0_99bac5354a" x="442.275794" y="176.067594" style="fill: #009e73; fill-opacity: 0.65"/>
    </g>
    <g clip-path="url(#pb4bdf3721c)">
     <use xlink:href="#C2_0_99bac5354a" x="445.201489" y="168.018071" style="fill: #009e73; fill-opacity: 0.65"/>
    </g>
    <g clip-path="url(#pb4bdf3721c)">
     <use xlink:href="#C2_0_99bac5354a" x="431.431554" y="186.353018" style="fill: #009e73; fill-opacity: 0.65"/>
    </g>
    <g clip-path="url(#pb4bdf3721c)">
     <use xlink:href="#C2_0_99bac5354a" x="442.698033" y="238.029749" style="fill: #009e73; fill-opacity: 0.65"/>
    </g>
    <g clip-path="url(#pb4bdf3721c)">
     <use xlink:href="#C2_0_99bac5354a" x="425.265809" y="145.97661" style="fill: #009e73; fill-opacity: 0.65"/>
    </g>
    <g clip-path="url(#pb4bdf3721c)">
     <use xlink:href="#C2_0_99bac5354a" x="437.003661" y="182.545212" style="fill: #009e73; fill-opacity: 0.65"/>
    </g>
    <g clip-path="url(#pb4bdf3721c)">
     <use xlink:href="#C2_0_99bac5354a" x="435.83058" y="189.71625" style="fill: #009e73; fill-opacity: 0.65"/>
    </g>
    <g clip-path="url(#pb4bdf3721c)">
     <use xlink:href="#C2_0_99bac5354a" x="439.771362" y="192.386832" style="fill: #009e73; fill-opacity: 0.65"/>
    </g>
    <g clip-path="url(#pb4bdf3721c)">
     <use xlink:href="#C2_0_99bac5354a" x="454.510752" y="135.818922" style="fill: #009e73; fill-opacity: 0.65"/>
    </g>
    <g clip-path="url(#pb4bdf3721c)">
     <use xlink:href="#C2_0_99bac5354a" x="425.022986" y="145.457492" style="fill: #009e73; fill-opacity: 0.65"/>
    </g>
    <g clip-path="url(#pb4bdf3721c)">
     <use xlink:href="#C2_0_99bac5354a" x="438.32734" y="144.508797" style="fill: #009e73; fill-opacity: 0.65"/>
    </g>
    <g clip-path="url(#pb4bdf3721c)">
     <use xlink:href="#C2_0_99bac5354a" x="438.032208" y="183.870248" style="fill: #009e73; fill-opacity: 0.65"/>
    </g>
    <g clip-path="url(#pb4bdf3721c)">
     <use xlink:href="#C2_0_99bac5354a" x="439.367757" y="89.893869" style="fill: #009e73; fill-opacity: 0.65"/>
    </g>
    <g clip-path="url(#pb4bdf3721c)">
     <use xlink:href="#C2_0_99bac5354a" x="429.073796" y="158.788621" style="fill: #009e73; fill-opacity: 0.65"/>
    </g>
    <g clip-path="url(#pb4bdf3721c)">
     <use xlink:href="#C2_0_99bac5354a" x="434.022837" y="117.156424" style="fill: #009e73; fill-opacity: 0.65"/>
    </g>
    <g clip-path="url(#pb4bdf3721c)">
     <use xlink:href="#C2_0_99bac5354a" x="430.909386" y="182.211561" style="fill: #009e73; fill-opacity: 0.65"/>
    </g>
    <g clip-path="url(#pb4bdf3721c)">
     <use xlink:href="#C2_0_99bac5354a" x="441.393935" y="128.434236" style="fill: #009e73; fill-opacity: 0.65"/>
    </g>
    <g clip-path="url(#pb4bdf3721c)">
     <use xlink:href="#C2_0_99bac5354a" x="430.715577" y="152.649426" style="fill: #009e73; fill-opacity: 0.65"/>
    </g>
    <g clip-path="url(#pb4bdf3721c)">
     <use xlink:href="#C2_0_99bac5354a" x="447.03511" y="240.118424" style="fill: #009e73; fill-opacity: 0.65"/>
    </g>
   </g>
   <g id="matplotlib.axis_1">
    <g id="xtick_1">
     <g id="line2d_1">
      <path d="M 127.957091 289.189969 
L 127.957091 23.077969 
" clip-path="url(#pb4bdf3721c)" style="fill: none; stroke: #d9dedb; stroke-opacity: 0.85; stroke-width: 0.8; stroke-linecap: square"/>
     </g>
     <g id="line2d_2"/>
     <g id="text_1">
      <!-- Group A -->
      <g style="fill: #56636f" transform="translate(107.728185 300.288406) scale(0.1 -0.1)">
       <defs>
        <path id="DejaVuSans-47" d="M 3809 666 
L 3809 1919 
L 2778 1919 
L 2778 2438 
L 4434 2438 
L 4434 434 
Q 4069 175 3628 42 
Q 3188 -91 2688 -91 
Q 1594 -91 976 548 
Q 359 1188 359 2328 
Q 359 3472 976 4111 
Q 1594 4750 2688 4750 
Q 3144 4750 3555 4637 
Q 3966 4525 4313 4306 
L 4313 3634 
Q 3963 3931 3569 4081 
Q 3175 4231 2741 4231 
Q 1884 4231 1454 3753 
Q 1025 3275 1025 2328 
Q 1025 1384 1454 906 
Q 1884 428 2741 428 
Q 3075 428 3337 486 
Q 3600 544 3809 666 
z
" transform="scale(0.015625)"/>
        <path id="DejaVuSans-72" d="M 2631 2963 
Q 2534 3019 2420 3045 
Q 2306 3072 2169 3072 
Q 1681 3072 1420 2755 
Q 1159 2438 1159 1844 
L 1159 0 
L 581 0 
L 581 3500 
L 1159 3500 
L 1159 2956 
Q 1341 3275 1631 3429 
Q 1922 3584 2338 3584 
Q 2397 3584 2469 3576 
Q 2541 3569 2628 3553 
L 2631 2963 
z
" transform="scale(0.015625)"/>
        <path id="DejaVuSans-6f" d="M 1959 3097 
Q 1497 3097 1228 2736 
Q 959 2375 959 1747 
Q 959 1119 1226 758 
Q 1494 397 1959 397 
Q 2419 397 2687 759 
Q 2956 1122 2956 1747 
Q 2956 2369 2687 2733 
Q 2419 3097 1959 3097 
z
M 1959 3584 
Q 2709 3584 3137 3096 
Q 3566 2609 3566 1747 
Q 3566 888 3137 398 
Q 2709 -91 1959 -91 
Q 1206 -91 779 398 
Q 353 888 353 1747 
Q 353 2609 779 3096 
Q 1206 3584 1959 3584 
z
" transform="scale(0.015625)"/>
        <path id="DejaVuSans-75" d="M 544 1381 
L 544 3500 
L 1119 3500 
L 1119 1403 
Q 1119 906 1312 657 
Q 1506 409 1894 409 
Q 2359 409 2629 706 
Q 2900 1003 2900 1516 
L 2900 3500 
L 3475 3500 
L 3475 0 
L 2900 0 
L 2900 538 
Q 2691 219 2414 64 
Q 2138 -91 1772 -91 
Q 1169 -91 856 284 
Q 544 659 544 1381 
z
M 1991 3584 
L 1991 3584 
z
" transform="scale(0.015625)"/>
        <path id="DejaVuSans-70" d="M 1159 525 
L 1159 -1331 
L 581 -1331 
L 581 3500 
L 1159 3500 
L 1159 2969 
Q 1341 3281 1617 3432 
Q 1894 3584 2278 3584 
Q 2916 3584 3314 3078 
Q 3713 2572 3713 1747 
Q 3713 922 3314 415 
Q 2916 -91 2278 -91 
Q 1894 -91 1617 61 
Q 1341 213 1159 525 
z
M 3116 1747 
Q 3116 2381 2855 2742 
Q 2594 3103 2138 3103 
Q 1681 3103 1420 2742 
Q 1159 2381 1159 1747 
Q 1159 1113 1420 752 
Q 1681 391 2138 391 
Q 2594 391 2855 752 
Q 3116 1113 3116 1747 
z
" transform="scale(0.015625)"/>
        <path id="DejaVuSans-20" transform="scale(0.015625)"/>
        <path id="DejaVuSans-41" d="M 2188 4044 
L 1331 1722 
L 3047 1722 
L 2188 4044 
z
M 1831 4666 
L 2547 4666 
L 4325 0 
L 3669 0 
L 3244 1197 
L 1141 1197 
L 716 0 
L 50 0 
L 1831 4666 
z
" transform="scale(0.015625)"/>
       </defs>
       <use xlink:href="#DejaVuSans-47"/>
       <use xlink:href="#DejaVuSans-72" x="77.490234"/>
       <use xlink:href="#DejaVuSans-6f" x="116.353516"/>
       <use xlink:href="#DejaVuSans-75" x="177.535156"/>
       <use xlink:href="#DejaVuSans-70" x="240.914062"/>
       <use xlink:href="#DejaVuSans-20" x="304.390625"/>
       <use xlink:href="#DejaVuSans-41" x="336.177734"/>
      </g>
     </g>
    </g>
    <g id="xtick_2">
     <g id="line2d_3">
      <path d="M 282.168 289.189969 
L 282.168 23.077969 
" clip-path="url(#pb4bdf3721c)" style="fill: none; stroke: #d9dedb; stroke-opacity: 0.85; stroke-width: 0.8; stroke-linecap: square"/>
     </g>
     <g id="line2d_4"/>
     <g id="text_2">
      <!-- Group B -->
      <g style="fill: #56636f" transform="translate(261.928938 300.288406) scale(0.1 -0.1)">
       <defs>
        <path id="DejaVuSans-42" d="M 1259 2228 
L 1259 519 
L 2272 519 
Q 2781 519 3026 730 
Q 3272 941 3272 1375 
Q 3272 1813 3026 2020 
Q 2781 2228 2272 2228 
L 1259 2228 
z
M 1259 4147 
L 1259 2741 
L 2194 2741 
Q 2656 2741 2882 2914 
Q 3109 3088 3109 3444 
Q 3109 3797 2882 3972 
Q 2656 4147 2194 4147 
L 1259 4147 
z
M 628 4666 
L 2241 4666 
Q 2963 4666 3353 4366 
Q 3744 4066 3744 3513 
Q 3744 3084 3544 2831 
Q 3344 2578 2956 2516 
Q 3422 2416 3680 2098 
Q 3938 1781 3938 1306 
Q 3938 681 3513 340 
Q 3088 0 2303 0 
L 628 0 
L 628 4666 
z
" transform="scale(0.015625)"/>
       </defs>
       <use xlink:href="#DejaVuSans-47"/>
       <use xlink:href="#DejaVuSans-72" x="77.490234"/>
       <use xlink:href="#DejaVuSans-6f" x="116.353516"/>
       <use xlink:href="#DejaVuSans-75" x="177.535156"/>
       <use xlink:href="#DejaVuSans-70" x="240.914062"/>
       <use xlink:href="#DejaVuSans-20" x="304.390625"/>
       <use xlink:href="#DejaVuSans-42" x="336.177734"/>
      </g>
     </g>
    </g>
    <g id="xtick_3">
     <g id="line2d_5">
      <path d="M 436.378909 289.189969 
L 436.378909 23.077969 
" clip-path="url(#pb4bdf3721c)" style="fill: none; stroke: #d9dedb; stroke-opacity: 0.85; stroke-width: 0.8; stroke-linecap: square"/>
     </g>
     <g id="line2d_6"/>
     <g id="text_3">
      <!-- Group C -->
      <g style="fill: #56636f" transform="translate(416.078909 300.288406) scale(0.1 -0.1)">
       <defs>
        <path id="DejaVuSans-43" d="M 4122 4306 
L 4122 3641 
Q 3803 3938 3442 4084 
Q 3081 4231 2675 4231 
Q 1875 4231 1450 3742 
Q 1025 3253 1025 2328 
Q 1025 1406 1450 917 
Q 1875 428 2675 428 
Q 3081 428 3442 575 
Q 3803 722 4122 1019 
L 4122 359 
Q 3791 134 3420 21 
Q 3050 -91 2638 -91 
Q 1578 -91 968 557 
Q 359 1206 359 2328 
Q 359 3453 968 4101 
Q 1578 4750 2638 4750 
Q 3056 4750 3426 4639 
Q 3797 4528 4122 4306 
z
" transform="scale(0.015625)"/>
       </defs>
       <use xlink:href="#DejaVuSans-47"/>
       <use xlink:href="#DejaVuSans-72" x="77.490234"/>
       <use xlink:href="#DejaVuSans-6f" x="116.353516"/>
       <use xlink:href="#DejaVuSans-75" x="177.535156"/>
       <use xlink:href="#DejaVuSans-70" x="240.914062"/>
       <use xlink:href="#DejaVuSans-20" x="304.390625"/>
       <use xlink:href="#DejaVuSans-43" x="336.177734"/>
      </g>
     </g>
    </g>
    <g id="text_4">
     <!-- Group -->
     <g style="fill: #17212b" transform="translate(266.948469 313.966531) scale(0.1 -0.1)">
      <use xlink:href="#DejaVuSans-47"/>
      <use xlink:href="#DejaVuSans-72" x="77.490234"/>
      <use xlink:href="#DejaVuSans-6f" x="116.353516"/>
      <use xlink:href="#DejaVuSans-75" x="177.535156"/>
      <use xlink:href="#DejaVuSans-70" x="240.914062"/>
     </g>
    </g>
   </g>
   <g id="matplotlib.axis_2">
    <g id="ytick_1">
     <g id="line2d_7">
      <path d="M 70.128 285.810531 
L 494.208 285.810531 
" clip-path="url(#pb4bdf3721c)" style="fill: none; stroke: #d9dedb; stroke-opacity: 0.85; stroke-width: 0.8; stroke-linecap: square"/>
     </g>
     <g id="line2d_8"/>
     <g id="text_5">
      <!-- 40 -->
      <g style="fill: #56636f" transform="translate(53.903 289.60975) scale(0.1 -0.1)">
       <defs>
        <path id="DejaVuSans-34" d="M 2419 4116 
L 825 1625 
L 2419 1625 
L 2419 4116 
z
M 2253 4666 
L 3047 4666 
L 3047 1625 
L 3713 1625 
L 3713 1100 
L 3047 1100 
L 3047 0 
L 2419 0 
L 2419 1100 
L 313 1100 
L 313 1709 
L 2253 4666 
z
" transform="scale(0.015625)"/>
        <path id="DejaVuSans-30" d="M 2034 4250 
Q 1547 4250 1301 3770 
Q 1056 3291 1056 2328 
Q 1056 1369 1301 889 
Q 1547 409 2034 409 
Q 2525 409 2770 889 
Q 3016 1369 3016 2328 
Q 3016 3291 2770 3770 
Q 2525 4250 2034 4250 
z
M 2034 4750 
Q 2819 4750 3233 4129 
Q 3647 3509 3647 2328 
Q 3647 1150 3233 529 
Q 2819 -91 2034 -91 
Q 1250 -91 836 529 
Q 422 1150 422 2328 
Q 422 3509 836 4129 
Q 1250 4750 2034 4750 
z
" transform="scale(0.015625)"/>
       </defs>
       <use xlink:href="#DejaVuSans-34"/>
       <use xlink:href="#DejaVuSans-30" x="63.623047"/>
      </g>
     </g>
    </g>
    <g id="ytick_2">
     <g id="line2d_9">
      <path d="M 70.128 230.635828 
L 494.208 230.635828 
" clip-path="url(#pb4bdf3721c)" style="fill: none; stroke: #d9dedb; stroke-opacity: 0.85; stroke-width: 0.8; stroke-linecap: square"/>
     </g>
     <g id="line2d_10"/>
     <g id="text_6">
      <!-- 60 -->
      <g style="fill: #56636f" transform="translate(53.903 234.435046) scale(0.1 -0.1)">
       <defs>
        <path id="DejaVuSans-36" d="M 2113 2584 
Q 1688 2584 1439 2293 
Q 1191 2003 1191 1497 
Q 1191 994 1439 701 
Q 1688 409 2113 409 
Q 2538 409 2786 701 
Q 3034 994 3034 1497 
Q 3034 2003 2786 2293 
Q 2538 2584 2113 2584 
z
M 3366 4563 
L 3366 3988 
Q 3128 4100 2886 4159 
Q 2644 4219 2406 4219 
Q 1781 4219 1451 3797 
Q 1122 3375 1075 2522 
Q 1259 2794 1537 2939 
Q 1816 3084 2150 3084 
Q 2853 3084 3261 2657 
Q 3669 2231 3669 1497 
Q 3669 778 3244 343 
Q 2819 -91 2113 -91 
Q 1303 -91 875 529 
Q 447 1150 447 2328 
Q 447 3434 972 4092 
Q 1497 4750 2381 4750 
Q 2619 4750 2861 4703 
Q 3103 4656 3366 4563 
z
" transform="scale(0.015625)"/>
       </defs>
       <use xlink:href="#DejaVuSans-36"/>
       <use xlink:href="#DejaVuSans-30" x="63.623047"/>
      </g>
     </g>
    </g>
    <g id="ytick_3">
     <g id="line2d_11">
      <path d="M 70.128 175.461124 
L 494.208 175.461124 
" clip-path="url(#pb4bdf3721c)" style="fill: none; stroke: #d9dedb; stroke-opacity: 0.85; stroke-width: 0.8; stroke-linecap: square"/>
     </g>
     <g id="line2d_12"/>
     <g id="text_7">
      <!-- 80 -->
      <g style="fill: #56636f" transform="translate(53.903 179.260343) scale(0.1 -0.1)">
       <defs>
        <path id="DejaVuSans-38" d="M 2034 2216 
Q 1584 2216 1326 1975 
Q 1069 1734 1069 1313 
Q 1069 891 1326 650 
Q 1584 409 2034 409 
Q 2484 409 2743 651 
Q 3003 894 3003 1313 
Q 3003 1734 2745 1975 
Q 2488 2216 2034 2216 
z
M 1403 2484 
Q 997 2584 770 2862 
Q 544 3141 544 3541 
Q 544 4100 942 4425 
Q 1341 4750 2034 4750 
Q 2731 4750 3128 4425 
Q 3525 4100 3525 3541 
Q 3525 3141 3298 2862 
Q 3072 2584 2669 2484 
Q 3125 2378 3379 2068 
Q 3634 1759 3634 1313 
Q 3634 634 3220 271 
Q 2806 -91 2034 -91 
Q 1263 -91 848 271 
Q 434 634 434 1313 
Q 434 1759 690 2068 
Q 947 2378 1403 2484 
z
M 1172 3481 
Q 1172 3119 1398 2916 
Q 1625 2713 2034 2713 
Q 2441 2713 2670 2916 
Q 2900 3119 2900 3481 
Q 2900 3844 2670 4047 
Q 2441 4250 2034 4250 
Q 1625 4250 1398 4047 
Q 1172 3844 1172 3481 
z
" transform="scale(0.015625)"/>
       </defs>
       <use xlink:href="#DejaVuSans-38"/>
       <use xlink:href="#DejaVuSans-30" x="63.623047"/>
      </g>
     </g>
    </g>
    <g id="ytick_4">
     <g id="line2d_13">
      <path d="M 70.128 120.286421 
L 494.208 120.286421 
" clip-path="url(#pb4bdf3721c)" style="fill: none; stroke: #d9dedb; stroke-opacity: 0.85; stroke-width: 0.8; stroke-linecap: square"/>
     </g>
     <g id="line2d_14"/>
     <g id="text_8">
      <!-- 100 -->
      <g style="fill: #56636f" transform="translate(47.5405 124.08564) scale(0.1 -0.1)">
       <defs>
        <path id="DejaVuSans-31" d="M 794 531 
L 1825 531 
L 1825 4091 
L 703 3866 
L 703 4441 
L 1819 4666 
L 2450 4666 
L 2450 531 
L 3481 531 
L 3481 0 
L 794 0 
L 794 531 
z
" transform="scale(0.015625)"/>
       </defs>
       <use xlink:href="#DejaVuSans-31"/>
       <use xlink:href="#DejaVuSans-30" x="63.623047"/>
       <use xlink:href="#DejaVuSans-30" x="127.246094"/>
      </g>
     </g>
    </g>
    <g id="ytick_5">
     <g id="line2d_15">
      <path d="M 70.128 65.111718 
L 494.208 65.111718 
" clip-path="url(#pb4bdf3721c)" style="fill: none; stroke: #d9dedb; stroke-opacity: 0.85; stroke-width: 0.8; stroke-linecap: square"/>
     </g>
     <g id="line2d_16"/>
     <g id="text_9">
      <!-- 120 -->
      <g style="fill: #56636f" transform="translate(47.5405 68.910936) scale(0.1 -0.1)">
       <defs>
        <path id="DejaVuSans-32" d="M 1228 531 
L 3431 531 
L 3431 0 
L 469 0 
L 469 531 
Q 828 903 1448 1529 
Q 2069 2156 2228 2338 
Q 2531 2678 2651 2914 
Q 2772 3150 2772 3378 
Q 2772 3750 2511 3984 
Q 2250 4219 1831 4219 
Q 1534 4219 1204 4116 
Q 875 4013 500 3803 
L 500 4441 
Q 881 4594 1212 4672 
Q 1544 4750 1819 4750 
Q 2544 4750 2975 4387 
Q 3406 4025 3406 3419 
Q 3406 3131 3298 2873 
Q 3191 2616 2906 2266 
Q 2828 2175 2409 1742 
Q 1991 1309 1228 531 
z
" transform="scale(0.015625)"/>
       </defs>
       <use xlink:href="#DejaVuSans-31"/>
       <use xlink:href="#DejaVuSans-32" x="63.623047"/>
       <use xlink:href="#DejaVuSans-30" x="127.246094"/>
      </g>
     </g>
    </g>
    <g id="text_10">
     <!-- Daily MVPA minutes -->
     <g style="fill: #17212b" transform="translate(41.460812 206.052719) rotate(-90) scale(0.1 -0.1)">
      <defs>
       <path id="DejaVuSans-44" d="M 1259 4147 
L 1259 519 
L 2022 519 
Q 2988 519 3436 956 
Q 3884 1394 3884 2338 
Q 3884 3275 3436 3711 
Q 2988 4147 2022 4147 
L 1259 4147 
z
M 628 4666 
L 1925 4666 
Q 3281 4666 3915 4102 
Q 4550 3538 4550 2338 
Q 4550 1131 3912 565 
Q 3275 0 1925 0 
L 628 0 
L 628 4666 
z
" transform="scale(0.015625)"/>
       <path id="DejaVuSans-61" d="M 2194 1759 
Q 1497 1759 1228 1600 
Q 959 1441 959 1056 
Q 959 750 1161 570 
Q 1363 391 1709 391 
Q 2188 391 2477 730 
Q 2766 1069 2766 1631 
L 2766 1759 
L 2194 1759 
z
M 3341 1997 
L 3341 0 
L 2766 0 
L 2766 531 
Q 2569 213 2275 61 
Q 1981 -91 1556 -91 
Q 1019 -91 701 211 
Q 384 513 384 1019 
Q 384 1609 779 1909 
Q 1175 2209 1959 2209 
L 2766 2209 
L 2766 2266 
Q 2766 2663 2505 2880 
Q 2244 3097 1772 3097 
Q 1472 3097 1187 3025 
Q 903 2953 641 2809 
L 641 3341 
Q 956 3463 1253 3523 
Q 1550 3584 1831 3584 
Q 2591 3584 2966 3190 
Q 3341 2797 3341 1997 
z
" transform="scale(0.015625)"/>
       <path id="DejaVuSans-69" d="M 603 3500 
L 1178 3500 
L 1178 0 
L 603 0 
L 603 3500 
z
M 603 4863 
L 1178 4863 
L 1178 4134 
L 603 4134 
L 603 4863 
z
" transform="scale(0.015625)"/>
       <path id="DejaVuSans-6c" d="M 603 4863 
L 1178 4863 
L 1178 0 
L 603 0 
L 603 4863 
z
" transform="scale(0.015625)"/>
       <path id="DejaVuSans-79" d="M 2059 -325 
Q 1816 -950 1584 -1140 
Q 1353 -1331 966 -1331 
L 506 -1331 
L 506 -850 
L 844 -850 
Q 1081 -850 1212 -737 
Q 1344 -625 1503 -206 
L 1606 56 
L 191 3500 
L 800 3500 
L 1894 763 
L 2988 3500 
L 3597 3500 
L 2059 -325 
z
" transform="scale(0.015625)"/>
       <path id="DejaVuSans-4d" d="M 628 4666 
L 1569 4666 
L 2759 1491 
L 3956 4666 
L 4897 4666 
L 4897 0 
L 4281 0 
L 4281 4097 
L 3078 897 
L 2444 897 
L 1241 4097 
L 1241 0 
L 628 0 
L 628 4666 
z
" transform="scale(0.015625)"/>
       <path id="DejaVuSans-56" d="M 1831 0 
L 50 4666 
L 709 4666 
L 2188 738 
L 3669 4666 
L 4325 4666 
L 2547 0 
L 1831 0 
z
" transform="scale(0.015625)"/>
       <path id="DejaVuSans-50" d="M 1259 4147 
L 1259 2394 
L 2053 2394 
Q 2494 2394 2734 2622 
Q 2975 2850 2975 3272 
Q 2975 3691 2734 3919 
Q 2494 4147 2053 4147 
L 1259 4147 
z
M 628 4666 
L 2053 4666 
Q 2838 4666 3239 4311 
Q 3641 3956 3641 3272 
Q 3641 2581 3239 2228 
Q 2838 1875 2053 1875 
L 1259 1875 
L 1259 0 
L 628 0 
L 628 4666 
z
" transform="scale(0.015625)"/>
       <path id="DejaVuSans-6d" d="M 3328 2828 
Q 3544 3216 3844 3400 
Q 4144 3584 4550 3584 
Q 5097 3584 5394 3201 
Q 5691 2819 5691 2113 
L 5691 0 
L 5113 0 
L 5113 2094 
Q 5113 2597 4934 2840 
Q 4756 3084 4391 3084 
Q 3944 3084 3684 2787 
Q 3425 2491 3425 1978 
L 3425 0 
L 2847 0 
L 2847 2094 
Q 2847 2600 2669 2842 
Q 2491 3084 2119 3084 
Q 1678 3084 1418 2786 
Q 1159 2488 1159 1978 
L 1159 0 
L 581 0 
L 581 3500 
L 1159 3500 
L 1159 2956 
Q 1356 3278 1631 3431 
Q 1906 3584 2284 3584 
Q 2666 3584 2933 3390 
Q 3200 3197 3328 2828 
z
" transform="scale(0.015625)"/>
       <path id="DejaVuSans-6e" d="M 3513 2113 
L 3513 0 
L 2938 0 
L 2938 2094 
Q 2938 2591 2744 2837 
Q 2550 3084 2163 3084 
Q 1697 3084 1428 2787 
Q 1159 2491 1159 1978 
L 1159 0 
L 581 0 
L 581 3500 
L 1159 3500 
L 1159 2956 
Q 1366 3272 1645 3428 
Q 1925 3584 2291 3584 
Q 2894 3584 3203 3211 
Q 3513 2838 3513 2113 
z
" transform="scale(0.015625)"/>
       <path id="DejaVuSans-74" d="M 1172 4494 
L 1172 3500 
L 2356 3500 
L 2356 3053 
L 1172 3053 
L 1172 1153 
Q 1172 725 1289 603 
Q 1406 481 1766 481 
L 2356 481 
L 2356 0 
L 1766 0 
Q 1100 0 847 248 
Q 594 497 594 1153 
L 594 3053 
L 172 3053 
L 172 3500 
L 594 3500 
L 594 4494 
L 1172 4494 
z
" transform="scale(0.015625)"/>
       <path id="DejaVuSans-65" d="M 3597 1894 
L 3597 1613 
L 953 1613 
Q 991 1019 1311 708 
Q 1631 397 2203 397 
Q 2534 397 2845 478 
Q 3156 559 3463 722 
L 3463 178 
Q 3153 47 2828 -22 
Q 2503 -91 2169 -91 
Q 1331 -91 842 396 
Q 353 884 353 1716 
Q 353 2575 817 3079 
Q 1281 3584 2069 3584 
Q 2775 3584 3186 3129 
Q 3597 2675 3597 1894 
z
M 3022 2063 
Q 3016 2534 2758 2815 
Q 2500 3097 2075 3097 
Q 1594 3097 1305 2825 
Q 1016 2553 972 2059 
L 3022 2063 
z
" transform="scale(0.015625)"/>
       <path id="DejaVuSans-73" d="M 2834 3397 
L 2834 2853 
Q 2591 2978 2328 3040 
Q 2066 3103 1784 3103 
Q 1356 3103 1142 2972 
Q 928 2841 928 2578 
Q 928 2378 1081 2264 
Q 1234 2150 1697 2047 
L 1894 2003 
Q 2506 1872 2764 1633 
Q 3022 1394 3022 966 
Q 3022 478 2636 193 
Q 2250 -91 1575 -91 
Q 1294 -91 989 -36 
Q 684 19 347 128 
L 347 722 
Q 666 556 975 473 
Q 1284 391 1588 391 
Q 1994 391 2212 530 
Q 2431 669 2431 922 
Q 2431 1156 2273 1281 
Q 2116 1406 1581 1522 
L 1381 1569 
Q 847 1681 609 1914 
Q 372 2147 372 2553 
Q 372 3047 722 3315 
Q 1072 3584 1716 3584 
Q 2034 3584 2315 3537 
Q 2597 3491 2834 3397 
z
" transform="scale(0.015625)"/>
      </defs>
      <use xlink:href="#DejaVuSans-44"/>
      <use xlink:href="#DejaVuSans-61" x="77.001953"/>
      <use xlink:href="#DejaVuSans-69" x="138.28125"/>
      <use xlink:href="#DejaVuSans-6c" x="166.064453"/>
      <use xlink:href="#DejaVuSans-79" x="193.847656"/>
      <use xlink:href="#DejaVuSans-20" x="253.027344"/>
      <use xlink:href="#DejaVuSans-4d" x="284.814453"/>
      <use xlink:href="#DejaVuSans-56" x="371.09375"/>
      <use xlink:href="#DejaVuSans-50" x="439.501953"/>
      <use xlink:href="#DejaVuSans-41" x="493.429688"/>
      <use xlink:href="#DejaVuSans-20" x="561.837891"/>
      <use xlink:href="#DejaVuSans-6d" x="593.625"/>
      <use xlink:href="#DejaVuSans-69" x="691.037109"/>
      <use xlink:href="#DejaVuSans-6e" x="718.820312"/>
      <use xlink:href="#DejaVuSans-75" x="782.199219"/>
      <use xlink:href="#DejaVuSans-74" x="845.578125"/>
      <use xlink:href="#DejaVuSans-65" x="884.787109"/>
      <use xlink:href="#DejaVuSans-73" x="946.310547"/>
     </g>
    </g>
   </g>
   <g id="LineCollection_1">
    <path d="M 108.680727 120.077287 
L 147.233455 120.077287 
" clip-path="url(#pb4bdf3721c)" style="fill: none; stroke: #1f77b4; stroke-width: 1.5"/>
    <path d="M 262.891636 103.99821 
L 301.444364 103.99821 
" clip-path="url(#pb4bdf3721c)" style="fill: none; stroke: #1f77b4; stroke-width: 1.5"/>
    <path d="M 417.102545 35.173969 
L 455.655273 35.173969 
" clip-path="url(#pb4bdf3721c)" style="fill: none; stroke: #1f77b4; stroke-width: 1.5"/>
   </g>
   <g id="LineCollection_2">
    <path d="M 108.680727 252.771689 
L 147.233455 252.771689 
" clip-path="url(#pb4bdf3721c)" style="fill: none; stroke: #1f77b4; stroke-width: 1.5"/>
    <path d="M 262.891636 277.030834 
L 301.444364 277.030834 
" clip-path="url(#pb4bdf3721c)" style="fill: none; stroke: #1f77b4; stroke-width: 1.5"/>
    <path d="M 417.102545 277.093969 
L 455.655273 277.093969 
" clip-path="url(#pb4bdf3721c)" style="fill: none; stroke: #1f77b4; stroke-width: 1.5"/>
   </g>
   <g id="LineCollection_3">
    <path d="M 127.957091 252.771689 
L 127.957091 120.077287 
" clip-path="url(#pb4bdf3721c)" style="fill: none; stroke: #1f77b4; stroke-width: 1.5"/>
    <path d="M 282.168 277.030834 
L 282.168 103.99821 
" clip-path="url(#pb4bdf3721c)" style="fill: none; stroke: #1f77b4; stroke-width: 1.5"/>
    <path d="M 436.378909 277.093969 
L 436.378909 35.173969 
" clip-path="url(#pb4bdf3721c)" style="fill: none; stroke: #1f77b4; stroke-width: 1.5"/>
   </g>
   <g id="LineCollection_4">
    <path d="M 108.680727 210.346065 
L 147.233455 210.346065 
" clip-path="url(#pb4bdf3721c)" style="fill: none; stroke: #17212b; stroke-width: 1.5"/>
    <path d="M 262.891636 187.559884 
L 301.444364 187.559884 
" clip-path="url(#pb4bdf3721c)" style="fill: none; stroke: #17212b; stroke-width: 1.5"/>
    <path d="M 417.102545 170.349609 
L 455.655273 170.349609 
" clip-path="url(#pb4bdf3721c)" style="fill: none; stroke: #17212b; stroke-width: 1.5"/>
   </g>
   <g id="patch_3">
    <path d="M 70.128 289.189969 
L 70.128 23.077969 
" style="fill: none; stroke: #d9dedb; stroke-width: 0.8; stroke-linejoin: miter; stroke-linecap: square"/>
   </g>
   <g id="patch_4">
    <path d="M 70.128 289.189969 
L 494.208 289.189969 
" style="fill: none; stroke: #d9dedb; stroke-width: 0.8; stroke-linejoin: miter; stroke-linecap: square"/>
   </g>
   <g id="text_11">
    <!-- Distribution with raw observed values -->
    <g style="fill: #17212b" transform="translate(142.154953 17.077969) scale(0.13 -0.13)">
     <defs>
      <path id="DejaVuSans-Bold-44" d="M 1791 3756 
L 1791 909 
L 2222 909 
Q 2959 909 3348 1275 
Q 3738 1641 3738 2338 
Q 3738 3031 3350 3393 
Q 2963 3756 2222 3756 
L 1791 3756 
z
M 588 4666 
L 1856 4666 
Q 2919 4666 3439 4514 
Q 3959 4363 4331 4000 
Q 4659 3684 4818 3271 
Q 4978 2859 4978 2338 
Q 4978 1809 4818 1395 
Q 4659 981 4331 666 
Q 3956 303 3431 151 
Q 2906 0 1856 0 
L 588 0 
L 588 4666 
z
" transform="scale(0.015625)"/>
      <path id="DejaVuSans-Bold-69" d="M 538 3500 
L 1656 3500 
L 1656 0 
L 538 0 
L 538 3500 
z
M 538 4863 
L 1656 4863 
L 1656 3950 
L 538 3950 
L 538 4863 
z
" transform="scale(0.015625)"/>
      <path id="DejaVuSans-Bold-73" d="M 3272 3391 
L 3272 2541 
Q 2913 2691 2578 2766 
Q 2244 2841 1947 2841 
Q 1628 2841 1473 2761 
Q 1319 2681 1319 2516 
Q 1319 2381 1436 2309 
Q 1553 2238 1856 2203 
L 2053 2175 
Q 2913 2066 3209 1816 
Q 3506 1566 3506 1031 
Q 3506 472 3093 190 
Q 2681 -91 1863 -91 
Q 1516 -91 1145 -36 
Q 775 19 384 128 
L 384 978 
Q 719 816 1070 734 
Q 1422 653 1784 653 
Q 2113 653 2278 743 
Q 2444 834 2444 1013 
Q 2444 1163 2330 1236 
Q 2216 1309 1875 1350 
L 1678 1375 
Q 931 1469 631 1722 
Q 331 1975 331 2491 
Q 331 3047 712 3315 
Q 1094 3584 1881 3584 
Q 2191 3584 2531 3537 
Q 2872 3491 3272 3391 
z
" transform="scale(0.015625)"/>
      <path id="DejaVuSans-Bold-74" d="M 1759 4494 
L 1759 3500 
L 2913 3500 
L 2913 2700 
L 1759 2700 
L 1759 1216 
Q 1759 972 1856 886 
Q 1953 800 2241 800 
L 2816 800 
L 2816 0 
L 1856 0 
Q 1194 0 917 276 
Q 641 553 641 1216 
L 641 2700 
L 84 2700 
L 84 3500 
L 641 3500 
L 641 4494 
L 1759 4494 
z
" transform="scale(0.015625)"/>
      <path id="DejaVuSans-Bold-72" d="M 3138 2547 
Q 2991 2616 2845 2648 
Q 2700 2681 2553 2681 
Q 2122 2681 1889 2404 
Q 1656 2128 1656 1613 
L 1656 0 
L 538 0 
L 538 3500 
L 1656 3500 
L 1656 2925 
Q 1872 3269 2151 3426 
Q 2431 3584 2822 3584 
Q 2878 3584 2943 3579 
Q 3009 3575 3134 3559 
L 3138 2547 
z
" transform="scale(0.015625)"/>
      <path id="DejaVuSans-Bold-62" d="M 2400 722 
Q 2759 722 2948 984 
Q 3138 1247 3138 1747 
Q 3138 2247 2948 2509 
Q 2759 2772 2400 2772 
Q 2041 2772 1848 2508 
Q 1656 2244 1656 1747 
Q 1656 1250 1848 986 
Q 2041 722 2400 722 
z
M 1656 2988 
Q 1888 3294 2169 3439 
Q 2450 3584 2816 3584 
Q 3463 3584 3878 3070 
Q 4294 2556 4294 1747 
Q 4294 938 3878 423 
Q 3463 -91 2816 -91 
Q 2450 -91 2169 54 
Q 1888 200 1656 506 
L 1656 0 
L 538 0 
L 538 4863 
L 1656 4863 
L 1656 2988 
z
" transform="scale(0.015625)"/>
      <path id="DejaVuSans-Bold-75" d="M 500 1363 
L 500 3500 
L 1625 3500 
L 1625 3150 
Q 1625 2866 1622 2436 
Q 1619 2006 1619 1863 
Q 1619 1441 1641 1255 
Q 1663 1069 1716 984 
Q 1784 875 1895 815 
Q 2006 756 2150 756 
Q 2500 756 2700 1025 
Q 2900 1294 2900 1772 
L 2900 3500 
L 4019 3500 
L 4019 0 
L 2900 0 
L 2900 506 
Q 2647 200 2364 54 
Q 2081 -91 1741 -91 
Q 1134 -91 817 281 
Q 500 653 500 1363 
z
" transform="scale(0.015625)"/>
      <path id="DejaVuSans-Bold-6f" d="M 2203 2784 
Q 1831 2784 1636 2517 
Q 1441 2250 1441 1747 
Q 1441 1244 1636 976 
Q 1831 709 2203 709 
Q 2569 709 2762 976 
Q 2956 1244 2956 1747 
Q 2956 2250 2762 2517 
Q 2569 2784 2203 2784 
z
M 2203 3584 
Q 3106 3584 3614 3096 
Q 4122 2609 4122 1747 
Q 4122 884 3614 396 
Q 3106 -91 2203 -91 
Q 1297 -91 786 396 
Q 275 884 275 1747 
Q 275 2609 786 3096 
Q 1297 3584 2203 3584 
z
" transform="scale(0.015625)"/>
      <path id="DejaVuSans-Bold-6e" d="M 4056 2131 
L 4056 0 
L 2931 0 
L 2931 347 
L 2931 1631 
Q 2931 2084 2911 2256 
Q 2891 2428 2841 2509 
Q 2775 2619 2662 2680 
Q 2550 2741 2406 2741 
Q 2056 2741 1856 2470 
Q 1656 2200 1656 1722 
L 1656 0 
L 538 0 
L 538 3500 
L 1656 3500 
L 1656 2988 
Q 1909 3294 2193 3439 
Q 2478 3584 2822 3584 
Q 3428 3584 3742 3212 
Q 4056 2841 4056 2131 
z
" transform="scale(0.015625)"/>
      <path id="DejaVuSans-Bold-20" transform="scale(0.015625)"/>
      <path id="DejaVuSans-Bold-77" d="M 225 3500 
L 1313 3500 
L 1900 1088 
L 2491 3500 
L 3425 3500 
L 4013 1113 
L 4603 3500 
L 5691 3500 
L 4769 0 
L 3547 0 
L 2956 2406 
L 2369 0 
L 1147 0 
L 225 3500 
z
" transform="scale(0.015625)"/>
      <path id="DejaVuSans-Bold-68" d="M 4056 2131 
L 4056 0 
L 2931 0 
L 2931 347 
L 2931 1625 
Q 2931 2084 2911 2256 
Q 2891 2428 2841 2509 
Q 2775 2619 2662 2680 
Q 2550 2741 2406 2741 
Q 2056 2741 1856 2470 
Q 1656 2200 1656 1722 
L 1656 0 
L 538 0 
L 538 4863 
L 1656 4863 
L 1656 2988 
Q 1909 3294 2193 3439 
Q 2478 3584 2822 3584 
Q 3428 3584 3742 3212 
Q 4056 2841 4056 2131 
z
" transform="scale(0.015625)"/>
      <path id="DejaVuSans-Bold-61" d="M 2106 1575 
Q 1756 1575 1579 1456 
Q 1403 1338 1403 1106 
Q 1403 894 1545 773 
Q 1688 653 1941 653 
Q 2256 653 2472 879 
Q 2688 1106 2688 1447 
L 2688 1575 
L 2106 1575 
z
M 3816 1997 
L 3816 0 
L 2688 0 
L 2688 519 
Q 2463 200 2181 54 
Q 1900 -91 1497 -91 
Q 953 -91 614 226 
Q 275 544 275 1050 
Q 275 1666 698 1953 
Q 1122 2241 2028 2241 
L 2688 2241 
L 2688 2328 
Q 2688 2594 2478 2717 
Q 2269 2841 1825 2841 
Q 1466 2841 1156 2769 
Q 847 2697 581 2553 
L 581 3406 
Q 941 3494 1303 3539 
Q 1666 3584 2028 3584 
Q 2975 3584 3395 3211 
Q 3816 2838 3816 1997 
z
" transform="scale(0.015625)"/>
      <path id="DejaVuSans-Bold-65" d="M 4031 1759 
L 4031 1441 
L 1416 1441 
Q 1456 1047 1700 850 
Q 1944 653 2381 653 
Q 2734 653 3104 758 
Q 3475 863 3866 1075 
L 3866 213 
Q 3469 63 3072 -14 
Q 2675 -91 2278 -91 
Q 1328 -91 801 392 
Q 275 875 275 1747 
Q 275 2603 792 3093 
Q 1309 3584 2216 3584 
Q 3041 3584 3536 3087 
Q 4031 2591 4031 1759 
z
M 2881 2131 
Q 2881 2450 2695 2645 
Q 2509 2841 2209 2841 
Q 1884 2841 1681 2658 
Q 1478 2475 1428 2131 
L 2881 2131 
z
" transform="scale(0.015625)"/>
      <path id="DejaVuSans-Bold-76" d="M 97 3500 
L 1216 3500 
L 2088 1081 
L 2956 3500 
L 4078 3500 
L 2700 0 
L 1472 0 
L 97 3500 
z
" transform="scale(0.015625)"/>
      <path id="DejaVuSans-Bold-64" d="M 2919 2988 
L 2919 4863 
L 4044 4863 
L 4044 0 
L 2919 0 
L 2919 506 
Q 2688 197 2409 53 
Q 2131 -91 1766 -91 
Q 1119 -91 703 423 
Q 288 938 288 1747 
Q 288 2556 703 3070 
Q 1119 3584 1766 3584 
Q 2128 3584 2408 3439 
Q 2688 3294 2919 2988 
z
M 2181 722 
Q 2541 722 2730 984 
Q 2919 1247 2919 1747 
Q 2919 2247 2730 2509 
Q 2541 2772 2181 2772 
Q 1825 2772 1636 2509 
Q 1447 2247 1447 1747 
Q 1447 1247 1636 984 
Q 1825 722 2181 722 
z
" transform="scale(0.015625)"/>
      <path id="DejaVuSans-Bold-6c" d="M 538 4863 
L 1656 4863 
L 1656 0 
L 538 0 
L 538 4863 
z
" transform="scale(0.015625)"/>
     </defs>
     <use xlink:href="#DejaVuSans-Bold-44"/>
     <use xlink:href="#DejaVuSans-Bold-69" x="83.007812"/>
     <use xlink:href="#DejaVuSans-Bold-73" x="117.285156"/>
     <use xlink:href="#DejaVuSans-Bold-74" x="176.806641"/>
     <use xlink:href="#DejaVuSans-Bold-72" x="224.609375"/>
     <use xlink:href="#DejaVuSans-Bold-69" x="273.925781"/>
     <use xlink:href="#DejaVuSans-Bold-62" x="308.203125"/>
     <use xlink:href="#DejaVuSans-Bold-75" x="379.785156"/>
     <use xlink:href="#DejaVuSans-Bold-74" x="450.976562"/>
     <use xlink:href="#DejaVuSans-Bold-69" x="498.779297"/>
     <use xlink:href="#DejaVuSans-Bold-6f" x="533.056641"/>
     <use xlink:href="#DejaVuSans-Bold-6e" x="601.757812"/>
     <use xlink:href="#DejaVuSans-Bold-20" x="672.949219"/>
     <use xlink:href="#DejaVuSans-Bold-77" x="707.763672"/>
     <use xlink:href="#DejaVuSans-Bold-69" x="800.146484"/>
     <use xlink:href="#DejaVuSans-Bold-74" x="834.423828"/>
     <use xlink:href="#DejaVuSans-Bold-68" x="882.226562"/>
     <use xlink:href="#DejaVuSans-Bold-20" x="953.417969"/>
     <use xlink:href="#DejaVuSans-Bold-72" x="988.232422"/>
     <use xlink:href="#DejaVuSans-Bold-61" x="1037.548828"/>
     <use xlink:href="#DejaVuSans-Bold-77" x="1105.029297"/>
     <use xlink:href="#DejaVuSans-Bold-20" x="1197.412109"/>
     <use xlink:href="#DejaVuSans-Bold-6f" x="1232.226562"/>
     <use xlink:href="#DejaVuSans-Bold-62" x="1300.927734"/>
     <use xlink:href="#DejaVuSans-Bold-73" x="1372.509766"/>
     <use xlink:href="#DejaVuSans-Bold-65" x="1432.03125"/>
     <use xlink:href="#DejaVuSans-Bold-72" x="1499.853516"/>
     <use xlink:href="#DejaVuSans-Bold-76" x="1549.169922"/>
     <use xlink:href="#DejaVuSans-Bold-65" x="1614.355469"/>
     <use xlink:href="#DejaVuSans-Bold-64" x="1682.177734"/>
     <use xlink:href="#DejaVuSans-Bold-20" x="1753.759766"/>
     <use xlink:href="#DejaVuSans-Bold-76" x="1788.574219"/>
     <use xlink:href="#DejaVuSans-Bold-61" x="1853.759766"/>
     <use xlink:href="#DejaVuSans-Bold-6c" x="1921.240234"/>
     <use xlink:href="#DejaVuSans-Bold-75" x="1955.517578"/>
     <use xlink:href="#DejaVuSans-Bold-65" x="2026.708984"/>
     <use xlink:href="#DejaVuSans-Bold-73" x="2094.53125"/>
    </g>
   </g>
  </g>
  <g id="text_12">
   <!-- Illustrative example generated from simulated mock data. -->
   <g style="fill: #56636f" transform="translate(7.2 322.086219) scale(0.08 -0.08)">
    <defs>
     <path id="DejaVuSans-49" d="M 628 4666 
L 1259 4666 
L 1259 0 
L 628 0 
L 628 4666 
z
" transform="scale(0.015625)"/>
     <path id="DejaVuSans-76" d="M 191 3500 
L 800 3500 
L 1894 563 
L 2988 3500 
L 3597 3500 
L 2284 0 
L 1503 0 
L 191 3500 
z
" transform="scale(0.015625)"/>
     <path id="DejaVuSans-78" d="M 3513 3500 
L 2247 1797 
L 3578 0 
L 2900 0 
L 1881 1375 
L 863 0 
L 184 0 
L 1544 1831 
L 300 3500 
L 978 3500 
L 1906 2253 
L 2834 3500 
L 3513 3500 
z
" transform="scale(0.015625)"/>
     <path id="DejaVuSans-67" d="M 2906 1791 
Q 2906 2416 2648 2759 
Q 2391 3103 1925 3103 
Q 1463 3103 1205 2759 
Q 947 2416 947 1791 
Q 947 1169 1205 825 
Q 1463 481 1925 481 
Q 2391 481 2648 825 
Q 2906 1169 2906 1791 
z
M 3481 434 
Q 3481 -459 3084 -895 
Q 2688 -1331 1869 -1331 
Q 1566 -1331 1297 -1286 
Q 1028 -1241 775 -1147 
L 775 -588 
Q 1028 -725 1275 -790 
Q 1522 -856 1778 -856 
Q 2344 -856 2625 -561 
Q 2906 -266 2906 331 
L 2906 616 
Q 2728 306 2450 153 
Q 2172 0 1784 0 
Q 1141 0 747 490 
Q 353 981 353 1791 
Q 353 2603 747 3093 
Q 1141 3584 1784 3584 
Q 2172 3584 2450 3431 
Q 2728 3278 2906 2969 
L 2906 3500 
L 3481 3500 
L 3481 434 
z
" transform="scale(0.015625)"/>
     <path id="DejaVuSans-64" d="M 2906 2969 
L 2906 4863 
L 3481 4863 
L 3481 0 
L 2906 0 
L 2906 525 
Q 2725 213 2448 61 
Q 2172 -91 1784 -91 
Q 1150 -91 751 415 
Q 353 922 353 1747 
Q 353 2572 751 3078 
Q 1150 3584 1784 3584 
Q 2172 3584 2448 3432 
Q 2725 3281 2906 2969 
z
M 947 1747 
Q 947 1113 1208 752 
Q 1469 391 1925 391 
Q 2381 391 2643 752 
Q 2906 1113 2906 1747 
Q 2906 2381 2643 2742 
Q 2381 3103 1925 3103 
Q 1469 3103 1208 2742 
Q 947 2381 947 1747 
z
" transform="scale(0.015625)"/>
     <path id="DejaVuSans-66" d="M 2375 4863 
L 2375 4384 
L 1825 4384 
Q 1516 4384 1395 4259 
Q 1275 4134 1275 3809 
L 1275 3500 
L 2222 3500 
L 2222 3053 
L 1275 3053 
L 1275 0 
L 697 0 
L 697 3053 
L 147 3053 
L 147 3500 
L 697 3500 
L 697 3744 
Q 697 4328 969 4595 
Q 1241 4863 1831 4863 
L 2375 4863 
z
" transform="scale(0.015625)"/>
     <path id="DejaVuSans-63" d="M 3122 3366 
L 3122 2828 
Q 2878 2963 2633 3030 
Q 2388 3097 2138 3097 
Q 1578 3097 1268 2742 
Q 959 2388 959 1747 
Q 959 1106 1268 751 
Q 1578 397 2138 397 
Q 2388 397 2633 464 
Q 2878 531 3122 666 
L 3122 134 
Q 2881 22 2623 -34 
Q 2366 -91 2075 -91 
Q 1284 -91 818 406 
Q 353 903 353 1747 
Q 353 2603 823 3093 
Q 1294 3584 2113 3584 
Q 2378 3584 2631 3529 
Q 2884 3475 3122 3366 
z
" transform="scale(0.015625)"/>
     <path id="DejaVuSans-6b" d="M 581 4863 
L 1159 4863 
L 1159 1991 
L 2875 3500 
L 3609 3500 
L 1753 1863 
L 3688 0 
L 2938 0 
L 1159 1709 
L 1159 0 
L 581 0 
L 581 4863 
z
" transform="scale(0.015625)"/>
     <path id="DejaVuSans-2e" d="M 684 794 
L 1344 794 
L 1344 0 
L 684 0 
L 684 794 
z
" transform="scale(0.015625)"/>
    </defs>
    <use xlink:href="#DejaVuSans-49"/>
    <use xlink:href="#DejaVuSans-6c" x="29.492188"/>
    <use xlink:href="#DejaVuSans-6c" x="57.275391"/>
    <use xlink:href="#DejaVuSans-75" x="85.058594"/>
    <use xlink:href="#DejaVuSans-73" x="148.4375"/>
    <use xlink:href="#DejaVuSans-74" x="200.537109"/>
    <use xlink:href="#DejaVuSans-72" x="239.746094"/>
    <use xlink:href="#DejaVuSans-61" x="280.859375"/>
    <use xlink:href="#DejaVuSans-74" x="342.138672"/>
    <use xlink:href="#DejaVuSans-69" x="381.347656"/>
    <use xlink:href="#DejaVuSans-76" x="409.130859"/>
    <use xlink:href="#DejaVuSans-65" x="468.310547"/>
    <use xlink:href="#DejaVuSans-20" x="529.833984"/>
    <use xlink:href="#DejaVuSans-65" x="561.621094"/>
    <use xlink:href="#DejaVuSans-78" x="621.394531"/>
    <use xlink:href="#DejaVuSans-61" x="680.574219"/>
    <use xlink:href="#DejaVuSans-6d" x="741.853516"/>
    <use xlink:href="#DejaVuSans-70" x="839.265625"/>
    <use xlink:href="#DejaVuSans-6c" x="902.742188"/>
    <use xlink:href="#DejaVuSans-65" x="930.525391"/>
    <use xlink:href="#DejaVuSans-20" x="992.048828"/>
    <use xlink:href="#DejaVuSans-67" x="1023.835938"/>
    <use xlink:href="#DejaVuSans-65" x="1087.3125"/>
    <use xlink:href="#DejaVuSans-6e" x="1148.835938"/>
    <use xlink:href="#DejaVuSans-65" x="1212.214844"/>
    <use xlink:href="#DejaVuSans-72" x="1273.738281"/>
    <use xlink:href="#DejaVuSans-61" x="1314.851562"/>
    <use xlink:href="#DejaVuSans-74" x="1376.130859"/>
    <use xlink:href="#DejaVuSans-65" x="1415.339844"/>
    <use xlink:href="#DejaVuSans-64" x="1476.863281"/>
    <use xlink:href="#DejaVuSans-20" x="1540.339844"/>
    <use xlink:href="#DejaVuSans-66" x="1572.126953"/>
    <use xlink:href="#DejaVuSans-72" x="1607.332031"/>
    <use xlink:href="#DejaVuSans-6f" x="1646.195312"/>
    <use xlink:href="#DejaVuSans-6d" x="1707.376953"/>
    <use xlink:href="#DejaVuSans-20" x="1804.789062"/>
    <use xlink:href="#DejaVuSans-73" x="1836.576172"/>
    <use xlink:href="#DejaVuSans-69" x="1888.675781"/>
    <use xlink:href="#DejaVuSans-6d" x="1916.458984"/>
    <use xlink:href="#DejaVuSans-75" x="2013.871094"/>
    <use xlink:href="#DejaVuSans-6c" x="2077.25"/>
    <use xlink:href="#DejaVuSans-61" x="2105.033203"/>
    <use xlink:href="#DejaVuSans-74" x="2166.3125"/>
    <use xlink:href="#DejaVuSans-65" x="2205.521484"/>
    <use xlink:href="#DejaVuSans-64" x="2267.044922"/>
    <use xlink:href="#DejaVuSans-20" x="2330.521484"/>
    <use xlink:href="#DejaVuSans-6d" x="2362.308594"/>
    <use xlink:href="#DejaVuSans-6f" x="2459.720703"/>
    <use xlink:href="#DejaVuSans-63" x="2520.902344"/>
    <use xlink:href="#DejaVuSans-6b" x="2575.882812"/>
    <use xlink:href="#DejaVuSans-20" x="2633.792969"/>
    <use xlink:href="#DejaVuSans-64" x="2665.580078"/>
    <use xlink:href="#DejaVuSans-61" x="2729.056641"/>
    <use xlink:href="#DejaVuSans-74" x="2790.335938"/>
    <use xlink:href="#DejaVuSans-61" x="2829.544922"/>
    <use xlink:href="#DejaVuSans-2e" x="2890.824219"/>
   </g>
  </g>
 </g>
 <defs>
  <clipPath id="pb4bdf3721c">
   <rect x="70.128" y="23.077969" width="424.08" height="266.112"/>
  </clipPath>
 </defs>
</svg>
