<?xml version="1.0" encoding="utf-8" standalone="no"?>
<!DOCTYPE svg PUBLIC "-//W3C//DTD SVG 1.1//EN"
  "http://www.w3.org/Graphics/SVG/1.1/DTD/svg11.dtd">
<svg xmlns:xlink="http://www.w3.org/1999/xlink" width="716.4pt" height="283.464pt" viewBox="0 0 716.4 283.464" xmlns="http://www.w3.org/2000/svg" version="1.1">
 <metadata>
  <rdf:RDF xmlns:dc="http://purl.org/dc/elements/1.1/" xmlns:cc="http://creativecommons.org/ns#" xmlns:rdf="http://www.w3.org/1999/02/22-rdf-syntax-ns#">
   <cc:Work>
    <dc:type rdf:resource="http://purl.org/dc/dcmitype/StillImage"/>
    <dc:date>2026-06-25T13:47:05.373254</dc:date>
    <dc:format>image/svg+xml</dc:format>
    <dc:creator>
     <cc:Agent>
      <dc:title>Matplotlib v3.8.2, https://matplotlib.org/</dc:title>
     </cc:Agent>
    </dc:creator>
   </cc:Work>
  </rdf:RDF>
 </metadata>
 <defs>
  <style type="text/css">*{stroke-linejoin: round; stroke-linecap: butt}</style>
 </defs>
 <g id="figure_1">
  <g id="patch_1">
   <path d="M 0 283.464 
L 716.4 283.464 
L 716.4 0 
L 0 0 
z
" style="fill: #ffffff"/>
  </g>
  <g id="axes_1">
   <g id="patch_2">
    <path d="M 44.22 220.32 
L 258.68 220.32 
L 258.68 61.728 
L 44.22 61.728 
z
" style="fill: #ffffff"/>
   </g>
   <g id="matplotlib.axis_1">
    <g id="xtick_1">
     <g id="line2d_1">
      <path d="M 91.621824 220.32 
L 91.621824 61.728 
" clip-path="url(#p81f7466361)" style="fill: none; stroke: #d9dedb; stroke-opacity: 0.85; stroke-width: 0.8; stroke-linecap: square"/>
     </g>
     <g id="line2d_2"/>
     <g id="text_1">
      <!-- 50 -->
      <g style="fill: #56636f" transform="translate(85.259324 231.418438) scale(0.1 -0.1)">
       <defs>
        <path id="DejaVuSans-35" d="M 691 4666 
L 3169 4666 
L 3169 4134 
L 1269 4134 
L 1269 2991 
Q 1406 3038 1543 3061 
Q 1681 3084 1819 3084 
Q 2600 3084 3056 2656 
Q 3513 2228 3513 1497 
Q 3513 744 3044 326 
Q 2575 -91 1722 -91 
Q 1428 -91 1123 -41 
Q 819 9 494 109 
L 494 744 
Q 775 591 1075 516 
Q 1375 441 1709 441 
Q 2250 441 2565 725 
Q 2881 1009 2881 1497 
Q 2881 1984 2565 2268 
Q 2250 2553 1709 2553 
Q 1456 2553 1204 2497 
Q 953 2441 691 2322 
L 691 4666 
z
" transform="scale(0.015625)"/>
        <path id="DejaVuSans-30" d="M 2034 4250 
Q 1547 4250 1301 3770 
Q 1056 3291 1056 2328 
Q 1056 1369 1301 889 
Q 1547 409 2034 409 
Q 2525 409 2770 889 
Q 3016 1369 3016 2328 
Q 3016 3291 2770 3770 
Q 2525 4250 2034 4250 
z
M 2034 4750 
Q 2819 4750 3233 4129 
Q 3647 3509 3647 2328 
Q 3647 1150 3233 529 
Q 2819 -91 2034 -91 
Q 1250 -91 836 529 
Q 422 1150 422 2328 
Q 422 3509 836 4129 
Q 1250 4750 2034 4750 
z
" transform="scale(0.015625)"/>
       </defs>
       <use xlink:href="#DejaVuSans-35"/>
       <use xlink:href="#DejaVuSans-30" x="63.623047"/>
      </g>
     </g>
    </g>
    <g id="xtick_2">
     <g id="line2d_3">
      <path d="M 143.167086 220.32 
L 143.167086 61.728 
" clip-path="url(#p81f7466361)" style="fill: none; stroke: #d9dedb; stroke-opacity: 0.85; stroke-width: 0.8; stroke-linecap: square"/>
     </g>
     <g id="line2d_4"/>
     <g id="text_2">
      <!-- 100 -->
      <g style="fill: #56636f" transform="translate(133.623336 231.418438) scale(0.1 -0.1)">
       <defs>
        <path id="DejaVuSans-31" d="M 794 531 
L 1825 531 
L 1825 4091 
L 703 3866 
L 703 4441 
L 1819 4666 
L 2450 4666 
L 2450 531 
L 3481 531 
L 3481 0 
L 794 0 
L 794 531 
z
" transform="scale(0.015625)"/>
       </defs>
       <use xlink:href="#DejaVuSans-31"/>
       <use xlink:href="#DejaVuSans-30" x="63.623047"/>
       <use xlink:href="#DejaVuSans-30" x="127.246094"/>
      </g>
     </g>
    </g>
    <g id="xtick_3">
     <g id="line2d_5">
      <path d="M 194.712348 220.32 
L 194.712348 61.728 
" clip-path="url(#p81f7466361)" style="fill: none; stroke: #d9dedb; stroke-opacity: 0.85; stroke-width: 0.8; stroke-linecap: square"/>
     </g>
     <g id="line2d_6"/>
     <g id="text_3">
      <!-- 150 -->
      <g style="fill: #56636f" transform="translate(185.168598 231.418438) scale(0.1 -0.1)">
       <use xlink:href="#DejaVuSans-31"/>
       <use xlink:href="#DejaVuSans-35" x="63.623047"/>
       <use xlink:href="#DejaVuSans-30" x="127.246094"/>
      </g>
     </g>
    </g>
    <g id="xtick_4">
     <g id="line2d_7">
      <path d="M 246.257609 220.32 
L 246.257609 61.728 
" clip-path="url(#p81f7466361)" style="fill: none; stroke: #d9dedb; stroke-opacity: 0.85; stroke-width: 0.8; stroke-linecap: square"/>
     </g>
     <g id="line2d_8"/>
     <g id="text_4">
      <!-- 200 -->
      <g style="fill: #56636f" transform="translate(236.713859 231.418438) scale(0.1 -0.1)">
       <defs>
        <path id="DejaVuSans-32" d="M 1228 531 
L 3431 531 
L 3431 0 
L 469 0 
L 469 531 
Q 828 903 1448 1529 
Q 2069 2156 2228 2338 
Q 2531 2678 2651 2914 
Q 2772 3150 2772 3378 
Q 2772 3750 2511 3984 
Q 2250 4219 1831 4219 
Q 1534 4219 1204 4116 
Q 875 4013 500 3803 
L 500 4441 
Q 881 4594 1212 4672 
Q 1544 4750 1819 4750 
Q 2544 4750 2975 4387 
Q 3406 4025 3406 3419 
Q 3406 3131 3298 2873 
Q 3191 2616 2906 2266 
Q 2828 2175 2409 1742 
Q 1991 1309 1228 531 
z
" transform="scale(0.015625)"/>
       </defs>
       <use xlink:href="#DejaVuSans-32"/>
       <use xlink:href="#DejaVuSans-30" x="63.623047"/>
       <use xlink:href="#DejaVuSans-30" x="127.246094"/>
      </g>
     </g>
    </g>
    <g id="text_5">
     <!-- Daily MVPA minutes -->
     <g style="fill: #17212b" transform="translate(101.53125 245.096563) scale(0.1 -0.1)">
      <defs>
       <path id="DejaVuSans-44" d="M 1259 4147 
L 1259 519 
L 2022 519 
Q 2988 519 3436 956 
Q 3884 1394 3884 2338 
Q 3884 3275 3436 3711 
Q 2988 4147 2022 4147 
L 1259 4147 
z
M 628 4666 
L 1925 4666 
Q 3281 4666 3915 4102 
Q 4550 3538 4550 2338 
Q 4550 1131 3912 565 
Q 3275 0 1925 0 
L 628 0 
L 628 4666 
z
" transform="scale(0.015625)"/>
       <path id="DejaVuSans-61" d="M 2194 1759 
Q 1497 1759 1228 1600 
Q 959 1441 959 1056 
Q 959 750 1161 570 
Q 1363 391 1709 391 
Q 2188 391 2477 730 
Q 2766 1069 2766 1631 
L 2766 1759 
L 2194 1759 
z
M 3341 1997 
L 3341 0 
L 2766 0 
L 2766 531 
Q 2569 213 2275 61 
Q 1981 -91 1556 -91 
Q 1019 -91 701 211 
Q 384 513 384 1019 
Q 384 1609 779 1909 
Q 1175 2209 1959 2209 
L 2766 2209 
L 2766 2266 
Q 2766 2663 2505 2880 
Q 2244 3097 1772 3097 
Q 1472 3097 1187 3025 
Q 903 2953 641 2809 
L 641 3341 
Q 956 3463 1253 3523 
Q 1550 3584 1831 3584 
Q 2591 3584 2966 3190 
Q 3341 2797 3341 1997 
z
" transform="scale(0.015625)"/>
       <path id="DejaVuSans-69" d="M 603 3500 
L 1178 3500 
L 1178 0 
L 603 0 
L 603 3500 
z
M 603 4863 
L 1178 4863 
L 1178 4134 
L 603 4134 
L 603 4863 
z
" transform="scale(0.015625)"/>
       <path id="DejaVuSans-6c" d="M 603 4863 
L 1178 4863 
L 1178 0 
L 603 0 
L 603 4863 
z
" transform="scale(0.015625)"/>
       <path id="DejaVuSans-79" d="M 2059 -325 
Q 1816 -950 1584 -1140 
Q 1353 -1331 966 -1331 
L 506 -1331 
L 506 -850 
L 844 -850 
Q 1081 -850 1212 -737 
Q 1344 -625 1503 -206 
L 1606 56 
L 191 3500 
L 800 3500 
L 1894 763 
L 2988 3500 
L 3597 3500 
L 2059 -325 
z
" transform="scale(0.015625)"/>
       <path id="DejaVuSans-20" transform="scale(0.015625)"/>
       <path id="DejaVuSans-4d" d="M 628 4666 
L 1569 4666 
L 2759 1491 
L 3956 4666 
L 4897 4666 
L 4897 0 
L 4281 0 
L 4281 4097 
L 3078 897 
L 2444 897 
L 1241 4097 
L 1241 0 
L 628 0 
L 628 4666 
z
" transform="scale(0.015625)"/>
       <path id="DejaVuSans-56" d="M 1831 0 
L 50 4666 
L 709 4666 
L 2188 738 
L 3669 4666 
L 4325 4666 
L 2547 0 
L 1831 0 
z
" transform="scale(0.015625)"/>
       <path id="DejaVuSans-50" d="M 1259 4147 
L 1259 2394 
L 2053 2394 
Q 2494 2394 2734 2622 
Q 2975 2850 2975 3272 
Q 2975 3691 2734 3919 
Q 2494 4147 2053 4147 
L 1259 4147 
z
M 628 4666 
L 2053 4666 
Q 2838 4666 3239 4311 
Q 3641 3956 3641 3272 
Q 3641 2581 3239 2228 
Q 2838 1875 2053 1875 
L 1259 1875 
L 1259 0 
L 628 0 
L 628 4666 
z
" transform="scale(0.015625)"/>
       <path id="DejaVuSans-41" d="M 2188 4044 
L 1331 1722 
L 3047 1722 
L 2188 4044 
z
M 1831 4666 
L 2547 4666 
L 4325 0 
L 3669 0 
L 3244 1197 
L 1141 1197 
L 716 0 
L 50 0 
L 1831 4666 
z
" transform="scale(0.015625)"/>
       <path id="DejaVuSans-6d" d="M 3328 2828 
Q 3544 3216 3844 3400 
Q 4144 3584 4550 3584 
Q 5097 3584 5394 3201 
Q 5691 2819 5691 2113 
L 5691 0 
L 5113 0 
L 5113 2094 
Q 5113 2597 4934 2840 
Q 4756 3084 4391 3084 
Q 3944 3084 3684 2787 
Q 3425 2491 3425 1978 
L 3425 0 
L 2847 0 
L 2847 2094 
Q 2847 2600 2669 2842 
Q 2491 3084 2119 3084 
Q 1678 3084 1418 2786 
Q 1159 2488 1159 1978 
L 1159 0 
L 581 0 
L 581 3500 
L 1159 3500 
L 1159 2956 
Q 1356 3278 1631 3431 
Q 1906 3584 2284 3584 
Q 2666 3584 2933 3390 
Q 3200 3197 3328 2828 
z
" transform="scale(0.015625)"/>
       <path id="DejaVuSans-6e" d="M 3513 2113 
L 3513 0 
L 2938 0 
L 2938 2094 
Q 2938 2591 2744 2837 
Q 2550 3084 2163 3084 
Q 1697 3084 1428 2787 
Q 1159 2491 1159 1978 
L 1159 0 
L 581 0 
L 581 3500 
L 1159 3500 
L 1159 2956 
Q 1366 3272 1645 3428 
Q 1925 3584 2291 3584 
Q 2894 3584 3203 3211 
Q 3513 2838 3513 2113 
z
" transform="scale(0.015625)"/>
       <path id="DejaVuSans-75" d="M 544 1381 
L 544 3500 
L 1119 3500 
L 1119 1403 
Q 1119 906 1312 657 
Q 1506 409 1894 409 
Q 2359 409 2629 706 
Q 2900 1003 2900 1516 
L 2900 3500 
L 3475 3500 
L 3475 0 
L 2900 0 
L 2900 538 
Q 2691 219 2414 64 
Q 2138 -91 1772 -91 
Q 1169 -91 856 284 
Q 544 659 544 1381 
z
M 1991 3584 
L 1991 3584 
z
" transform="scale(0.015625)"/>
       <path id="DejaVuSans-74" d="M 1172 4494 
L 1172 3500 
L 2356 3500 
L 2356 3053 
L 1172 3053 
L 1172 1153 
Q 1172 725 1289 603 
Q 1406 481 1766 481 
L 2356 481 
L 2356 0 
L 1766 0 
Q 1100 0 847 248 
Q 594 497 594 1153 
L 594 3053 
L 172 3053 
L 172 3500 
L 594 3500 
L 594 4494 
L 1172 4494 
z
" transform="scale(0.015625)"/>
       <path id="DejaVuSans-65" d="M 3597 1894 
L 3597 1613 
L 953 1613 
Q 991 1019 1311 708 
Q 1631 397 2203 397 
Q 2534 397 2845 478 
Q 3156 559 3463 722 
L 3463 178 
Q 3153 47 2828 -22 
Q 2503 -91 2169 -91 
Q 1331 -91 842 396 
Q 353 884 353 1716 
Q 353 2575 817 3079 
Q 1281 3584 2069 3584 
Q 2775 3584 3186 3129 
Q 3597 2675 3597 1894 
z
M 3022 2063 
Q 3016 2534 2758 2815 
Q 2500 3097 2075 3097 
Q 1594 3097 1305 2825 
Q 1016 2553 972 2059 
L 3022 2063 
z
" transform="scale(0.015625)"/>
       <path id="DejaVuSans-73" d="M 2834 3397 
L 2834 2853 
Q 2591 2978 2328 3040 
Q 2066 3103 1784 3103 
Q 1356 3103 1142 2972 
Q 928 2841 928 2578 
Q 928 2378 1081 2264 
Q 1234 2150 1697 2047 
L 1894 2003 
Q 2506 1872 2764 1633 
Q 3022 1394 3022 966 
Q 3022 478 2636 193 
Q 2250 -91 1575 -91 
Q 1294 -91 989 -36 
Q 684 19 347 128 
L 347 722 
Q 666 556 975 473 
Q 1284 391 1588 391 
Q 1994 391 2212 530 
Q 2431 669 2431 922 
Q 2431 1156 2273 1281 
Q 2116 1406 1581 1522 
L 1381 1569 
Q 847 1681 609 1914 
Q 372 2147 372 2553 
Q 372 3047 722 3315 
Q 1072 3584 1716 3584 
Q 2034 3584 2315 3537 
Q 2597 3491 2834 3397 
z
" transform="scale(0.015625)"/>
      </defs>
      <use xlink:href="#DejaVuSans-44"/>
      <use xlink:href="#DejaVuSans-61" x="77.001953"/>
      <use xlink:href="#DejaVuSans-69" x="138.28125"/>
      <use xlink:href="#DejaVuSans-6c" x="166.064453"/>
      <use xlink:href="#DejaVuSans-79" x="193.847656"/>
      <use xlink:href="#DejaVuSans-20" x="253.027344"/>
      <use xlink:href="#DejaVuSans-4d" x="284.814453"/>
      <use xlink:href="#DejaVuSans-56" x="371.09375"/>
      <use xlink:href="#DejaVuSans-50" x="439.501953"/>
      <use xlink:href="#DejaVuSans-41" x="493.429688"/>
      <use xlink:href="#DejaVuSans-20" x="561.837891"/>
      <use xlink:href="#DejaVuSans-6d" x="593.625"/>
      <use xlink:href="#DejaVuSans-69" x="691.037109"/>
      <use xlink:href="#DejaVuSans-6e" x="718.820312"/>
      <use xlink:href="#DejaVuSans-75" x="782.199219"/>
      <use xlink:href="#DejaVuSans-74" x="845.578125"/>
      <use xlink:href="#DejaVuSans-65" x="884.787109"/>
      <use xlink:href="#DejaVuSans-73" x="946.310547"/>
     </g>
    </g>
   </g>
   <g id="matplotlib.axis_2">
    <g id="ytick_1">
     <g id="line2d_9">
      <path d="M 44.22 214.433975 
L 258.68 214.433975 
" clip-path="url(#p81f7466361)" style="fill: none; stroke: #d9dedb; stroke-opacity: 0.85; stroke-width: 0.8; stroke-linecap: square"/>
     </g>
     <g id="line2d_10"/>
     <g id="text_6">
      <!-- 0.0 -->
      <g style="fill: #56636f" transform="translate(24.816875 218.233194) scale(0.1 -0.1)">
       <defs>
        <path id="DejaVuSans-2e" d="M 684 794 
L 1344 794 
L 1344 0 
L 684 0 
L 684 794 
z
" transform="scale(0.015625)"/>
       </defs>
       <use xlink:href="#DejaVuSans-30"/>
       <use xlink:href="#DejaVuSans-2e" x="63.623047"/>
       <use xlink:href="#DejaVuSans-30" x="95.410156"/>
      </g>
     </g>
    </g>
    <g id="ytick_2">
     <g id="line2d_11">
      <path d="M 44.22 185.334525 
L 258.68 185.334525 
" clip-path="url(#p81f7466361)" style="fill: none; stroke: #d9dedb; stroke-opacity: 0.85; stroke-width: 0.8; stroke-linecap: square"/>
     </g>
     <g id="line2d_12"/>
     <g id="text_7">
      <!-- 0.2 -->
      <g style="fill: #56636f" transform="translate(24.816875 189.133744) scale(0.1 -0.1)">
       <use xlink:href="#DejaVuSans-30"/>
       <use xlink:href="#DejaVuSans-2e" x="63.623047"/>
       <use xlink:href="#DejaVuSans-32" x="95.410156"/>
      </g>
     </g>
    </g>
    <g id="ytick_3">
     <g id="line2d_13">
      <path d="M 44.22 156.235076 
L 258.68 156.235076 
" clip-path="url(#p81f7466361)" style="fill: none; stroke: #d9dedb; stroke-opacity: 0.85; stroke-width: 0.8; stroke-linecap: square"/>
     </g>
     <g id="line2d_14"/>
     <g id="text_8">
      <!-- 0.4 -->
      <g style="fill: #56636f" transform="translate(24.816875 160.034295) scale(0.1 -0.1)">
       <defs>
        <path id="DejaVuSans-34" d="M 2419 4116 
L 825 1625 
L 2419 1625 
L 2419 4116 
z
M 2253 4666 
L 3047 4666 
L 3047 1625 
L 3713 1625 
L 3713 1100 
L 3047 1100 
L 3047 0 
L 2419 0 
L 2419 1100 
L 313 1100 
L 313 1709 
L 2253 4666 
z
" transform="scale(0.015625)"/>
       </defs>
       <use xlink:href="#DejaVuSans-30"/>
       <use xlink:href="#DejaVuSans-2e" x="63.623047"/>
       <use xlink:href="#DejaVuSans-34" x="95.410156"/>
      </g>
     </g>
    </g>
    <g id="ytick_4">
     <g id="line2d_15">
      <path d="M 44.22 127.135626 
L 258.68 127.135626 
" clip-path="url(#p81f7466361)" style="fill: none; stroke: #d9dedb; stroke-opacity: 0.85; stroke-width: 0.8; stroke-linecap: square"/>
     </g>
     <g id="line2d_16"/>
     <g id="text_9">
      <!-- 0.6 -->
      <g style="fill: #56636f" transform="translate(24.816875 130.934845) scale(0.1 -0.1)">
       <defs>
        <path id="DejaVuSans-36" d="M 2113 2584 
Q 1688 2584 1439 2293 
Q 1191 2003 1191 1497 
Q 1191 994 1439 701 
Q 1688 409 2113 409 
Q 2538 409 2786 701 
Q 3034 994 3034 1497 
Q 3034 2003 2786 2293 
Q 2538 2584 2113 2584 
z
M 3366 4563 
L 3366 3988 
Q 3128 4100 2886 4159 
Q 2644 4219 2406 4219 
Q 1781 4219 1451 3797 
Q 1122 3375 1075 2522 
Q 1259 2794 1537 2939 
Q 1816 3084 2150 3084 
Q 2853 3084 3261 2657 
Q 3669 2231 3669 1497 
Q 3669 778 3244 343 
Q 2819 -91 2113 -91 
Q 1303 -91 875 529 
Q 447 1150 447 2328 
Q 447 3434 972 4092 
Q 1497 4750 2381 4750 
Q 2619 4750 2861 4703 
Q 3103 4656 3366 4563 
z
" transform="scale(0.015625)"/>
       </defs>
       <use xlink:href="#DejaVuSans-30"/>
       <use xlink:href="#DejaVuSans-2e" x="63.623047"/>
       <use xlink:href="#DejaVuSans-36" x="95.410156"/>
      </g>
     </g>
    </g>
    <g id="ytick_5">
     <g id="line2d_17">
      <path d="M 44.22 98.036177 
L 258.68 98.036177 
" clip-path="url(#p81f7466361)" style="fill: none; stroke: #d9dedb; stroke-opacity: 0.85; stroke-width: 0.8; stroke-linecap: square"/>
     </g>
     <g id="line2d_18"/>
     <g id="text_10">
      <!-- 0.8 -->
      <g style="fill: #56636f" transform="translate(24.816875 101.835396) scale(0.1 -0.1)">
       <defs>
        <path id="DejaVuSans-38" d="M 2034 2216 
Q 1584 2216 1326 1975 
Q 1069 1734 1069 1313 
Q 1069 891 1326 650 
Q 1584 409 2034 409 
Q 2484 409 2743 651 
Q 3003 894 3003 1313 
Q 3003 1734 2745 1975 
Q 2488 2216 2034 2216 
z
M 1403 2484 
Q 997 2584 770 2862 
Q 544 3141 544 3541 
Q 544 4100 942 4425 
Q 1341 4750 2034 4750 
Q 2731 4750 3128 4425 
Q 3525 4100 3525 3541 
Q 3525 3141 3298 2862 
Q 3072 2584 2669 2484 
Q 3125 2378 3379 2068 
Q 3634 1759 3634 1313 
Q 3634 634 3220 271 
Q 2806 -91 2034 -91 
Q 1263 -91 848 271 
Q 434 634 434 1313 
Q 434 1759 690 2068 
Q 947 2378 1403 2484 
z
M 1172 3481 
Q 1172 3119 1398 2916 
Q 1625 2713 2034 2713 
Q 2441 2713 2670 2916 
Q 2900 3119 2900 3481 
Q 2900 3844 2670 4047 
Q 2441 4250 2034 4250 
Q 1625 4250 1398 4047 
Q 1172 3844 1172 3481 
z
" transform="scale(0.015625)"/>
       </defs>
       <use xlink:href="#DejaVuSans-30"/>
       <use xlink:href="#DejaVuSans-2e" x="63.623047"/>
       <use xlink:href="#DejaVuSans-38" x="95.410156"/>
      </g>
     </g>
    </g>
    <g id="ytick_6">
     <g id="line2d_19">
      <path d="M 44.22 68.936727 
L 258.68 68.936727 
" clip-path="url(#p81f7466361)" style="fill: none; stroke: #d9dedb; stroke-opacity: 0.85; stroke-width: 0.8; stroke-linecap: square"/>
     </g>
     <g id="line2d_20"/>
     <g id="text_11">
      <!-- 1.0 -->
      <g style="fill: #56636f" transform="translate(24.816875 72.735946) scale(0.1 -0.1)">
       <use xlink:href="#DejaVuSans-31"/>
       <use xlink:href="#DejaVuSans-2e" x="63.623047"/>
       <use xlink:href="#DejaVuSans-30" x="95.410156"/>
      </g>
     </g>
    </g>
    <g id="text_12">
     <!-- Cumulative proportion -->
     <g style="fill: #17212b" transform="translate(18.737187 197.193531) rotate(-90) scale(0.1 -0.1)">
      <defs>
       <path id="DejaVuSans-43" d="M 4122 4306 
L 4122 3641 
Q 3803 3938 3442 4084 
Q 3081 4231 2675 4231 
Q 1875 4231 1450 3742 
Q 1025 3253 1025 2328 
Q 1025 1406 1450 917 
Q 1875 428 2675 428 
Q 3081 428 3442 575 
Q 3803 722 4122 1019 
L 4122 359 
Q 3791 134 3420 21 
Q 3050 -91 2638 -91 
Q 1578 -91 968 557 
Q 359 1206 359 2328 
Q 359 3453 968 4101 
Q 1578 4750 2638 4750 
Q 3056 4750 3426 4639 
Q 3797 4528 4122 4306 
z
" transform="scale(0.015625)"/>
       <path id="DejaVuSans-76" d="M 191 3500 
L 800 3500 
L 1894 563 
L 2988 3500 
L 3597 3500 
L 2284 0 
L 1503 0 
L 191 3500 
z
" transform="scale(0.015625)"/>
       <path id="DejaVuSans-70" d="M 1159 525 
L 1159 -1331 
L 581 -1331 
L 581 3500 
L 1159 3500 
L 1159 2969 
Q 1341 3281 1617 3432 
Q 1894 3584 2278 3584 
Q 2916 3584 3314 3078 
Q 3713 2572 3713 1747 
Q 3713 922 3314 415 
Q 2916 -91 2278 -91 
Q 1894 -91 1617 61 
Q 1341 213 1159 525 
z
M 3116 1747 
Q 3116 2381 2855 2742 
Q 2594 3103 2138 3103 
Q 1681 3103 1420 2742 
Q 1159 2381 1159 1747 
Q 1159 1113 1420 752 
Q 1681 391 2138 391 
Q 2594 391 2855 752 
Q 3116 1113 3116 1747 
z
" transform="scale(0.015625)"/>
       <path id="DejaVuSans-72" d="M 2631 2963 
Q 2534 3019 2420 3045 
Q 2306 3072 2169 3072 
Q 1681 3072 1420 2755 
Q 1159 2438 1159 1844 
L 1159 0 
L 581 0 
L 581 3500 
L 1159 3500 
L 1159 2956 
Q 1341 3275 1631 3429 
Q 1922 3584 2338 3584 
Q 2397 3584 2469 3576 
Q 2541 3569 2628 3553 
L 2631 2963 
z
" transform="scale(0.015625)"/>
       <path id="DejaVuSans-6f" d="M 1959 3097 
Q 1497 3097 1228 2736 
Q 959 2375 959 1747 
Q 959 1119 1226 758 
Q 1494 397 1959 397 
Q 2419 397 2687 759 
Q 2956 1122 2956 1747 
Q 2956 2369 2687 2733 
Q 2419 3097 1959 3097 
z
M 1959 3584 
Q 2709 3584 3137 3096 
Q 3566 2609 3566 1747 
Q 3566 888 3137 398 
Q 2709 -91 1959 -91 
Q 1206 -91 779 398 
Q 353 888 353 1747 
Q 353 2609 779 3096 
Q 1206 3584 1959 3584 
z
" transform="scale(0.015625)"/>
      </defs>
      <use xlink:href="#DejaVuSans-43"/>
      <use xlink:href="#DejaVuSans-75" x="69.824219"/>
      <use xlink:href="#DejaVuSans-6d" x="133.203125"/>
      <use xlink:href="#DejaVuSans-75" x="230.615234"/>
      <use xlink:href="#DejaVuSans-6c" x="293.994141"/>
      <use xlink:href="#DejaVuSans-61" x="321.777344"/>
      <use xlink:href="#DejaVuSans-74" x="383.056641"/>
      <use xlink:href="#DejaVuSans-69" x="422.265625"/>
      <use xlink:href="#DejaVuSans-76" x="450.048828"/>
      <use xlink:href="#DejaVuSans-65" x="509.228516"/>
      <use xlink:href="#DejaVuSans-20" x="570.751953"/>
      <use xlink:href="#DejaVuSans-70" x="602.539062"/>
      <use xlink:href="#DejaVuSans-72" x="666.015625"/>
      <use xlink:href="#DejaVuSans-6f" x="704.878906"/>
      <use xlink:href="#DejaVuSans-70" x="766.060547"/>
      <use xlink:href="#DejaVuSans-6f" x="829.537109"/>
      <use xlink:href="#DejaVuSans-72" x="890.71875"/>
      <use xlink:href="#DejaVuSans-74" x="931.832031"/>
      <use xlink:href="#DejaVuSans-69" x="971.041016"/>
      <use xlink:href="#DejaVuSans-6f" x="998.824219"/>
      <use xlink:href="#DejaVuSans-6e" x="1060.005859"/>
     </g>
    </g>
   </g>
   <g id="line2d_21">
    <path d="M 57.797848 213.111273 
L 61.237841 213.111273 
L 61.237841 211.78857 
L 64.136503 211.78857 
L 64.136503 210.465868 
L 64.636323 210.465868 
L 64.636323 209.143166 
L 66.541959 209.143166 
L 66.541959 207.820464 
L 67.190818 207.820464 
L 67.190818 206.497761 
L 68.5662 206.497761 
L 68.5662 205.175059 
L 70.351575 205.175059 
L 70.351575 203.852357 
L 71.348082 203.852357 
L 71.348082 202.529655 
L 72.497256 202.529655 
L 72.497256 201.206952 
L 74.54868 201.206952 
L 74.54868 199.88425 
L 74.708519 199.88425 
L 74.708519 198.561548 
L 77.919485 198.561548 
L 77.919485 197.238846 
L 79.446266 197.238846 
L 79.446266 195.916143 
L 81.292839 195.916143 
L 81.292839 194.593441 
L 82.017767 194.593441 
L 82.017767 193.270739 
L 82.699524 193.270739 
L 82.699524 191.948037 
L 83.119813 191.948037 
L 83.119813 190.625334 
L 84.916096 190.625334 
L 84.916096 189.302632 
L 86.478956 189.302632 
L 86.478956 187.97993 
L 88.319885 187.97993 
L 88.319885 186.657228 
L 88.523919 186.657228 
L 88.523919 185.334525 
L 88.709399 185.334525 
L 88.709399 184.011823 
L 89.743291 184.011823 
L 89.743291 182.689121 
L 90.036206 182.689121 
L 90.036206 181.366419 
L 90.351858 181.366419 
L 90.351858 180.043716 
L 91.674254 180.043716 
L 91.674254 178.721014 
L 92.649534 178.721014 
L 92.649534 177.398312 
L 93.513026 177.398312 
L 93.559363 174.752907 
L 93.648697 174.752907 
L 93.648697 173.430205 
L 94.075658 173.430205 
L 94.075658 172.107503 
L 94.437863 172.107503 
L 94.437863 170.784801 
L 94.654317 170.784801 
L 94.654317 169.462098 
L 97.61758 169.462098 
L 97.61758 168.139396 
L 99.164334 168.139396 
L 99.164334 166.816694 
L 101.524689 166.816694 
L 101.525481 164.171289 
L 101.792508 164.171289 
L 101.899382 161.525885 
L 103.106389 161.525885 
L 103.106389 160.203183 
L 104.274729 160.203183 
L 104.274729 158.88048 
L 104.573825 158.88048 
L 104.659466 156.235076 
L 106.164304 156.235076 
L 106.164304 154.912374 
L 106.698623 154.912374 
L 106.698623 153.589671 
L 107.003535 153.589671 
L 107.003535 152.266969 
L 107.163512 152.266969 
L 107.163512 150.944267 
L 107.889128 150.944267 
L 107.889128 149.621565 
L 110.926415 149.621565 
L 110.926415 148.298862 
L 111.161702 148.298862 
L 111.161702 146.97616 
L 111.944997 146.97616 
L 111.944997 145.653458 
L 112.459294 145.653458 
L 112.547466 143.008053 
L 112.963123 143.008053 
L 113.031322 140.362649 
L 113.122024 140.362649 
L 113.127653 137.717244 
L 114.129972 137.717244 
L 114.129972 136.394542 
L 115.328908 136.394542 
L 115.328908 135.07184 
L 115.447993 135.07184 
L 115.447993 133.749138 
L 116.14768 133.749138 
L 116.157541 131.103733 
L 116.508951 131.103733 
L 116.508951 129.781031 
L 118.160806 129.781031 
L 118.160806 128.458329 
L 118.670359 128.458329 
L 118.670359 127.135626 
L 119.331312 127.135626 
L 119.331312 125.812924 
L 119.555852 125.812924 
L 119.555852 124.490222 
L 120.313409 124.490222 
L 120.313409 123.16752 
L 120.466397 123.16752 
L 120.466397 121.844817 
L 120.869969 121.844817 
L 120.869969 120.522115 
L 121.446395 120.522115 
L 121.446395 119.199413 
L 121.600938 119.199413 
L 121.600938 117.876711 
L 124.344781 117.876711 
L 124.409122 115.231306 
L 125.265584 115.231306 
L 125.265584 113.908604 
L 125.718065 113.908604 
L 125.718065 112.585902 
L 126.446456 112.585902 
L 126.446456 111.263199 
L 126.748778 111.263199 
L 126.748778 109.940497 
L 127.09614 109.940497 
L 127.09614 108.617795 
L 127.415952 108.617795 
L 127.422904 105.97239 
L 128.761112 105.97239 
L 128.761112 104.649688 
L 128.986886 104.649688 
L 128.986886 103.326986 
L 130.673727 103.326986 
L 130.673727 102.004284 
L 131.103769 102.004284 
L 131.103769 100.681581 
L 134.090211 100.681581 
L 134.090211 99.358879 
L 134.48678 99.358879 
L 134.48678 98.036177 
L 134.621696 98.036177 
L 134.621696 96.713475 
L 135.369799 96.713475 
L 135.369799 95.390772 
L 136.381429 95.390772 
L 136.381429 94.06807 
L 138.428608 94.06807 
L 138.428608 92.745368 
L 139.18787 92.745368 
L 139.204301 90.099963 
L 144.874761 90.099963 
L 144.874761 88.777261 
L 152.539747 88.777261 
L 152.539747 87.454559 
L 153.61268 87.454559 
L 153.61268 86.131857 
L 158.232243 86.131857 
L 158.232243 84.809154 
L 158.406875 84.809154 
L 158.406875 83.486452 
L 158.671271 83.486452 
L 158.671271 82.16375 
L 160.206766 82.16375 
L 160.237252 79.518345 
L 167.003002 79.518345 
L 167.003002 78.195643 
L 169.750224 78.195643 
L 169.750224 76.872941 
L 182.600098 76.872941 
L 182.600098 75.550239 
L 183.771604 75.550239 
L 183.771604 74.227536 
L 183.918858 74.227536 
L 183.918858 72.904834 
L 187.856799 72.904834 
L 187.856799 71.582132 
L 194.409885 71.582132 
L 194.409885 70.25943 
L 210.898491 70.25943 
L 210.898491 68.936727 
L 210.898491 68.936727 
" clip-path="url(#p81f7466361)" style="fill: none; stroke: #0072b2; stroke-width: 2.1; stroke-linecap: square"/>
   </g>
   <g id="patch_3">
    <path d="M 44.22 220.32 
L 44.22 61.728 
" style="fill: none; stroke: #d9dedb; stroke-width: 0.8; stroke-linejoin: miter; stroke-linecap: square"/>
   </g>
   <g id="patch_4">
    <path d="M 44.22 220.32 
L 258.68 220.32 
" style="fill: none; stroke: #d9dedb; stroke-width: 0.8; stroke-linejoin: miter; stroke-linecap: square"/>
   </g>
   <g id="text_13">
    <!-- Children/adolescents -->
    <g style="fill: #17212b" transform="translate(86.298203 55.728) scale(0.11 -0.11)">
     <defs>
      <path id="DejaVuSans-Bold-43" d="M 4288 256 
Q 3956 84 3597 -3 
Q 3238 -91 2847 -91 
Q 1681 -91 1000 561 
Q 319 1213 319 2328 
Q 319 3447 1000 4098 
Q 1681 4750 2847 4750 
Q 3238 4750 3597 4662 
Q 3956 4575 4288 4403 
L 4288 3438 
Q 3953 3666 3628 3772 
Q 3303 3878 2944 3878 
Q 2300 3878 1931 3465 
Q 1563 3053 1563 2328 
Q 1563 1606 1931 1193 
Q 2300 781 2944 781 
Q 3303 781 3628 887 
Q 3953 994 4288 1222 
L 4288 256 
z
" transform="scale(0.015625)"/>
      <path id="DejaVuSans-Bold-68" d="M 4056 2131 
L 4056 0 
L 2931 0 
L 2931 347 
L 2931 1625 
Q 2931 2084 2911 2256 
Q 2891 2428 2841 2509 
Q 2775 2619 2662 2680 
Q 2550 2741 2406 2741 
Q 2056 2741 1856 2470 
Q 1656 2200 1656 1722 
L 1656 0 
L 538 0 
L 538 4863 
L 1656 4863 
L 1656 2988 
Q 1909 3294 2193 3439 
Q 2478 3584 2822 3584 
Q 3428 3584 3742 3212 
Q 4056 2841 4056 2131 
z
" transform="scale(0.015625)"/>
      <path id="DejaVuSans-Bold-69" d="M 538 3500 
L 1656 3500 
L 1656 0 
L 538 0 
L 538 3500 
z
M 538 4863 
L 1656 4863 
L 1656 3950 
L 538 3950 
L 538 4863 
z
" transform="scale(0.015625)"/>
      <path id="DejaVuSans-Bold-6c" d="M 538 4863 
L 1656 4863 
L 1656 0 
L 538 0 
L 538 4863 
z
" transform="scale(0.015625)"/>
      <path id="DejaVuSans-Bold-64" d="M 2919 2988 
L 2919 4863 
L 4044 4863 
L 4044 0 
L 2919 0 
L 2919 506 
Q 2688 197 2409 53 
Q 2131 -91 1766 -91 
Q 1119 -91 703 423 
Q 288 938 288 1747 
Q 288 2556 703 3070 
Q 1119 3584 1766 3584 
Q 2128 3584 2408 3439 
Q 2688 3294 2919 2988 
z
M 2181 722 
Q 2541 722 2730 984 
Q 2919 1247 2919 1747 
Q 2919 2247 2730 2509 
Q 2541 2772 2181 2772 
Q 1825 2772 1636 2509 
Q 1447 2247 1447 1747 
Q 1447 1247 1636 984 
Q 1825 722 2181 722 
z
" transform="scale(0.015625)"/>
      <path id="DejaVuSans-Bold-72" d="M 3138 2547 
Q 2991 2616 2845 2648 
Q 2700 2681 2553 2681 
Q 2122 2681 1889 2404 
Q 1656 2128 1656 1613 
L 1656 0 
L 538 0 
L 538 3500 
L 1656 3500 
L 1656 2925 
Q 1872 3269 2151 3426 
Q 2431 3584 2822 3584 
Q 2878 3584 2943 3579 
Q 3009 3575 3134 3559 
L 3138 2547 
z
" transform="scale(0.015625)"/>
      <path id="DejaVuSans-Bold-65" d="M 4031 1759 
L 4031 1441 
L 1416 1441 
Q 1456 1047 1700 850 
Q 1944 653 2381 653 
Q 2734 653 3104 758 
Q 3475 863 3866 1075 
L 3866 213 
Q 3469 63 3072 -14 
Q 2675 -91 2278 -91 
Q 1328 -91 801 392 
Q 275 875 275 1747 
Q 275 2603 792 3093 
Q 1309 3584 2216 3584 
Q 3041 3584 3536 3087 
Q 4031 2591 4031 1759 
z
M 2881 2131 
Q 2881 2450 2695 2645 
Q 2509 2841 2209 2841 
Q 1884 2841 1681 2658 
Q 1478 2475 1428 2131 
L 2881 2131 
z
" transform="scale(0.015625)"/>
      <path id="DejaVuSans-Bold-6e" d="M 4056 2131 
L 4056 0 
L 2931 0 
L 2931 347 
L 2931 1631 
Q 2931 2084 2911 2256 
Q 2891 2428 2841 2509 
Q 2775 2619 2662 2680 
Q 2550 2741 2406 2741 
Q 2056 2741 1856 2470 
Q 1656 2200 1656 1722 
L 1656 0 
L 538 0 
L 538 3500 
L 1656 3500 
L 1656 2988 
Q 1909 3294 2193 3439 
Q 2478 3584 2822 3584 
Q 3428 3584 3742 3212 
Q 4056 2841 4056 2131 
z
" transform="scale(0.015625)"/>
      <path id="DejaVuSans-Bold-2f" d="M 1644 4666 
L 2338 4666 
L 691 -594 
L 0 -594 
L 1644 4666 
z
" transform="scale(0.015625)"/>
      <path id="DejaVuSans-Bold-61" d="M 2106 1575 
Q 1756 1575 1579 1456 
Q 1403 1338 1403 1106 
Q 1403 894 1545 773 
Q 1688 653 1941 653 
Q 2256 653 2472 879 
Q 2688 1106 2688 1447 
L 2688 1575 
L 2106 1575 
z
M 3816 1997 
L 3816 0 
L 2688 0 
L 2688 519 
Q 2463 200 2181 54 
Q 1900 -91 1497 -91 
Q 953 -91 614 226 
Q 275 544 275 1050 
Q 275 1666 698 1953 
Q 1122 2241 2028 2241 
L 2688 2241 
L 2688 2328 
Q 2688 2594 2478 2717 
Q 2269 2841 1825 2841 
Q 1466 2841 1156 2769 
Q 847 2697 581 2553 
L 581 3406 
Q 941 3494 1303 3539 
Q 1666 3584 2028 3584 
Q 2975 3584 3395 3211 
Q 3816 2838 3816 1997 
z
" transform="scale(0.015625)"/>
      <path id="DejaVuSans-Bold-6f" d="M 2203 2784 
Q 1831 2784 1636 2517 
Q 1441 2250 1441 1747 
Q 1441 1244 1636 976 
Q 1831 709 2203 709 
Q 2569 709 2762 976 
Q 2956 1244 2956 1747 
Q 2956 2250 2762 2517 
Q 2569 2784 2203 2784 
z
M 2203 3584 
Q 3106 3584 3614 3096 
Q 4122 2609 4122 1747 
Q 4122 884 3614 396 
Q 3106 -91 2203 -91 
Q 1297 -91 786 396 
Q 275 884 275 1747 
Q 275 2609 786 3096 
Q 1297 3584 2203 3584 
z
" transform="scale(0.015625)"/>
      <path id="DejaVuSans-Bold-73" d="M 3272 3391 
L 3272 2541 
Q 2913 2691 2578 2766 
Q 2244 2841 1947 2841 
Q 1628 2841 1473 2761 
Q 1319 2681 1319 2516 
Q 1319 2381 1436 2309 
Q 1553 2238 1856 2203 
L 2053 2175 
Q 2913 2066 3209 1816 
Q 3506 1566 3506 1031 
Q 3506 472 3093 190 
Q 2681 -91 1863 -91 
Q 1516 -91 1145 -36 
Q 775 19 384 128 
L 384 978 
Q 719 816 1070 734 
Q 1422 653 1784 653 
Q 2113 653 2278 743 
Q 2444 834 2444 1013 
Q 2444 1163 2330 1236 
Q 2216 1309 1875 1350 
L 1678 1375 
Q 931 1469 631 1722 
Q 331 1975 331 2491 
Q 331 3047 712 3315 
Q 1094 3584 1881 3584 
Q 2191 3584 2531 3537 
Q 2872 3491 3272 3391 
z
" transform="scale(0.015625)"/>
      <path id="DejaVuSans-Bold-63" d="M 3366 3391 
L 3366 2478 
Q 3138 2634 2908 2709 
Q 2678 2784 2431 2784 
Q 1963 2784 1702 2511 
Q 1441 2238 1441 1747 
Q 1441 1256 1702 982 
Q 1963 709 2431 709 
Q 2694 709 2930 787 
Q 3166 866 3366 1019 
L 3366 103 
Q 3103 6 2833 -42 
Q 2563 -91 2291 -91 
Q 1344 -91 809 395 
Q 275 881 275 1747 
Q 275 2613 809 3098 
Q 1344 3584 2291 3584 
Q 2566 3584 2833 3536 
Q 3100 3488 3366 3391 
z
" transform="scale(0.015625)"/>
      <path id="DejaVuSans-Bold-74" d="M 1759 4494 
L 1759 3500 
L 2913 3500 
L 2913 2700 
L 1759 2700 
L 1759 1216 
Q 1759 972 1856 886 
Q 1953 800 2241 800 
L 2816 800 
L 2816 0 
L 1856 0 
Q 1194 0 917 276 
Q 641 553 641 1216 
L 641 2700 
L 84 2700 
L 84 3500 
L 641 3500 
L 641 4494 
L 1759 4494 
z
" transform="scale(0.015625)"/>
     </defs>
     <use xlink:href="#DejaVuSans-Bold-43"/>
     <use xlink:href="#DejaVuSans-Bold-68" x="73.388672"/>
     <use xlink:href="#DejaVuSans-Bold-69" x="144.580078"/>
     <use xlink:href="#DejaVuSans-Bold-6c" x="178.857422"/>
     <use xlink:href="#DejaVuSans-Bold-64" x="213.134766"/>
     <use xlink:href="#DejaVuSans-Bold-72" x="284.716797"/>
     <use xlink:href="#DejaVuSans-Bold-65" x="334.033203"/>
     <use xlink:href="#DejaVuSans-Bold-6e" x="401.855469"/>
     <use xlink:href="#DejaVuSans-Bold-2f" x="473.046875"/>
     <use xlink:href="#DejaVuSans-Bold-61" x="509.570312"/>
     <use xlink:href="#DejaVuSans-Bold-64" x="577.050781"/>
     <use xlink:href="#DejaVuSans-Bold-6f" x="648.632812"/>
     <use xlink:href="#DejaVuSans-Bold-6c" x="717.333984"/>
     <use xlink:href="#DejaVuSans-Bold-65" x="751.611328"/>
     <use xlink:href="#DejaVuSans-Bold-73" x="819.433594"/>
     <use xlink:href="#DejaVuSans-Bold-63" x="878.955078"/>
     <use xlink:href="#DejaVuSans-Bold-65" x="938.232422"/>
     <use xlink:href="#DejaVuSans-Bold-6e" x="1006.054688"/>
     <use xlink:href="#DejaVuSans-Bold-74" x="1077.246094"/>
     <use xlink:href="#DejaVuSans-Bold-73" x="1125.048828"/>
    </g>
   </g>
  </g>
  <g id="axes_2">
   <g id="patch_5">
    <path d="M 269.48 220.32 
L 483.94 220.32 
L 483.94 61.728 
L 269.48 61.728 
z
" style="fill: #ffffff"/>
   </g>
   <g id="matplotlib.axis_3">
    <g id="xtick_5">
     <g id="line2d_22">
      <path d="M 316.881824 220.32 
L 316.881824 61.728 
" clip-path="url(#p24cf12999b)" style="fill: none; stroke: #d9dedb; stroke-opacity: 0.85; stroke-width: 0.8; stroke-linecap: square"/>
     </g>
     <g id="line2d_23"/>
     <g id="text_14">
      <!-- 50 -->
      <g style="fill: #56636f" transform="translate(310.519324 231.418438) scale(0.1 -0.1)">
       <use xlink:href="#DejaVuSans-35"/>
       <use xlink:href="#DejaVuSans-30" x="63.623047"/>
      </g>
     </g>
    </g>
    <g id="xtick_6">
     <g id="line2d_24">
      <path d="M 368.427086 220.32 
L 368.427086 61.728 
" clip-path="url(#p24cf12999b)" style="fill: none; stroke: #d9dedb; stroke-opacity: 0.85; stroke-width: 0.8; stroke-linecap: square"/>
     </g>
     <g id="line2d_25"/>
     <g id="text_15">
      <!-- 100 -->
      <g style="fill: #56636f" transform="translate(358.883336 231.418438) scale(0.1 -0.1)">
       <use xlink:href="#DejaVuSans-31"/>
       <use xlink:href="#DejaVuSans-30" x="63.623047"/>
       <use xlink:href="#DejaVuSans-30" x="127.246094"/>
      </g>
     </g>
    </g>
    <g id="xtick_7">
     <g id="line2d_26">
      <path d="M 419.972348 220.32 
L 419.972348 61.728 
" clip-path="url(#p24cf12999b)" style="fill: none; stroke: #d9dedb; stroke-opacity: 0.85; stroke-width: 0.8; stroke-linecap: square"/>
     </g>
     <g id="line2d_27"/>
     <g id="text_16">
      <!-- 150 -->
      <g style="fill: #56636f" transform="translate(410.428598 231.418438) scale(0.1 -0.1)">
       <use xlink:href="#DejaVuSans-31"/>
       <use xlink:href="#DejaVuSans-35" x="63.623047"/>
       <use xlink:href="#DejaVuSans-30" x="127.246094"/>
      </g>
     </g>
    </g>
    <g id="xtick_8">
     <g id="line2d_28">
      <path d="M 471.517609 220.32 
L 471.517609 61.728 
" clip-path="url(#p24cf12999b)" style="fill: none; stroke: #d9dedb; stroke-opacity: 0.85; stroke-width: 0.8; stroke-linecap: square"/>
     </g>
     <g id="line2d_29"/>
     <g id="text_17">
      <!-- 200 -->
      <g style="fill: #56636f" transform="translate(461.973859 231.418438) scale(0.1 -0.1)">
       <use xlink:href="#DejaVuSans-32"/>
       <use xlink:href="#DejaVuSans-30" x="63.623047"/>
       <use xlink:href="#DejaVuSans-30" x="127.246094"/>
      </g>
     </g>
    </g>
    <g id="text_18">
     <!-- Daily MVPA minutes -->
     <g style="fill: #17212b" transform="translate(326.79125 245.096563) scale(0.1 -0.1)">
      <use xlink:href="#DejaVuSans-44"/>
      <use xlink:href="#DejaVuSans-61" x="77.001953"/>
      <use xlink:href="#DejaVuSans-69" x="138.28125"/>
      <use xlink:href="#DejaVuSans-6c" x="166.064453"/>
      <use xlink:href="#DejaVuSans-79" x="193.847656"/>
      <use xlink:href="#DejaVuSans-20" x="253.027344"/>
      <use xlink:href="#DejaVuSans-4d" x="284.814453"/>
      <use xlink:href="#DejaVuSans-56" x="371.09375"/>
      <use xlink:href="#DejaVuSans-50" x="439.501953"/>
      <use xlink:href="#DejaVuSans-41" x="493.429688"/>
      <use xlink:href="#DejaVuSans-20" x="561.837891"/>
      <use xlink:href="#DejaVuSans-6d" x="593.625"/>
      <use xlink:href="#DejaVuSans-69" x="691.037109"/>
      <use xlink:href="#DejaVuSans-6e" x="718.820312"/>
      <use xlink:href="#DejaVuSans-75" x="782.199219"/>
      <use xlink:href="#DejaVuSans-74" x="845.578125"/>
      <use xlink:href="#DejaVuSans-65" x="884.787109"/>
      <use xlink:href="#DejaVuSans-73" x="946.310547"/>
     </g>
    </g>
   </g>
   <g id="matplotlib.axis_4">
    <g id="ytick_7">
     <g id="line2d_30">
      <path d="M 269.48 214.433975 
L 483.94 214.433975 
" clip-path="url(#p24cf12999b)" style="fill: none; stroke: #d9dedb; stroke-opacity: 0.85; stroke-width: 0.8; stroke-linecap: square"/>
     </g>
     <g id="line2d_31"/>
    </g>
    <g id="ytick_8">
     <g id="line2d_32">
      <path d="M 269.48 185.334525 
L 483.94 185.334525 
" clip-path="url(#p24cf12999b)" style="fill: none; stroke: #d9dedb; stroke-opacity: 0.85; stroke-width: 0.8; stroke-linecap: square"/>
     </g>
     <g id="line2d_33"/>
    </g>
    <g id="ytick_9">
     <g id="line2d_34">
      <path d="M 269.48 156.235076 
L 483.94 156.235076 
" clip-path="url(#p24cf12999b)" style="fill: none; stroke: #d9dedb; stroke-opacity: 0.85; stroke-width: 0.8; stroke-linecap: square"/>
     </g>
     <g id="line2d_35"/>
    </g>
    <g id="ytick_10">
     <g id="line2d_36">
      <path d="M 269.48 127.135626 
L 483.94 127.135626 
" clip-path="url(#p24cf12999b)" style="fill: none; stroke: #d9dedb; stroke-opacity: 0.85; stroke-width: 0.8; stroke-linecap: square"/>
     </g>
     <g id="line2d_37"/>
    </g>
    <g id="ytick_11">
     <g id="line2d_38">
      <path d="M 269.48 98.036177 
L 483.94 98.036177 
" clip-path="url(#p24cf12999b)" style="fill: none; stroke: #d9dedb; stroke-opacity: 0.85; stroke-width: 0.8; stroke-linecap: square"/>
     </g>
     <g id="line2d_39"/>
    </g>
    <g id="ytick_12">
     <g id="line2d_40">
      <path d="M 269.48 68.936727 
L 483.94 68.936727 
" clip-path="url(#p24cf12999b)" style="fill: none; stroke: #d9dedb; stroke-opacity: 0.85; stroke-width: 0.8; stroke-linecap: square"/>
     </g>
     <g id="line2d_41"/>
    </g>
   </g>
   <g id="line2d_42">
    <path d="M 279.228182 213.111273 
L 284.917998 213.111273 
L 284.917998 211.78857 
L 287.095841 211.78857 
L 287.095841 210.465868 
L 292.196079 210.465868 
L 292.196079 209.143166 
L 294.050399 209.143166 
L 294.050399 207.820464 
L 296.092961 207.820464 
L 296.092961 206.497761 
L 297.312484 206.497761 
L 297.312484 205.175059 
L 299.369281 205.175059 
L 299.369281 203.852357 
L 302.04312 203.852357 
L 302.04312 202.529655 
L 303.725317 202.529655 
L 303.725317 201.206952 
L 305.610541 201.206952 
L 305.666401 198.561548 
L 307.601015 198.561548 
L 307.601015 197.238846 
L 307.796782 197.238846 
L 307.876665 194.593441 
L 308.612635 194.593441 
L 308.612635 193.270739 
L 308.755842 193.270739 
L 308.755842 191.948037 
L 309.426466 191.948037 
L 309.426466 190.625334 
L 312.671217 190.625334 
L 312.671217 189.302632 
L 313.607946 189.302632 
L 313.662356 186.657228 
L 313.944311 186.657228 
L 313.944311 185.334525 
L 315.00507 185.334525 
L 315.088638 182.689121 
L 315.520966 182.689121 
L 315.520966 181.366419 
L 317.769115 181.366419 
L 317.769115 180.043716 
L 318.531992 180.043716 
L 318.531992 178.721014 
L 318.958644 178.721014 
L 318.958644 177.398312 
L 319.703905 177.398312 
L 319.703905 176.07561 
L 319.959085 176.07561 
L 320.038844 173.430205 
L 323.612836 173.430205 
L 323.612836 172.107503 
L 324.197517 172.107503 
L 324.235215 168.139396 
L 325.47588 168.139396 
L 325.47588 166.816694 
L 325.898753 166.816694 
L 325.948141 164.171289 
L 328.424909 164.171289 
L 328.424909 162.848587 
L 328.957581 162.848587 
L 328.957581 161.525885 
L 329.650953 161.525885 
L 329.650953 160.203183 
L 331.088245 160.203183 
L 331.106488 157.557778 
L 334.148635 157.557778 
L 334.148635 156.235076 
L 334.619702 156.235076 
L 334.619702 154.912374 
L 335.081083 154.912374 
L 335.094168 152.266969 
L 335.2656 152.266969 
L 335.2656 150.944267 
L 336.726231 150.944267 
L 336.726231 149.621565 
L 336.850661 149.621565 
L 336.850661 148.298862 
L 337.227243 148.298862 
L 337.293651 145.653458 
L 337.639062 145.653458 
L 337.639062 144.330756 
L 339.175994 144.330756 
L 339.175994 143.008053 
L 339.753318 143.008053 
L 339.753318 141.685351 
L 340.058433 141.685351 
L 340.058433 140.362649 
L 342.030436 140.362649 
L 342.030436 139.039947 
L 343.127487 139.039947 
L 343.127487 137.717244 
L 343.639004 137.717244 
L 343.668108 135.07184 
L 343.799926 135.07184 
L 343.799926 133.749138 
L 344.975532 133.749138 
L 344.975532 132.426435 
L 345.405561 132.426435 
L 345.405561 131.103733 
L 345.956892 131.103733 
L 345.956892 129.781031 
L 346.36944 129.781031 
L 346.36944 128.458329 
L 346.930134 128.458329 
L 346.930134 127.135626 
L 347.313293 127.135626 
L 347.313293 125.812924 
L 347.597464 125.812924 
L 347.597464 124.490222 
L 348.242936 124.490222 
L 348.242936 123.16752 
L 349.87505 123.16752 
L 349.98014 120.522115 
L 350.051099 120.522115 
L 350.051099 119.199413 
L 351.403425 119.199413 
L 351.403425 117.876711 
L 352.363733 117.876711 
L 352.363733 116.554008 
L 353.551937 116.554008 
L 353.551937 115.231306 
L 353.898858 115.231306 
L 353.898858 113.908604 
L 354.873918 113.908604 
L 354.873918 112.585902 
L 355.023275 112.585902 
L 355.023275 111.263199 
L 355.351175 111.263199 
L 355.351175 109.940497 
L 356.194807 109.940497 
L 356.194807 108.617795 
L 359.113672 108.617795 
L 359.113672 107.295093 
L 359.425984 107.295093 
L 359.425984 105.97239 
L 359.898451 105.97239 
L 359.898451 104.649688 
L 361.969744 104.649688 
L 361.969744 103.326986 
L 362.85691 103.326986 
L 362.961098 100.681581 
L 363.038381 100.681581 
L 363.038381 99.358879 
L 364.481109 99.358879 
L 364.481109 98.036177 
L 368.031483 98.036177 
L 368.031483 96.713475 
L 368.270401 96.713475 
L 368.270401 95.390772 
L 369.76187 95.390772 
L 369.76187 94.06807 
L 370.182418 94.06807 
L 370.182418 92.745368 
L 370.670929 92.745368 
L 370.732478 90.099963 
L 372.115918 90.099963 
L 372.115918 88.777261 
L 372.614459 88.777261 
L 372.614459 87.454559 
L 373.779677 87.454559 
L 373.779677 86.131857 
L 378.35157 86.131857 
L 378.409227 83.486452 
L 378.832264 83.486452 
L 378.832264 82.16375 
L 379.035028 82.16375 
L 379.035028 80.841048 
L 381.743098 80.841048 
L 381.743098 79.518345 
L 385.691443 79.518345 
L 385.691443 78.195643 
L 392.391266 78.195643 
L 392.391266 76.872941 
L 392.97076 76.872941 
L 392.97076 75.550239 
L 404.044242 75.550239 
L 404.044242 74.227536 
L 411.465118 74.227536 
L 411.465118 72.904834 
L 419.58749 72.904834 
L 419.58749 71.582132 
L 433.444437 71.582132 
L 433.444437 70.25943 
L 454.562609 70.25943 
L 454.562609 68.936727 
L 454.562609 68.936727 
" clip-path="url(#p24cf12999b)" style="fill: none; stroke: #e69f00; stroke-width: 2.1; stroke-linecap: square"/>
   </g>
   <g id="patch_6">
    <path d="M 269.48 220.32 
L 269.48 61.728 
" style="fill: none; stroke: #d9dedb; stroke-width: 0.8; stroke-linejoin: miter; stroke-linecap: square"/>
   </g>
   <g id="patch_7">
    <path d="M 269.48 220.32 
L 483.94 220.32 
" style="fill: none; stroke: #d9dedb; stroke-width: 0.8; stroke-linejoin: miter; stroke-linecap: square"/>
   </g>
   <g id="text_19">
    <!-- Adults -->
    <g style="fill: #17212b" transform="translate(356.81375 55.728) scale(0.11 -0.11)">
     <defs>
      <path id="DejaVuSans-Bold-41" d="M 3419 850 
L 1538 850 
L 1241 0 
L 31 0 
L 1759 4666 
L 3194 4666 
L 4922 0 
L 3713 0 
L 3419 850 
z
M 1838 1716 
L 3116 1716 
L 2478 3572 
L 1838 1716 
z
" transform="scale(0.015625)"/>
      <path id="DejaVuSans-Bold-75" d="M 500 1363 
L 500 3500 
L 1625 3500 
L 1625 3150 
Q 1625 2866 1622 2436 
Q 1619 2006 1619 1863 
Q 1619 1441 1641 1255 
Q 1663 1069 1716 984 
Q 1784 875 1895 815 
Q 2006 756 2150 756 
Q 2500 756 2700 1025 
Q 2900 1294 2900 1772 
L 2900 3500 
L 4019 3500 
L 4019 0 
L 2900 0 
L 2900 506 
Q 2647 200 2364 54 
Q 2081 -91 1741 -91 
Q 1134 -91 817 281 
Q 500 653 500 1363 
z
" transform="scale(0.015625)"/>
     </defs>
     <use xlink:href="#DejaVuSans-Bold-41"/>
     <use xlink:href="#DejaVuSans-Bold-64" x="77.392578"/>
     <use xlink:href="#DejaVuSans-Bold-75" x="148.974609"/>
     <use xlink:href="#DejaVuSans-Bold-6c" x="220.166016"/>
     <use xlink:href="#DejaVuSans-Bold-74" x="254.443359"/>
     <use xlink:href="#DejaVuSans-Bold-73" x="302.246094"/>
    </g>
   </g>
  </g>
  <g id="axes_3">
   <g id="patch_8">
    <path d="M 494.74 220.32 
L 709.2 220.32 
L 709.2 61.728 
L 494.74 61.728 
z
" style="fill: #ffffff"/>
   </g>
   <g id="matplotlib.axis_5">
    <g id="xtick_9">
     <g id="line2d_43">
      <path d="M 542.141824 220.32 
L 542.141824 61.728 
" clip-path="url(#pd8f3b6bc76)" style="fill: none; stroke: #d9dedb; stroke-opacity: 0.85; stroke-width: 0.8; stroke-linecap: square"/>
     </g>
     <g id="line2d_44"/>
     <g id="text_20">
      <!-- 50 -->
      <g style="fill: #56636f" transform="translate(535.779324 231.418438) scale(0.1 -0.1)">
       <use xlink:href="#DejaVuSans-35"/>
       <use xlink:href="#DejaVuSans-30" x="63.623047"/>
      </g>
     </g>
    </g>
    <g id="xtick_10">
     <g id="line2d_45">
      <path d="M 593.687086 220.32 
L 593.687086 61.728 
" clip-path="url(#pd8f3b6bc76)" style="fill: none; stroke: #d9dedb; stroke-opacity: 0.85; stroke-width: 0.8; stroke-linecap: square"/>
     </g>
     <g id="line2d_46"/>
     <g id="text_21">
      <!-- 100 -->
      <g style="fill: #56636f" transform="translate(584.143336 231.418438) scale(0.1 -0.1)">
       <use xlink:href="#DejaVuSans-31"/>
       <use xlink:href="#DejaVuSans-30" x="63.623047"/>
       <use xlink:href="#DejaVuSans-30" x="127.246094"/>
      </g>
     </g>
    </g>
    <g id="xtick_11">
     <g id="line2d_47">
      <path d="M 645.232348 220.32 
L 645.232348 61.728 
" clip-path="url(#pd8f3b6bc76)" style="fill: none; stroke: #d9dedb; stroke-opacity: 0.85; stroke-width: 0.8; stroke-linecap: square"/>
     </g>
     <g id="line2d_48"/>
     <g id="text_22">
      <!-- 150 -->
      <g style="fill: #56636f" transform="translate(635.688598 231.418438) scale(0.1 -0.1)">
       <use xlink:href="#DejaVuSans-31"/>
       <use xlink:href="#DejaVuSans-35" x="63.623047"/>
       <use xlink:href="#DejaVuSans-30" x="127.246094"/>
      </g>
     </g>
    </g>
    <g id="xtick_12">
     <g id="line2d_49">
      <path d="M 696.777609 220.32 
L 696.777609 61.728 
" clip-path="url(#pd8f3b6bc76)" style="fill: none; stroke: #d9dedb; stroke-opacity: 0.85; stroke-width: 0.8; stroke-linecap: square"/>
     </g>
     <g id="line2d_50"/>
     <g id="text_23">
      <!-- 200 -->
      <g style="fill: #56636f" transform="translate(687.233859 231.418438) scale(0.1 -0.1)">
       <use xlink:href="#DejaVuSans-32"/>
       <use xlink:href="#DejaVuSans-30" x="63.623047"/>
       <use xlink:href="#DejaVuSans-30" x="127.246094"/>
      </g>
     </g>
    </g>
    <g id="text_24">
     <!-- Daily MVPA minutes -->
     <g style="fill: #17212b" transform="translate(552.05125 245.096563) scale(0.1 -0.1)">
      <use xlink:href="#DejaVuSans-44"/>
      <use xlink:href="#DejaVuSans-61" x="77.001953"/>
      <use xlink:href="#DejaVuSans-69" x="138.28125"/>
      <use xlink:href="#DejaVuSans-6c" x="166.064453"/>
      <use xlink:href="#DejaVuSans-79" x="193.847656"/>
      <use xlink:href="#DejaVuSans-20" x="253.027344"/>
      <use xlink:href="#DejaVuSans-4d" x="284.814453"/>
      <use xlink:href="#DejaVuSans-56" x="371.09375"/>
      <use xlink:href="#DejaVuSans-50" x="439.501953"/>
      <use xlink:href="#DejaVuSans-41" x="493.429688"/>
      <use xlink:href="#DejaVuSans-20" x="561.837891"/>
      <use xlink:href="#DejaVuSans-6d" x="593.625"/>
      <use xlink:href="#DejaVuSans-69" x="691.037109"/>
      <use xlink:href="#DejaVuSans-6e" x="718.820312"/>
      <use xlink:href="#DejaVuSans-75" x="782.199219"/>
      <use xlink:href="#DejaVuSans-74" x="845.578125"/>
      <use xlink:href="#DejaVuSans-65" x="884.787109"/>
      <use xlink:href="#DejaVuSans-73" x="946.310547"/>
     </g>
    </g>
   </g>
   <g id="matplotlib.axis_6">
    <g id="ytick_13">
     <g id="line2d_51">
      <path d="M 494.74 214.433975 
L 709.2 214.433975 
" clip-path="url(#pd8f3b6bc76)" style="fill: none; stroke: #d9dedb; stroke-opacity: 0.85; stroke-width: 0.8; stroke-linecap: square"/>
     </g>
     <g id="line2d_52"/>
    </g>
    <g id="ytick_14">
     <g id="line2d_53">
      <path d="M 494.74 185.334525 
L 709.2 185.334525 
" clip-path="url(#pd8f3b6bc76)" style="fill: none; stroke: #d9dedb; stroke-opacity: 0.85; stroke-width: 0.8; stroke-linecap: square"/>
     </g>
     <g id="line2d_54"/>
    </g>
    <g id="ytick_15">
     <g id="line2d_55">
      <path d="M 494.74 156.235076 
L 709.2 156.235076 
" clip-path="url(#pd8f3b6bc76)" style="fill: none; stroke: #d9dedb; stroke-opacity: 0.85; stroke-width: 0.8; stroke-linecap: square"/>
     </g>
     <g id="line2d_56"/>
    </g>
    <g id="ytick_16">
     <g id="line2d_57">
      <path d="M 494.74 127.135626 
L 709.2 127.135626 
" clip-path="url(#pd8f3b6bc76)" style="fill: none; stroke: #d9dedb; stroke-opacity: 0.85; stroke-width: 0.8; stroke-linecap: square"/>
     </g>
     <g id="line2d_58"/>
    </g>
    <g id="ytick_17">
     <g id="line2d_59">
      <path d="M 494.74 98.036177 
L 709.2 98.036177 
" clip-path="url(#pd8f3b6bc76)" style="fill: none; stroke: #d9dedb; stroke-opacity: 0.85; stroke-width: 0.8; stroke-linecap: square"/>
     </g>
     <g id="line2d_60"/>
    </g>
    <g id="ytick_18">
     <g id="line2d_61">
      <path d="M 494.74 68.936727 
L 709.2 68.936727 
" clip-path="url(#pd8f3b6bc76)" style="fill: none; stroke: #d9dedb; stroke-opacity: 0.85; stroke-width: 0.8; stroke-linecap: square"/>
     </g>
     <g id="line2d_62"/>
    </g>
   </g>
   <g id="line2d_63">
    <path d="M 508.969111 213.111273 
L 514.444904 213.111273 
L 514.444904 211.78857 
L 516.702553 211.78857 
L 516.702553 210.465868 
L 519.461856 210.465868 
L 519.461856 209.143166 
L 520.226461 209.143166 
L 520.226461 207.820464 
L 525.863874 207.820464 
L 525.863874 206.497761 
L 527.038335 206.497761 
L 527.038335 205.175059 
L 528.416328 205.175059 
L 528.474959 202.529655 
L 531.022228 202.529655 
L 531.109296 199.88425 
L 531.344563 199.88425 
L 531.344563 198.561548 
L 532.422722 198.561548 
L 532.422722 197.238846 
L 533.901407 197.238846 
L 533.979637 194.593441 
L 534.474832 194.593441 
L 534.474832 193.270739 
L 534.959531 193.270739 
L 534.959531 191.948037 
L 535.994256 191.948037 
L 535.994256 190.625334 
L 536.172555 190.625334 
L 536.276071 187.97993 
L 536.288466 187.97993 
L 536.288466 186.657228 
L 536.477279 186.657228 
L 536.477279 185.334525 
L 536.704093 185.334525 
L 536.704093 184.011823 
L 537.507352 184.011823 
L 537.507352 182.689121 
L 539.15058 182.689121 
L 539.15058 181.366419 
L 539.686691 181.366419 
L 539.686691 180.043716 
L 540.527078 180.043716 
L 540.527078 178.721014 
L 540.6525 178.721014 
L 540.6525 177.398312 
L 542.265347 177.398312 
L 542.265347 176.07561 
L 543.002783 176.07561 
L 543.002783 174.752907 
L 543.28636 174.752907 
L 543.28636 173.430205 
L 543.684378 173.430205 
L 543.684378 172.107503 
L 544.771759 172.107503 
L 544.771759 170.784801 
L 545.213972 170.784801 
L 545.213972 169.462098 
L 546.52751 169.462098 
L 546.52751 168.139396 
L 547.461816 168.139396 
L 547.461816 166.816694 
L 547.717546 166.816694 
L 547.717546 165.493992 
L 548.01621 165.493992 
L 548.01621 164.171289 
L 548.703972 164.171289 
L 548.725973 161.525885 
L 549.083721 161.525885 
L 549.083721 160.203183 
L 549.63253 160.203183 
L 549.63253 158.88048 
L 551.228119 158.88048 
L 551.228119 157.557778 
L 551.787444 157.557778 
L 551.787444 156.235076 
L 551.952023 156.235076 
L 551.952023 154.912374 
L 552.233017 154.912374 
L 552.233017 153.589671 
L 552.920013 153.589671 
L 552.920013 152.266969 
L 554.925922 152.266969 
L 554.925922 150.944267 
L 555.681076 150.944267 
L 555.681076 149.621565 
L 556.270731 149.621565 
L 556.270731 148.298862 
L 557.018354 148.298862 
L 557.068372 145.653458 
L 557.542031 145.653458 
L 557.542031 144.330756 
L 558.531705 144.330756 
L 558.531705 143.008053 
L 558.790402 143.008053 
L 558.790402 141.685351 
L 559.223243 141.685351 
L 559.223243 140.362649 
L 559.974249 140.362649 
L 559.974249 139.039947 
L 560.39673 139.039947 
L 560.39673 137.717244 
L 561.118253 137.717244 
L 561.118253 136.394542 
L 561.579928 136.394542 
L 561.579928 135.07184 
L 562.129373 135.07184 
L 562.129373 133.749138 
L 563.584937 133.749138 
L 563.584937 132.426435 
L 563.715215 132.426435 
L 563.715215 131.103733 
L 563.993518 131.103733 
L 563.993518 129.781031 
L 564.787842 129.781031 
L 564.787842 128.458329 
L 565.274461 128.458329 
L 565.274461 127.135626 
L 567.364748 127.135626 
L 567.433886 124.490222 
L 569.28242 124.490222 
L 569.28242 123.16752 
L 569.804094 123.16752 
L 569.804094 121.844817 
L 570.096666 121.844817 
L 570.096666 120.522115 
L 573.598229 120.522115 
L 573.598229 119.199413 
L 574.22217 119.199413 
L 574.22217 117.876711 
L 575.077518 117.876711 
L 575.077518 116.554008 
L 575.776677 116.554008 
L 575.776677 115.231306 
L 577.903078 115.231306 
L 577.903078 113.908604 
L 580.551599 113.908604 
L 580.551599 112.585902 
L 581.469228 112.585902 
L 581.56059 109.940497 
L 584.155574 109.940497 
L 584.155574 108.617795 
L 584.344343 108.617795 
L 584.344343 107.295093 
L 585.335631 107.295093 
L 585.335631 105.97239 
L 585.969751 105.97239 
L 585.969751 104.649688 
L 587.185038 104.649688 
L 587.185038 103.326986 
L 587.318172 103.326986 
L 587.318172 102.004284 
L 587.769934 102.004284 
L 587.769934 100.681581 
L 588.091457 100.681581 
L 588.165532 98.036177 
L 590.63822 98.036177 
L 590.63822 96.713475 
L 592.609326 96.713475 
L 592.609326 95.390772 
L 593.640043 95.390772 
L 593.640043 94.06807 
L 597.180852 94.06807 
L 597.180852 92.745368 
L 598.700507 92.745368 
L 598.700507 91.422666 
L 599.146464 91.422666 
L 599.146464 90.099963 
L 599.331984 90.099963 
L 599.331984 88.777261 
L 603.287844 88.777261 
L 603.287844 87.454559 
L 610.614351 87.454559 
L 610.614351 86.131857 
L 612.655213 86.131857 
L 612.655213 84.809154 
L 612.841056 84.809154 
L 612.841056 83.486452 
L 613.482919 83.486452 
L 613.482919 82.16375 
L 614.768961 82.16375 
L 614.768961 80.841048 
L 615.235965 80.841048 
L 615.235965 79.518345 
L 624.439672 79.518345 
L 624.439672 78.195643 
L 624.58191 78.195643 
L 624.58191 76.872941 
L 631.871494 76.872941 
L 631.871494 75.550239 
L 634.197834 75.550239 
L 634.197834 74.227536 
L 635.149685 74.227536 
L 635.149685 72.904834 
L 637.222559 72.904834 
L 637.222559 71.582132 
L 638.449934 71.582132 
L 638.449934 70.25943 
L 699.451818 70.25943 
L 699.451818 68.936727 
L 699.451818 68.936727 
" clip-path="url(#pd8f3b6bc76)" style="fill: none; stroke: #cc79a7; stroke-width: 2.1; stroke-linecap: square"/>
   </g>
   <g id="patch_9">
    <path d="M 494.74 220.32 
L 494.74 61.728 
" style="fill: none; stroke: #d9dedb; stroke-width: 0.8; stroke-linejoin: miter; stroke-linecap: square"/>
   </g>
   <g id="patch_10">
    <path d="M 494.74 220.32 
L 709.2 220.32 
" style="fill: none; stroke: #d9dedb; stroke-width: 0.8; stroke-linejoin: miter; stroke-linecap: square"/>
   </g>
   <g id="text_25">
    <!-- Older adults -->
    <g style="fill: #17212b" transform="translate(563.763047 55.728) scale(0.11 -0.11)">
     <defs>
      <path id="DejaVuSans-Bold-4f" d="M 2719 3878 
Q 2169 3878 1866 3472 
Q 1563 3066 1563 2328 
Q 1563 1594 1866 1187 
Q 2169 781 2719 781 
Q 3272 781 3575 1187 
Q 3878 1594 3878 2328 
Q 3878 3066 3575 3472 
Q 3272 3878 2719 3878 
z
M 2719 4750 
Q 3844 4750 4481 4106 
Q 5119 3463 5119 2328 
Q 5119 1197 4481 553 
Q 3844 -91 2719 -91 
Q 1597 -91 958 553 
Q 319 1197 319 2328 
Q 319 3463 958 4106 
Q 1597 4750 2719 4750 
z
" transform="scale(0.015625)"/>
      <path id="DejaVuSans-Bold-20" transform="scale(0.015625)"/>
     </defs>
     <use xlink:href="#DejaVuSans-Bold-4f"/>
     <use xlink:href="#DejaVuSans-Bold-6c" x="85.009766"/>
     <use xlink:href="#DejaVuSans-Bold-64" x="119.287109"/>
     <use xlink:href="#DejaVuSans-Bold-65" x="190.869141"/>
     <use xlink:href="#DejaVuSans-Bold-72" x="258.691406"/>
     <use xlink:href="#DejaVuSans-Bold-20" x="308.007812"/>
     <use xlink:href="#DejaVuSans-Bold-61" x="342.822266"/>
     <use xlink:href="#DejaVuSans-Bold-64" x="410.302734"/>
     <use xlink:href="#DejaVuSans-Bold-75" x="481.884766"/>
     <use xlink:href="#DejaVuSans-Bold-6c" x="553.076172"/>
     <use xlink:href="#DejaVuSans-Bold-74" x="587.353516"/>
     <use xlink:href="#DejaVuSans-Bold-73" x="635.15625"/>
    </g>
   </g>
  </g>
  <g id="text_26">
   <!-- Daily MVPA minutes by sample group -->
   <g transform="translate(233.592188 16.318125) scale(0.12 -0.12)">
    <defs>
     <path id="DejaVuSans-Bold-44" d="M 1791 3756 
L 1791 909 
L 2222 909 
Q 2959 909 3348 1275 
Q 3738 1641 3738 2338 
Q 3738 3031 3350 3393 
Q 2963 3756 2222 3756 
L 1791 3756 
z
M 588 4666 
L 1856 4666 
Q 2919 4666 3439 4514 
Q 3959 4363 4331 4000 
Q 4659 3684 4818 3271 
Q 4978 2859 4978 2338 
Q 4978 1809 4818 1395 
Q 4659 981 4331 666 
Q 3956 303 3431 151 
Q 2906 0 1856 0 
L 588 0 
L 588 4666 
z
" transform="scale(0.015625)"/>
     <path id="DejaVuSans-Bold-79" d="M 78 3500 
L 1197 3500 
L 2138 1125 
L 2938 3500 
L 4056 3500 
L 2584 -331 
Q 2363 -916 2067 -1148 
Q 1772 -1381 1288 -1381 
L 641 -1381 
L 641 -647 
L 991 -647 
Q 1275 -647 1404 -556 
Q 1534 -466 1606 -231 
L 1638 -134 
L 78 3500 
z
" transform="scale(0.015625)"/>
     <path id="DejaVuSans-Bold-4d" d="M 588 4666 
L 2119 4666 
L 3181 2169 
L 4250 4666 
L 5778 4666 
L 5778 0 
L 4641 0 
L 4641 3413 
L 3566 897 
L 2803 897 
L 1728 3413 
L 1728 0 
L 588 0 
L 588 4666 
z
" transform="scale(0.015625)"/>
     <path id="DejaVuSans-Bold-56" d="M 31 4666 
L 1241 4666 
L 2478 1222 
L 3713 4666 
L 4922 4666 
L 3194 0 
L 1759 0 
L 31 4666 
z
" transform="scale(0.015625)"/>
     <path id="DejaVuSans-Bold-50" d="M 588 4666 
L 2584 4666 
Q 3475 4666 3951 4270 
Q 4428 3875 4428 3144 
Q 4428 2409 3951 2014 
Q 3475 1619 2584 1619 
L 1791 1619 
L 1791 0 
L 588 0 
L 588 4666 
z
M 1791 3794 
L 1791 2491 
L 2456 2491 
Q 2806 2491 2997 2661 
Q 3188 2831 3188 3144 
Q 3188 3456 2997 3625 
Q 2806 3794 2456 3794 
L 1791 3794 
z
" transform="scale(0.015625)"/>
     <path id="DejaVuSans-Bold-6d" d="M 3781 2919 
Q 3994 3244 4286 3414 
Q 4578 3584 4928 3584 
Q 5531 3584 5847 3212 
Q 6163 2841 6163 2131 
L 6163 0 
L 5038 0 
L 5038 1825 
Q 5041 1866 5042 1909 
Q 5044 1953 5044 2034 
Q 5044 2406 4934 2573 
Q 4825 2741 4581 2741 
Q 4263 2741 4089 2478 
Q 3916 2216 3909 1719 
L 3909 0 
L 2784 0 
L 2784 1825 
Q 2784 2406 2684 2573 
Q 2584 2741 2328 2741 
Q 2006 2741 1831 2477 
Q 1656 2213 1656 1722 
L 1656 0 
L 531 0 
L 531 3500 
L 1656 3500 
L 1656 2988 
Q 1863 3284 2130 3434 
Q 2397 3584 2719 3584 
Q 3081 3584 3359 3409 
Q 3638 3234 3781 2919 
z
" transform="scale(0.015625)"/>
     <path id="DejaVuSans-Bold-62" d="M 2400 722 
Q 2759 722 2948 984 
Q 3138 1247 3138 1747 
Q 3138 2247 2948 2509 
Q 2759 2772 2400 2772 
Q 2041 2772 1848 2508 
Q 1656 2244 1656 1747 
Q 1656 1250 1848 986 
Q 2041 722 2400 722 
z
M 1656 2988 
Q 1888 3294 2169 3439 
Q 2450 3584 2816 3584 
Q 3463 3584 3878 3070 
Q 4294 2556 4294 1747 
Q 4294 938 3878 423 
Q 3463 -91 2816 -91 
Q 2450 -91 2169 54 
Q 1888 200 1656 506 
L 1656 0 
L 538 0 
L 538 4863 
L 1656 4863 
L 1656 2988 
z
" transform="scale(0.015625)"/>
     <path id="DejaVuSans-Bold-70" d="M 1656 506 
L 1656 -1331 
L 538 -1331 
L 538 3500 
L 1656 3500 
L 1656 2988 
Q 1888 3294 2169 3439 
Q 2450 3584 2816 3584 
Q 3463 3584 3878 3070 
Q 4294 2556 4294 1747 
Q 4294 938 3878 423 
Q 3463 -91 2816 -91 
Q 2450 -91 2169 54 
Q 1888 200 1656 506 
z
M 2400 2772 
Q 2041 2772 1848 2508 
Q 1656 2244 1656 1747 
Q 1656 1250 1848 986 
Q 2041 722 2400 722 
Q 2759 722 2948 984 
Q 3138 1247 3138 1747 
Q 3138 2247 2948 2509 
Q 2759 2772 2400 2772 
z
" transform="scale(0.015625)"/>
     <path id="DejaVuSans-Bold-67" d="M 2919 594 
Q 2688 288 2409 144 
Q 2131 0 1766 0 
Q 1125 0 706 504 
Q 288 1009 288 1791 
Q 288 2575 706 3076 
Q 1125 3578 1766 3578 
Q 2131 3578 2409 3434 
Q 2688 3291 2919 2981 
L 2919 3500 
L 4044 3500 
L 4044 353 
Q 4044 -491 3511 -936 
Q 2978 -1381 1966 -1381 
Q 1638 -1381 1331 -1331 
Q 1025 -1281 716 -1178 
L 716 -306 
Q 1009 -475 1290 -558 
Q 1572 -641 1856 -641 
Q 2406 -641 2662 -400 
Q 2919 -159 2919 353 
L 2919 594 
z
M 2181 2772 
Q 1834 2772 1640 2515 
Q 1447 2259 1447 1791 
Q 1447 1309 1634 1061 
Q 1822 813 2181 813 
Q 2531 813 2725 1069 
Q 2919 1325 2919 1791 
Q 2919 2259 2725 2515 
Q 2531 2772 2181 2772 
z
" transform="scale(0.015625)"/>
    </defs>
    <use xlink:href="#DejaVuSans-Bold-44"/>
    <use xlink:href="#DejaVuSans-Bold-61" x="83.007812"/>
    <use xlink:href="#DejaVuSans-Bold-69" x="150.488281"/>
    <use xlink:href="#DejaVuSans-Bold-6c" x="184.765625"/>
    <use xlink:href="#DejaVuSans-Bold-79" x="219.042969"/>
    <use xlink:href="#DejaVuSans-Bold-20" x="284.228516"/>
    <use xlink:href="#DejaVuSans-Bold-4d" x="319.042969"/>
    <use xlink:href="#DejaVuSans-Bold-56" x="418.554688"/>
    <use xlink:href="#DejaVuSans-Bold-50" x="495.947266"/>
    <use xlink:href="#DejaVuSans-Bold-41" x="560.113281"/>
    <use xlink:href="#DejaVuSans-Bold-20" x="637.505859"/>
    <use xlink:href="#DejaVuSans-Bold-6d" x="672.320312"/>
    <use xlink:href="#DejaVuSans-Bold-69" x="776.519531"/>
    <use xlink:href="#DejaVuSans-Bold-6e" x="810.796875"/>
    <use xlink:href="#DejaVuSans-Bold-75" x="881.988281"/>
    <use xlink:href="#DejaVuSans-Bold-74" x="953.179688"/>
    <use xlink:href="#DejaVuSans-Bold-65" x="1000.982422"/>
    <use xlink:href="#DejaVuSans-Bold-73" x="1068.804688"/>
    <use xlink:href="#DejaVuSans-Bold-20" x="1128.326172"/>
    <use xlink:href="#DejaVuSans-Bold-62" x="1163.140625"/>
    <use xlink:href="#DejaVuSans-Bold-79" x="1234.722656"/>
    <use xlink:href="#DejaVuSans-Bold-20" x="1299.908203"/>
    <use xlink:href="#DejaVuSans-Bold-73" x="1334.722656"/>
    <use xlink:href="#DejaVuSans-Bold-61" x="1394.244141"/>
    <use xlink:href="#DejaVuSans-Bold-6d" x="1461.724609"/>
    <use xlink:href="#DejaVuSans-Bold-70" x="1565.923828"/>
    <use xlink:href="#DejaVuSans-Bold-6c" x="1637.505859"/>
    <use xlink:href="#DejaVuSans-Bold-65" x="1671.783203"/>
    <use xlink:href="#DejaVuSans-Bold-20" x="1739.605469"/>
    <use xlink:href="#DejaVuSans-Bold-67" x="1774.419922"/>
    <use xlink:href="#DejaVuSans-Bold-72" x="1846.001953"/>
    <use xlink:href="#DejaVuSans-Bold-6f" x="1895.318359"/>
    <use xlink:href="#DejaVuSans-Bold-75" x="1964.019531"/>
    <use xlink:href="#DejaVuSans-Bold-70" x="2035.210938"/>
   </g>
  </g>
  <g id="text_27">
   <g id="patch_11">
    <path d="M 5.68 277.784 
L 239.98625 277.784 
L 239.98625 267.0015 
L 5.68 267.0015 
z
" style="fill: #ffffff; opacity: 0.92"/>
   </g>
   <!-- Illustrative example generated from simulated mock data -->
   <g style="fill: #56636f" transform="translate(7.2 274.60025) scale(0.08 -0.08)">
    <defs>
     <path id="DejaVuSans-49" d="M 628 4666 
L 1259 4666 
L 1259 0 
L 628 0 
L 628 4666 
z
" transform="scale(0.015625)"/>
     <path id="DejaVuSans-78" d="M 3513 3500 
L 2247 1797 
L 3578 0 
L 2900 0 
L 1881 1375 
L 863 0 
L 184 0 
L 1544 1831 
L 300 3500 
L 978 3500 
L 1906 2253 
L 2834 3500 
L 3513 3500 
z
" transform="scale(0.015625)"/>
     <path id="DejaVuSans-67" d="M 2906 1791 
Q 2906 2416 2648 2759 
Q 2391 3103 1925 3103 
Q 1463 3103 1205 2759 
Q 947 2416 947 1791 
Q 947 1169 1205 825 
Q 1463 481 1925 481 
Q 2391 481 2648 825 
Q 2906 1169 2906 1791 
z
M 3481 434 
Q 3481 -459 3084 -895 
Q 2688 -1331 1869 -1331 
Q 1566 -1331 1297 -1286 
Q 1028 -1241 775 -1147 
L 775 -588 
Q 1028 -725 1275 -790 
Q 1522 -856 1778 -856 
Q 2344 -856 2625 -561 
Q 2906 -266 2906 331 
L 2906 616 
Q 2728 306 2450 153 
Q 2172 0 1784 0 
Q 1141 0 747 490 
Q 353 981 353 1791 
Q 353 2603 747 3093 
Q 1141 3584 1784 3584 
Q 2172 3584 2450 3431 
Q 2728 3278 2906 2969 
L 2906 3500 
L 3481 3500 
L 3481 434 
z
" transform="scale(0.015625)"/>
     <path id="DejaVuSans-64" d="M 2906 2969 
L 2906 4863 
L 3481 4863 
L 3481 0 
L 2906 0 
L 2906 525 
Q 2725 213 2448 61 
Q 2172 -91 1784 -91 
Q 1150 -91 751 415 
Q 353 922 353 1747 
Q 353 2572 751 3078 
Q 1150 3584 1784 3584 
Q 2172 3584 2448 3432 
Q 2725 3281 2906 2969 
z
M 947 1747 
Q 947 1113 1208 752 
Q 1469 391 1925 391 
Q 2381 391 2643 752 
Q 2906 1113 2906 1747 
Q 2906 2381 2643 2742 
Q 2381 3103 1925 3103 
Q 1469 3103 1208 2742 
Q 947 2381 947 1747 
z
" transform="scale(0.015625)"/>
     <path id="DejaVuSans-66" d="M 2375 4863 
L 2375 4384 
L 1825 4384 
Q 1516 4384 1395 4259 
Q 1275 4134 1275 3809 
L 1275 3500 
L 2222 3500 
L 2222 3053 
L 1275 3053 
L 1275 0 
L 697 0 
L 697 3053 
L 147 3053 
L 147 3500 
L 697 3500 
L 697 3744 
Q 697 4328 969 4595 
Q 1241 4863 1831 4863 
L 2375 4863 
z
" transform="scale(0.015625)"/>
     <path id="DejaVuSans-63" d="M 3122 3366 
L 3122 2828 
Q 2878 2963 2633 3030 
Q 2388 3097 2138 3097 
Q 1578 3097 1268 2742 
Q 959 2388 959 1747 
Q 959 1106 1268 751 
Q 1578 397 2138 397 
Q 2388 397 2633 464 
Q 2878 531 3122 666 
L 3122 134 
Q 2881 22 2623 -34 
Q 2366 -91 2075 -91 
Q 1284 -91 818 406 
Q 353 903 353 1747 
Q 353 2603 823 3093 
Q 1294 3584 2113 3584 
Q 2378 3584 2631 3529 
Q 2884 3475 3122 3366 
z
" transform="scale(0.015625)"/>
     <path id="DejaVuSans-6b" d="M 581 4863 
L 1159 4863 
L 1159 1991 
L 2875 3500 
L 3609 3500 
L 1753 1863 
L 3688 0 
L 2938 0 
L 1159 1709 
L 1159 0 
L 581 0 
L 581 4863 
z
" transform="scale(0.015625)"/>
    </defs>
    <use xlink:href="#DejaVuSans-49"/>
    <use xlink:href="#DejaVuSans-6c" x="29.492188"/>
    <use xlink:href="#DejaVuSans-6c" x="57.275391"/>
    <use xlink:href="#DejaVuSans-75" x="85.058594"/>
    <use xlink:href="#DejaVuSans-73" x="148.4375"/>
    <use xlink:href="#DejaVuSans-74" x="200.537109"/>
    <use xlink:href="#DejaVuSans-72" x="239.746094"/>
    <use xlink:href="#DejaVuSans-61" x="280.859375"/>
    <use xlink:href="#DejaVuSans-74" x="342.138672"/>
    <use xlink:href="#DejaVuSans-69" x="381.347656"/>
    <use xlink:href="#DejaVuSans-76" x="409.130859"/>
    <use xlink:href="#DejaVuSans-65" x="468.310547"/>
    <use xlink:href="#DejaVuSans-20" x="529.833984"/>
    <use xlink:href="#DejaVuSans-65" x="561.621094"/>
    <use xlink:href="#DejaVuSans-78" x="621.394531"/>
    <use xlink:href="#DejaVuSans-61" x="680.574219"/>
    <use xlink:href="#DejaVuSans-6d" x="741.853516"/>
    <use xlink:href="#DejaVuSans-70" x="839.265625"/>
    <use xlink:href="#DejaVuSans-6c" x="902.742188"/>
    <use xlink:href="#DejaVuSans-65" x="930.525391"/>
    <use xlink:href="#DejaVuSans-20" x="992.048828"/>
    <use xlink:href="#DejaVuSans-67" x="1023.835938"/>
    <use xlink:href="#DejaVuSans-65" x="1087.3125"/>
    <use xlink:href="#DejaVuSans-6e" x="1148.835938"/>
    <use xlink:href="#DejaVuSans-65" x="1212.214844"/>
    <use xlink:href="#DejaVuSans-72" x="1273.738281"/>
    <use xlink:href="#DejaVuSans-61" x="1314.851562"/>
    <use xlink:href="#DejaVuSans-74" x="1376.130859"/>
    <use xlink:href="#DejaVuSans-65" x="1415.339844"/>
    <use xlink:href="#DejaVuSans-64" x="1476.863281"/>
    <use xlink:href="#DejaVuSans-20" x="1540.339844"/>
    <use xlink:href="#DejaVuSans-66" x="1572.126953"/>
    <use xlink:href="#DejaVuSans-72" x="1607.332031"/>
    <use xlink:href="#DejaVuSans-6f" x="1646.195312"/>
    <use xlink:href="#DejaVuSans-6d" x="1707.376953"/>
    <use xlink:href="#DejaVuSans-20" x="1804.789062"/>
    <use xlink:href="#DejaVuSans-73" x="1836.576172"/>
    <use xlink:href="#DejaVuSans-69" x="1888.675781"/>
    <use xlink:href="#DejaVuSans-6d" x="1916.458984"/>
    <use xlink:href="#DejaVuSans-75" x="2013.871094"/>
    <use xlink:href="#DejaVuSans-6c" x="2077.25"/>
    <use xlink:href="#DejaVuSans-61" x="2105.033203"/>
    <use xlink:href="#DejaVuSans-74" x="2166.3125"/>
    <use xlink:href="#DejaVuSans-65" x="2205.521484"/>
    <use xlink:href="#DejaVuSans-64" x="2267.044922"/>
    <use xlink:href="#DejaVuSans-20" x="2330.521484"/>
    <use xlink:href="#DejaVuSans-6d" x="2362.308594"/>
    <use xlink:href="#DejaVuSans-6f" x="2459.720703"/>
    <use xlink:href="#DejaVuSans-63" x="2520.902344"/>
    <use xlink:href="#DejaVuSans-6b" x="2575.882812"/>
    <use xlink:href="#DejaVuSans-20" x="2633.792969"/>
    <use xlink:href="#DejaVuSans-64" x="2665.580078"/>
    <use xlink:href="#DejaVuSans-61" x="2729.056641"/>
    <use xlink:href="#DejaVuSans-74" x="2790.335938"/>
    <use xlink:href="#DejaVuSans-61" x="2829.544922"/>
   </g>
  </g>
 </g>
 <defs>
  <clipPath id="p81f7466361">
   <rect x="44.22" y="61.728" width="214.46" height="158.592"/>
  </clipPath>
  <clipPath id="p24cf12999b">
   <rect x="269.48" y="61.728" width="214.46" height="158.592"/>
  </clipPath>
  <clipPath id="pd8f3b6bc76">
   <rect x="494.74" y="61.728" width="214.46" height="158.592"/>
  </clipPath>
 </defs>
</svg>
