<?xml version="1.0" encoding="utf-8" standalone="no"?>
<!DOCTYPE svg PUBLIC "-//W3C//DTD SVG 1.1//EN"
  "http://www.w3.org/Graphics/SVG/1.1/DTD/svg11.dtd">
<svg xmlns:xlink="http://www.w3.org/1999/xlink" width="450.144pt" height="330.949969pt" viewBox="0 0 450.144 330.949969" xmlns="http://www.w3.org/2000/svg" version="1.1">
 <metadata>
  <rdf:RDF xmlns:dc="http://purl.org/dc/elements/1.1/" xmlns:cc="http://creativecommons.org/ns#" xmlns:rdf="http://www.w3.org/1999/02/22-rdf-syntax-ns#">
   <cc:Work>
    <dc:type rdf:resource="http://purl.org/dc/dcmitype/StillImage"/>
    <dc:date>2026-06-25T11:31:58.923893</dc:date>
    <dc:format>image/svg+xml</dc:format>
    <dc:creator>
     <cc:Agent>
      <dc:title>Matplotlib v3.8.2, https://matplotlib.org/</dc:title>
     </cc:Agent>
    </dc:creator>
   </cc:Work>
  </rdf:RDF>
 </metadata>
 <defs>
  <style type="text/css">*{stroke-linejoin: round; stroke-linecap: butt}</style>
 </defs>
 <g id="figure_1">
  <g id="patch_1">
   <path d="M 0 330.949969 
L 450.144 330.949969 
L 450.144 0 
L 0 0 
z
" style="fill: #ffffff"/>
  </g>
  <g id="axes_1">
   <g id="patch_2">
    <path d="M 63.504 289.189969 
L 442.944 289.189969 
L 442.944 23.077969 
L 63.504 23.077969 
z
" style="fill: #ffffff"/>
   </g>
   <g id="PathCollection_1">
    <defs>
     <path id="md81b751ccb" d="M 0 2.828427 
C 0.750108 2.828427 1.469594 2.530406 2 2 
C 2.530406 1.469594 2.828427 0.750108 2.828427 0 
C 2.828427 -0.750108 2.530406 -1.469594 2 -2 
C 1.469594 -2.530406 0.750108 -2.828427 0 -2.828427 
C -0.750108 -2.828427 -1.469594 -2.530406 -2 -2 
C -2.530406 -1.469594 -2.828427 -0.750108 -2.828427 0 
C -2.828427 0.750108 -2.530406 1.469594 -2 2 
C -1.469594 2.530406 -0.750108 2.828427 0 2.828427 
z
" style="stroke: #ffffff; stroke-opacity: 0.7; stroke-width: 0.4"/>
    </defs>
    <g clip-path="url(#pcd18905e09)">
     <use xlink:href="#md81b751ccb" x="301.917484" y="107.230357" style="fill: #176b5b; fill-opacity: 0.7; stroke: #ffffff; stroke-opacity: 0.7; stroke-width: 0.4"/>
     <use xlink:href="#md81b751ccb" x="387.781393" y="126.517882" style="fill: #176b5b; fill-opacity: 0.7; stroke: #ffffff; stroke-opacity: 0.7; stroke-width: 0.4"/>
     <use xlink:href="#md81b751ccb" x="229.588058" y="159.243989" style="fill: #176b5b; fill-opacity: 0.7; stroke: #ffffff; stroke-opacity: 0.7; stroke-width: 0.4"/>
     <use xlink:href="#md81b751ccb" x="170.084739" y="153.232865" style="fill: #176b5b; fill-opacity: 0.7; stroke: #ffffff; stroke-opacity: 0.7; stroke-width: 0.4"/>
     <use xlink:href="#md81b751ccb" x="209.923076" y="125.553676" style="fill: #176b5b; fill-opacity: 0.7; stroke: #ffffff; stroke-opacity: 0.7; stroke-width: 0.4"/>
     <use xlink:href="#md81b751ccb" x="223.981144" y="167.087455" style="fill: #176b5b; fill-opacity: 0.7; stroke: #ffffff; stroke-opacity: 0.7; stroke-width: 0.4"/>
     <use xlink:href="#md81b751ccb" x="246.043485" y="165.741102" style="fill: #176b5b; fill-opacity: 0.7; stroke: #ffffff; stroke-opacity: 0.7; stroke-width: 0.4"/>
     <use xlink:href="#md81b751ccb" x="325.074894" y="55.281709" style="fill: #176b5b; fill-opacity: 0.7; stroke: #ffffff; stroke-opacity: 0.7; stroke-width: 0.4"/>
     <use xlink:href="#md81b751ccb" x="389.483093" y="131.847469" style="fill: #176b5b; fill-opacity: 0.7; stroke: #ffffff; stroke-opacity: 0.7; stroke-width: 0.4"/>
     <use xlink:href="#md81b751ccb" x="166.395677" y="188.638073" style="fill: #176b5b; fill-opacity: 0.7; stroke: #ffffff; stroke-opacity: 0.7; stroke-width: 0.4"/>
     <use xlink:href="#md81b751ccb" x="316.660243" y="54.656672" style="fill: #176b5b; fill-opacity: 0.7; stroke: #ffffff; stroke-opacity: 0.7; stroke-width: 0.4"/>
     <use xlink:href="#md81b751ccb" x="197.299265" y="144.004064" style="fill: #176b5b; fill-opacity: 0.7; stroke: #ffffff; stroke-opacity: 0.7; stroke-width: 0.4"/>
     <use xlink:href="#md81b751ccb" x="153.71549" y="211.172159" style="fill: #176b5b; fill-opacity: 0.7; stroke: #ffffff; stroke-opacity: 0.7; stroke-width: 0.4"/>
     <use xlink:href="#md81b751ccb" x="305.350857" y="69.524499" style="fill: #176b5b; fill-opacity: 0.7; stroke: #ffffff; stroke-opacity: 0.7; stroke-width: 0.4"/>
     <use xlink:href="#md81b751ccb" x="186.809172" y="136.448256" style="fill: #176b5b; fill-opacity: 0.7; stroke: #ffffff; stroke-opacity: 0.7; stroke-width: 0.4"/>
     <use xlink:href="#md81b751ccb" x="333.017709" y="110.386224" style="fill: #176b5b; fill-opacity: 0.7; stroke: #ffffff; stroke-opacity: 0.7; stroke-width: 0.4"/>
     <use xlink:href="#md81b751ccb" x="302.444212" y="184.413033" style="fill: #176b5b; fill-opacity: 0.7; stroke: #ffffff; stroke-opacity: 0.7; stroke-width: 0.4"/>
     <use xlink:href="#md81b751ccb" x="191.881262" y="133.502788" style="fill: #176b5b; fill-opacity: 0.7; stroke: #ffffff; stroke-opacity: 0.7; stroke-width: 0.4"/>
     <use xlink:href="#md81b751ccb" x="134.150835" y="267.67452" style="fill: #176b5b; fill-opacity: 0.7; stroke: #ffffff; stroke-opacity: 0.7; stroke-width: 0.4"/>
     <use xlink:href="#md81b751ccb" x="201.50103" y="154.736096" style="fill: #176b5b; fill-opacity: 0.7; stroke: #ffffff; stroke-opacity: 0.7; stroke-width: 0.4"/>
     <use xlink:href="#md81b751ccb" x="80.751273" y="264.399175" style="fill: #176b5b; fill-opacity: 0.7; stroke: #ffffff; stroke-opacity: 0.7; stroke-width: 0.4"/>
     <use xlink:href="#md81b751ccb" x="161.457323" y="171.775884" style="fill: #176b5b; fill-opacity: 0.7; stroke: #ffffff; stroke-opacity: 0.7; stroke-width: 0.4"/>
     <use xlink:href="#md81b751ccb" x="289.883949" y="58.316406" style="fill: #176b5b; fill-opacity: 0.7; stroke: #ffffff; stroke-opacity: 0.7; stroke-width: 0.4"/>
     <use xlink:href="#md81b751ccb" x="300.757885" y="94.644585" style="fill: #176b5b; fill-opacity: 0.7; stroke: #ffffff; stroke-opacity: 0.7; stroke-width: 0.4"/>
     <use xlink:href="#md81b751ccb" x="240.036774" y="127.790405" style="fill: #176b5b; fill-opacity: 0.7; stroke: #ffffff; stroke-opacity: 0.7; stroke-width: 0.4"/>
     <use xlink:href="#md81b751ccb" x="267.766193" y="194.175132" style="fill: #176b5b; fill-opacity: 0.7; stroke: #ffffff; stroke-opacity: 0.7; stroke-width: 0.4"/>
     <use xlink:href="#md81b751ccb" x="282.177463" y="118.848572" style="fill: #176b5b; fill-opacity: 0.7; stroke: #ffffff; stroke-opacity: 0.7; stroke-width: 0.4"/>
     <use xlink:href="#md81b751ccb" x="336.611692" y="98.73132" style="fill: #176b5b; fill-opacity: 0.7; stroke: #ffffff; stroke-opacity: 0.7; stroke-width: 0.4"/>
     <use xlink:href="#md81b751ccb" x="160.047188" y="277.093969" style="fill: #176b5b; fill-opacity: 0.7; stroke: #ffffff; stroke-opacity: 0.7; stroke-width: 0.4"/>
     <use xlink:href="#md81b751ccb" x="114.941066" y="171.996041" style="fill: #176b5b; fill-opacity: 0.7; stroke: #ffffff; stroke-opacity: 0.7; stroke-width: 0.4"/>
     <use xlink:href="#md81b751ccb" x="287.596257" y="61.684753" style="fill: #176b5b; fill-opacity: 0.7; stroke: #ffffff; stroke-opacity: 0.7; stroke-width: 0.4"/>
     <use xlink:href="#md81b751ccb" x="131.877816" y="170.29354" style="fill: #176b5b; fill-opacity: 0.7; stroke: #ffffff; stroke-opacity: 0.7; stroke-width: 0.4"/>
     <use xlink:href="#md81b751ccb" x="215.256071" y="199.952988" style="fill: #176b5b; fill-opacity: 0.7; stroke: #ffffff; stroke-opacity: 0.7; stroke-width: 0.4"/>
     <use xlink:href="#md81b751ccb" x="215.127833" y="121.261529" style="fill: #176b5b; fill-opacity: 0.7; stroke: #ffffff; stroke-opacity: 0.7; stroke-width: 0.4"/>
     <use xlink:href="#md81b751ccb" x="286.130714" y="112.857713" style="fill: #176b5b; fill-opacity: 0.7; stroke: #ffffff; stroke-opacity: 0.7; stroke-width: 0.4"/>
     <use xlink:href="#md81b751ccb" x="249.983584" y="137.105614" style="fill: #176b5b; fill-opacity: 0.7; stroke: #ffffff; stroke-opacity: 0.7; stroke-width: 0.4"/>
     <use xlink:href="#md81b751ccb" x="230.347976" y="197.519362" style="fill: #176b5b; fill-opacity: 0.7; stroke: #ffffff; stroke-opacity: 0.7; stroke-width: 0.4"/>
     <use xlink:href="#md81b751ccb" x="241.857358" y="151.157753" style="fill: #176b5b; fill-opacity: 0.7; stroke: #ffffff; stroke-opacity: 0.7; stroke-width: 0.4"/>
     <use xlink:href="#md81b751ccb" x="301.465895" y="61.2091" style="fill: #176b5b; fill-opacity: 0.7; stroke: #ffffff; stroke-opacity: 0.7; stroke-width: 0.4"/>
     <use xlink:href="#md81b751ccb" x="336.545239" y="35.173969" style="fill: #176b5b; fill-opacity: 0.7; stroke: #ffffff; stroke-opacity: 0.7; stroke-width: 0.4"/>
     <use xlink:href="#md81b751ccb" x="147.282092" y="165.874528" style="fill: #176b5b; fill-opacity: 0.7; stroke: #ffffff; stroke-opacity: 0.7; stroke-width: 0.4"/>
     <use xlink:href="#md81b751ccb" x="185.973353" y="126.565683" style="fill: #176b5b; fill-opacity: 0.7; stroke: #ffffff; stroke-opacity: 0.7; stroke-width: 0.4"/>
     <use xlink:href="#md81b751ccb" x="156.744522" y="215.648339" style="fill: #176b5b; fill-opacity: 0.7; stroke: #ffffff; stroke-opacity: 0.7; stroke-width: 0.4"/>
     <use xlink:href="#md81b751ccb" x="190.860929" y="214.059571" style="fill: #176b5b; fill-opacity: 0.7; stroke: #ffffff; stroke-opacity: 0.7; stroke-width: 0.4"/>
     <use xlink:href="#md81b751ccb" x="232.13827" y="151.121902" style="fill: #176b5b; fill-opacity: 0.7; stroke: #ffffff; stroke-opacity: 0.7; stroke-width: 0.4"/>
     <use xlink:href="#md81b751ccb" x="281.977433" y="132.788903" style="fill: #176b5b; fill-opacity: 0.7; stroke: #ffffff; stroke-opacity: 0.7; stroke-width: 0.4"/>
     <use xlink:href="#md81b751ccb" x="201.345459" y="173.464436" style="fill: #176b5b; fill-opacity: 0.7; stroke: #ffffff; stroke-opacity: 0.7; stroke-width: 0.4"/>
     <use xlink:href="#md81b751ccb" x="162.722972" y="187.148145" style="fill: #176b5b; fill-opacity: 0.7; stroke: #ffffff; stroke-opacity: 0.7; stroke-width: 0.4"/>
     <use xlink:href="#md81b751ccb" x="375.320415" y="98.978646" style="fill: #176b5b; fill-opacity: 0.7; stroke: #ffffff; stroke-opacity: 0.7; stroke-width: 0.4"/>
     <use xlink:href="#md81b751ccb" x="257.473141" y="165.778745" style="fill: #176b5b; fill-opacity: 0.7; stroke: #ffffff; stroke-opacity: 0.7; stroke-width: 0.4"/>
     <use xlink:href="#md81b751ccb" x="183.308595" y="206.000784" style="fill: #176b5b; fill-opacity: 0.7; stroke: #ffffff; stroke-opacity: 0.7; stroke-width: 0.4"/>
     <use xlink:href="#md81b751ccb" x="217.499278" y="180.688862" style="fill: #176b5b; fill-opacity: 0.7; stroke: #ffffff; stroke-opacity: 0.7; stroke-width: 0.4"/>
     <use xlink:href="#md81b751ccb" x="168.331725" y="181.517474" style="fill: #176b5b; fill-opacity: 0.7; stroke: #ffffff; stroke-opacity: 0.7; stroke-width: 0.4"/>
     <use xlink:href="#md81b751ccb" x="200.479917" y="222.097426" style="fill: #176b5b; fill-opacity: 0.7; stroke: #ffffff; stroke-opacity: 0.7; stroke-width: 0.4"/>
     <use xlink:href="#md81b751ccb" x="174.690519" y="172.373982" style="fill: #176b5b; fill-opacity: 0.7; stroke: #ffffff; stroke-opacity: 0.7; stroke-width: 0.4"/>
     <use xlink:href="#md81b751ccb" x="292.254472" y="128.753728" style="fill: #176b5b; fill-opacity: 0.7; stroke: #ffffff; stroke-opacity: 0.7; stroke-width: 0.4"/>
     <use xlink:href="#md81b751ccb" x="245.623637" y="125.807463" style="fill: #176b5b; fill-opacity: 0.7; stroke: #ffffff; stroke-opacity: 0.7; stroke-width: 0.4"/>
     <use xlink:href="#md81b751ccb" x="223.522798" y="142.250576" style="fill: #176b5b; fill-opacity: 0.7; stroke: #ffffff; stroke-opacity: 0.7; stroke-width: 0.4"/>
     <use xlink:href="#md81b751ccb" x="92.428047" y="224.697617" style="fill: #176b5b; fill-opacity: 0.7; stroke: #ffffff; stroke-opacity: 0.7; stroke-width: 0.4"/>
     <use xlink:href="#md81b751ccb" x="217.676665" y="106.423422" style="fill: #176b5b; fill-opacity: 0.7; stroke: #ffffff; stroke-opacity: 0.7; stroke-width: 0.4"/>
     <use xlink:href="#md81b751ccb" x="304.413342" y="68.56128" style="fill: #176b5b; fill-opacity: 0.7; stroke: #ffffff; stroke-opacity: 0.7; stroke-width: 0.4"/>
     <use xlink:href="#md81b751ccb" x="325.515463" y="50.185797" style="fill: #176b5b; fill-opacity: 0.7; stroke: #ffffff; stroke-opacity: 0.7; stroke-width: 0.4"/>
     <use xlink:href="#md81b751ccb" x="236.676387" y="129.483259" style="fill: #176b5b; fill-opacity: 0.7; stroke: #ffffff; stroke-opacity: 0.7; stroke-width: 0.4"/>
     <use xlink:href="#md81b751ccb" x="233.535334" y="136.738347" style="fill: #176b5b; fill-opacity: 0.7; stroke: #ffffff; stroke-opacity: 0.7; stroke-width: 0.4"/>
     <use xlink:href="#md81b751ccb" x="303.760468" y="64.574418" style="fill: #176b5b; fill-opacity: 0.7; stroke: #ffffff; stroke-opacity: 0.7; stroke-width: 0.4"/>
     <use xlink:href="#md81b751ccb" x="258.540159" y="103.158176" style="fill: #176b5b; fill-opacity: 0.7; stroke: #ffffff; stroke-opacity: 0.7; stroke-width: 0.4"/>
     <use xlink:href="#md81b751ccb" x="300.234336" y="110.637564" style="fill: #176b5b; fill-opacity: 0.7; stroke: #ffffff; stroke-opacity: 0.7; stroke-width: 0.4"/>
     <use xlink:href="#md81b751ccb" x="425.696727" y="37.71672" style="fill: #176b5b; fill-opacity: 0.7; stroke: #ffffff; stroke-opacity: 0.7; stroke-width: 0.4"/>
     <use xlink:href="#md81b751ccb" x="219.864769" y="126.465893" style="fill: #176b5b; fill-opacity: 0.7; stroke: #ffffff; stroke-opacity: 0.7; stroke-width: 0.4"/>
     <use xlink:href="#md81b751ccb" x="261.775335" y="179.838738" style="fill: #176b5b; fill-opacity: 0.7; stroke: #ffffff; stroke-opacity: 0.7; stroke-width: 0.4"/>
     <use xlink:href="#md81b751ccb" x="141.997432" y="213.83459" style="fill: #176b5b; fill-opacity: 0.7; stroke: #ffffff; stroke-opacity: 0.7; stroke-width: 0.4"/>
     <use xlink:href="#md81b751ccb" x="200.20577" y="232.690198" style="fill: #176b5b; fill-opacity: 0.7; stroke: #ffffff; stroke-opacity: 0.7; stroke-width: 0.4"/>
     <use xlink:href="#md81b751ccb" x="252.985944" y="136.452204" style="fill: #176b5b; fill-opacity: 0.7; stroke: #ffffff; stroke-opacity: 0.7; stroke-width: 0.4"/>
     <use xlink:href="#md81b751ccb" x="218.643542" y="139.425298" style="fill: #176b5b; fill-opacity: 0.7; stroke: #ffffff; stroke-opacity: 0.7; stroke-width: 0.4"/>
     <use xlink:href="#md81b751ccb" x="292.854245" y="132.200959" style="fill: #176b5b; fill-opacity: 0.7; stroke: #ffffff; stroke-opacity: 0.7; stroke-width: 0.4"/>
     <use xlink:href="#md81b751ccb" x="294.46273" y="169.919197" style="fill: #176b5b; fill-opacity: 0.7; stroke: #ffffff; stroke-opacity: 0.7; stroke-width: 0.4"/>
     <use xlink:href="#md81b751ccb" x="263.441444" y="128.568379" style="fill: #176b5b; fill-opacity: 0.7; stroke: #ffffff; stroke-opacity: 0.7; stroke-width: 0.4"/>
     <use xlink:href="#md81b751ccb" x="233.753022" y="68.432071" style="fill: #176b5b; fill-opacity: 0.7; stroke: #ffffff; stroke-opacity: 0.7; stroke-width: 0.4"/>
     <use xlink:href="#md81b751ccb" x="239.480475" y="110.697968" style="fill: #176b5b; fill-opacity: 0.7; stroke: #ffffff; stroke-opacity: 0.7; stroke-width: 0.4"/>
     <use xlink:href="#md81b751ccb" x="232.756891" y="144.510881" style="fill: #176b5b; fill-opacity: 0.7; stroke: #ffffff; stroke-opacity: 0.7; stroke-width: 0.4"/>
     <use xlink:href="#md81b751ccb" x="102.80027" y="179.980056" style="fill: #176b5b; fill-opacity: 0.7; stroke: #ffffff; stroke-opacity: 0.7; stroke-width: 0.4"/>
     <use xlink:href="#md81b751ccb" x="139.11269" y="186.11087" style="fill: #176b5b; fill-opacity: 0.7; stroke: #ffffff; stroke-opacity: 0.7; stroke-width: 0.4"/>
     <use xlink:href="#md81b751ccb" x="133.586891" y="108.879012" style="fill: #176b5b; fill-opacity: 0.7; stroke: #ffffff; stroke-opacity: 0.7; stroke-width: 0.4"/>
     <use xlink:href="#md81b751ccb" x="197.455252" y="107.310775" style="fill: #176b5b; fill-opacity: 0.7; stroke: #ffffff; stroke-opacity: 0.7; stroke-width: 0.4"/>
     <use xlink:href="#md81b751ccb" x="178.053833" y="167.301497" style="fill: #176b5b; fill-opacity: 0.7; stroke: #ffffff; stroke-opacity: 0.7; stroke-width: 0.4"/>
     <use xlink:href="#md81b751ccb" x="155.371349" y="185.225304" style="fill: #176b5b; fill-opacity: 0.7; stroke: #ffffff; stroke-opacity: 0.7; stroke-width: 0.4"/>
     <use xlink:href="#md81b751ccb" x="343.383042" y="127.525294" style="fill: #176b5b; fill-opacity: 0.7; stroke: #ffffff; stroke-opacity: 0.7; stroke-width: 0.4"/>
     <use xlink:href="#md81b751ccb" x="170.564943" y="191.382485" style="fill: #176b5b; fill-opacity: 0.7; stroke: #ffffff; stroke-opacity: 0.7; stroke-width: 0.4"/>
     <use xlink:href="#md81b751ccb" x="209.586103" y="125.053335" style="fill: #176b5b; fill-opacity: 0.7; stroke: #ffffff; stroke-opacity: 0.7; stroke-width: 0.4"/>
     <use xlink:href="#md81b751ccb" x="210.289007" y="221.676314" style="fill: #176b5b; fill-opacity: 0.7; stroke: #ffffff; stroke-opacity: 0.7; stroke-width: 0.4"/>
    </g>
   </g>
   <g id="matplotlib.axis_1">
    <g id="xtick_1">
     <g id="line2d_1">
      <path d="M 84.844601 289.189969 
L 84.844601 23.077969 
" clip-path="url(#pcd18905e09)" style="fill: none; stroke: #d9dedb; stroke-opacity: 0.85; stroke-width: 0.8; stroke-linecap: square"/>
     </g>
     <g id="line2d_2"/>
     <g id="text_1">
      <!-- 40 -->
      <g style="fill: #56636f" transform="translate(78.482101 300.288406) scale(0.1 -0.1)">
       <defs>
        <path id="DejaVuSans-34" d="M 2419 4116 
L 825 1625 
L 2419 1625 
L 2419 4116 
z
M 2253 4666 
L 3047 4666 
L 3047 1625 
L 3713 1625 
L 3713 1100 
L 3047 1100 
L 3047 0 
L 2419 0 
L 2419 1100 
L 313 1100 
L 313 1709 
L 2253 4666 
z
" transform="scale(0.015625)"/>
        <path id="DejaVuSans-30" d="M 2034 4250 
Q 1547 4250 1301 3770 
Q 1056 3291 1056 2328 
Q 1056 1369 1301 889 
Q 1547 409 2034 409 
Q 2525 409 2770 889 
Q 3016 1369 3016 2328 
Q 3016 3291 2770 3770 
Q 2525 4250 2034 4250 
z
M 2034 4750 
Q 2819 4750 3233 4129 
Q 3647 3509 3647 2328 
Q 3647 1150 3233 529 
Q 2819 -91 2034 -91 
Q 1250 -91 836 529 
Q 422 1150 422 2328 
Q 422 3509 836 4129 
Q 1250 4750 2034 4750 
z
" transform="scale(0.015625)"/>
       </defs>
       <use xlink:href="#DejaVuSans-34"/>
       <use xlink:href="#DejaVuSans-30" x="63.623047"/>
      </g>
     </g>
    </g>
    <g id="xtick_2">
     <g id="line2d_3">
      <path d="M 163.054328 289.189969 
L 163.054328 23.077969 
" clip-path="url(#pcd18905e09)" style="fill: none; stroke: #d9dedb; stroke-opacity: 0.85; stroke-width: 0.8; stroke-linecap: square"/>
     </g>
     <g id="line2d_4"/>
     <g id="text_2">
      <!-- 60 -->
      <g style="fill: #56636f" transform="translate(156.691828 300.288406) scale(0.1 -0.1)">
       <defs>
        <path id="DejaVuSans-36" d="M 2113 2584 
Q 1688 2584 1439 2293 
Q 1191 2003 1191 1497 
Q 1191 994 1439 701 
Q 1688 409 2113 409 
Q 2538 409 2786 701 
Q 3034 994 3034 1497 
Q 3034 2003 2786 2293 
Q 2538 2584 2113 2584 
z
M 3366 4563 
L 3366 3988 
Q 3128 4100 2886 4159 
Q 2644 4219 2406 4219 
Q 1781 4219 1451 3797 
Q 1122 3375 1075 2522 
Q 1259 2794 1537 2939 
Q 1816 3084 2150 3084 
Q 2853 3084 3261 2657 
Q 3669 2231 3669 1497 
Q 3669 778 3244 343 
Q 2819 -91 2113 -91 
Q 1303 -91 875 529 
Q 447 1150 447 2328 
Q 447 3434 972 4092 
Q 1497 4750 2381 4750 
Q 2619 4750 2861 4703 
Q 3103 4656 3366 4563 
z
" transform="scale(0.015625)"/>
       </defs>
       <use xlink:href="#DejaVuSans-36"/>
       <use xlink:href="#DejaVuSans-30" x="63.623047"/>
      </g>
     </g>
    </g>
    <g id="xtick_3">
     <g id="line2d_5">
      <path d="M 241.264055 289.189969 
L 241.264055 23.077969 
" clip-path="url(#pcd18905e09)" style="fill: none; stroke: #d9dedb; stroke-opacity: 0.85; stroke-width: 0.8; stroke-linecap: square"/>
     </g>
     <g id="line2d_6"/>
     <g id="text_3">
      <!-- 80 -->
      <g style="fill: #56636f" transform="translate(234.901555 300.288406) scale(0.1 -0.1)">
       <defs>
        <path id="DejaVuSans-38" d="M 2034 2216 
Q 1584 2216 1326 1975 
Q 1069 1734 1069 1313 
Q 1069 891 1326 650 
Q 1584 409 2034 409 
Q 2484 409 2743 651 
Q 3003 894 3003 1313 
Q 3003 1734 2745 1975 
Q 2488 2216 2034 2216 
z
M 1403 2484 
Q 997 2584 770 2862 
Q 544 3141 544 3541 
Q 544 4100 942 4425 
Q 1341 4750 2034 4750 
Q 2731 4750 3128 4425 
Q 3525 4100 3525 3541 
Q 3525 3141 3298 2862 
Q 3072 2584 2669 2484 
Q 3125 2378 3379 2068 
Q 3634 1759 3634 1313 
Q 3634 634 3220 271 
Q 2806 -91 2034 -91 
Q 1263 -91 848 271 
Q 434 634 434 1313 
Q 434 1759 690 2068 
Q 947 2378 1403 2484 
z
M 1172 3481 
Q 1172 3119 1398 2916 
Q 1625 2713 2034 2713 
Q 2441 2713 2670 2916 
Q 2900 3119 2900 3481 
Q 2900 3844 2670 4047 
Q 2441 4250 2034 4250 
Q 1625 4250 1398 4047 
Q 1172 3844 1172 3481 
z
" transform="scale(0.015625)"/>
       </defs>
       <use xlink:href="#DejaVuSans-38"/>
       <use xlink:href="#DejaVuSans-30" x="63.623047"/>
      </g>
     </g>
    </g>
    <g id="xtick_4">
     <g id="line2d_7">
      <path d="M 319.473782 289.189969 
L 319.473782 23.077969 
" clip-path="url(#pcd18905e09)" style="fill: none; stroke: #d9dedb; stroke-opacity: 0.85; stroke-width: 0.8; stroke-linecap: square"/>
     </g>
     <g id="line2d_8"/>
     <g id="text_4">
      <!-- 100 -->
      <g style="fill: #56636f" transform="translate(309.930032 300.288406) scale(0.1 -0.1)">
       <defs>
        <path id="DejaVuSans-31" d="M 794 531 
L 1825 531 
L 1825 4091 
L 703 3866 
L 703 4441 
L 1819 4666 
L 2450 4666 
L 2450 531 
L 3481 531 
L 3481 0 
L 794 0 
L 794 531 
z
" transform="scale(0.015625)"/>
       </defs>
       <use xlink:href="#DejaVuSans-31"/>
       <use xlink:href="#DejaVuSans-30" x="63.623047"/>
       <use xlink:href="#DejaVuSans-30" x="127.246094"/>
      </g>
     </g>
    </g>
    <g id="xtick_5">
     <g id="line2d_9">
      <path d="M 397.683509 289.189969 
L 397.683509 23.077969 
" clip-path="url(#pcd18905e09)" style="fill: none; stroke: #d9dedb; stroke-opacity: 0.85; stroke-width: 0.8; stroke-linecap: square"/>
     </g>
     <g id="line2d_10"/>
     <g id="text_5">
      <!-- 120 -->
      <g style="fill: #56636f" transform="translate(388.139759 300.288406) scale(0.1 -0.1)">
       <defs>
        <path id="DejaVuSans-32" d="M 1228 531 
L 3431 531 
L 3431 0 
L 469 0 
L 469 531 
Q 828 903 1448 1529 
Q 2069 2156 2228 2338 
Q 2531 2678 2651 2914 
Q 2772 3150 2772 3378 
Q 2772 3750 2511 3984 
Q 2250 4219 1831 4219 
Q 1534 4219 1204 4116 
Q 875 4013 500 3803 
L 500 4441 
Q 881 4594 1212 4672 
Q 1544 4750 1819 4750 
Q 2544 4750 2975 4387 
Q 3406 4025 3406 3419 
Q 3406 3131 3298 2873 
Q 3191 2616 2906 2266 
Q 2828 2175 2409 1742 
Q 1991 1309 1228 531 
z
" transform="scale(0.015625)"/>
       </defs>
       <use xlink:href="#DejaVuSans-31"/>
       <use xlink:href="#DejaVuSans-32" x="63.623047"/>
       <use xlink:href="#DejaVuSans-30" x="127.246094"/>
      </g>
     </g>
    </g>
    <g id="text_6">
     <!-- Weekday MIMS-units (thousands/day) -->
     <g style="fill: #17212b" transform="translate(159.020094 313.966531) scale(0.1 -0.1)">
      <defs>
       <path id="DejaVuSans-57" d="M 213 4666 
L 850 4666 
L 1831 722 
L 2809 4666 
L 3519 4666 
L 4500 722 
L 5478 4666 
L 6119 4666 
L 4947 0 
L 4153 0 
L 3169 4050 
L 2175 0 
L 1381 0 
L 213 4666 
z
" transform="scale(0.015625)"/>
       <path id="DejaVuSans-65" d="M 3597 1894 
L 3597 1613 
L 953 1613 
Q 991 1019 1311 708 
Q 1631 397 2203 397 
Q 2534 397 2845 478 
Q 3156 559 3463 722 
L 3463 178 
Q 3153 47 2828 -22 
Q 2503 -91 2169 -91 
Q 1331 -91 842 396 
Q 353 884 353 1716 
Q 353 2575 817 3079 
Q 1281 3584 2069 3584 
Q 2775 3584 3186 3129 
Q 3597 2675 3597 1894 
z
M 3022 2063 
Q 3016 2534 2758 2815 
Q 2500 3097 2075 3097 
Q 1594 3097 1305 2825 
Q 1016 2553 972 2059 
L 3022 2063 
z
" transform="scale(0.015625)"/>
       <path id="DejaVuSans-6b" d="M 581 4863 
L 1159 4863 
L 1159 1991 
L 2875 3500 
L 3609 3500 
L 1753 1863 
L 3688 0 
L 2938 0 
L 1159 1709 
L 1159 0 
L 581 0 
L 581 4863 
z
" transform="scale(0.015625)"/>
       <path id="DejaVuSans-64" d="M 2906 2969 
L 2906 4863 
L 3481 4863 
L 3481 0 
L 2906 0 
L 2906 525 
Q 2725 213 2448 61 
Q 2172 -91 1784 -91 
Q 1150 -91 751 415 
Q 353 922 353 1747 
Q 353 2572 751 3078 
Q 1150 3584 1784 3584 
Q 2172 3584 2448 3432 
Q 2725 3281 2906 2969 
z
M 947 1747 
Q 947 1113 1208 752 
Q 1469 391 1925 391 
Q 2381 391 2643 752 
Q 2906 1113 2906 1747 
Q 2906 2381 2643 2742 
Q 2381 3103 1925 3103 
Q 1469 3103 1208 2742 
Q 947 2381 947 1747 
z
" transform="scale(0.015625)"/>
       <path id="DejaVuSans-61" d="M 2194 1759 
Q 1497 1759 1228 1600 
Q 959 1441 959 1056 
Q 959 750 1161 570 
Q 1363 391 1709 391 
Q 2188 391 2477 730 
Q 2766 1069 2766 1631 
L 2766 1759 
L 2194 1759 
z
M 3341 1997 
L 3341 0 
L 2766 0 
L 2766 531 
Q 2569 213 2275 61 
Q 1981 -91 1556 -91 
Q 1019 -91 701 211 
Q 384 513 384 1019 
Q 384 1609 779 1909 
Q 1175 2209 1959 2209 
L 2766 2209 
L 2766 2266 
Q 2766 2663 2505 2880 
Q 2244 3097 1772 3097 
Q 1472 3097 1187 3025 
Q 903 2953 641 2809 
L 641 3341 
Q 956 3463 1253 3523 
Q 1550 3584 1831 3584 
Q 2591 3584 2966 3190 
Q 3341 2797 3341 1997 
z
" transform="scale(0.015625)"/>
       <path id="DejaVuSans-79" d="M 2059 -325 
Q 1816 -950 1584 -1140 
Q 1353 -1331 966 -1331 
L 506 -1331 
L 506 -850 
L 844 -850 
Q 1081 -850 1212 -737 
Q 1344 -625 1503 -206 
L 1606 56 
L 191 3500 
L 800 3500 
L 1894 763 
L 2988 3500 
L 3597 3500 
L 2059 -325 
z
" transform="scale(0.015625)"/>
       <path id="DejaVuSans-20" transform="scale(0.015625)"/>
       <path id="DejaVuSans-4d" d="M 628 4666 
L 1569 4666 
L 2759 1491 
L 3956 4666 
L 4897 4666 
L 4897 0 
L 4281 0 
L 4281 4097 
L 3078 897 
L 2444 897 
L 1241 4097 
L 1241 0 
L 628 0 
L 628 4666 
z
" transform="scale(0.015625)"/>
       <path id="DejaVuSans-49" d="M 628 4666 
L 1259 4666 
L 1259 0 
L 628 0 
L 628 4666 
z
" transform="scale(0.015625)"/>
       <path id="DejaVuSans-53" d="M 3425 4513 
L 3425 3897 
Q 3066 4069 2747 4153 
Q 2428 4238 2131 4238 
Q 1616 4238 1336 4038 
Q 1056 3838 1056 3469 
Q 1056 3159 1242 3001 
Q 1428 2844 1947 2747 
L 2328 2669 
Q 3034 2534 3370 2195 
Q 3706 1856 3706 1288 
Q 3706 609 3251 259 
Q 2797 -91 1919 -91 
Q 1588 -91 1214 -16 
Q 841 59 441 206 
L 441 856 
Q 825 641 1194 531 
Q 1563 422 1919 422 
Q 2459 422 2753 634 
Q 3047 847 3047 1241 
Q 3047 1584 2836 1778 
Q 2625 1972 2144 2069 
L 1759 2144 
Q 1053 2284 737 2584 
Q 422 2884 422 3419 
Q 422 4038 858 4394 
Q 1294 4750 2059 4750 
Q 2388 4750 2728 4690 
Q 3069 4631 3425 4513 
z
" transform="scale(0.015625)"/>
       <path id="DejaVuSans-2d" d="M 313 2009 
L 1997 2009 
L 1997 1497 
L 313 1497 
L 313 2009 
z
" transform="scale(0.015625)"/>
       <path id="DejaVuSans-75" d="M 544 1381 
L 544 3500 
L 1119 3500 
L 1119 1403 
Q 1119 906 1312 657 
Q 1506 409 1894 409 
Q 2359 409 2629 706 
Q 2900 1003 2900 1516 
L 2900 3500 
L 3475 3500 
L 3475 0 
L 2900 0 
L 2900 538 
Q 2691 219 2414 64 
Q 2138 -91 1772 -91 
Q 1169 -91 856 284 
Q 544 659 544 1381 
z
M 1991 3584 
L 1991 3584 
z
" transform="scale(0.015625)"/>
       <path id="DejaVuSans-6e" d="M 3513 2113 
L 3513 0 
L 2938 0 
L 2938 2094 
Q 2938 2591 2744 2837 
Q 2550 3084 2163 3084 
Q 1697 3084 1428 2787 
Q 1159 2491 1159 1978 
L 1159 0 
L 581 0 
L 581 3500 
L 1159 3500 
L 1159 2956 
Q 1366 3272 1645 3428 
Q 1925 3584 2291 3584 
Q 2894 3584 3203 3211 
Q 3513 2838 3513 2113 
z
" transform="scale(0.015625)"/>
       <path id="DejaVuSans-69" d="M 603 3500 
L 1178 3500 
L 1178 0 
L 603 0 
L 603 3500 
z
M 603 4863 
L 1178 4863 
L 1178 4134 
L 603 4134 
L 603 4863 
z
" transform="scale(0.015625)"/>
       <path id="DejaVuSans-74" d="M 1172 4494 
L 1172 3500 
L 2356 3500 
L 2356 3053 
L 1172 3053 
L 1172 1153 
Q 1172 725 1289 603 
Q 1406 481 1766 481 
L 2356 481 
L 2356 0 
L 1766 0 
Q 1100 0 847 248 
Q 594 497 594 1153 
L 594 3053 
L 172 3053 
L 172 3500 
L 594 3500 
L 594 4494 
L 1172 4494 
z
" transform="scale(0.015625)"/>
       <path id="DejaVuSans-73" d="M 2834 3397 
L 2834 2853 
Q 2591 2978 2328 3040 
Q 2066 3103 1784 3103 
Q 1356 3103 1142 2972 
Q 928 2841 928 2578 
Q 928 2378 1081 2264 
Q 1234 2150 1697 2047 
L 1894 2003 
Q 2506 1872 2764 1633 
Q 3022 1394 3022 966 
Q 3022 478 2636 193 
Q 2250 -91 1575 -91 
Q 1294 -91 989 -36 
Q 684 19 347 128 
L 347 722 
Q 666 556 975 473 
Q 1284 391 1588 391 
Q 1994 391 2212 530 
Q 2431 669 2431 922 
Q 2431 1156 2273 1281 
Q 2116 1406 1581 1522 
L 1381 1569 
Q 847 1681 609 1914 
Q 372 2147 372 2553 
Q 372 3047 722 3315 
Q 1072 3584 1716 3584 
Q 2034 3584 2315 3537 
Q 2597 3491 2834 3397 
z
" transform="scale(0.015625)"/>
       <path id="DejaVuSans-28" d="M 1984 4856 
Q 1566 4138 1362 3434 
Q 1159 2731 1159 2009 
Q 1159 1288 1364 580 
Q 1569 -128 1984 -844 
L 1484 -844 
Q 1016 -109 783 600 
Q 550 1309 550 2009 
Q 550 2706 781 3412 
Q 1013 4119 1484 4856 
L 1984 4856 
z
" transform="scale(0.015625)"/>
       <path id="DejaVuSans-68" d="M 3513 2113 
L 3513 0 
L 2938 0 
L 2938 2094 
Q 2938 2591 2744 2837 
Q 2550 3084 2163 3084 
Q 1697 3084 1428 2787 
Q 1159 2491 1159 1978 
L 1159 0 
L 581 0 
L 581 4863 
L 1159 4863 
L 1159 2956 
Q 1366 3272 1645 3428 
Q 1925 3584 2291 3584 
Q 2894 3584 3203 3211 
Q 3513 2838 3513 2113 
z
" transform="scale(0.015625)"/>
       <path id="DejaVuSans-6f" d="M 1959 3097 
Q 1497 3097 1228 2736 
Q 959 2375 959 1747 
Q 959 1119 1226 758 
Q 1494 397 1959 397 
Q 2419 397 2687 759 
Q 2956 1122 2956 1747 
Q 2956 2369 2687 2733 
Q 2419 3097 1959 3097 
z
M 1959 3584 
Q 2709 3584 3137 3096 
Q 3566 2609 3566 1747 
Q 3566 888 3137 398 
Q 2709 -91 1959 -91 
Q 1206 -91 779 398 
Q 353 888 353 1747 
Q 353 2609 779 3096 
Q 1206 3584 1959 3584 
z
" transform="scale(0.015625)"/>
       <path id="DejaVuSans-2f" d="M 1625 4666 
L 2156 4666 
L 531 -594 
L 0 -594 
L 1625 4666 
z
" transform="scale(0.015625)"/>
       <path id="DejaVuSans-29" d="M 513 4856 
L 1013 4856 
Q 1481 4119 1714 3412 
Q 1947 2706 1947 2009 
Q 1947 1309 1714 600 
Q 1481 -109 1013 -844 
L 513 -844 
Q 928 -128 1133 580 
Q 1338 1288 1338 2009 
Q 1338 2731 1133 3434 
Q 928 4138 513 4856 
z
" transform="scale(0.015625)"/>
      </defs>
      <use xlink:href="#DejaVuSans-57"/>
      <use xlink:href="#DejaVuSans-65" x="93.001953"/>
      <use xlink:href="#DejaVuSans-65" x="154.525391"/>
      <use xlink:href="#DejaVuSans-6b" x="216.048828"/>
      <use xlink:href="#DejaVuSans-64" x="273.958984"/>
      <use xlink:href="#DejaVuSans-61" x="337.435547"/>
      <use xlink:href="#DejaVuSans-79" x="398.714844"/>
      <use xlink:href="#DejaVuSans-20" x="457.894531"/>
      <use xlink:href="#DejaVuSans-4d" x="489.681641"/>
      <use xlink:href="#DejaVuSans-49" x="575.960938"/>
      <use xlink:href="#DejaVuSans-4d" x="605.453125"/>
      <use xlink:href="#DejaVuSans-53" x="691.732422"/>
      <use xlink:href="#DejaVuSans-2d" x="755.208984"/>
      <use xlink:href="#DejaVuSans-75" x="791.292969"/>
      <use xlink:href="#DejaVuSans-6e" x="854.671875"/>
      <use xlink:href="#DejaVuSans-69" x="918.050781"/>
      <use xlink:href="#DejaVuSans-74" x="945.833984"/>
      <use xlink:href="#DejaVuSans-73" x="985.042969"/>
      <use xlink:href="#DejaVuSans-20" x="1037.142578"/>
      <use xlink:href="#DejaVuSans-28" x="1068.929688"/>
      <use xlink:href="#DejaVuSans-74" x="1107.943359"/>
      <use xlink:href="#DejaVuSans-68" x="1147.152344"/>
      <use xlink:href="#DejaVuSans-6f" x="1210.53125"/>
      <use xlink:href="#DejaVuSans-75" x="1271.712891"/>
      <use xlink:href="#DejaVuSans-73" x="1335.091797"/>
      <use xlink:href="#DejaVuSans-61" x="1387.191406"/>
      <use xlink:href="#DejaVuSans-6e" x="1448.470703"/>
      <use xlink:href="#DejaVuSans-64" x="1511.849609"/>
      <use xlink:href="#DejaVuSans-73" x="1575.326172"/>
      <use xlink:href="#DejaVuSans-2f" x="1627.425781"/>
      <use xlink:href="#DejaVuSans-64" x="1661.117188"/>
      <use xlink:href="#DejaVuSans-61" x="1724.59375"/>
      <use xlink:href="#DejaVuSans-79" x="1785.873047"/>
      <use xlink:href="#DejaVuSans-29" x="1845.052734"/>
     </g>
    </g>
   </g>
   <g id="matplotlib.axis_2">
    <g id="ytick_1">
     <g id="line2d_11">
      <path d="M 63.504 259.927446 
L 442.944 259.927446 
" clip-path="url(#pcd18905e09)" style="fill: none; stroke: #d9dedb; stroke-opacity: 0.85; stroke-width: 0.8; stroke-linecap: square"/>
     </g>
     <g id="line2d_12"/>
     <g id="text_7">
      <!-- 30 -->
      <g style="fill: #56636f" transform="translate(47.279 263.726665) scale(0.1 -0.1)">
       <defs>
        <path id="DejaVuSans-33" d="M 2597 2516 
Q 3050 2419 3304 2112 
Q 3559 1806 3559 1356 
Q 3559 666 3084 287 
Q 2609 -91 1734 -91 
Q 1441 -91 1130 -33 
Q 819 25 488 141 
L 488 750 
Q 750 597 1062 519 
Q 1375 441 1716 441 
Q 2309 441 2620 675 
Q 2931 909 2931 1356 
Q 2931 1769 2642 2001 
Q 2353 2234 1838 2234 
L 1294 2234 
L 1294 2753 
L 1863 2753 
Q 2328 2753 2575 2939 
Q 2822 3125 2822 3475 
Q 2822 3834 2567 4026 
Q 2313 4219 1838 4219 
Q 1578 4219 1281 4162 
Q 984 4106 628 3988 
L 628 4550 
Q 988 4650 1302 4700 
Q 1616 4750 1894 4750 
Q 2613 4750 3031 4423 
Q 3450 4097 3450 3541 
Q 3450 3153 3228 2886 
Q 3006 2619 2597 2516 
z
" transform="scale(0.015625)"/>
       </defs>
       <use xlink:href="#DejaVuSans-33"/>
       <use xlink:href="#DejaVuSans-30" x="63.623047"/>
      </g>
     </g>
    </g>
    <g id="ytick_2">
     <g id="line2d_13">
      <path d="M 63.504 225.167335 
L 442.944 225.167335 
" clip-path="url(#pcd18905e09)" style="fill: none; stroke: #d9dedb; stroke-opacity: 0.85; stroke-width: 0.8; stroke-linecap: square"/>
     </g>
     <g id="line2d_14"/>
     <g id="text_8">
      <!-- 40 -->
      <g style="fill: #56636f" transform="translate(47.279 228.966554) scale(0.1 -0.1)">
       <use xlink:href="#DejaVuSans-34"/>
       <use xlink:href="#DejaVuSans-30" x="63.623047"/>
      </g>
     </g>
    </g>
    <g id="ytick_3">
     <g id="line2d_15">
      <path d="M 63.504 190.407225 
L 442.944 190.407225 
" clip-path="url(#pcd18905e09)" style="fill: none; stroke: #d9dedb; stroke-opacity: 0.85; stroke-width: 0.8; stroke-linecap: square"/>
     </g>
     <g id="line2d_16"/>
     <g id="text_9">
      <!-- 50 -->
      <g style="fill: #56636f" transform="translate(47.279 194.206443) scale(0.1 -0.1)">
       <defs>
        <path id="DejaVuSans-35" d="M 691 4666 
L 3169 4666 
L 3169 4134 
L 1269 4134 
L 1269 2991 
Q 1406 3038 1543 3061 
Q 1681 3084 1819 3084 
Q 2600 3084 3056 2656 
Q 3513 2228 3513 1497 
Q 3513 744 3044 326 
Q 2575 -91 1722 -91 
Q 1428 -91 1123 -41 
Q 819 9 494 109 
L 494 744 
Q 775 591 1075 516 
Q 1375 441 1709 441 
Q 2250 441 2565 725 
Q 2881 1009 2881 1497 
Q 2881 1984 2565 2268 
Q 2250 2553 1709 2553 
Q 1456 2553 1204 2497 
Q 953 2441 691 2322 
L 691 4666 
z
" transform="scale(0.015625)"/>
       </defs>
       <use xlink:href="#DejaVuSans-35"/>
       <use xlink:href="#DejaVuSans-30" x="63.623047"/>
      </g>
     </g>
    </g>
    <g id="ytick_4">
     <g id="line2d_17">
      <path d="M 63.504 155.647114 
L 442.944 155.647114 
" clip-path="url(#pcd18905e09)" style="fill: none; stroke: #d9dedb; stroke-opacity: 0.85; stroke-width: 0.8; stroke-linecap: square"/>
     </g>
     <g id="line2d_18"/>
     <g id="text_10">
      <!-- 60 -->
      <g style="fill: #56636f" transform="translate(47.279 159.446333) scale(0.1 -0.1)">
       <use xlink:href="#DejaVuSans-36"/>
       <use xlink:href="#DejaVuSans-30" x="63.623047"/>
      </g>
     </g>
    </g>
    <g id="ytick_5">
     <g id="line2d_19">
      <path d="M 63.504 120.887003 
L 442.944 120.887003 
" clip-path="url(#pcd18905e09)" style="fill: none; stroke: #d9dedb; stroke-opacity: 0.85; stroke-width: 0.8; stroke-linecap: square"/>
     </g>
     <g id="line2d_20"/>
     <g id="text_11">
      <!-- 70 -->
      <g style="fill: #56636f" transform="translate(47.279 124.686222) scale(0.1 -0.1)">
       <defs>
        <path id="DejaVuSans-37" d="M 525 4666 
L 3525 4666 
L 3525 4397 
L 1831 0 
L 1172 0 
L 2766 4134 
L 525 4134 
L 525 4666 
z
" transform="scale(0.015625)"/>
       </defs>
       <use xlink:href="#DejaVuSans-37"/>
       <use xlink:href="#DejaVuSans-30" x="63.623047"/>
      </g>
     </g>
    </g>
    <g id="ytick_6">
     <g id="line2d_21">
      <path d="M 63.504 86.126893 
L 442.944 86.126893 
" clip-path="url(#pcd18905e09)" style="fill: none; stroke: #d9dedb; stroke-opacity: 0.85; stroke-width: 0.8; stroke-linecap: square"/>
     </g>
     <g id="line2d_22"/>
     <g id="text_12">
      <!-- 80 -->
      <g style="fill: #56636f" transform="translate(47.279 89.926111) scale(0.1 -0.1)">
       <use xlink:href="#DejaVuSans-38"/>
       <use xlink:href="#DejaVuSans-30" x="63.623047"/>
      </g>
     </g>
    </g>
    <g id="ytick_7">
     <g id="line2d_23">
      <path d="M 63.504 51.366782 
L 442.944 51.366782 
" clip-path="url(#pcd18905e09)" style="fill: none; stroke: #d9dedb; stroke-opacity: 0.85; stroke-width: 0.8; stroke-linecap: square"/>
     </g>
     <g id="line2d_24"/>
     <g id="text_13">
      <!-- 90 -->
      <g style="fill: #56636f" transform="translate(47.279 55.166001) scale(0.1 -0.1)">
       <defs>
        <path id="DejaVuSans-39" d="M 703 97 
L 703 672 
Q 941 559 1184 500 
Q 1428 441 1663 441 
Q 2288 441 2617 861 
Q 2947 1281 2994 2138 
Q 2813 1869 2534 1725 
Q 2256 1581 1919 1581 
Q 1219 1581 811 2004 
Q 403 2428 403 3163 
Q 403 3881 828 4315 
Q 1253 4750 1959 4750 
Q 2769 4750 3195 4129 
Q 3622 3509 3622 2328 
Q 3622 1225 3098 567 
Q 2575 -91 1691 -91 
Q 1453 -91 1209 -44 
Q 966 3 703 97 
z
M 1959 2075 
Q 2384 2075 2632 2365 
Q 2881 2656 2881 3163 
Q 2881 3666 2632 3958 
Q 2384 4250 1959 4250 
Q 1534 4250 1286 3958 
Q 1038 3666 1038 3163 
Q 1038 2656 1286 2365 
Q 1534 2075 1959 2075 
z
" transform="scale(0.015625)"/>
       </defs>
       <use xlink:href="#DejaVuSans-39"/>
       <use xlink:href="#DejaVuSans-30" x="63.623047"/>
      </g>
     </g>
    </g>
    <g id="text_14">
     <!-- Weekend-day MIMS-units (thousands/day) -->
     <g style="fill: #17212b" transform="translate(41.199312 261.380062) rotate(-90) scale(0.1 -0.1)">
      <use xlink:href="#DejaVuSans-57"/>
      <use xlink:href="#DejaVuSans-65" x="93.001953"/>
      <use xlink:href="#DejaVuSans-65" x="154.525391"/>
      <use xlink:href="#DejaVuSans-6b" x="216.048828"/>
      <use xlink:href="#DejaVuSans-65" x="270.333984"/>
      <use xlink:href="#DejaVuSans-6e" x="331.857422"/>
      <use xlink:href="#DejaVuSans-64" x="395.236328"/>
      <use xlink:href="#DejaVuSans-2d" x="458.712891"/>
      <use xlink:href="#DejaVuSans-64" x="494.796875"/>
      <use xlink:href="#DejaVuSans-61" x="558.273438"/>
      <use xlink:href="#DejaVuSans-79" x="619.552734"/>
      <use xlink:href="#DejaVuSans-20" x="678.732422"/>
      <use xlink:href="#DejaVuSans-4d" x="710.519531"/>
      <use xlink:href="#DejaVuSans-49" x="796.798828"/>
      <use xlink:href="#DejaVuSans-4d" x="826.291016"/>
      <use xlink:href="#DejaVuSans-53" x="912.570312"/>
      <use xlink:href="#DejaVuSans-2d" x="976.046875"/>
      <use xlink:href="#DejaVuSans-75" x="1012.130859"/>
      <use xlink:href="#DejaVuSans-6e" x="1075.509766"/>
      <use xlink:href="#DejaVuSans-69" x="1138.888672"/>
      <use xlink:href="#DejaVuSans-74" x="1166.671875"/>
      <use xlink:href="#DejaVuSans-73" x="1205.880859"/>
      <use xlink:href="#DejaVuSans-20" x="1257.980469"/>
      <use xlink:href="#DejaVuSans-28" x="1289.767578"/>
      <use xlink:href="#DejaVuSans-74" x="1328.78125"/>
      <use xlink:href="#DejaVuSans-68" x="1367.990234"/>
      <use xlink:href="#DejaVuSans-6f" x="1431.369141"/>
      <use xlink:href="#DejaVuSans-75" x="1492.550781"/>
      <use xlink:href="#DejaVuSans-73" x="1555.929688"/>
      <use xlink:href="#DejaVuSans-61" x="1608.029297"/>
      <use xlink:href="#DejaVuSans-6e" x="1669.308594"/>
      <use xlink:href="#DejaVuSans-64" x="1732.6875"/>
      <use xlink:href="#DejaVuSans-73" x="1796.164062"/>
      <use xlink:href="#DejaVuSans-2f" x="1848.263672"/>
      <use xlink:href="#DejaVuSans-64" x="1881.955078"/>
      <use xlink:href="#DejaVuSans-61" x="1945.431641"/>
      <use xlink:href="#DejaVuSans-79" x="2006.710938"/>
      <use xlink:href="#DejaVuSans-29" x="2065.890625"/>
     </g>
    </g>
   </g>
   <g id="patch_3">
    <path d="M 63.504 289.189969 
L 63.504 23.077969 
" style="fill: none; stroke: #d9dedb; stroke-width: 0.8; stroke-linejoin: miter; stroke-linecap: square"/>
   </g>
   <g id="patch_4">
    <path d="M 63.504 289.189969 
L 442.944 289.189969 
" style="fill: none; stroke: #d9dedb; stroke-width: 0.8; stroke-linejoin: miter; stroke-linecap: square"/>
   </g>
   <g id="text_15">
    <!-- Relationship between two observed metrics -->
    <g style="fill: #17212b" transform="translate(91.799547 17.077969) scale(0.13 -0.13)">
     <defs>
      <path id="DejaVuSans-Bold-52" d="M 2297 2597 
Q 2675 2597 2839 2737 
Q 3003 2878 3003 3200 
Q 3003 3519 2839 3656 
Q 2675 3794 2297 3794 
L 1791 3794 
L 1791 2597 
L 2297 2597 
z
M 1791 1766 
L 1791 0 
L 588 0 
L 588 4666 
L 2425 4666 
Q 3347 4666 3776 4356 
Q 4206 4047 4206 3378 
Q 4206 2916 3982 2619 
Q 3759 2322 3309 2181 
Q 3556 2125 3751 1926 
Q 3947 1728 4147 1325 
L 4800 0 
L 3519 0 
L 2950 1159 
Q 2778 1509 2601 1637 
Q 2425 1766 2131 1766 
L 1791 1766 
z
" transform="scale(0.015625)"/>
      <path id="DejaVuSans-Bold-65" d="M 4031 1759 
L 4031 1441 
L 1416 1441 
Q 1456 1047 1700 850 
Q 1944 653 2381 653 
Q 2734 653 3104 758 
Q 3475 863 3866 1075 
L 3866 213 
Q 3469 63 3072 -14 
Q 2675 -91 2278 -91 
Q 1328 -91 801 392 
Q 275 875 275 1747 
Q 275 2603 792 3093 
Q 1309 3584 2216 3584 
Q 3041 3584 3536 3087 
Q 4031 2591 4031 1759 
z
M 2881 2131 
Q 2881 2450 2695 2645 
Q 2509 2841 2209 2841 
Q 1884 2841 1681 2658 
Q 1478 2475 1428 2131 
L 2881 2131 
z
" transform="scale(0.015625)"/>
      <path id="DejaVuSans-Bold-6c" d="M 538 4863 
L 1656 4863 
L 1656 0 
L 538 0 
L 538 4863 
z
" transform="scale(0.015625)"/>
      <path id="DejaVuSans-Bold-61" d="M 2106 1575 
Q 1756 1575 1579 1456 
Q 1403 1338 1403 1106 
Q 1403 894 1545 773 
Q 1688 653 1941 653 
Q 2256 653 2472 879 
Q 2688 1106 2688 1447 
L 2688 1575 
L 2106 1575 
z
M 3816 1997 
L 3816 0 
L 2688 0 
L 2688 519 
Q 2463 200 2181 54 
Q 1900 -91 1497 -91 
Q 953 -91 614 226 
Q 275 544 275 1050 
Q 275 1666 698 1953 
Q 1122 2241 2028 2241 
L 2688 2241 
L 2688 2328 
Q 2688 2594 2478 2717 
Q 2269 2841 1825 2841 
Q 1466 2841 1156 2769 
Q 847 2697 581 2553 
L 581 3406 
Q 941 3494 1303 3539 
Q 1666 3584 2028 3584 
Q 2975 3584 3395 3211 
Q 3816 2838 3816 1997 
z
" transform="scale(0.015625)"/>
      <path id="DejaVuSans-Bold-74" d="M 1759 4494 
L 1759 3500 
L 2913 3500 
L 2913 2700 
L 1759 2700 
L 1759 1216 
Q 1759 972 1856 886 
Q 1953 800 2241 800 
L 2816 800 
L 2816 0 
L 1856 0 
Q 1194 0 917 276 
Q 641 553 641 1216 
L 641 2700 
L 84 2700 
L 84 3500 
L 641 3500 
L 641 4494 
L 1759 4494 
z
" transform="scale(0.015625)"/>
      <path id="DejaVuSans-Bold-69" d="M 538 3500 
L 1656 3500 
L 1656 0 
L 538 0 
L 538 3500 
z
M 538 4863 
L 1656 4863 
L 1656 3950 
L 538 3950 
L 538 4863 
z
" transform="scale(0.015625)"/>
      <path id="DejaVuSans-Bold-6f" d="M 2203 2784 
Q 1831 2784 1636 2517 
Q 1441 2250 1441 1747 
Q 1441 1244 1636 976 
Q 1831 709 2203 709 
Q 2569 709 2762 976 
Q 2956 1244 2956 1747 
Q 2956 2250 2762 2517 
Q 2569 2784 2203 2784 
z
M 2203 3584 
Q 3106 3584 3614 3096 
Q 4122 2609 4122 1747 
Q 4122 884 3614 396 
Q 3106 -91 2203 -91 
Q 1297 -91 786 396 
Q 275 884 275 1747 
Q 275 2609 786 3096 
Q 1297 3584 2203 3584 
z
" transform="scale(0.015625)"/>
      <path id="DejaVuSans-Bold-6e" d="M 4056 2131 
L 4056 0 
L 2931 0 
L 2931 347 
L 2931 1631 
Q 2931 2084 2911 2256 
Q 2891 2428 2841 2509 
Q 2775 2619 2662 2680 
Q 2550 2741 2406 2741 
Q 2056 2741 1856 2470 
Q 1656 2200 1656 1722 
L 1656 0 
L 538 0 
L 538 3500 
L 1656 3500 
L 1656 2988 
Q 1909 3294 2193 3439 
Q 2478 3584 2822 3584 
Q 3428 3584 3742 3212 
Q 4056 2841 4056 2131 
z
" transform="scale(0.015625)"/>
      <path id="DejaVuSans-Bold-73" d="M 3272 3391 
L 3272 2541 
Q 2913 2691 2578 2766 
Q 2244 2841 1947 2841 
Q 1628 2841 1473 2761 
Q 1319 2681 1319 2516 
Q 1319 2381 1436 2309 
Q 1553 2238 1856 2203 
L 2053 2175 
Q 2913 2066 3209 1816 
Q 3506 1566 3506 1031 
Q 3506 472 3093 190 
Q 2681 -91 1863 -91 
Q 1516 -91 1145 -36 
Q 775 19 384 128 
L 384 978 
Q 719 816 1070 734 
Q 1422 653 1784 653 
Q 2113 653 2278 743 
Q 2444 834 2444 1013 
Q 2444 1163 2330 1236 
Q 2216 1309 1875 1350 
L 1678 1375 
Q 931 1469 631 1722 
Q 331 1975 331 2491 
Q 331 3047 712 3315 
Q 1094 3584 1881 3584 
Q 2191 3584 2531 3537 
Q 2872 3491 3272 3391 
z
" transform="scale(0.015625)"/>
      <path id="DejaVuSans-Bold-68" d="M 4056 2131 
L 4056 0 
L 2931 0 
L 2931 347 
L 2931 1625 
Q 2931 2084 2911 2256 
Q 2891 2428 2841 2509 
Q 2775 2619 2662 2680 
Q 2550 2741 2406 2741 
Q 2056 2741 1856 2470 
Q 1656 2200 1656 1722 
L 1656 0 
L 538 0 
L 538 4863 
L 1656 4863 
L 1656 2988 
Q 1909 3294 2193 3439 
Q 2478 3584 2822 3584 
Q 3428 3584 3742 3212 
Q 4056 2841 4056 2131 
z
" transform="scale(0.015625)"/>
      <path id="DejaVuSans-Bold-70" d="M 1656 506 
L 1656 -1331 
L 538 -1331 
L 538 3500 
L 1656 3500 
L 1656 2988 
Q 1888 3294 2169 3439 
Q 2450 3584 2816 3584 
Q 3463 3584 3878 3070 
Q 4294 2556 4294 1747 
Q 4294 938 3878 423 
Q 3463 -91 2816 -91 
Q 2450 -91 2169 54 
Q 1888 200 1656 506 
z
M 2400 2772 
Q 2041 2772 1848 2508 
Q 1656 2244 1656 1747 
Q 1656 1250 1848 986 
Q 2041 722 2400 722 
Q 2759 722 2948 984 
Q 3138 1247 3138 1747 
Q 3138 2247 2948 2509 
Q 2759 2772 2400 2772 
z
" transform="scale(0.015625)"/>
      <path id="DejaVuSans-Bold-20" transform="scale(0.015625)"/>
      <path id="DejaVuSans-Bold-62" d="M 2400 722 
Q 2759 722 2948 984 
Q 3138 1247 3138 1747 
Q 3138 2247 2948 2509 
Q 2759 2772 2400 2772 
Q 2041 2772 1848 2508 
Q 1656 2244 1656 1747 
Q 1656 1250 1848 986 
Q 2041 722 2400 722 
z
M 1656 2988 
Q 1888 3294 2169 3439 
Q 2450 3584 2816 3584 
Q 3463 3584 3878 3070 
Q 4294 2556 4294 1747 
Q 4294 938 3878 423 
Q 3463 -91 2816 -91 
Q 2450 -91 2169 54 
Q 1888 200 1656 506 
L 1656 0 
L 538 0 
L 538 4863 
L 1656 4863 
L 1656 2988 
z
" transform="scale(0.015625)"/>
      <path id="DejaVuSans-Bold-77" d="M 225 3500 
L 1313 3500 
L 1900 1088 
L 2491 3500 
L 3425 3500 
L 4013 1113 
L 4603 3500 
L 5691 3500 
L 4769 0 
L 3547 0 
L 2956 2406 
L 2369 0 
L 1147 0 
L 225 3500 
z
" transform="scale(0.015625)"/>
      <path id="DejaVuSans-Bold-72" d="M 3138 2547 
Q 2991 2616 2845 2648 
Q 2700 2681 2553 2681 
Q 2122 2681 1889 2404 
Q 1656 2128 1656 1613 
L 1656 0 
L 538 0 
L 538 3500 
L 1656 3500 
L 1656 2925 
Q 1872 3269 2151 3426 
Q 2431 3584 2822 3584 
Q 2878 3584 2943 3579 
Q 3009 3575 3134 3559 
L 3138 2547 
z
" transform="scale(0.015625)"/>
      <path id="DejaVuSans-Bold-76" d="M 97 3500 
L 1216 3500 
L 2088 1081 
L 2956 3500 
L 4078 3500 
L 2700 0 
L 1472 0 
L 97 3500 
z
" transform="scale(0.015625)"/>
      <path id="DejaVuSans-Bold-64" d="M 2919 2988 
L 2919 4863 
L 4044 4863 
L 4044 0 
L 2919 0 
L 2919 506 
Q 2688 197 2409 53 
Q 2131 -91 1766 -91 
Q 1119 -91 703 423 
Q 288 938 288 1747 
Q 288 2556 703 3070 
Q 1119 3584 1766 3584 
Q 2128 3584 2408 3439 
Q 2688 3294 2919 2988 
z
M 2181 722 
Q 2541 722 2730 984 
Q 2919 1247 2919 1747 
Q 2919 2247 2730 2509 
Q 2541 2772 2181 2772 
Q 1825 2772 1636 2509 
Q 1447 2247 1447 1747 
Q 1447 1247 1636 984 
Q 1825 722 2181 722 
z
" transform="scale(0.015625)"/>
      <path id="DejaVuSans-Bold-6d" d="M 3781 2919 
Q 3994 3244 4286 3414 
Q 4578 3584 4928 3584 
Q 5531 3584 5847 3212 
Q 6163 2841 6163 2131 
L 6163 0 
L 5038 0 
L 5038 1825 
Q 5041 1866 5042 1909 
Q 5044 1953 5044 2034 
Q 5044 2406 4934 2573 
Q 4825 2741 4581 2741 
Q 4263 2741 4089 2478 
Q 3916 2216 3909 1719 
L 3909 0 
L 2784 0 
L 2784 1825 
Q 2784 2406 2684 2573 
Q 2584 2741 2328 2741 
Q 2006 2741 1831 2477 
Q 1656 2213 1656 1722 
L 1656 0 
L 531 0 
L 531 3500 
L 1656 3500 
L 1656 2988 
Q 1863 3284 2130 3434 
Q 2397 3584 2719 3584 
Q 3081 3584 3359 3409 
Q 3638 3234 3781 2919 
z
" transform="scale(0.015625)"/>
      <path id="DejaVuSans-Bold-63" d="M 3366 3391 
L 3366 2478 
Q 3138 2634 2908 2709 
Q 2678 2784 2431 2784 
Q 1963 2784 1702 2511 
Q 1441 2238 1441 1747 
Q 1441 1256 1702 982 
Q 1963 709 2431 709 
Q 2694 709 2930 787 
Q 3166 866 3366 1019 
L 3366 103 
Q 3103 6 2833 -42 
Q 2563 -91 2291 -91 
Q 1344 -91 809 395 
Q 275 881 275 1747 
Q 275 2613 809 3098 
Q 1344 3584 2291 3584 
Q 2566 3584 2833 3536 
Q 3100 3488 3366 3391 
z
" transform="scale(0.015625)"/>
     </defs>
     <use xlink:href="#DejaVuSans-Bold-52"/>
     <use xlink:href="#DejaVuSans-Bold-65" x="77.001953"/>
     <use xlink:href="#DejaVuSans-Bold-6c" x="144.824219"/>
     <use xlink:href="#DejaVuSans-Bold-61" x="179.101562"/>
     <use xlink:href="#DejaVuSans-Bold-74" x="246.582031"/>
     <use xlink:href="#DejaVuSans-Bold-69" x="294.384766"/>
     <use xlink:href="#DejaVuSans-Bold-6f" x="328.662109"/>
     <use xlink:href="#DejaVuSans-Bold-6e" x="397.363281"/>
     <use xlink:href="#DejaVuSans-Bold-73" x="468.554688"/>
     <use xlink:href="#DejaVuSans-Bold-68" x="528.076172"/>
     <use xlink:href="#DejaVuSans-Bold-69" x="599.267578"/>
     <use xlink:href="#DejaVuSans-Bold-70" x="633.544922"/>
     <use xlink:href="#DejaVuSans-Bold-20" x="705.126953"/>
     <use xlink:href="#DejaVuSans-Bold-62" x="739.941406"/>
     <use xlink:href="#DejaVuSans-Bold-65" x="811.523438"/>
     <use xlink:href="#DejaVuSans-Bold-74" x="879.345703"/>
     <use xlink:href="#DejaVuSans-Bold-77" x="927.148438"/>
     <use xlink:href="#DejaVuSans-Bold-65" x="1019.53125"/>
     <use xlink:href="#DejaVuSans-Bold-65" x="1087.353516"/>
     <use xlink:href="#DejaVuSans-Bold-6e" x="1155.175781"/>
     <use xlink:href="#DejaVuSans-Bold-20" x="1226.367188"/>
     <use xlink:href="#DejaVuSans-Bold-74" x="1261.181641"/>
     <use xlink:href="#DejaVuSans-Bold-77" x="1308.984375"/>
     <use xlink:href="#DejaVuSans-Bold-6f" x="1401.367188"/>
     <use xlink:href="#DejaVuSans-Bold-20" x="1470.068359"/>
     <use xlink:href="#DejaVuSans-Bold-6f" x="1504.882812"/>
     <use xlink:href="#DejaVuSans-Bold-62" x="1573.583984"/>
     <use xlink:href="#DejaVuSans-Bold-73" x="1645.166016"/>
     <use xlink:href="#DejaVuSans-Bold-65" x="1704.6875"/>
     <use xlink:href="#DejaVuSans-Bold-72" x="1772.509766"/>
     <use xlink:href="#DejaVuSans-Bold-76" x="1821.826172"/>
     <use xlink:href="#DejaVuSans-Bold-65" x="1887.011719"/>
     <use xlink:href="#DejaVuSans-Bold-64" x="1954.833984"/>
     <use xlink:href="#DejaVuSans-Bold-20" x="2026.416016"/>
     <use xlink:href="#DejaVuSans-Bold-6d" x="2061.230469"/>
     <use xlink:href="#DejaVuSans-Bold-65" x="2165.429688"/>
     <use xlink:href="#DejaVuSans-Bold-74" x="2233.251953"/>
     <use xlink:href="#DejaVuSans-Bold-72" x="2281.054688"/>
     <use xlink:href="#DejaVuSans-Bold-69" x="2330.371094"/>
     <use xlink:href="#DejaVuSans-Bold-63" x="2364.648438"/>
     <use xlink:href="#DejaVuSans-Bold-73" x="2423.925781"/>
    </g>
   </g>
  </g>
  <g id="text_16">
   <!-- Illustrative example generated from simulated mock data. -->
   <g style="fill: #56636f" transform="translate(7.2 322.086219) scale(0.08 -0.08)">
    <defs>
     <path id="DejaVuSans-6c" d="M 603 4863 
L 1178 4863 
L 1178 0 
L 603 0 
L 603 4863 
z
" transform="scale(0.015625)"/>
     <path id="DejaVuSans-72" d="M 2631 2963 
Q 2534 3019 2420 3045 
Q 2306 3072 2169 3072 
Q 1681 3072 1420 2755 
Q 1159 2438 1159 1844 
L 1159 0 
L 581 0 
L 581 3500 
L 1159 3500 
L 1159 2956 
Q 1341 3275 1631 3429 
Q 1922 3584 2338 3584 
Q 2397 3584 2469 3576 
Q 2541 3569 2628 3553 
L 2631 2963 
z
" transform="scale(0.015625)"/>
     <path id="DejaVuSans-76" d="M 191 3500 
L 800 3500 
L 1894 563 
L 2988 3500 
L 3597 3500 
L 2284 0 
L 1503 0 
L 191 3500 
z
" transform="scale(0.015625)"/>
     <path id="DejaVuSans-78" d="M 3513 3500 
L 2247 1797 
L 3578 0 
L 2900 0 
L 1881 1375 
L 863 0 
L 184 0 
L 1544 1831 
L 300 3500 
L 978 3500 
L 1906 2253 
L 2834 3500 
L 3513 3500 
z
" transform="scale(0.015625)"/>
     <path id="DejaVuSans-6d" d="M 3328 2828 
Q 3544 3216 3844 3400 
Q 4144 3584 4550 3584 
Q 5097 3584 5394 3201 
Q 5691 2819 5691 2113 
L 5691 0 
L 5113 0 
L 5113 2094 
Q 5113 2597 4934 2840 
Q 4756 3084 4391 3084 
Q 3944 3084 3684 2787 
Q 3425 2491 3425 1978 
L 3425 0 
L 2847 0 
L 2847 2094 
Q 2847 2600 2669 2842 
Q 2491 3084 2119 3084 
Q 1678 3084 1418 2786 
Q 1159 2488 1159 1978 
L 1159 0 
L 581 0 
L 581 3500 
L 1159 3500 
L 1159 2956 
Q 1356 3278 1631 3431 
Q 1906 3584 2284 3584 
Q 2666 3584 2933 3390 
Q 3200 3197 3328 2828 
z
" transform="scale(0.015625)"/>
     <path id="DejaVuSans-70" d="M 1159 525 
L 1159 -1331 
L 581 -1331 
L 581 3500 
L 1159 3500 
L 1159 2969 
Q 1341 3281 1617 3432 
Q 1894 3584 2278 3584 
Q 2916 3584 3314 3078 
Q 3713 2572 3713 1747 
Q 3713 922 3314 415 
Q 2916 -91 2278 -91 
Q 1894 -91 1617 61 
Q 1341 213 1159 525 
z
M 3116 1747 
Q 3116 2381 2855 2742 
Q 2594 3103 2138 3103 
Q 1681 3103 1420 2742 
Q 1159 2381 1159 1747 
Q 1159 1113 1420 752 
Q 1681 391 2138 391 
Q 2594 391 2855 752 
Q 3116 1113 3116 1747 
z
" transform="scale(0.015625)"/>
     <path id="DejaVuSans-67" d="M 2906 1791 
Q 2906 2416 2648 2759 
Q 2391 3103 1925 3103 
Q 1463 3103 1205 2759 
Q 947 2416 947 1791 
Q 947 1169 1205 825 
Q 1463 481 1925 481 
Q 2391 481 2648 825 
Q 2906 1169 2906 1791 
z
M 3481 434 
Q 3481 -459 3084 -895 
Q 2688 -1331 1869 -1331 
Q 1566 -1331 1297 -1286 
Q 1028 -1241 775 -1147 
L 775 -588 
Q 1028 -725 1275 -790 
Q 1522 -856 1778 -856 
Q 2344 -856 2625 -561 
Q 2906 -266 2906 331 
L 2906 616 
Q 2728 306 2450 153 
Q 2172 0 1784 0 
Q 1141 0 747 490 
Q 353 981 353 1791 
Q 353 2603 747 3093 
Q 1141 3584 1784 3584 
Q 2172 3584 2450 3431 
Q 2728 3278 2906 2969 
L 2906 3500 
L 3481 3500 
L 3481 434 
z
" transform="scale(0.015625)"/>
     <path id="DejaVuSans-66" d="M 2375 4863 
L 2375 4384 
L 1825 4384 
Q 1516 4384 1395 4259 
Q 1275 4134 1275 3809 
L 1275 3500 
L 2222 3500 
L 2222 3053 
L 1275 3053 
L 1275 0 
L 697 0 
L 697 3053 
L 147 3053 
L 147 3500 
L 697 3500 
L 697 3744 
Q 697 4328 969 4595 
Q 1241 4863 1831 4863 
L 2375 4863 
z
" transform="scale(0.015625)"/>
     <path id="DejaVuSans-63" d="M 3122 3366 
L 3122 2828 
Q 2878 2963 2633 3030 
Q 2388 3097 2138 3097 
Q 1578 3097 1268 2742 
Q 959 2388 959 1747 
Q 959 1106 1268 751 
Q 1578 397 2138 397 
Q 2388 397 2633 464 
Q 2878 531 3122 666 
L 3122 134 
Q 2881 22 2623 -34 
Q 2366 -91 2075 -91 
Q 1284 -91 818 406 
Q 353 903 353 1747 
Q 353 2603 823 3093 
Q 1294 3584 2113 3584 
Q 2378 3584 2631 3529 
Q 2884 3475 3122 3366 
z
" transform="scale(0.015625)"/>
     <path id="DejaVuSans-2e" d="M 684 794 
L 1344 794 
L 1344 0 
L 684 0 
L 684 794 
z
" transform="scale(0.015625)"/>
    </defs>
    <use xlink:href="#DejaVuSans-49"/>
    <use xlink:href="#DejaVuSans-6c" x="29.492188"/>
    <use xlink:href="#DejaVuSans-6c" x="57.275391"/>
    <use xlink:href="#DejaVuSans-75" x="85.058594"/>
    <use xlink:href="#DejaVuSans-73" x="148.4375"/>
    <use xlink:href="#DejaVuSans-74" x="200.537109"/>
    <use xlink:href="#DejaVuSans-72" x="239.746094"/>
    <use xlink:href="#DejaVuSans-61" x="280.859375"/>
    <use xlink:href="#DejaVuSans-74" x="342.138672"/>
    <use xlink:href="#DejaVuSans-69" x="381.347656"/>
    <use xlink:href="#DejaVuSans-76" x="409.130859"/>
    <use xlink:href="#DejaVuSans-65" x="468.310547"/>
    <use xlink:href="#DejaVuSans-20" x="529.833984"/>
    <use xlink:href="#DejaVuSans-65" x="561.621094"/>
    <use xlink:href="#DejaVuSans-78" x="621.394531"/>
    <use xlink:href="#DejaVuSans-61" x="680.574219"/>
    <use xlink:href="#DejaVuSans-6d" x="741.853516"/>
    <use xlink:href="#DejaVuSans-70" x="839.265625"/>
    <use xlink:href="#DejaVuSans-6c" x="902.742188"/>
    <use xlink:href="#DejaVuSans-65" x="930.525391"/>
    <use xlink:href="#DejaVuSans-20" x="992.048828"/>
    <use xlink:href="#DejaVuSans-67" x="1023.835938"/>
    <use xlink:href="#DejaVuSans-65" x="1087.3125"/>
    <use xlink:href="#DejaVuSans-6e" x="1148.835938"/>
    <use xlink:href="#DejaVuSans-65" x="1212.214844"/>
    <use xlink:href="#DejaVuSans-72" x="1273.738281"/>
    <use xlink:href="#DejaVuSans-61" x="1314.851562"/>
    <use xlink:href="#DejaVuSans-74" x="1376.130859"/>
    <use xlink:href="#DejaVuSans-65" x="1415.339844"/>
    <use xlink:href="#DejaVuSans-64" x="1476.863281"/>
    <use xlink:href="#DejaVuSans-20" x="1540.339844"/>
    <use xlink:href="#DejaVuSans-66" x="1572.126953"/>
    <use xlink:href="#DejaVuSans-72" x="1607.332031"/>
    <use xlink:href="#DejaVuSans-6f" x="1646.195312"/>
    <use xlink:href="#DejaVuSans-6d" x="1707.376953"/>
    <use xlink:href="#DejaVuSans-20" x="1804.789062"/>
    <use xlink:href="#DejaVuSans-73" x="1836.576172"/>
    <use xlink:href="#DejaVuSans-69" x="1888.675781"/>
    <use xlink:href="#DejaVuSans-6d" x="1916.458984"/>
    <use xlink:href="#DejaVuSans-75" x="2013.871094"/>
    <use xlink:href="#DejaVuSans-6c" x="2077.25"/>
    <use xlink:href="#DejaVuSans-61" x="2105.033203"/>
    <use xlink:href="#DejaVuSans-74" x="2166.3125"/>
    <use xlink:href="#DejaVuSans-65" x="2205.521484"/>
    <use xlink:href="#DejaVuSans-64" x="2267.044922"/>
    <use xlink:href="#DejaVuSans-20" x="2330.521484"/>
    <use xlink:href="#DejaVuSans-6d" x="2362.308594"/>
    <use xlink:href="#DejaVuSans-6f" x="2459.720703"/>
    <use xlink:href="#DejaVuSans-63" x="2520.902344"/>
    <use xlink:href="#DejaVuSans-6b" x="2575.882812"/>
    <use xlink:href="#DejaVuSans-20" x="2633.792969"/>
    <use xlink:href="#DejaVuSans-64" x="2665.580078"/>
    <use xlink:href="#DejaVuSans-61" x="2729.056641"/>
    <use xlink:href="#DejaVuSans-74" x="2790.335938"/>
    <use xlink:href="#DejaVuSans-61" x="2829.544922"/>
    <use xlink:href="#DejaVuSans-2e" x="2890.824219"/>
   </g>
  </g>
 </g>
 <defs>
  <clipPath id="pcd18905e09">
   <rect x="63.504" y="23.077969" width="379.44" height="266.112"/>
  </clipPath>
 </defs>
</svg>
