<?xml version="1.0" encoding="utf-8" standalone="no"?>
<!DOCTYPE svg PUBLIC "-//W3C//DTD SVG 1.1//EN"
  "http://www.w3.org/Graphics/SVG/1.1/DTD/svg11.dtd">
<svg xmlns:xlink="http://www.w3.org/1999/xlink" width="609.48pt" height="419.472pt" viewBox="0 0 609.48 419.472" xmlns="http://www.w3.org/2000/svg" version="1.1">
 <metadata>
  <rdf:RDF xmlns:dc="http://purl.org/dc/elements/1.1/" xmlns:cc="http://creativecommons.org/ns#" xmlns:rdf="http://www.w3.org/1999/02/22-rdf-syntax-ns#">
   <cc:Work>
    <dc:type rdf:resource="http://purl.org/dc/dcmitype/StillImage"/>
    <dc:date>2026-06-25T13:47:04.493129</dc:date>
    <dc:format>image/svg+xml</dc:format>
    <dc:creator>
     <cc:Agent>
      <dc:title>Matplotlib v3.8.2, https://matplotlib.org/</dc:title>
     </cc:Agent>
    </dc:creator>
   </cc:Work>
  </rdf:RDF>
 </metadata>
 <defs>
  <style type="text/css">*{stroke-linejoin: round; stroke-linecap: butt}</style>
 </defs>
 <g id="figure_1">
  <g id="patch_1">
   <path d="M 0 419.472 
L 609.48 419.472 
L 609.48 0 
L 0 0 
z
" style="fill: #ffffff"/>
  </g>
  <g id="axes_1">
   <g id="patch_2">
    <path d="M 67.31 187.472014 
L 329.395 187.472014 
L 329.395 73.104 
L 67.31 73.104 
z
" style="fill: #ffffff"/>
   </g>
   <g id="matplotlib.axis_1">
    <g id="xtick_1">
     <g id="line2d_1">
      <path d="M 79.222955 187.472014 
L 79.222955 73.104 
" clip-path="url(#p260ef28f43)" style="fill: none; stroke: #d9dedb; stroke-opacity: 0.85; stroke-width: 0.8; stroke-linecap: square"/>
     </g>
     <g id="line2d_2"/>
    </g>
    <g id="xtick_2">
     <g id="line2d_3">
      <path d="M 138.787727 187.472014 
L 138.787727 73.104 
" clip-path="url(#p260ef28f43)" style="fill: none; stroke: #d9dedb; stroke-opacity: 0.85; stroke-width: 0.8; stroke-linecap: square"/>
     </g>
     <g id="line2d_4"/>
    </g>
    <g id="xtick_3">
     <g id="line2d_5">
      <path d="M 198.3525 187.472014 
L 198.3525 73.104 
" clip-path="url(#p260ef28f43)" style="fill: none; stroke: #d9dedb; stroke-opacity: 0.85; stroke-width: 0.8; stroke-linecap: square"/>
     </g>
     <g id="line2d_6"/>
    </g>
    <g id="xtick_4">
     <g id="line2d_7">
      <path d="M 257.917273 187.472014 
L 257.917273 73.104 
" clip-path="url(#p260ef28f43)" style="fill: none; stroke: #d9dedb; stroke-opacity: 0.85; stroke-width: 0.8; stroke-linecap: square"/>
     </g>
     <g id="line2d_8"/>
    </g>
    <g id="xtick_5">
     <g id="line2d_9">
      <path d="M 317.482045 187.472014 
L 317.482045 73.104 
" clip-path="url(#p260ef28f43)" style="fill: none; stroke: #d9dedb; stroke-opacity: 0.85; stroke-width: 0.8; stroke-linecap: square"/>
     </g>
     <g id="line2d_10"/>
    </g>
   </g>
   <g id="matplotlib.axis_2">
    <g id="ytick_1">
     <g id="line2d_11">
      <path d="M 67.31 178.534045 
L 329.395 178.534045 
" clip-path="url(#p260ef28f43)" style="fill: none; stroke: #d9dedb; stroke-opacity: 0.85; stroke-width: 0.8; stroke-linecap: square"/>
     </g>
     <g id="line2d_12"/>
     <g id="text_1">
      <!-- 40 -->
      <g style="fill: #56636f" transform="translate(51.085 182.333263) scale(0.1 -0.1)">
       <defs>
        <path id="DejaVuSans-34" d="M 2419 4116 
L 825 1625 
L 2419 1625 
L 2419 4116 
z
M 2253 4666 
L 3047 4666 
L 3047 1625 
L 3713 1625 
L 3713 1100 
L 3047 1100 
L 3047 0 
L 2419 0 
L 2419 1100 
L 313 1100 
L 313 1709 
L 2253 4666 
z
" transform="scale(0.015625)"/>
        <path id="DejaVuSans-30" d="M 2034 4250 
Q 1547 4250 1301 3770 
Q 1056 3291 1056 2328 
Q 1056 1369 1301 889 
Q 1547 409 2034 409 
Q 2525 409 2770 889 
Q 3016 1369 3016 2328 
Q 3016 3291 2770 3770 
Q 2525 4250 2034 4250 
z
M 2034 4750 
Q 2819 4750 3233 4129 
Q 3647 3509 3647 2328 
Q 3647 1150 3233 529 
Q 2819 -91 2034 -91 
Q 1250 -91 836 529 
Q 422 1150 422 2328 
Q 422 3509 836 4129 
Q 1250 4750 2034 4750 
z
" transform="scale(0.015625)"/>
       </defs>
       <use xlink:href="#DejaVuSans-34"/>
       <use xlink:href="#DejaVuSans-30" x="63.623047"/>
      </g>
     </g>
    </g>
    <g id="ytick_2">
     <g id="line2d_13">
      <path d="M 67.31 136.925416 
L 329.395 136.925416 
" clip-path="url(#p260ef28f43)" style="fill: none; stroke: #d9dedb; stroke-opacity: 0.85; stroke-width: 0.8; stroke-linecap: square"/>
     </g>
     <g id="line2d_14"/>
     <g id="text_2">
      <!-- 60 -->
      <g style="fill: #56636f" transform="translate(51.085 140.724635) scale(0.1 -0.1)">
       <defs>
        <path id="DejaVuSans-36" d="M 2113 2584 
Q 1688 2584 1439 2293 
Q 1191 2003 1191 1497 
Q 1191 994 1439 701 
Q 1688 409 2113 409 
Q 2538 409 2786 701 
Q 3034 994 3034 1497 
Q 3034 2003 2786 2293 
Q 2538 2584 2113 2584 
z
M 3366 4563 
L 3366 3988 
Q 3128 4100 2886 4159 
Q 2644 4219 2406 4219 
Q 1781 4219 1451 3797 
Q 1122 3375 1075 2522 
Q 1259 2794 1537 2939 
Q 1816 3084 2150 3084 
Q 2853 3084 3261 2657 
Q 3669 2231 3669 1497 
Q 3669 778 3244 343 
Q 2819 -91 2113 -91 
Q 1303 -91 875 529 
Q 447 1150 447 2328 
Q 447 3434 972 4092 
Q 1497 4750 2381 4750 
Q 2619 4750 2861 4703 
Q 3103 4656 3366 4563 
z
" transform="scale(0.015625)"/>
       </defs>
       <use xlink:href="#DejaVuSans-36"/>
       <use xlink:href="#DejaVuSans-30" x="63.623047"/>
      </g>
     </g>
    </g>
    <g id="ytick_3">
     <g id="line2d_15">
      <path d="M 67.31 95.316788 
L 329.395 95.316788 
" clip-path="url(#p260ef28f43)" style="fill: none; stroke: #d9dedb; stroke-opacity: 0.85; stroke-width: 0.8; stroke-linecap: square"/>
     </g>
     <g id="line2d_16"/>
     <g id="text_3">
      <!-- 80 -->
      <g style="fill: #56636f" transform="translate(51.085 99.116007) scale(0.1 -0.1)">
       <defs>
        <path id="DejaVuSans-38" d="M 2034 2216 
Q 1584 2216 1326 1975 
Q 1069 1734 1069 1313 
Q 1069 891 1326 650 
Q 1584 409 2034 409 
Q 2484 409 2743 651 
Q 3003 894 3003 1313 
Q 3003 1734 2745 1975 
Q 2488 2216 2034 2216 
z
M 1403 2484 
Q 997 2584 770 2862 
Q 544 3141 544 3541 
Q 544 4100 942 4425 
Q 1341 4750 2034 4750 
Q 2731 4750 3128 4425 
Q 3525 4100 3525 3541 
Q 3525 3141 3298 2862 
Q 3072 2584 2669 2484 
Q 3125 2378 3379 2068 
Q 3634 1759 3634 1313 
Q 3634 634 3220 271 
Q 2806 -91 2034 -91 
Q 1263 -91 848 271 
Q 434 634 434 1313 
Q 434 1759 690 2068 
Q 947 2378 1403 2484 
z
M 1172 3481 
Q 1172 3119 1398 2916 
Q 1625 2713 2034 2713 
Q 2441 2713 2670 2916 
Q 2900 3119 2900 3481 
Q 2900 3844 2670 4047 
Q 2441 4250 2034 4250 
Q 1625 4250 1398 4047 
Q 1172 3844 1172 3481 
z
" transform="scale(0.015625)"/>
       </defs>
       <use xlink:href="#DejaVuSans-38"/>
       <use xlink:href="#DejaVuSans-30" x="63.623047"/>
      </g>
     </g>
    </g>
   </g>
   <g id="line2d_17">
    <path d="M 79.222955 167.125976 
L 80.877532 170.061041 
L 82.532109 167.451221 
L 84.186686 163.460468 
L 85.841263 166.047237 
L 87.49584 163.974855 
L 89.150417 166.344467 
L 90.804994 159.269536 
L 92.459571 164.701082 
L 94.114148 157.010641 
L 95.768725 159.754405 
L 97.423302 158.547837 
L 99.077879 159.345175 
L 100.732456 160.901388 
L 102.387033 152.714297 
L 104.04161 157.905824 
L 105.696187 154.058313 
L 107.350764 159.945471 
L 109.005341 154.757357 
L 110.659918 154.745912 
L 112.314495 160.201338 
L 113.969072 154.329714 
L 115.623649 156.01143 
L 117.278226 151.742038 
L 118.932803 154.836898 
L 120.58738 148.327544 
L 122.241957 152.432035 
L 123.896534 144.760809 
L 125.551111 149.699323 
L 127.205688 153.49576 
L 128.860265 147.772956 
L 130.514842 151.807209 
L 132.169419 151.458862 
L 133.823996 151.778344 
L 135.478573 149.806076 
L 137.13315 155.677709 
L 138.787727 152.876215 
L 140.442304 153.010984 
L 142.096881 157.326127 
L 143.751458 148.645138 
L 145.406035 149.905193 
L 147.060612 148.8078 
L 148.715189 149.891722 
L 150.369766 154.328813 
L 152.024343 157.76077 
L 153.67892 152.762599 
L 155.333497 152.646937 
L 156.988074 154.435916 
L 158.642652 152.991857 
L 160.297229 157.795504 
L 161.951806 154.284252 
L 163.606383 153.036716 
L 165.26096 152.205853 
L 166.915537 145.021902 
L 168.570114 154.905098 
L 170.224691 149.588659 
L 171.879268 156.923939 
L 173.533845 154.215101 
L 175.188422 156.076117 
L 176.842999 155.42416 
L 178.497576 153.367209 
L 180.152153 153.881941 
L 181.80673 149.870519 
L 185.115884 158.703721 
L 186.770461 158.925008 
L 188.425038 150.685314 
L 190.079615 143.48049 
L 191.734192 154.66654 
L 193.388769 146.363978 
L 195.043346 147.326129 
L 196.697923 156.910543 
L 198.3525 152.378767 
L 200.007077 149.025786 
L 201.661654 153.372988 
L 203.316231 151.713838 
L 204.970808 144.238588 
L 206.625385 141.496581 
L 208.279962 146.510553 
L 209.934539 147.112092 
L 211.589116 142.734757 
L 213.243693 139.384803 
L 214.89827 136.599242 
L 216.552847 141.067765 
L 218.207424 137.165435 
L 219.862001 141.844359 
L 221.516578 138.507851 
L 223.171155 136.374848 
L 224.825732 138.603883 
L 226.480309 132.632111 
L 228.134886 133.480936 
L 229.789463 132.530623 
L 231.44404 132.324808 
L 233.098617 131.832091 
L 234.753194 125.195424 
L 236.407771 133.924901 
L 238.062348 129.620246 
L 239.716926 133.951196 
L 241.371503 132.230649 
L 243.02608 128.662308 
L 244.680657 136.216581 
L 246.335234 136.794279 
L 247.989811 143.5097 
L 249.644388 133.094296 
L 251.298965 137.757283 
L 252.953542 138.649863 
L 254.608119 144.494861 
L 256.262696 139.270716 
L 257.917273 147.517564 
L 259.57185 139.769868 
L 261.226427 145.443209 
L 262.881004 154.778726 
L 264.535581 150.011814 
L 266.190158 157.672366 
L 267.844735 149.316282 
L 269.499312 155.382634 
L 271.153889 158.239018 
L 272.808466 165.598665 
L 274.463043 162.074441 
L 276.11762 163.497575 
L 277.772197 166.977675 
L 279.426774 166.667058 
L 281.081351 163.956538 
L 282.735928 163.318007 
L 284.390505 170.086774 
L 286.045082 168.250339 
L 287.699659 176.589358 
L 289.354236 163.096655 
L 291.008813 171.977125 
L 292.66339 167.423202 
L 294.317967 172.223972 
L 295.972544 164.88793 
L 297.627121 182.273468 
L 299.281698 164.805981 
L 300.936275 174.804977 
L 302.590852 169.450507 
L 304.245429 171.202819 
L 305.900006 160.568633 
L 307.554583 172.09956 
L 309.20916 163.409527 
L 310.863737 170.749661 
L 312.518314 175.779197 
L 314.172891 159.203649 
L 315.827468 164.325655 
L 317.482045 163.379128 
L 317.482045 163.379128 
" clip-path="url(#p260ef28f43)" style="fill: none; stroke: #0072b2; stroke-width: 2; stroke-linecap: square"/>
   </g>
   <g id="patch_3">
    <path d="M 67.31 187.472014 
L 67.31 73.104 
" style="fill: none; stroke: #d9dedb; stroke-width: 0.8; stroke-linejoin: miter; stroke-linecap: square"/>
   </g>
   <g id="patch_4">
    <path d="M 67.31 187.472014 
L 329.395 187.472014 
" style="fill: none; stroke: #d9dedb; stroke-width: 0.8; stroke-linejoin: miter; stroke-linecap: square"/>
   </g>
   <g id="text_4">
    <!-- Participant 1 -->
    <g style="fill: #17212b" transform="translate(158.447422 67.104) scale(0.11 -0.11)">
     <defs>
      <path id="DejaVuSans-Bold-50" d="M 588 4666 
L 2584 4666 
Q 3475 4666 3951 4270 
Q 4428 3875 4428 3144 
Q 4428 2409 3951 2014 
Q 3475 1619 2584 1619 
L 1791 1619 
L 1791 0 
L 588 0 
L 588 4666 
z
M 1791 3794 
L 1791 2491 
L 2456 2491 
Q 2806 2491 2997 2661 
Q 3188 2831 3188 3144 
Q 3188 3456 2997 3625 
Q 2806 3794 2456 3794 
L 1791 3794 
z
" transform="scale(0.015625)"/>
      <path id="DejaVuSans-Bold-61" d="M 2106 1575 
Q 1756 1575 1579 1456 
Q 1403 1338 1403 1106 
Q 1403 894 1545 773 
Q 1688 653 1941 653 
Q 2256 653 2472 879 
Q 2688 1106 2688 1447 
L 2688 1575 
L 2106 1575 
z
M 3816 1997 
L 3816 0 
L 2688 0 
L 2688 519 
Q 2463 200 2181 54 
Q 1900 -91 1497 -91 
Q 953 -91 614 226 
Q 275 544 275 1050 
Q 275 1666 698 1953 
Q 1122 2241 2028 2241 
L 2688 2241 
L 2688 2328 
Q 2688 2594 2478 2717 
Q 2269 2841 1825 2841 
Q 1466 2841 1156 2769 
Q 847 2697 581 2553 
L 581 3406 
Q 941 3494 1303 3539 
Q 1666 3584 2028 3584 
Q 2975 3584 3395 3211 
Q 3816 2838 3816 1997 
z
" transform="scale(0.015625)"/>
      <path id="DejaVuSans-Bold-72" d="M 3138 2547 
Q 2991 2616 2845 2648 
Q 2700 2681 2553 2681 
Q 2122 2681 1889 2404 
Q 1656 2128 1656 1613 
L 1656 0 
L 538 0 
L 538 3500 
L 1656 3500 
L 1656 2925 
Q 1872 3269 2151 3426 
Q 2431 3584 2822 3584 
Q 2878 3584 2943 3579 
Q 3009 3575 3134 3559 
L 3138 2547 
z
" transform="scale(0.015625)"/>
      <path id="DejaVuSans-Bold-74" d="M 1759 4494 
L 1759 3500 
L 2913 3500 
L 2913 2700 
L 1759 2700 
L 1759 1216 
Q 1759 972 1856 886 
Q 1953 800 2241 800 
L 2816 800 
L 2816 0 
L 1856 0 
Q 1194 0 917 276 
Q 641 553 641 1216 
L 641 2700 
L 84 2700 
L 84 3500 
L 641 3500 
L 641 4494 
L 1759 4494 
z
" transform="scale(0.015625)"/>
      <path id="DejaVuSans-Bold-69" d="M 538 3500 
L 1656 3500 
L 1656 0 
L 538 0 
L 538 3500 
z
M 538 4863 
L 1656 4863 
L 1656 3950 
L 538 3950 
L 538 4863 
z
" transform="scale(0.015625)"/>
      <path id="DejaVuSans-Bold-63" d="M 3366 3391 
L 3366 2478 
Q 3138 2634 2908 2709 
Q 2678 2784 2431 2784 
Q 1963 2784 1702 2511 
Q 1441 2238 1441 1747 
Q 1441 1256 1702 982 
Q 1963 709 2431 709 
Q 2694 709 2930 787 
Q 3166 866 3366 1019 
L 3366 103 
Q 3103 6 2833 -42 
Q 2563 -91 2291 -91 
Q 1344 -91 809 395 
Q 275 881 275 1747 
Q 275 2613 809 3098 
Q 1344 3584 2291 3584 
Q 2566 3584 2833 3536 
Q 3100 3488 3366 3391 
z
" transform="scale(0.015625)"/>
      <path id="DejaVuSans-Bold-70" d="M 1656 506 
L 1656 -1331 
L 538 -1331 
L 538 3500 
L 1656 3500 
L 1656 2988 
Q 1888 3294 2169 3439 
Q 2450 3584 2816 3584 
Q 3463 3584 3878 3070 
Q 4294 2556 4294 1747 
Q 4294 938 3878 423 
Q 3463 -91 2816 -91 
Q 2450 -91 2169 54 
Q 1888 200 1656 506 
z
M 2400 2772 
Q 2041 2772 1848 2508 
Q 1656 2244 1656 1747 
Q 1656 1250 1848 986 
Q 2041 722 2400 722 
Q 2759 722 2948 984 
Q 3138 1247 3138 1747 
Q 3138 2247 2948 2509 
Q 2759 2772 2400 2772 
z
" transform="scale(0.015625)"/>
      <path id="DejaVuSans-Bold-6e" d="M 4056 2131 
L 4056 0 
L 2931 0 
L 2931 347 
L 2931 1631 
Q 2931 2084 2911 2256 
Q 2891 2428 2841 2509 
Q 2775 2619 2662 2680 
Q 2550 2741 2406 2741 
Q 2056 2741 1856 2470 
Q 1656 2200 1656 1722 
L 1656 0 
L 538 0 
L 538 3500 
L 1656 3500 
L 1656 2988 
Q 1909 3294 2193 3439 
Q 2478 3584 2822 3584 
Q 3428 3584 3742 3212 
Q 4056 2841 4056 2131 
z
" transform="scale(0.015625)"/>
      <path id="DejaVuSans-Bold-20" transform="scale(0.015625)"/>
      <path id="DejaVuSans-Bold-31" d="M 750 831 
L 1813 831 
L 1813 3847 
L 722 3622 
L 722 4441 
L 1806 4666 
L 2950 4666 
L 2950 831 
L 4013 831 
L 4013 0 
L 750 0 
L 750 831 
z
" transform="scale(0.015625)"/>
     </defs>
     <use xlink:href="#DejaVuSans-Bold-50"/>
     <use xlink:href="#DejaVuSans-Bold-61" x="70.666016"/>
     <use xlink:href="#DejaVuSans-Bold-72" x="138.146484"/>
     <use xlink:href="#DejaVuSans-Bold-74" x="187.462891"/>
     <use xlink:href="#DejaVuSans-Bold-69" x="235.265625"/>
     <use xlink:href="#DejaVuSans-Bold-63" x="269.542969"/>
     <use xlink:href="#DejaVuSans-Bold-69" x="328.820312"/>
     <use xlink:href="#DejaVuSans-Bold-70" x="363.097656"/>
     <use xlink:href="#DejaVuSans-Bold-61" x="434.679688"/>
     <use xlink:href="#DejaVuSans-Bold-6e" x="502.160156"/>
     <use xlink:href="#DejaVuSans-Bold-74" x="573.351562"/>
     <use xlink:href="#DejaVuSans-Bold-20" x="621.154297"/>
     <use xlink:href="#DejaVuSans-Bold-31" x="655.96875"/>
    </g>
   </g>
  </g>
  <g id="axes_2">
   <g id="patch_5">
    <path d="M 340.195 187.472014 
L 602.28 187.472014 
L 602.28 73.104 
L 340.195 73.104 
z
" style="fill: #ffffff"/>
   </g>
   <g id="matplotlib.axis_3">
    <g id="xtick_6">
     <g id="line2d_18">
      <path d="M 352.107955 187.472014 
L 352.107955 73.104 
" clip-path="url(#p619462f940)" style="fill: none; stroke: #d9dedb; stroke-opacity: 0.85; stroke-width: 0.8; stroke-linecap: square"/>
     </g>
     <g id="line2d_19"/>
    </g>
    <g id="xtick_7">
     <g id="line2d_20">
      <path d="M 411.672727 187.472014 
L 411.672727 73.104 
" clip-path="url(#p619462f940)" style="fill: none; stroke: #d9dedb; stroke-opacity: 0.85; stroke-width: 0.8; stroke-linecap: square"/>
     </g>
     <g id="line2d_21"/>
    </g>
    <g id="xtick_8">
     <g id="line2d_22">
      <path d="M 471.2375 187.472014 
L 471.2375 73.104 
" clip-path="url(#p619462f940)" style="fill: none; stroke: #d9dedb; stroke-opacity: 0.85; stroke-width: 0.8; stroke-linecap: square"/>
     </g>
     <g id="line2d_23"/>
    </g>
    <g id="xtick_9">
     <g id="line2d_24">
      <path d="M 530.802273 187.472014 
L 530.802273 73.104 
" clip-path="url(#p619462f940)" style="fill: none; stroke: #d9dedb; stroke-opacity: 0.85; stroke-width: 0.8; stroke-linecap: square"/>
     </g>
     <g id="line2d_25"/>
    </g>
    <g id="xtick_10">
     <g id="line2d_26">
      <path d="M 590.367045 187.472014 
L 590.367045 73.104 
" clip-path="url(#p619462f940)" style="fill: none; stroke: #d9dedb; stroke-opacity: 0.85; stroke-width: 0.8; stroke-linecap: square"/>
     </g>
     <g id="line2d_27"/>
    </g>
   </g>
   <g id="matplotlib.axis_4">
    <g id="ytick_4">
     <g id="line2d_28">
      <path d="M 340.195 178.534045 
L 602.28 178.534045 
" clip-path="url(#p619462f940)" style="fill: none; stroke: #d9dedb; stroke-opacity: 0.85; stroke-width: 0.8; stroke-linecap: square"/>
     </g>
     <g id="line2d_29"/>
    </g>
    <g id="ytick_5">
     <g id="line2d_30">
      <path d="M 340.195 136.925416 
L 602.28 136.925416 
" clip-path="url(#p619462f940)" style="fill: none; stroke: #d9dedb; stroke-opacity: 0.85; stroke-width: 0.8; stroke-linecap: square"/>
     </g>
     <g id="line2d_31"/>
    </g>
    <g id="ytick_6">
     <g id="line2d_32">
      <path d="M 340.195 95.316788 
L 602.28 95.316788 
" clip-path="url(#p619462f940)" style="fill: none; stroke: #d9dedb; stroke-opacity: 0.85; stroke-width: 0.8; stroke-linecap: square"/>
     </g>
     <g id="line2d_33"/>
    </g>
   </g>
   <g id="line2d_34">
    <path d="M 352.107955 143.943516 
L 353.762532 154.714989 
L 355.417109 145.423405 
L 357.071686 153.298191 
L 358.726263 141.672785 
L 360.38084 146.298979 
L 362.035417 145.387526 
L 363.689994 149.110524 
L 365.344571 141.987928 
L 366.999148 139.390463 
L 368.653725 147.096855 
L 370.308302 142.450332 
L 371.962879 141.335279 
L 375.272033 152.100775 
L 376.92661 152.566457 
L 378.581187 130.670809 
L 380.235764 140.868713 
L 381.890341 150.223102 
L 383.544918 142.057614 
L 385.199495 147.478338 
L 386.854072 141.885322 
L 388.508649 137.276805 
L 390.163226 141.275759 
L 391.817803 136.916292 
L 393.47238 135.8806 
L 395.126957 139.283132 
L 396.781534 141.173602 
L 398.436111 135.501661 
L 400.090688 138.739531 
L 401.745265 140.319404 
L 403.399842 133.047158 
L 405.054419 130.548491 
L 406.708996 138.954587 
L 408.363573 138.880743 
L 410.01815 140.913412 
L 411.672727 128.770787 
L 413.327304 136.405437 
L 414.981881 139.477775 
L 416.636458 127.352793 
L 418.291035 136.855372 
L 419.945612 142.950929 
L 421.600189 142.913969 
L 423.254766 141.876242 
L 424.909343 143.753324 
L 426.56392 139.797845 
L 428.218497 145.826379 
L 429.873074 140.735476 
L 431.527652 140.696226 
L 433.182229 137.834719 
L 434.836806 138.77396 
L 436.491383 134.333575 
L 438.14596 148.487113 
L 439.800537 144.880959 
L 441.455114 144.499628 
L 443.109691 142.509243 
L 444.764268 140.317435 
L 446.418845 145.653882 
L 448.073422 153.613081 
L 449.727999 143.553033 
L 451.382576 147.912783 
L 453.037153 143.457886 
L 454.69173 142.530038 
L 456.346307 150.065681 
L 458.000884 146.52221 
L 459.655461 145.128351 
L 461.310038 142.166306 
L 462.964615 149.0276 
L 464.619192 149.648658 
L 466.273769 143.275798 
L 467.928346 148.738109 
L 469.582923 144.485822 
L 471.2375 150.679004 
L 472.892077 142.909181 
L 474.546654 144.229112 
L 476.201231 139.560855 
L 477.855808 139.338368 
L 479.510385 149.011456 
L 481.164962 141.017597 
L 482.819539 144.654981 
L 484.474116 140.471767 
L 486.128693 138.320593 
L 487.78327 134.186502 
L 489.437847 135.484667 
L 491.092424 137.327077 
L 492.747001 131.061531 
L 494.401578 128.791629 
L 496.056155 129.815709 
L 497.710732 131.172276 
L 499.365309 122.942126 
L 501.019886 126.99068 
L 502.674463 122.821803 
L 504.32904 118.284251 
L 505.983617 126.638318 
L 507.638194 127.084735 
L 509.292771 121.730835 
L 510.947348 123.672852 
L 512.601926 123.051644 
L 514.256503 115.528402 
L 515.91108 127.779801 
L 517.565657 125.189339 
L 519.220234 121.461113 
L 520.874811 118.507625 
L 522.529388 120.289567 
L 524.183965 117.976162 
L 525.838542 125.905822 
L 527.493119 120.384328 
L 529.147696 115.92571 
L 530.802273 124.670949 
L 532.45685 130.00872 
L 534.111427 119.876245 
L 535.766004 124.872114 
L 537.420581 128.516885 
L 539.075158 129.992668 
L 540.729735 135.371377 
L 542.384312 135.538964 
L 544.038889 133.42207 
L 545.693466 140.567246 
L 547.348043 146.364889 
L 549.00262 138.008046 
L 550.657197 137.278703 
L 552.311774 143.883481 
L 553.966351 143.0578 
L 555.620928 150.363132 
L 557.275505 139.185888 
L 558.930082 139.872777 
L 560.584659 152.665818 
L 562.239236 147.723007 
L 563.893813 148.62228 
L 565.54839 140.132866 
L 567.202967 145.250218 
L 570.512121 149.827838 
L 572.166698 144.302248 
L 573.821275 144.327815 
L 575.475852 150.156734 
L 577.130429 148.39322 
L 578.785006 143.787725 
L 580.439583 144.634534 
L 582.09416 155.961291 
L 583.748737 145.047173 
L 585.403314 145.706879 
L 587.057891 140.408 
L 588.712468 148.661597 
L 590.367045 142.530428 
L 590.367045 142.530428 
" clip-path="url(#p619462f940)" style="fill: none; stroke: #0072b2; stroke-width: 2; stroke-linecap: square"/>
   </g>
   <g id="patch_6">
    <path d="M 340.195 187.472014 
L 340.195 73.104 
" style="fill: none; stroke: #d9dedb; stroke-width: 0.8; stroke-linejoin: miter; stroke-linecap: square"/>
   </g>
   <g id="patch_7">
    <path d="M 340.195 187.472014 
L 602.28 187.472014 
" style="fill: none; stroke: #d9dedb; stroke-width: 0.8; stroke-linejoin: miter; stroke-linecap: square"/>
   </g>
   <g id="text_5">
    <!-- Participant 2 -->
    <g style="fill: #17212b" transform="translate(431.332422 67.104) scale(0.11 -0.11)">
     <defs>
      <path id="DejaVuSans-Bold-32" d="M 1844 884 
L 3897 884 
L 3897 0 
L 506 0 
L 506 884 
L 2209 2388 
Q 2438 2594 2547 2791 
Q 2656 2988 2656 3200 
Q 2656 3528 2436 3728 
Q 2216 3928 1850 3928 
Q 1569 3928 1234 3808 
Q 900 3688 519 3450 
L 519 4475 
Q 925 4609 1322 4679 
Q 1719 4750 2100 4750 
Q 2938 4750 3402 4381 
Q 3866 4013 3866 3353 
Q 3866 2972 3669 2642 
Q 3472 2313 2841 1759 
L 1844 884 
z
" transform="scale(0.015625)"/>
     </defs>
     <use xlink:href="#DejaVuSans-Bold-50"/>
     <use xlink:href="#DejaVuSans-Bold-61" x="70.666016"/>
     <use xlink:href="#DejaVuSans-Bold-72" x="138.146484"/>
     <use xlink:href="#DejaVuSans-Bold-74" x="187.462891"/>
     <use xlink:href="#DejaVuSans-Bold-69" x="235.265625"/>
     <use xlink:href="#DejaVuSans-Bold-63" x="269.542969"/>
     <use xlink:href="#DejaVuSans-Bold-69" x="328.820312"/>
     <use xlink:href="#DejaVuSans-Bold-70" x="363.097656"/>
     <use xlink:href="#DejaVuSans-Bold-61" x="434.679688"/>
     <use xlink:href="#DejaVuSans-Bold-6e" x="502.160156"/>
     <use xlink:href="#DejaVuSans-Bold-74" x="573.351562"/>
     <use xlink:href="#DejaVuSans-Bold-20" x="621.154297"/>
     <use xlink:href="#DejaVuSans-Bold-32" x="655.96875"/>
    </g>
   </g>
  </g>
  <g id="axes_3">
   <g id="patch_8">
    <path d="M 67.31 324.576 
L 329.395 324.576 
L 329.395 210.207986 
L 67.31 210.207986 
z
" style="fill: #ffffff"/>
   </g>
   <g id="matplotlib.axis_5">
    <g id="xtick_11">
     <g id="line2d_35">
      <path d="M 79.222955 324.576 
L 79.222955 210.207986 
" clip-path="url(#p2f9a59e02b)" style="fill: none; stroke: #d9dedb; stroke-opacity: 0.85; stroke-width: 0.8; stroke-linecap: square"/>
     </g>
     <g id="line2d_36"/>
     <g id="text_6">
      <!-- 0 -->
      <g style="fill: #56636f" transform="translate(76.041705 335.674437) scale(0.1 -0.1)">
       <use xlink:href="#DejaVuSans-30"/>
      </g>
     </g>
    </g>
    <g id="xtick_12">
     <g id="line2d_37">
      <path d="M 138.787727 324.576 
L 138.787727 210.207986 
" clip-path="url(#p2f9a59e02b)" style="fill: none; stroke: #d9dedb; stroke-opacity: 0.85; stroke-width: 0.8; stroke-linecap: square"/>
     </g>
     <g id="line2d_38"/>
     <g id="text_7">
      <!-- 6 -->
      <g style="fill: #56636f" transform="translate(135.606477 335.674437) scale(0.1 -0.1)">
       <use xlink:href="#DejaVuSans-36"/>
      </g>
     </g>
    </g>
    <g id="xtick_13">
     <g id="line2d_39">
      <path d="M 198.3525 324.576 
L 198.3525 210.207986 
" clip-path="url(#p2f9a59e02b)" style="fill: none; stroke: #d9dedb; stroke-opacity: 0.85; stroke-width: 0.8; stroke-linecap: square"/>
     </g>
     <g id="line2d_40"/>
     <g id="text_8">
      <!-- 12 -->
      <g style="fill: #56636f" transform="translate(191.99 335.674437) scale(0.1 -0.1)">
       <defs>
        <path id="DejaVuSans-31" d="M 794 531 
L 1825 531 
L 1825 4091 
L 703 3866 
L 703 4441 
L 1819 4666 
L 2450 4666 
L 2450 531 
L 3481 531 
L 3481 0 
L 794 0 
L 794 531 
z
" transform="scale(0.015625)"/>
        <path id="DejaVuSans-32" d="M 1228 531 
L 3431 531 
L 3431 0 
L 469 0 
L 469 531 
Q 828 903 1448 1529 
Q 2069 2156 2228 2338 
Q 2531 2678 2651 2914 
Q 2772 3150 2772 3378 
Q 2772 3750 2511 3984 
Q 2250 4219 1831 4219 
Q 1534 4219 1204 4116 
Q 875 4013 500 3803 
L 500 4441 
Q 881 4594 1212 4672 
Q 1544 4750 1819 4750 
Q 2544 4750 2975 4387 
Q 3406 4025 3406 3419 
Q 3406 3131 3298 2873 
Q 3191 2616 2906 2266 
Q 2828 2175 2409 1742 
Q 1991 1309 1228 531 
z
" transform="scale(0.015625)"/>
       </defs>
       <use xlink:href="#DejaVuSans-31"/>
       <use xlink:href="#DejaVuSans-32" x="63.623047"/>
      </g>
     </g>
    </g>
    <g id="xtick_14">
     <g id="line2d_41">
      <path d="M 257.917273 324.576 
L 257.917273 210.207986 
" clip-path="url(#p2f9a59e02b)" style="fill: none; stroke: #d9dedb; stroke-opacity: 0.85; stroke-width: 0.8; stroke-linecap: square"/>
     </g>
     <g id="line2d_42"/>
     <g id="text_9">
      <!-- 18 -->
      <g style="fill: #56636f" transform="translate(251.554773 335.674437) scale(0.1 -0.1)">
       <use xlink:href="#DejaVuSans-31"/>
       <use xlink:href="#DejaVuSans-38" x="63.623047"/>
      </g>
     </g>
    </g>
    <g id="xtick_15">
     <g id="line2d_43">
      <path d="M 317.482045 324.576 
L 317.482045 210.207986 
" clip-path="url(#p2f9a59e02b)" style="fill: none; stroke: #d9dedb; stroke-opacity: 0.85; stroke-width: 0.8; stroke-linecap: square"/>
     </g>
     <g id="line2d_44"/>
     <g id="text_10">
      <!-- 24 -->
      <g style="fill: #56636f" transform="translate(311.119545 335.674437) scale(0.1 -0.1)">
       <use xlink:href="#DejaVuSans-32"/>
       <use xlink:href="#DejaVuSans-34" x="63.623047"/>
      </g>
     </g>
    </g>
   </g>
   <g id="matplotlib.axis_6">
    <g id="ytick_7">
     <g id="line2d_45">
      <path d="M 67.31 315.63803 
L 329.395 315.63803 
" clip-path="url(#p2f9a59e02b)" style="fill: none; stroke: #d9dedb; stroke-opacity: 0.85; stroke-width: 0.8; stroke-linecap: square"/>
     </g>
     <g id="line2d_46"/>
     <g id="text_11">
      <!-- 40 -->
      <g style="fill: #56636f" transform="translate(51.085 319.437249) scale(0.1 -0.1)">
       <use xlink:href="#DejaVuSans-34"/>
       <use xlink:href="#DejaVuSans-30" x="63.623047"/>
      </g>
     </g>
    </g>
    <g id="ytick_8">
     <g id="line2d_47">
      <path d="M 67.31 274.029402 
L 329.395 274.029402 
" clip-path="url(#p2f9a59e02b)" style="fill: none; stroke: #d9dedb; stroke-opacity: 0.85; stroke-width: 0.8; stroke-linecap: square"/>
     </g>
     <g id="line2d_48"/>
     <g id="text_12">
      <!-- 60 -->
      <g style="fill: #56636f" transform="translate(51.085 277.828621) scale(0.1 -0.1)">
       <use xlink:href="#DejaVuSans-36"/>
       <use xlink:href="#DejaVuSans-30" x="63.623047"/>
      </g>
     </g>
    </g>
    <g id="ytick_9">
     <g id="line2d_49">
      <path d="M 67.31 232.420774 
L 329.395 232.420774 
" clip-path="url(#p2f9a59e02b)" style="fill: none; stroke: #d9dedb; stroke-opacity: 0.85; stroke-width: 0.8; stroke-linecap: square"/>
     </g>
     <g id="line2d_50"/>
     <g id="text_13">
      <!-- 80 -->
      <g style="fill: #56636f" transform="translate(51.085 236.219993) scale(0.1 -0.1)">
       <use xlink:href="#DejaVuSans-38"/>
       <use xlink:href="#DejaVuSans-30" x="63.623047"/>
      </g>
     </g>
    </g>
   </g>
   <g id="line2d_51">
    <path d="M 79.222955 269.487585 
L 80.877532 258.335716 
L 82.532109 269.736353 
L 84.186686 268.737399 
L 85.841263 268.018268 
L 87.49584 273.203501 
L 89.150417 270.775044 
L 90.804994 264.065194 
L 92.459571 264.593455 
L 94.114148 258.33707 
L 95.768725 257.759067 
L 97.423302 259.445467 
L 99.077879 257.210103 
L 100.732456 265.729877 
L 104.04161 261.357284 
L 105.696187 260.245206 
L 107.350764 254.807023 
L 109.005341 261.604801 
L 112.314495 257.875132 
L 113.969072 261.554859 
L 115.623649 259.626987 
L 117.278226 260.665494 
L 118.932803 259.559491 
L 120.58738 257.706233 
L 122.241957 256.261587 
L 123.896534 256.78633 
L 125.551111 262.967343 
L 127.205688 254.838497 
L 128.860265 252.251555 
L 130.514842 263.032957 
L 132.169419 265.820259 
L 133.823996 269.515535 
L 135.478573 252.371991 
L 137.13315 257.491292 
L 138.787727 265.3972 
L 140.442304 264.654466 
L 142.096881 262.372236 
L 143.751458 254.434999 
L 145.406035 265.355027 
L 147.060612 266.063598 
L 148.715189 263.786387 
L 150.369766 258.568387 
L 152.024343 255.416608 
L 153.67892 274.582539 
L 155.333497 260.824144 
L 156.988074 264.381104 
L 158.642652 264.641442 
L 160.297229 271.084286 
L 161.951806 268.637726 
L 163.606383 275.039262 
L 165.26096 274.693994 
L 166.915537 265.461333 
L 168.570114 270.147697 
L 170.224691 270.854218 
L 171.879268 272.265712 
L 173.533845 271.916554 
L 176.842999 276.589724 
L 178.497576 269.585227 
L 180.152153 270.857353 
L 181.80673 278.156584 
L 183.461307 272.865234 
L 185.115884 278.571404 
L 186.770461 273.380541 
L 188.425038 276.676367 
L 190.079615 275.012178 
L 191.734192 272.282842 
L 193.388769 276.853083 
L 195.043346 275.483314 
L 196.697923 276.72138 
L 198.3525 271.840723 
L 200.007077 274.354076 
L 201.661654 270.458929 
L 203.316231 278.164111 
L 204.970808 275.247896 
L 206.625385 272.711338 
L 208.279962 270.940111 
L 209.934539 268.707765 
L 211.589116 272.075749 
L 213.243693 270.224827 
L 214.89827 270.520342 
L 216.552847 268.951796 
L 218.207424 259.344091 
L 219.862001 266.492974 
L 221.516578 269.070934 
L 223.171155 259.468339 
L 224.825732 264.846488 
L 226.480309 259.861185 
L 228.134886 257.206978 
L 229.789463 255.23688 
L 231.44404 258.394 
L 233.098617 260.935257 
L 234.753194 249.411525 
L 236.407771 251.189667 
L 238.062348 249.872666 
L 239.716926 251.435334 
L 241.371503 246.840523 
L 243.02608 251.473298 
L 244.680657 249.188633 
L 246.335234 241.886539 
L 247.989811 245.806999 
L 249.644388 243.135643 
L 251.298965 239.353951 
L 252.953542 246.658897 
L 254.608119 245.615066 
L 256.262696 241.494369 
L 257.917273 234.875609 
L 259.57185 243.500741 
L 261.226427 241.626479 
L 262.881004 242.840625 
L 264.535581 239.924482 
L 266.190158 245.475173 
L 267.844735 244.428455 
L 269.499312 235.056135 
L 271.153889 254.763682 
L 272.808466 250.216548 
L 274.463043 243.196504 
L 276.11762 250.468752 
L 277.772197 249.430408 
L 279.426774 255.932308 
L 281.081351 253.847899 
L 282.735928 257.230821 
L 284.390505 257.23535 
L 286.045082 255.605546 
L 287.699659 251.366369 
L 289.354236 261.610458 
L 291.008813 261.46613 
L 292.66339 253.812351 
L 294.317967 258.409686 
L 295.972544 264.210831 
L 297.627121 261.183087 
L 299.281698 261.597099 
L 300.936275 261.150977 
L 302.590852 269.818384 
L 304.245429 265.368392 
L 305.900006 262.34179 
L 307.554583 264.354432 
L 309.20916 266.786195 
L 310.863737 255.826168 
L 312.518314 266.862732 
L 314.172891 263.607729 
L 315.827468 272.99149 
L 317.482045 264.126691 
L 317.482045 264.126691 
" clip-path="url(#p2f9a59e02b)" style="fill: none; stroke: #0072b2; stroke-width: 2; stroke-linecap: square"/>
   </g>
   <g id="patch_9">
    <path d="M 67.31 324.576 
L 67.31 210.207986 
" style="fill: none; stroke: #d9dedb; stroke-width: 0.8; stroke-linejoin: miter; stroke-linecap: square"/>
   </g>
   <g id="patch_10">
    <path d="M 67.31 324.576 
L 329.395 324.576 
" style="fill: none; stroke: #d9dedb; stroke-width: 0.8; stroke-linejoin: miter; stroke-linecap: square"/>
   </g>
   <g id="text_14">
    <!-- Participant 3 -->
    <g style="fill: #17212b" transform="translate(158.447422 204.207986) scale(0.11 -0.11)">
     <defs>
      <path id="DejaVuSans-Bold-33" d="M 2981 2516 
Q 3453 2394 3698 2092 
Q 3944 1791 3944 1325 
Q 3944 631 3412 270 
Q 2881 -91 1863 -91 
Q 1503 -91 1142 -33 
Q 781 25 428 141 
L 428 1069 
Q 766 900 1098 814 
Q 1431 728 1753 728 
Q 2231 728 2486 893 
Q 2741 1059 2741 1369 
Q 2741 1688 2480 1852 
Q 2219 2016 1709 2016 
L 1228 2016 
L 1228 2791 
L 1734 2791 
Q 2188 2791 2409 2933 
Q 2631 3075 2631 3366 
Q 2631 3634 2415 3781 
Q 2200 3928 1806 3928 
Q 1516 3928 1219 3862 
Q 922 3797 628 3669 
L 628 4550 
Q 984 4650 1334 4700 
Q 1684 4750 2022 4750 
Q 2931 4750 3382 4451 
Q 3834 4153 3834 3553 
Q 3834 3144 3618 2883 
Q 3403 2622 2981 2516 
z
" transform="scale(0.015625)"/>
     </defs>
     <use xlink:href="#DejaVuSans-Bold-50"/>
     <use xlink:href="#DejaVuSans-Bold-61" x="70.666016"/>
     <use xlink:href="#DejaVuSans-Bold-72" x="138.146484"/>
     <use xlink:href="#DejaVuSans-Bold-74" x="187.462891"/>
     <use xlink:href="#DejaVuSans-Bold-69" x="235.265625"/>
     <use xlink:href="#DejaVuSans-Bold-63" x="269.542969"/>
     <use xlink:href="#DejaVuSans-Bold-69" x="328.820312"/>
     <use xlink:href="#DejaVuSans-Bold-70" x="363.097656"/>
     <use xlink:href="#DejaVuSans-Bold-61" x="434.679688"/>
     <use xlink:href="#DejaVuSans-Bold-6e" x="502.160156"/>
     <use xlink:href="#DejaVuSans-Bold-74" x="573.351562"/>
     <use xlink:href="#DejaVuSans-Bold-20" x="621.154297"/>
     <use xlink:href="#DejaVuSans-Bold-33" x="655.96875"/>
    </g>
   </g>
  </g>
  <g id="axes_4">
   <g id="patch_11">
    <path d="M 340.195 324.576 
L 602.28 324.576 
L 602.28 210.207986 
L 340.195 210.207986 
z
" style="fill: #ffffff"/>
   </g>
   <g id="matplotlib.axis_7">
    <g id="xtick_16">
     <g id="line2d_52">
      <path d="M 352.107955 324.576 
L 352.107955 210.207986 
" clip-path="url(#p0273c50bc7)" style="fill: none; stroke: #d9dedb; stroke-opacity: 0.85; stroke-width: 0.8; stroke-linecap: square"/>
     </g>
     <g id="line2d_53"/>
     <g id="text_15">
      <!-- 0 -->
      <g style="fill: #56636f" transform="translate(348.926705 335.674437) scale(0.1 -0.1)">
       <use xlink:href="#DejaVuSans-30"/>
      </g>
     </g>
    </g>
    <g id="xtick_17">
     <g id="line2d_54">
      <path d="M 411.672727 324.576 
L 411.672727 210.207986 
" clip-path="url(#p0273c50bc7)" style="fill: none; stroke: #d9dedb; stroke-opacity: 0.85; stroke-width: 0.8; stroke-linecap: square"/>
     </g>
     <g id="line2d_55"/>
     <g id="text_16">
      <!-- 6 -->
      <g style="fill: #56636f" transform="translate(408.491477 335.674437) scale(0.1 -0.1)">
       <use xlink:href="#DejaVuSans-36"/>
      </g>
     </g>
    </g>
    <g id="xtick_18">
     <g id="line2d_56">
      <path d="M 471.2375 324.576 
L 471.2375 210.207986 
" clip-path="url(#p0273c50bc7)" style="fill: none; stroke: #d9dedb; stroke-opacity: 0.85; stroke-width: 0.8; stroke-linecap: square"/>
     </g>
     <g id="line2d_57"/>
     <g id="text_17">
      <!-- 12 -->
      <g style="fill: #56636f" transform="translate(464.875 335.674437) scale(0.1 -0.1)">
       <use xlink:href="#DejaVuSans-31"/>
       <use xlink:href="#DejaVuSans-32" x="63.623047"/>
      </g>
     </g>
    </g>
    <g id="xtick_19">
     <g id="line2d_58">
      <path d="M 530.802273 324.576 
L 530.802273 210.207986 
" clip-path="url(#p0273c50bc7)" style="fill: none; stroke: #d9dedb; stroke-opacity: 0.85; stroke-width: 0.8; stroke-linecap: square"/>
     </g>
     <g id="line2d_59"/>
     <g id="text_18">
      <!-- 18 -->
      <g style="fill: #56636f" transform="translate(524.439773 335.674437) scale(0.1 -0.1)">
       <use xlink:href="#DejaVuSans-31"/>
       <use xlink:href="#DejaVuSans-38" x="63.623047"/>
      </g>
     </g>
    </g>
    <g id="xtick_20">
     <g id="line2d_60">
      <path d="M 590.367045 324.576 
L 590.367045 210.207986 
" clip-path="url(#p0273c50bc7)" style="fill: none; stroke: #d9dedb; stroke-opacity: 0.85; stroke-width: 0.8; stroke-linecap: square"/>
     </g>
     <g id="line2d_61"/>
     <g id="text_19">
      <!-- 24 -->
      <g style="fill: #56636f" transform="translate(584.004545 335.674437) scale(0.1 -0.1)">
       <use xlink:href="#DejaVuSans-32"/>
       <use xlink:href="#DejaVuSans-34" x="63.623047"/>
      </g>
     </g>
    </g>
   </g>
   <g id="matplotlib.axis_8">
    <g id="ytick_10">
     <g id="line2d_62">
      <path d="M 340.195 315.63803 
L 602.28 315.63803 
" clip-path="url(#p0273c50bc7)" style="fill: none; stroke: #d9dedb; stroke-opacity: 0.85; stroke-width: 0.8; stroke-linecap: square"/>
     </g>
     <g id="line2d_63"/>
    </g>
    <g id="ytick_11">
     <g id="line2d_64">
      <path d="M 340.195 274.029402 
L 602.28 274.029402 
" clip-path="url(#p0273c50bc7)" style="fill: none; stroke: #d9dedb; stroke-opacity: 0.85; stroke-width: 0.8; stroke-linecap: square"/>
     </g>
     <g id="line2d_65"/>
    </g>
    <g id="ytick_12">
     <g id="line2d_66">
      <path d="M 340.195 232.420774 
L 602.28 232.420774 
" clip-path="url(#p0273c50bc7)" style="fill: none; stroke: #d9dedb; stroke-opacity: 0.85; stroke-width: 0.8; stroke-linecap: square"/>
     </g>
     <g id="line2d_67"/>
    </g>
   </g>
   <g id="line2d_68">
    <path d="M 352.107955 254.363783 
L 353.762532 255.131215 
L 355.417109 244.888802 
L 357.071686 246.95332 
L 358.726263 253.549795 
L 360.38084 245.854511 
L 362.035417 259.253051 
L 363.689994 248.518181 
L 365.344571 250.986877 
L 366.999148 242.872429 
L 368.653725 242.627771 
L 370.308302 255.000361 
L 371.962879 241.261823 
L 373.617456 248.30473 
L 375.272033 253.504603 
L 376.92661 242.23862 
L 378.581187 246.386797 
L 380.235764 239.330703 
L 381.890341 247.473734 
L 383.544918 242.090715 
L 385.199495 246.300865 
L 386.854072 243.08605 
L 388.508649 246.328228 
L 390.163226 239.589472 
L 391.817803 253.312787 
L 393.47238 245.694763 
L 395.126957 246.872485 
L 398.436111 252.193721 
L 400.090688 242.056019 
L 401.745265 247.255002 
L 403.399842 251.577773 
L 405.054419 246.092664 
L 406.708996 245.573662 
L 408.363573 247.418988 
L 410.01815 251.209425 
L 411.672727 244.486398 
L 413.327304 245.268255 
L 414.981881 242.548827 
L 416.636458 249.555106 
L 418.291035 245.511974 
L 419.945612 252.128701 
L 421.600189 256.045746 
L 423.254766 248.633553 
L 424.909343 257.811871 
L 426.56392 253.905842 
L 428.218497 252.43449 
L 429.873074 252.572424 
L 431.527652 256.066872 
L 433.182229 258.734031 
L 434.836806 261.909699 
L 436.491383 262.363359 
L 438.14596 254.138969 
L 439.800537 258.846029 
L 441.455114 256.750632 
L 443.109691 257.527261 
L 444.764268 262.359119 
L 446.418845 255.228909 
L 448.073422 255.013693 
L 449.727999 259.016034 
L 451.382576 261.699399 
L 453.037153 266.29792 
L 454.69173 257.831136 
L 456.346307 264.804257 
L 458.000884 269.54444 
L 459.655461 263.349524 
L 461.310038 264.700298 
L 462.964615 271.966033 
L 464.619192 260.481137 
L 466.273769 267.724037 
L 467.928346 263.137756 
L 469.582923 268.466702 
L 471.2375 265.671002 
L 472.892077 265.371932 
L 474.546654 268.640553 
L 476.201231 266.17771 
L 477.855808 261.946208 
L 479.510385 269.89595 
L 481.164962 261.95801 
L 482.819539 265.441434 
L 484.474116 267.140237 
L 486.128693 264.501296 
L 487.78327 265.000421 
L 489.437847 261.222644 
L 491.092424 265.021542 
L 492.747001 253.731314 
L 494.401578 261.603756 
L 496.056155 258.382561 
L 497.710732 256.247523 
L 499.365309 250.494364 
L 501.019886 253.649718 
L 502.674463 251.588142 
L 504.32904 243.593237 
L 505.983617 248.628386 
L 507.638194 245.342956 
L 509.292771 249.687282 
L 510.947348 241.332908 
L 512.601926 240.535522 
L 514.256503 240.364138 
L 515.91108 235.492935 
L 517.565657 236.732423 
L 519.220234 235.753135 
L 520.874811 234.116966 
L 522.529388 229.809735 
L 524.183965 233.0863 
L 525.838542 232.719316 
L 527.493119 230.939548 
L 529.147696 233.447543 
L 530.802273 225.892032 
L 532.45685 220.146771 
L 534.111427 224.610322 
L 535.766004 226.674435 
L 537.420581 215.406532 
L 539.075158 220.730595 
L 540.729735 225.185335 
L 542.384312 228.646302 
L 544.038889 227.206291 
L 545.693466 228.291616 
L 547.348043 225.55866 
L 549.00262 218.163195 
L 550.657197 221.152501 
L 552.311774 229.654742 
L 553.966351 228.190465 
L 555.620928 234.471937 
L 557.275505 229.680763 
L 558.930082 234.502342 
L 560.584659 228.962507 
L 562.239236 231.191179 
L 563.893813 234.349782 
L 565.54839 231.064144 
L 567.202967 235.798552 
L 568.857544 236.796333 
L 570.512121 238.498186 
L 572.166698 236.20578 
L 573.821275 240.72536 
L 575.475852 238.642788 
L 577.130429 241.085955 
L 578.785006 242.032109 
L 580.439583 237.930398 
L 582.09416 232.932502 
L 583.748737 248.341687 
L 585.403314 240.914027 
L 587.057891 243.794626 
L 588.712468 234.713155 
L 590.367045 248.154277 
L 590.367045 248.154277 
" clip-path="url(#p0273c50bc7)" style="fill: none; stroke: #0072b2; stroke-width: 2; stroke-linecap: square"/>
   </g>
   <g id="patch_12">
    <path d="M 340.195 324.576 
L 340.195 210.207986 
" style="fill: none; stroke: #d9dedb; stroke-width: 0.8; stroke-linejoin: miter; stroke-linecap: square"/>
   </g>
   <g id="patch_13">
    <path d="M 340.195 324.576 
L 602.28 324.576 
" style="fill: none; stroke: #d9dedb; stroke-width: 0.8; stroke-linejoin: miter; stroke-linecap: square"/>
   </g>
   <g id="text_20">
    <!-- Participant 4 -->
    <g style="fill: #17212b" transform="translate(431.332422 204.207986) scale(0.11 -0.11)">
     <defs>
      <path id="DejaVuSans-Bold-34" d="M 2356 3675 
L 1038 1722 
L 2356 1722 
L 2356 3675 
z
M 2156 4666 
L 3494 4666 
L 3494 1722 
L 4159 1722 
L 4159 850 
L 3494 850 
L 3494 0 
L 2356 0 
L 2356 850 
L 288 850 
L 288 1881 
L 2156 4666 
z
" transform="scale(0.015625)"/>
     </defs>
     <use xlink:href="#DejaVuSans-Bold-50"/>
     <use xlink:href="#DejaVuSans-Bold-61" x="70.666016"/>
     <use xlink:href="#DejaVuSans-Bold-72" x="138.146484"/>
     <use xlink:href="#DejaVuSans-Bold-74" x="187.462891"/>
     <use xlink:href="#DejaVuSans-Bold-69" x="235.265625"/>
     <use xlink:href="#DejaVuSans-Bold-63" x="269.542969"/>
     <use xlink:href="#DejaVuSans-Bold-69" x="328.820312"/>
     <use xlink:href="#DejaVuSans-Bold-70" x="363.097656"/>
     <use xlink:href="#DejaVuSans-Bold-61" x="434.679688"/>
     <use xlink:href="#DejaVuSans-Bold-6e" x="502.160156"/>
     <use xlink:href="#DejaVuSans-Bold-74" x="573.351562"/>
     <use xlink:href="#DejaVuSans-Bold-20" x="621.154297"/>
     <use xlink:href="#DejaVuSans-Bold-34" x="655.96875"/>
    </g>
   </g>
  </g>
  <g id="text_21">
   <!-- Time of day (hours) -->
   <g transform="translate(258.103437 410.192312) scale(0.1 -0.1)">
    <defs>
     <path id="DejaVuSans-54" d="M -19 4666 
L 3928 4666 
L 3928 4134 
L 2272 4134 
L 2272 0 
L 1638 0 
L 1638 4134 
L -19 4134 
L -19 4666 
z
" transform="scale(0.015625)"/>
     <path id="DejaVuSans-69" d="M 603 3500 
L 1178 3500 
L 1178 0 
L 603 0 
L 603 3500 
z
M 603 4863 
L 1178 4863 
L 1178 4134 
L 603 4134 
L 603 4863 
z
" transform="scale(0.015625)"/>
     <path id="DejaVuSans-6d" d="M 3328 2828 
Q 3544 3216 3844 3400 
Q 4144 3584 4550 3584 
Q 5097 3584 5394 3201 
Q 5691 2819 5691 2113 
L 5691 0 
L 5113 0 
L 5113 2094 
Q 5113 2597 4934 2840 
Q 4756 3084 4391 3084 
Q 3944 3084 3684 2787 
Q 3425 2491 3425 1978 
L 3425 0 
L 2847 0 
L 2847 2094 
Q 2847 2600 2669 2842 
Q 2491 3084 2119 3084 
Q 1678 3084 1418 2786 
Q 1159 2488 1159 1978 
L 1159 0 
L 581 0 
L 581 3500 
L 1159 3500 
L 1159 2956 
Q 1356 3278 1631 3431 
Q 1906 3584 2284 3584 
Q 2666 3584 2933 3390 
Q 3200 3197 3328 2828 
z
" transform="scale(0.015625)"/>
     <path id="DejaVuSans-65" d="M 3597 1894 
L 3597 1613 
L 953 1613 
Q 991 1019 1311 708 
Q 1631 397 2203 397 
Q 2534 397 2845 478 
Q 3156 559 3463 722 
L 3463 178 
Q 3153 47 2828 -22 
Q 2503 -91 2169 -91 
Q 1331 -91 842 396 
Q 353 884 353 1716 
Q 353 2575 817 3079 
Q 1281 3584 2069 3584 
Q 2775 3584 3186 3129 
Q 3597 2675 3597 1894 
z
M 3022 2063 
Q 3016 2534 2758 2815 
Q 2500 3097 2075 3097 
Q 1594 3097 1305 2825 
Q 1016 2553 972 2059 
L 3022 2063 
z
" transform="scale(0.015625)"/>
     <path id="DejaVuSans-20" transform="scale(0.015625)"/>
     <path id="DejaVuSans-6f" d="M 1959 3097 
Q 1497 3097 1228 2736 
Q 959 2375 959 1747 
Q 959 1119 1226 758 
Q 1494 397 1959 397 
Q 2419 397 2687 759 
Q 2956 1122 2956 1747 
Q 2956 2369 2687 2733 
Q 2419 3097 1959 3097 
z
M 1959 3584 
Q 2709 3584 3137 3096 
Q 3566 2609 3566 1747 
Q 3566 888 3137 398 
Q 2709 -91 1959 -91 
Q 1206 -91 779 398 
Q 353 888 353 1747 
Q 353 2609 779 3096 
Q 1206 3584 1959 3584 
z
" transform="scale(0.015625)"/>
     <path id="DejaVuSans-66" d="M 2375 4863 
L 2375 4384 
L 1825 4384 
Q 1516 4384 1395 4259 
Q 1275 4134 1275 3809 
L 1275 3500 
L 2222 3500 
L 2222 3053 
L 1275 3053 
L 1275 0 
L 697 0 
L 697 3053 
L 147 3053 
L 147 3500 
L 697 3500 
L 697 3744 
Q 697 4328 969 4595 
Q 1241 4863 1831 4863 
L 2375 4863 
z
" transform="scale(0.015625)"/>
     <path id="DejaVuSans-64" d="M 2906 2969 
L 2906 4863 
L 3481 4863 
L 3481 0 
L 2906 0 
L 2906 525 
Q 2725 213 2448 61 
Q 2172 -91 1784 -91 
Q 1150 -91 751 415 
Q 353 922 353 1747 
Q 353 2572 751 3078 
Q 1150 3584 1784 3584 
Q 2172 3584 2448 3432 
Q 2725 3281 2906 2969 
z
M 947 1747 
Q 947 1113 1208 752 
Q 1469 391 1925 391 
Q 2381 391 2643 752 
Q 2906 1113 2906 1747 
Q 2906 2381 2643 2742 
Q 2381 3103 1925 3103 
Q 1469 3103 1208 2742 
Q 947 2381 947 1747 
z
" transform="scale(0.015625)"/>
     <path id="DejaVuSans-61" d="M 2194 1759 
Q 1497 1759 1228 1600 
Q 959 1441 959 1056 
Q 959 750 1161 570 
Q 1363 391 1709 391 
Q 2188 391 2477 730 
Q 2766 1069 2766 1631 
L 2766 1759 
L 2194 1759 
z
M 3341 1997 
L 3341 0 
L 2766 0 
L 2766 531 
Q 2569 213 2275 61 
Q 1981 -91 1556 -91 
Q 1019 -91 701 211 
Q 384 513 384 1019 
Q 384 1609 779 1909 
Q 1175 2209 1959 2209 
L 2766 2209 
L 2766 2266 
Q 2766 2663 2505 2880 
Q 2244 3097 1772 3097 
Q 1472 3097 1187 3025 
Q 903 2953 641 2809 
L 641 3341 
Q 956 3463 1253 3523 
Q 1550 3584 1831 3584 
Q 2591 3584 2966 3190 
Q 3341 2797 3341 1997 
z
" transform="scale(0.015625)"/>
     <path id="DejaVuSans-79" d="M 2059 -325 
Q 1816 -950 1584 -1140 
Q 1353 -1331 966 -1331 
L 506 -1331 
L 506 -850 
L 844 -850 
Q 1081 -850 1212 -737 
Q 1344 -625 1503 -206 
L 1606 56 
L 191 3500 
L 800 3500 
L 1894 763 
L 2988 3500 
L 3597 3500 
L 2059 -325 
z
" transform="scale(0.015625)"/>
     <path id="DejaVuSans-28" d="M 1984 4856 
Q 1566 4138 1362 3434 
Q 1159 2731 1159 2009 
Q 1159 1288 1364 580 
Q 1569 -128 1984 -844 
L 1484 -844 
Q 1016 -109 783 600 
Q 550 1309 550 2009 
Q 550 2706 781 3412 
Q 1013 4119 1484 4856 
L 1984 4856 
z
" transform="scale(0.015625)"/>
     <path id="DejaVuSans-68" d="M 3513 2113 
L 3513 0 
L 2938 0 
L 2938 2094 
Q 2938 2591 2744 2837 
Q 2550 3084 2163 3084 
Q 1697 3084 1428 2787 
Q 1159 2491 1159 1978 
L 1159 0 
L 581 0 
L 581 4863 
L 1159 4863 
L 1159 2956 
Q 1366 3272 1645 3428 
Q 1925 3584 2291 3584 
Q 2894 3584 3203 3211 
Q 3513 2838 3513 2113 
z
" transform="scale(0.015625)"/>
     <path id="DejaVuSans-75" d="M 544 1381 
L 544 3500 
L 1119 3500 
L 1119 1403 
Q 1119 906 1312 657 
Q 1506 409 1894 409 
Q 2359 409 2629 706 
Q 2900 1003 2900 1516 
L 2900 3500 
L 3475 3500 
L 3475 0 
L 2900 0 
L 2900 538 
Q 2691 219 2414 64 
Q 2138 -91 1772 -91 
Q 1169 -91 856 284 
Q 544 659 544 1381 
z
M 1991 3584 
L 1991 3584 
z
" transform="scale(0.015625)"/>
     <path id="DejaVuSans-72" d="M 2631 2963 
Q 2534 3019 2420 3045 
Q 2306 3072 2169 3072 
Q 1681 3072 1420 2755 
Q 1159 2438 1159 1844 
L 1159 0 
L 581 0 
L 581 3500 
L 1159 3500 
L 1159 2956 
Q 1341 3275 1631 3429 
Q 1922 3584 2338 3584 
Q 2397 3584 2469 3576 
Q 2541 3569 2628 3553 
L 2631 2963 
z
" transform="scale(0.015625)"/>
     <path id="DejaVuSans-73" d="M 2834 3397 
L 2834 2853 
Q 2591 2978 2328 3040 
Q 2066 3103 1784 3103 
Q 1356 3103 1142 2972 
Q 928 2841 928 2578 
Q 928 2378 1081 2264 
Q 1234 2150 1697 2047 
L 1894 2003 
Q 2506 1872 2764 1633 
Q 3022 1394 3022 966 
Q 3022 478 2636 193 
Q 2250 -91 1575 -91 
Q 1294 -91 989 -36 
Q 684 19 347 128 
L 347 722 
Q 666 556 975 473 
Q 1284 391 1588 391 
Q 1994 391 2212 530 
Q 2431 669 2431 922 
Q 2431 1156 2273 1281 
Q 2116 1406 1581 1522 
L 1381 1569 
Q 847 1681 609 1914 
Q 372 2147 372 2553 
Q 372 3047 722 3315 
Q 1072 3584 1716 3584 
Q 2034 3584 2315 3537 
Q 2597 3491 2834 3397 
z
" transform="scale(0.015625)"/>
     <path id="DejaVuSans-29" d="M 513 4856 
L 1013 4856 
Q 1481 4119 1714 3412 
Q 1947 2706 1947 2009 
Q 1947 1309 1714 600 
Q 1481 -109 1013 -844 
L 513 -844 
Q 928 -128 1133 580 
Q 1338 1288 1338 2009 
Q 1338 2731 1133 3434 
Q 928 4138 513 4856 
z
" transform="scale(0.015625)"/>
    </defs>
    <use xlink:href="#DejaVuSans-54"/>
    <use xlink:href="#DejaVuSans-69" x="57.958984"/>
    <use xlink:href="#DejaVuSans-6d" x="85.742188"/>
    <use xlink:href="#DejaVuSans-65" x="183.154297"/>
    <use xlink:href="#DejaVuSans-20" x="244.677734"/>
    <use xlink:href="#DejaVuSans-6f" x="276.464844"/>
    <use xlink:href="#DejaVuSans-66" x="337.646484"/>
    <use xlink:href="#DejaVuSans-20" x="372.851562"/>
    <use xlink:href="#DejaVuSans-64" x="404.638672"/>
    <use xlink:href="#DejaVuSans-61" x="468.115234"/>
    <use xlink:href="#DejaVuSans-79" x="529.394531"/>
    <use xlink:href="#DejaVuSans-20" x="588.574219"/>
    <use xlink:href="#DejaVuSans-28" x="620.361328"/>
    <use xlink:href="#DejaVuSans-68" x="659.375"/>
    <use xlink:href="#DejaVuSans-6f" x="722.753906"/>
    <use xlink:href="#DejaVuSans-75" x="783.935547"/>
    <use xlink:href="#DejaVuSans-72" x="847.314453"/>
    <use xlink:href="#DejaVuSans-73" x="888.427734"/>
    <use xlink:href="#DejaVuSans-29" x="940.527344"/>
   </g>
  </g>
  <g id="text_22">
   <!-- Activity counts per minute -->
   <g transform="translate(20.918438 273.765187) rotate(-90) scale(0.1 -0.1)">
    <defs>
     <path id="DejaVuSans-41" d="M 2188 4044 
L 1331 1722 
L 3047 1722 
L 2188 4044 
z
M 1831 4666 
L 2547 4666 
L 4325 0 
L 3669 0 
L 3244 1197 
L 1141 1197 
L 716 0 
L 50 0 
L 1831 4666 
z
" transform="scale(0.015625)"/>
     <path id="DejaVuSans-63" d="M 3122 3366 
L 3122 2828 
Q 2878 2963 2633 3030 
Q 2388 3097 2138 3097 
Q 1578 3097 1268 2742 
Q 959 2388 959 1747 
Q 959 1106 1268 751 
Q 1578 397 2138 397 
Q 2388 397 2633 464 
Q 2878 531 3122 666 
L 3122 134 
Q 2881 22 2623 -34 
Q 2366 -91 2075 -91 
Q 1284 -91 818 406 
Q 353 903 353 1747 
Q 353 2603 823 3093 
Q 1294 3584 2113 3584 
Q 2378 3584 2631 3529 
Q 2884 3475 3122 3366 
z
" transform="scale(0.015625)"/>
     <path id="DejaVuSans-74" d="M 1172 4494 
L 1172 3500 
L 2356 3500 
L 2356 3053 
L 1172 3053 
L 1172 1153 
Q 1172 725 1289 603 
Q 1406 481 1766 481 
L 2356 481 
L 2356 0 
L 1766 0 
Q 1100 0 847 248 
Q 594 497 594 1153 
L 594 3053 
L 172 3053 
L 172 3500 
L 594 3500 
L 594 4494 
L 1172 4494 
z
" transform="scale(0.015625)"/>
     <path id="DejaVuSans-76" d="M 191 3500 
L 800 3500 
L 1894 563 
L 2988 3500 
L 3597 3500 
L 2284 0 
L 1503 0 
L 191 3500 
z
" transform="scale(0.015625)"/>
     <path id="DejaVuSans-6e" d="M 3513 2113 
L 3513 0 
L 2938 0 
L 2938 2094 
Q 2938 2591 2744 2837 
Q 2550 3084 2163 3084 
Q 1697 3084 1428 2787 
Q 1159 2491 1159 1978 
L 1159 0 
L 581 0 
L 581 3500 
L 1159 3500 
L 1159 2956 
Q 1366 3272 1645 3428 
Q 1925 3584 2291 3584 
Q 2894 3584 3203 3211 
Q 3513 2838 3513 2113 
z
" transform="scale(0.015625)"/>
     <path id="DejaVuSans-70" d="M 1159 525 
L 1159 -1331 
L 581 -1331 
L 581 3500 
L 1159 3500 
L 1159 2969 
Q 1341 3281 1617 3432 
Q 1894 3584 2278 3584 
Q 2916 3584 3314 3078 
Q 3713 2572 3713 1747 
Q 3713 922 3314 415 
Q 2916 -91 2278 -91 
Q 1894 -91 1617 61 
Q 1341 213 1159 525 
z
M 3116 1747 
Q 3116 2381 2855 2742 
Q 2594 3103 2138 3103 
Q 1681 3103 1420 2742 
Q 1159 2381 1159 1747 
Q 1159 1113 1420 752 
Q 1681 391 2138 391 
Q 2594 391 2855 752 
Q 3116 1113 3116 1747 
z
" transform="scale(0.015625)"/>
    </defs>
    <use xlink:href="#DejaVuSans-41"/>
    <use xlink:href="#DejaVuSans-63" x="66.658203"/>
    <use xlink:href="#DejaVuSans-74" x="121.638672"/>
    <use xlink:href="#DejaVuSans-69" x="160.847656"/>
    <use xlink:href="#DejaVuSans-76" x="188.630859"/>
    <use xlink:href="#DejaVuSans-69" x="247.810547"/>
    <use xlink:href="#DejaVuSans-74" x="275.59375"/>
    <use xlink:href="#DejaVuSans-79" x="314.802734"/>
    <use xlink:href="#DejaVuSans-20" x="373.982422"/>
    <use xlink:href="#DejaVuSans-63" x="405.769531"/>
    <use xlink:href="#DejaVuSans-6f" x="460.75"/>
    <use xlink:href="#DejaVuSans-75" x="521.931641"/>
    <use xlink:href="#DejaVuSans-6e" x="585.310547"/>
    <use xlink:href="#DejaVuSans-74" x="648.689453"/>
    <use xlink:href="#DejaVuSans-73" x="687.898438"/>
    <use xlink:href="#DejaVuSans-20" x="739.998047"/>
    <use xlink:href="#DejaVuSans-70" x="771.785156"/>
    <use xlink:href="#DejaVuSans-65" x="835.261719"/>
    <use xlink:href="#DejaVuSans-72" x="896.785156"/>
    <use xlink:href="#DejaVuSans-20" x="937.898438"/>
    <use xlink:href="#DejaVuSans-6d" x="969.685547"/>
    <use xlink:href="#DejaVuSans-69" x="1067.097656"/>
    <use xlink:href="#DejaVuSans-6e" x="1094.880859"/>
    <use xlink:href="#DejaVuSans-75" x="1158.259766"/>
    <use xlink:href="#DejaVuSans-74" x="1221.638672"/>
    <use xlink:href="#DejaVuSans-65" x="1260.847656"/>
   </g>
  </g>
  <g id="text_23">
   <!-- Activity-count profiles by participant-day -->
   <g transform="translate(167.535 16.318125) scale(0.12 -0.12)">
    <defs>
     <path id="DejaVuSans-Bold-41" d="M 3419 850 
L 1538 850 
L 1241 0 
L 31 0 
L 1759 4666 
L 3194 4666 
L 4922 0 
L 3713 0 
L 3419 850 
z
M 1838 1716 
L 3116 1716 
L 2478 3572 
L 1838 1716 
z
" transform="scale(0.015625)"/>
     <path id="DejaVuSans-Bold-76" d="M 97 3500 
L 1216 3500 
L 2088 1081 
L 2956 3500 
L 4078 3500 
L 2700 0 
L 1472 0 
L 97 3500 
z
" transform="scale(0.015625)"/>
     <path id="DejaVuSans-Bold-79" d="M 78 3500 
L 1197 3500 
L 2138 1125 
L 2938 3500 
L 4056 3500 
L 2584 -331 
Q 2363 -916 2067 -1148 
Q 1772 -1381 1288 -1381 
L 641 -1381 
L 641 -647 
L 991 -647 
Q 1275 -647 1404 -556 
Q 1534 -466 1606 -231 
L 1638 -134 
L 78 3500 
z
" transform="scale(0.015625)"/>
     <path id="DejaVuSans-Bold-2d" d="M 347 2297 
L 2309 2297 
L 2309 1388 
L 347 1388 
L 347 2297 
z
" transform="scale(0.015625)"/>
     <path id="DejaVuSans-Bold-6f" d="M 2203 2784 
Q 1831 2784 1636 2517 
Q 1441 2250 1441 1747 
Q 1441 1244 1636 976 
Q 1831 709 2203 709 
Q 2569 709 2762 976 
Q 2956 1244 2956 1747 
Q 2956 2250 2762 2517 
Q 2569 2784 2203 2784 
z
M 2203 3584 
Q 3106 3584 3614 3096 
Q 4122 2609 4122 1747 
Q 4122 884 3614 396 
Q 3106 -91 2203 -91 
Q 1297 -91 786 396 
Q 275 884 275 1747 
Q 275 2609 786 3096 
Q 1297 3584 2203 3584 
z
" transform="scale(0.015625)"/>
     <path id="DejaVuSans-Bold-75" d="M 500 1363 
L 500 3500 
L 1625 3500 
L 1625 3150 
Q 1625 2866 1622 2436 
Q 1619 2006 1619 1863 
Q 1619 1441 1641 1255 
Q 1663 1069 1716 984 
Q 1784 875 1895 815 
Q 2006 756 2150 756 
Q 2500 756 2700 1025 
Q 2900 1294 2900 1772 
L 2900 3500 
L 4019 3500 
L 4019 0 
L 2900 0 
L 2900 506 
Q 2647 200 2364 54 
Q 2081 -91 1741 -91 
Q 1134 -91 817 281 
Q 500 653 500 1363 
z
" transform="scale(0.015625)"/>
     <path id="DejaVuSans-Bold-66" d="M 2841 4863 
L 2841 4128 
L 2222 4128 
Q 1984 4128 1890 4042 
Q 1797 3956 1797 3744 
L 1797 3500 
L 2753 3500 
L 2753 2700 
L 1797 2700 
L 1797 0 
L 678 0 
L 678 2700 
L 122 2700 
L 122 3500 
L 678 3500 
L 678 3744 
Q 678 4316 997 4589 
Q 1316 4863 1984 4863 
L 2841 4863 
z
" transform="scale(0.015625)"/>
     <path id="DejaVuSans-Bold-6c" d="M 538 4863 
L 1656 4863 
L 1656 0 
L 538 0 
L 538 4863 
z
" transform="scale(0.015625)"/>
     <path id="DejaVuSans-Bold-65" d="M 4031 1759 
L 4031 1441 
L 1416 1441 
Q 1456 1047 1700 850 
Q 1944 653 2381 653 
Q 2734 653 3104 758 
Q 3475 863 3866 1075 
L 3866 213 
Q 3469 63 3072 -14 
Q 2675 -91 2278 -91 
Q 1328 -91 801 392 
Q 275 875 275 1747 
Q 275 2603 792 3093 
Q 1309 3584 2216 3584 
Q 3041 3584 3536 3087 
Q 4031 2591 4031 1759 
z
M 2881 2131 
Q 2881 2450 2695 2645 
Q 2509 2841 2209 2841 
Q 1884 2841 1681 2658 
Q 1478 2475 1428 2131 
L 2881 2131 
z
" transform="scale(0.015625)"/>
     <path id="DejaVuSans-Bold-73" d="M 3272 3391 
L 3272 2541 
Q 2913 2691 2578 2766 
Q 2244 2841 1947 2841 
Q 1628 2841 1473 2761 
Q 1319 2681 1319 2516 
Q 1319 2381 1436 2309 
Q 1553 2238 1856 2203 
L 2053 2175 
Q 2913 2066 3209 1816 
Q 3506 1566 3506 1031 
Q 3506 472 3093 190 
Q 2681 -91 1863 -91 
Q 1516 -91 1145 -36 
Q 775 19 384 128 
L 384 978 
Q 719 816 1070 734 
Q 1422 653 1784 653 
Q 2113 653 2278 743 
Q 2444 834 2444 1013 
Q 2444 1163 2330 1236 
Q 2216 1309 1875 1350 
L 1678 1375 
Q 931 1469 631 1722 
Q 331 1975 331 2491 
Q 331 3047 712 3315 
Q 1094 3584 1881 3584 
Q 2191 3584 2531 3537 
Q 2872 3491 3272 3391 
z
" transform="scale(0.015625)"/>
     <path id="DejaVuSans-Bold-62" d="M 2400 722 
Q 2759 722 2948 984 
Q 3138 1247 3138 1747 
Q 3138 2247 2948 2509 
Q 2759 2772 2400 2772 
Q 2041 2772 1848 2508 
Q 1656 2244 1656 1747 
Q 1656 1250 1848 986 
Q 2041 722 2400 722 
z
M 1656 2988 
Q 1888 3294 2169 3439 
Q 2450 3584 2816 3584 
Q 3463 3584 3878 3070 
Q 4294 2556 4294 1747 
Q 4294 938 3878 423 
Q 3463 -91 2816 -91 
Q 2450 -91 2169 54 
Q 1888 200 1656 506 
L 1656 0 
L 538 0 
L 538 4863 
L 1656 4863 
L 1656 2988 
z
" transform="scale(0.015625)"/>
     <path id="DejaVuSans-Bold-64" d="M 2919 2988 
L 2919 4863 
L 4044 4863 
L 4044 0 
L 2919 0 
L 2919 506 
Q 2688 197 2409 53 
Q 2131 -91 1766 -91 
Q 1119 -91 703 423 
Q 288 938 288 1747 
Q 288 2556 703 3070 
Q 1119 3584 1766 3584 
Q 2128 3584 2408 3439 
Q 2688 3294 2919 2988 
z
M 2181 722 
Q 2541 722 2730 984 
Q 2919 1247 2919 1747 
Q 2919 2247 2730 2509 
Q 2541 2772 2181 2772 
Q 1825 2772 1636 2509 
Q 1447 2247 1447 1747 
Q 1447 1247 1636 984 
Q 1825 722 2181 722 
z
" transform="scale(0.015625)"/>
    </defs>
    <use xlink:href="#DejaVuSans-Bold-41"/>
    <use xlink:href="#DejaVuSans-Bold-63" x="77.392578"/>
    <use xlink:href="#DejaVuSans-Bold-74" x="136.669922"/>
    <use xlink:href="#DejaVuSans-Bold-69" x="184.472656"/>
    <use xlink:href="#DejaVuSans-Bold-76" x="218.75"/>
    <use xlink:href="#DejaVuSans-Bold-69" x="283.935547"/>
    <use xlink:href="#DejaVuSans-Bold-74" x="318.212891"/>
    <use xlink:href="#DejaVuSans-Bold-79" x="366.015625"/>
    <use xlink:href="#DejaVuSans-Bold-2d" x="431.201172"/>
    <use xlink:href="#DejaVuSans-Bold-63" x="472.705078"/>
    <use xlink:href="#DejaVuSans-Bold-6f" x="531.982422"/>
    <use xlink:href="#DejaVuSans-Bold-75" x="600.683594"/>
    <use xlink:href="#DejaVuSans-Bold-6e" x="671.875"/>
    <use xlink:href="#DejaVuSans-Bold-74" x="743.066406"/>
    <use xlink:href="#DejaVuSans-Bold-20" x="790.869141"/>
    <use xlink:href="#DejaVuSans-Bold-70" x="825.683594"/>
    <use xlink:href="#DejaVuSans-Bold-72" x="897.265625"/>
    <use xlink:href="#DejaVuSans-Bold-6f" x="946.582031"/>
    <use xlink:href="#DejaVuSans-Bold-66" x="1015.283203"/>
    <use xlink:href="#DejaVuSans-Bold-69" x="1058.789062"/>
    <use xlink:href="#DejaVuSans-Bold-6c" x="1093.066406"/>
    <use xlink:href="#DejaVuSans-Bold-65" x="1127.34375"/>
    <use xlink:href="#DejaVuSans-Bold-73" x="1195.166016"/>
    <use xlink:href="#DejaVuSans-Bold-20" x="1254.6875"/>
    <use xlink:href="#DejaVuSans-Bold-62" x="1289.501953"/>
    <use xlink:href="#DejaVuSans-Bold-79" x="1361.083984"/>
    <use xlink:href="#DejaVuSans-Bold-20" x="1426.269531"/>
    <use xlink:href="#DejaVuSans-Bold-70" x="1461.083984"/>
    <use xlink:href="#DejaVuSans-Bold-61" x="1532.666016"/>
    <use xlink:href="#DejaVuSans-Bold-72" x="1600.146484"/>
    <use xlink:href="#DejaVuSans-Bold-74" x="1649.462891"/>
    <use xlink:href="#DejaVuSans-Bold-69" x="1697.265625"/>
    <use xlink:href="#DejaVuSans-Bold-63" x="1731.542969"/>
    <use xlink:href="#DejaVuSans-Bold-69" x="1790.820312"/>
    <use xlink:href="#DejaVuSans-Bold-70" x="1825.097656"/>
    <use xlink:href="#DejaVuSans-Bold-61" x="1896.679688"/>
    <use xlink:href="#DejaVuSans-Bold-6e" x="1964.160156"/>
    <use xlink:href="#DejaVuSans-Bold-74" x="2035.351562"/>
    <use xlink:href="#DejaVuSans-Bold-2d" x="2083.154297"/>
    <use xlink:href="#DejaVuSans-Bold-64" x="2124.658203"/>
    <use xlink:href="#DejaVuSans-Bold-61" x="2196.240234"/>
    <use xlink:href="#DejaVuSans-Bold-79" x="2260.595703"/>
   </g>
  </g>
  <g id="text_24">
   <g id="patch_14">
    <path d="M 5.68 413.792 
L 239.98625 413.792 
L 239.98625 403.0095 
L 5.68 403.0095 
z
" style="fill: #ffffff; opacity: 0.92"/>
   </g>
   <!-- Illustrative example generated from simulated mock data -->
   <g style="fill: #56636f" transform="translate(7.2 410.60825) scale(0.08 -0.08)">
    <defs>
     <path id="DejaVuSans-49" d="M 628 4666 
L 1259 4666 
L 1259 0 
L 628 0 
L 628 4666 
z
" transform="scale(0.015625)"/>
     <path id="DejaVuSans-6c" d="M 603 4863 
L 1178 4863 
L 1178 0 
L 603 0 
L 603 4863 
z
" transform="scale(0.015625)"/>
     <path id="DejaVuSans-78" d="M 3513 3500 
L 2247 1797 
L 3578 0 
L 2900 0 
L 1881 1375 
L 863 0 
L 184 0 
L 1544 1831 
L 300 3500 
L 978 3500 
L 1906 2253 
L 2834 3500 
L 3513 3500 
z
" transform="scale(0.015625)"/>
     <path id="DejaVuSans-67" d="M 2906 1791 
Q 2906 2416 2648 2759 
Q 2391 3103 1925 3103 
Q 1463 3103 1205 2759 
Q 947 2416 947 1791 
Q 947 1169 1205 825 
Q 1463 481 1925 481 
Q 2391 481 2648 825 
Q 2906 1169 2906 1791 
z
M 3481 434 
Q 3481 -459 3084 -895 
Q 2688 -1331 1869 -1331 
Q 1566 -1331 1297 -1286 
Q 1028 -1241 775 -1147 
L 775 -588 
Q 1028 -725 1275 -790 
Q 1522 -856 1778 -856 
Q 2344 -856 2625 -561 
Q 2906 -266 2906 331 
L 2906 616 
Q 2728 306 2450 153 
Q 2172 0 1784 0 
Q 1141 0 747 490 
Q 353 981 353 1791 
Q 353 2603 747 3093 
Q 1141 3584 1784 3584 
Q 2172 3584 2450 3431 
Q 2728 3278 2906 2969 
L 2906 3500 
L 3481 3500 
L 3481 434 
z
" transform="scale(0.015625)"/>
     <path id="DejaVuSans-6b" d="M 581 4863 
L 1159 4863 
L 1159 1991 
L 2875 3500 
L 3609 3500 
L 1753 1863 
L 3688 0 
L 2938 0 
L 1159 1709 
L 1159 0 
L 581 0 
L 581 4863 
z
" transform="scale(0.015625)"/>
    </defs>
    <use xlink:href="#DejaVuSans-49"/>
    <use xlink:href="#DejaVuSans-6c" x="29.492188"/>
    <use xlink:href="#DejaVuSans-6c" x="57.275391"/>
    <use xlink:href="#DejaVuSans-75" x="85.058594"/>
    <use xlink:href="#DejaVuSans-73" x="148.4375"/>
    <use xlink:href="#DejaVuSans-74" x="200.537109"/>
    <use xlink:href="#DejaVuSans-72" x="239.746094"/>
    <use xlink:href="#DejaVuSans-61" x="280.859375"/>
    <use xlink:href="#DejaVuSans-74" x="342.138672"/>
    <use xlink:href="#DejaVuSans-69" x="381.347656"/>
    <use xlink:href="#DejaVuSans-76" x="409.130859"/>
    <use xlink:href="#DejaVuSans-65" x="468.310547"/>
    <use xlink:href="#DejaVuSans-20" x="529.833984"/>
    <use xlink:href="#DejaVuSans-65" x="561.621094"/>
    <use xlink:href="#DejaVuSans-78" x="621.394531"/>
    <use xlink:href="#DejaVuSans-61" x="680.574219"/>
    <use xlink:href="#DejaVuSans-6d" x="741.853516"/>
    <use xlink:href="#DejaVuSans-70" x="839.265625"/>
    <use xlink:href="#DejaVuSans-6c" x="902.742188"/>
    <use xlink:href="#DejaVuSans-65" x="930.525391"/>
    <use xlink:href="#DejaVuSans-20" x="992.048828"/>
    <use xlink:href="#DejaVuSans-67" x="1023.835938"/>
    <use xlink:href="#DejaVuSans-65" x="1087.3125"/>
    <use xlink:href="#DejaVuSans-6e" x="1148.835938"/>
    <use xlink:href="#DejaVuSans-65" x="1212.214844"/>
    <use xlink:href="#DejaVuSans-72" x="1273.738281"/>
    <use xlink:href="#DejaVuSans-61" x="1314.851562"/>
    <use xlink:href="#DejaVuSans-74" x="1376.130859"/>
    <use xlink:href="#DejaVuSans-65" x="1415.339844"/>
    <use xlink:href="#DejaVuSans-64" x="1476.863281"/>
    <use xlink:href="#DejaVuSans-20" x="1540.339844"/>
    <use xlink:href="#DejaVuSans-66" x="1572.126953"/>
    <use xlink:href="#DejaVuSans-72" x="1607.332031"/>
    <use xlink:href="#DejaVuSans-6f" x="1646.195312"/>
    <use xlink:href="#DejaVuSans-6d" x="1707.376953"/>
    <use xlink:href="#DejaVuSans-20" x="1804.789062"/>
    <use xlink:href="#DejaVuSans-73" x="1836.576172"/>
    <use xlink:href="#DejaVuSans-69" x="1888.675781"/>
    <use xlink:href="#DejaVuSans-6d" x="1916.458984"/>
    <use xlink:href="#DejaVuSans-75" x="2013.871094"/>
    <use xlink:href="#DejaVuSans-6c" x="2077.25"/>
    <use xlink:href="#DejaVuSans-61" x="2105.033203"/>
    <use xlink:href="#DejaVuSans-74" x="2166.3125"/>
    <use xlink:href="#DejaVuSans-65" x="2205.521484"/>
    <use xlink:href="#DejaVuSans-64" x="2267.044922"/>
    <use xlink:href="#DejaVuSans-20" x="2330.521484"/>
    <use xlink:href="#DejaVuSans-6d" x="2362.308594"/>
    <use xlink:href="#DejaVuSans-6f" x="2459.720703"/>
    <use xlink:href="#DejaVuSans-63" x="2520.902344"/>
    <use xlink:href="#DejaVuSans-6b" x="2575.882812"/>
    <use xlink:href="#DejaVuSans-20" x="2633.792969"/>
    <use xlink:href="#DejaVuSans-64" x="2665.580078"/>
    <use xlink:href="#DejaVuSans-61" x="2729.056641"/>
    <use xlink:href="#DejaVuSans-74" x="2790.335938"/>
    <use xlink:href="#DejaVuSans-61" x="2829.544922"/>
   </g>
  </g>
 </g>
 <defs>
  <clipPath id="p260ef28f43">
   <rect x="67.31" y="73.104" width="262.085" height="114.368014"/>
  </clipPath>
  <clipPath id="p619462f940">
   <rect x="340.195" y="73.104" width="262.085" height="114.368014"/>
  </clipPath>
  <clipPath id="p2f9a59e02b">
   <rect x="67.31" y="210.207986" width="262.085" height="114.368014"/>
  </clipPath>
  <clipPath id="p0273c50bc7">
   <rect x="340.195" y="210.207986" width="262.085" height="114.368014"/>
  </clipPath>
 </defs>
</svg>
