<?xml version="1.0" encoding="utf-8" standalone="no"?>
<!DOCTYPE svg PUBLIC "-//W3C//DTD SVG 1.1//EN"
  "http://www.w3.org/Graphics/SVG/1.1/DTD/svg11.dtd">
<svg xmlns:xlink="http://www.w3.org/1999/xlink" width="527.04pt" height="305.893969pt" viewBox="0 0 527.04 305.893969" xmlns="http://www.w3.org/2000/svg" version="1.1">
 <metadata>
  <rdf:RDF xmlns:dc="http://purl.org/dc/elements/1.1/" xmlns:cc="http://creativecommons.org/ns#" xmlns:rdf="http://www.w3.org/1999/02/22-rdf-syntax-ns#">
   <cc:Work>
    <dc:type rdf:resource="http://purl.org/dc/dcmitype/StillImage"/>
    <dc:date>2026-06-25T11:31:56.518864</dc:date>
    <dc:format>image/svg+xml</dc:format>
    <dc:creator>
     <cc:Agent>
      <dc:title>Matplotlib v3.8.2, https://matplotlib.org/</dc:title>
     </cc:Agent>
    </dc:creator>
   </cc:Work>
  </rdf:RDF>
 </metadata>
 <defs>
  <style type="text/css">*{stroke-linejoin: round; stroke-linecap: butt}</style>
 </defs>
 <g id="figure_1">
  <g id="patch_1">
   <path d="M 0 305.893969 
L 527.04 305.893969 
L 527.04 0 
L 0 0 
z
" style="fill: #ffffff"/>
  </g>
  <g id="axes_1">
   <g id="patch_2">
    <path d="M 73.44 267.013969 
L 519.84 267.013969 
L 519.84 23.077969 
L 73.44 23.077969 
z
" style="fill: #ffffff"/>
   </g>
   <g id="matplotlib.axis_1">
    <g id="xtick_1">
     <g id="line2d_1">
      <path d="M 93.730909 267.013969 
L 93.730909 23.077969 
" clip-path="url(#p359abc20f1)" style="fill: none; stroke: #d9dedb; stroke-opacity: 0.85; stroke-width: 0.8; stroke-linecap: square"/>
     </g>
     <g id="line2d_2"/>
     <g id="text_1">
      <!-- 0 -->
      <g style="fill: #56636f" transform="translate(90.549659 278.112406) scale(0.1 -0.1)">
       <defs>
        <path id="DejaVuSans-30" d="M 2034 4250 
Q 1547 4250 1301 3770 
Q 1056 3291 1056 2328 
Q 1056 1369 1301 889 
Q 1547 409 2034 409 
Q 2525 409 2770 889 
Q 3016 1369 3016 2328 
Q 3016 3291 2770 3770 
Q 2525 4250 2034 4250 
z
M 2034 4750 
Q 2819 4750 3233 4129 
Q 3647 3509 3647 2328 
Q 3647 1150 3233 529 
Q 2819 -91 2034 -91 
Q 1250 -91 836 529 
Q 422 1150 422 2328 
Q 422 3509 836 4129 
Q 1250 4750 2034 4750 
z
" transform="scale(0.015625)"/>
       </defs>
       <use xlink:href="#DejaVuSans-30"/>
      </g>
     </g>
    </g>
    <g id="xtick_2">
     <g id="line2d_3">
      <path d="M 161.367273 267.013969 
L 161.367273 23.077969 
" clip-path="url(#p359abc20f1)" style="fill: none; stroke: #d9dedb; stroke-opacity: 0.85; stroke-width: 0.8; stroke-linecap: square"/>
     </g>
     <g id="line2d_4"/>
     <g id="text_2">
      <!-- 4 -->
      <g style="fill: #56636f" transform="translate(158.186023 278.112406) scale(0.1 -0.1)">
       <defs>
        <path id="DejaVuSans-34" d="M 2419 4116 
L 825 1625 
L 2419 1625 
L 2419 4116 
z
M 2253 4666 
L 3047 4666 
L 3047 1625 
L 3713 1625 
L 3713 1100 
L 3047 1100 
L 3047 0 
L 2419 0 
L 2419 1100 
L 313 1100 
L 313 1709 
L 2253 4666 
z
" transform="scale(0.015625)"/>
       </defs>
       <use xlink:href="#DejaVuSans-34"/>
      </g>
     </g>
    </g>
    <g id="xtick_3">
     <g id="line2d_5">
      <path d="M 229.003636 267.013969 
L 229.003636 23.077969 
" clip-path="url(#p359abc20f1)" style="fill: none; stroke: #d9dedb; stroke-opacity: 0.85; stroke-width: 0.8; stroke-linecap: square"/>
     </g>
     <g id="line2d_6"/>
     <g id="text_3">
      <!-- 8 -->
      <g style="fill: #56636f" transform="translate(225.822386 278.112406) scale(0.1 -0.1)">
       <defs>
        <path id="DejaVuSans-38" d="M 2034 2216 
Q 1584 2216 1326 1975 
Q 1069 1734 1069 1313 
Q 1069 891 1326 650 
Q 1584 409 2034 409 
Q 2484 409 2743 651 
Q 3003 894 3003 1313 
Q 3003 1734 2745 1975 
Q 2488 2216 2034 2216 
z
M 1403 2484 
Q 997 2584 770 2862 
Q 544 3141 544 3541 
Q 544 4100 942 4425 
Q 1341 4750 2034 4750 
Q 2731 4750 3128 4425 
Q 3525 4100 3525 3541 
Q 3525 3141 3298 2862 
Q 3072 2584 2669 2484 
Q 3125 2378 3379 2068 
Q 3634 1759 3634 1313 
Q 3634 634 3220 271 
Q 2806 -91 2034 -91 
Q 1263 -91 848 271 
Q 434 634 434 1313 
Q 434 1759 690 2068 
Q 947 2378 1403 2484 
z
M 1172 3481 
Q 1172 3119 1398 2916 
Q 1625 2713 2034 2713 
Q 2441 2713 2670 2916 
Q 2900 3119 2900 3481 
Q 2900 3844 2670 4047 
Q 2441 4250 2034 4250 
Q 1625 4250 1398 4047 
Q 1172 3844 1172 3481 
z
" transform="scale(0.015625)"/>
       </defs>
       <use xlink:href="#DejaVuSans-38"/>
      </g>
     </g>
    </g>
    <g id="xtick_4">
     <g id="line2d_7">
      <path d="M 296.64 267.013969 
L 296.64 23.077969 
" clip-path="url(#p359abc20f1)" style="fill: none; stroke: #d9dedb; stroke-opacity: 0.85; stroke-width: 0.8; stroke-linecap: square"/>
     </g>
     <g id="line2d_8"/>
     <g id="text_4">
      <!-- 12 -->
      <g style="fill: #56636f" transform="translate(290.2775 278.112406) scale(0.1 -0.1)">
       <defs>
        <path id="DejaVuSans-31" d="M 794 531 
L 1825 531 
L 1825 4091 
L 703 3866 
L 703 4441 
L 1819 4666 
L 2450 4666 
L 2450 531 
L 3481 531 
L 3481 0 
L 794 0 
L 794 531 
z
" transform="scale(0.015625)"/>
        <path id="DejaVuSans-32" d="M 1228 531 
L 3431 531 
L 3431 0 
L 469 0 
L 469 531 
Q 828 903 1448 1529 
Q 2069 2156 2228 2338 
Q 2531 2678 2651 2914 
Q 2772 3150 2772 3378 
Q 2772 3750 2511 3984 
Q 2250 4219 1831 4219 
Q 1534 4219 1204 4116 
Q 875 4013 500 3803 
L 500 4441 
Q 881 4594 1212 4672 
Q 1544 4750 1819 4750 
Q 2544 4750 2975 4387 
Q 3406 4025 3406 3419 
Q 3406 3131 3298 2873 
Q 3191 2616 2906 2266 
Q 2828 2175 2409 1742 
Q 1991 1309 1228 531 
z
" transform="scale(0.015625)"/>
       </defs>
       <use xlink:href="#DejaVuSans-31"/>
       <use xlink:href="#DejaVuSans-32" x="63.623047"/>
      </g>
     </g>
    </g>
    <g id="xtick_5">
     <g id="line2d_9">
      <path d="M 364.276364 267.013969 
L 364.276364 23.077969 
" clip-path="url(#p359abc20f1)" style="fill: none; stroke: #d9dedb; stroke-opacity: 0.85; stroke-width: 0.8; stroke-linecap: square"/>
     </g>
     <g id="line2d_10"/>
     <g id="text_5">
      <!-- 16 -->
      <g style="fill: #56636f" transform="translate(357.913864 278.112406) scale(0.1 -0.1)">
       <defs>
        <path id="DejaVuSans-36" d="M 2113 2584 
Q 1688 2584 1439 2293 
Q 1191 2003 1191 1497 
Q 1191 994 1439 701 
Q 1688 409 2113 409 
Q 2538 409 2786 701 
Q 3034 994 3034 1497 
Q 3034 2003 2786 2293 
Q 2538 2584 2113 2584 
z
M 3366 4563 
L 3366 3988 
Q 3128 4100 2886 4159 
Q 2644 4219 2406 4219 
Q 1781 4219 1451 3797 
Q 1122 3375 1075 2522 
Q 1259 2794 1537 2939 
Q 1816 3084 2150 3084 
Q 2853 3084 3261 2657 
Q 3669 2231 3669 1497 
Q 3669 778 3244 343 
Q 2819 -91 2113 -91 
Q 1303 -91 875 529 
Q 447 1150 447 2328 
Q 447 3434 972 4092 
Q 1497 4750 2381 4750 
Q 2619 4750 2861 4703 
Q 3103 4656 3366 4563 
z
" transform="scale(0.015625)"/>
       </defs>
       <use xlink:href="#DejaVuSans-31"/>
       <use xlink:href="#DejaVuSans-36" x="63.623047"/>
      </g>
     </g>
    </g>
    <g id="xtick_6">
     <g id="line2d_11">
      <path d="M 431.912727 267.013969 
L 431.912727 23.077969 
" clip-path="url(#p359abc20f1)" style="fill: none; stroke: #d9dedb; stroke-opacity: 0.85; stroke-width: 0.8; stroke-linecap: square"/>
     </g>
     <g id="line2d_12"/>
     <g id="text_6">
      <!-- 20 -->
      <g style="fill: #56636f" transform="translate(425.550227 278.112406) scale(0.1 -0.1)">
       <use xlink:href="#DejaVuSans-32"/>
       <use xlink:href="#DejaVuSans-30" x="63.623047"/>
      </g>
     </g>
    </g>
    <g id="xtick_7">
     <g id="line2d_13">
      <path d="M 499.549091 267.013969 
L 499.549091 23.077969 
" clip-path="url(#p359abc20f1)" style="fill: none; stroke: #d9dedb; stroke-opacity: 0.85; stroke-width: 0.8; stroke-linecap: square"/>
     </g>
     <g id="line2d_14"/>
     <g id="text_7">
      <!-- 24 -->
      <g style="fill: #56636f" transform="translate(493.186591 278.112406) scale(0.1 -0.1)">
       <use xlink:href="#DejaVuSans-32"/>
       <use xlink:href="#DejaVuSans-34" x="63.623047"/>
      </g>
     </g>
    </g>
    <g id="text_8">
     <!-- Time of day (hours) -->
     <g style="fill: #17212b" transform="translate(247.663437 291.790531) scale(0.1 -0.1)">
      <defs>
       <path id="DejaVuSans-54" d="M -19 4666 
L 3928 4666 
L 3928 4134 
L 2272 4134 
L 2272 0 
L 1638 0 
L 1638 4134 
L -19 4134 
L -19 4666 
z
" transform="scale(0.015625)"/>
       <path id="DejaVuSans-69" d="M 603 3500 
L 1178 3500 
L 1178 0 
L 603 0 
L 603 3500 
z
M 603 4863 
L 1178 4863 
L 1178 4134 
L 603 4134 
L 603 4863 
z
" transform="scale(0.015625)"/>
       <path id="DejaVuSans-6d" d="M 3328 2828 
Q 3544 3216 3844 3400 
Q 4144 3584 4550 3584 
Q 5097 3584 5394 3201 
Q 5691 2819 5691 2113 
L 5691 0 
L 5113 0 
L 5113 2094 
Q 5113 2597 4934 2840 
Q 4756 3084 4391 3084 
Q 3944 3084 3684 2787 
Q 3425 2491 3425 1978 
L 3425 0 
L 2847 0 
L 2847 2094 
Q 2847 2600 2669 2842 
Q 2491 3084 2119 3084 
Q 1678 3084 1418 2786 
Q 1159 2488 1159 1978 
L 1159 0 
L 581 0 
L 581 3500 
L 1159 3500 
L 1159 2956 
Q 1356 3278 1631 3431 
Q 1906 3584 2284 3584 
Q 2666 3584 2933 3390 
Q 3200 3197 3328 2828 
z
" transform="scale(0.015625)"/>
       <path id="DejaVuSans-65" d="M 3597 1894 
L 3597 1613 
L 953 1613 
Q 991 1019 1311 708 
Q 1631 397 2203 397 
Q 2534 397 2845 478 
Q 3156 559 3463 722 
L 3463 178 
Q 3153 47 2828 -22 
Q 2503 -91 2169 -91 
Q 1331 -91 842 396 
Q 353 884 353 1716 
Q 353 2575 817 3079 
Q 1281 3584 2069 3584 
Q 2775 3584 3186 3129 
Q 3597 2675 3597 1894 
z
M 3022 2063 
Q 3016 2534 2758 2815 
Q 2500 3097 2075 3097 
Q 1594 3097 1305 2825 
Q 1016 2553 972 2059 
L 3022 2063 
z
" transform="scale(0.015625)"/>
       <path id="DejaVuSans-20" transform="scale(0.015625)"/>
       <path id="DejaVuSans-6f" d="M 1959 3097 
Q 1497 3097 1228 2736 
Q 959 2375 959 1747 
Q 959 1119 1226 758 
Q 1494 397 1959 397 
Q 2419 397 2687 759 
Q 2956 1122 2956 1747 
Q 2956 2369 2687 2733 
Q 2419 3097 1959 3097 
z
M 1959 3584 
Q 2709 3584 3137 3096 
Q 3566 2609 3566 1747 
Q 3566 888 3137 398 
Q 2709 -91 1959 -91 
Q 1206 -91 779 398 
Q 353 888 353 1747 
Q 353 2609 779 3096 
Q 1206 3584 1959 3584 
z
" transform="scale(0.015625)"/>
       <path id="DejaVuSans-66" d="M 2375 4863 
L 2375 4384 
L 1825 4384 
Q 1516 4384 1395 4259 
Q 1275 4134 1275 3809 
L 1275 3500 
L 2222 3500 
L 2222 3053 
L 1275 3053 
L 1275 0 
L 697 0 
L 697 3053 
L 147 3053 
L 147 3500 
L 697 3500 
L 697 3744 
Q 697 4328 969 4595 
Q 1241 4863 1831 4863 
L 2375 4863 
z
" transform="scale(0.015625)"/>
       <path id="DejaVuSans-64" d="M 2906 2969 
L 2906 4863 
L 3481 4863 
L 3481 0 
L 2906 0 
L 2906 525 
Q 2725 213 2448 61 
Q 2172 -91 1784 -91 
Q 1150 -91 751 415 
Q 353 922 353 1747 
Q 353 2572 751 3078 
Q 1150 3584 1784 3584 
Q 2172 3584 2448 3432 
Q 2725 3281 2906 2969 
z
M 947 1747 
Q 947 1113 1208 752 
Q 1469 391 1925 391 
Q 2381 391 2643 752 
Q 2906 1113 2906 1747 
Q 2906 2381 2643 2742 
Q 2381 3103 1925 3103 
Q 1469 3103 1208 2742 
Q 947 2381 947 1747 
z
" transform="scale(0.015625)"/>
       <path id="DejaVuSans-61" d="M 2194 1759 
Q 1497 1759 1228 1600 
Q 959 1441 959 1056 
Q 959 750 1161 570 
Q 1363 391 1709 391 
Q 2188 391 2477 730 
Q 2766 1069 2766 1631 
L 2766 1759 
L 2194 1759 
z
M 3341 1997 
L 3341 0 
L 2766 0 
L 2766 531 
Q 2569 213 2275 61 
Q 1981 -91 1556 -91 
Q 1019 -91 701 211 
Q 384 513 384 1019 
Q 384 1609 779 1909 
Q 1175 2209 1959 2209 
L 2766 2209 
L 2766 2266 
Q 2766 2663 2505 2880 
Q 2244 3097 1772 3097 
Q 1472 3097 1187 3025 
Q 903 2953 641 2809 
L 641 3341 
Q 956 3463 1253 3523 
Q 1550 3584 1831 3584 
Q 2591 3584 2966 3190 
Q 3341 2797 3341 1997 
z
" transform="scale(0.015625)"/>
       <path id="DejaVuSans-79" d="M 2059 -325 
Q 1816 -950 1584 -1140 
Q 1353 -1331 966 -1331 
L 506 -1331 
L 506 -850 
L 844 -850 
Q 1081 -850 1212 -737 
Q 1344 -625 1503 -206 
L 1606 56 
L 191 3500 
L 800 3500 
L 1894 763 
L 2988 3500 
L 3597 3500 
L 2059 -325 
z
" transform="scale(0.015625)"/>
       <path id="DejaVuSans-28" d="M 1984 4856 
Q 1566 4138 1362 3434 
Q 1159 2731 1159 2009 
Q 1159 1288 1364 580 
Q 1569 -128 1984 -844 
L 1484 -844 
Q 1016 -109 783 600 
Q 550 1309 550 2009 
Q 550 2706 781 3412 
Q 1013 4119 1484 4856 
L 1984 4856 
z
" transform="scale(0.015625)"/>
       <path id="DejaVuSans-68" d="M 3513 2113 
L 3513 0 
L 2938 0 
L 2938 2094 
Q 2938 2591 2744 2837 
Q 2550 3084 2163 3084 
Q 1697 3084 1428 2787 
Q 1159 2491 1159 1978 
L 1159 0 
L 581 0 
L 581 4863 
L 1159 4863 
L 1159 2956 
Q 1366 3272 1645 3428 
Q 1925 3584 2291 3584 
Q 2894 3584 3203 3211 
Q 3513 2838 3513 2113 
z
" transform="scale(0.015625)"/>
       <path id="DejaVuSans-75" d="M 544 1381 
L 544 3500 
L 1119 3500 
L 1119 1403 
Q 1119 906 1312 657 
Q 1506 409 1894 409 
Q 2359 409 2629 706 
Q 2900 1003 2900 1516 
L 2900 3500 
L 3475 3500 
L 3475 0 
L 2900 0 
L 2900 538 
Q 2691 219 2414 64 
Q 2138 -91 1772 -91 
Q 1169 -91 856 284 
Q 544 659 544 1381 
z
M 1991 3584 
L 1991 3584 
z
" transform="scale(0.015625)"/>
       <path id="DejaVuSans-72" d="M 2631 2963 
Q 2534 3019 2420 3045 
Q 2306 3072 2169 3072 
Q 1681 3072 1420 2755 
Q 1159 2438 1159 1844 
L 1159 0 
L 581 0 
L 581 3500 
L 1159 3500 
L 1159 2956 
Q 1341 3275 1631 3429 
Q 1922 3584 2338 3584 
Q 2397 3584 2469 3576 
Q 2541 3569 2628 3553 
L 2631 2963 
z
" transform="scale(0.015625)"/>
       <path id="DejaVuSans-73" d="M 2834 3397 
L 2834 2853 
Q 2591 2978 2328 3040 
Q 2066 3103 1784 3103 
Q 1356 3103 1142 2972 
Q 928 2841 928 2578 
Q 928 2378 1081 2264 
Q 1234 2150 1697 2047 
L 1894 2003 
Q 2506 1872 2764 1633 
Q 3022 1394 3022 966 
Q 3022 478 2636 193 
Q 2250 -91 1575 -91 
Q 1294 -91 989 -36 
Q 684 19 347 128 
L 347 722 
Q 666 556 975 473 
Q 1284 391 1588 391 
Q 1994 391 2212 530 
Q 2431 669 2431 922 
Q 2431 1156 2273 1281 
Q 2116 1406 1581 1522 
L 1381 1569 
Q 847 1681 609 1914 
Q 372 2147 372 2553 
Q 372 3047 722 3315 
Q 1072 3584 1716 3584 
Q 2034 3584 2315 3537 
Q 2597 3491 2834 3397 
z
" transform="scale(0.015625)"/>
       <path id="DejaVuSans-29" d="M 513 4856 
L 1013 4856 
Q 1481 4119 1714 3412 
Q 1947 2706 1947 2009 
Q 1947 1309 1714 600 
Q 1481 -109 1013 -844 
L 513 -844 
Q 928 -128 1133 580 
Q 1338 1288 1338 2009 
Q 1338 2731 1133 3434 
Q 928 4138 513 4856 
z
" transform="scale(0.015625)"/>
      </defs>
      <use xlink:href="#DejaVuSans-54"/>
      <use xlink:href="#DejaVuSans-69" x="57.958984"/>
      <use xlink:href="#DejaVuSans-6d" x="85.742188"/>
      <use xlink:href="#DejaVuSans-65" x="183.154297"/>
      <use xlink:href="#DejaVuSans-20" x="244.677734"/>
      <use xlink:href="#DejaVuSans-6f" x="276.464844"/>
      <use xlink:href="#DejaVuSans-66" x="337.646484"/>
      <use xlink:href="#DejaVuSans-20" x="372.851562"/>
      <use xlink:href="#DejaVuSans-64" x="404.638672"/>
      <use xlink:href="#DejaVuSans-61" x="468.115234"/>
      <use xlink:href="#DejaVuSans-79" x="529.394531"/>
      <use xlink:href="#DejaVuSans-20" x="588.574219"/>
      <use xlink:href="#DejaVuSans-28" x="620.361328"/>
      <use xlink:href="#DejaVuSans-68" x="659.375"/>
      <use xlink:href="#DejaVuSans-6f" x="722.753906"/>
      <use xlink:href="#DejaVuSans-75" x="783.935547"/>
      <use xlink:href="#DejaVuSans-72" x="847.314453"/>
      <use xlink:href="#DejaVuSans-73" x="888.427734"/>
      <use xlink:href="#DejaVuSans-29" x="940.527344"/>
     </g>
    </g>
   </g>
   <g id="matplotlib.axis_2">
    <g id="ytick_1">
     <g id="line2d_15">
      <path d="M 73.44 253.873441 
L 519.84 253.873441 
" clip-path="url(#p359abc20f1)" style="fill: none; stroke: #d9dedb; stroke-opacity: 0.85; stroke-width: 0.8; stroke-linecap: square"/>
     </g>
     <g id="line2d_16"/>
     <g id="text_9">
      <!-- 40 -->
      <g style="fill: #56636f" transform="translate(57.215 257.67266) scale(0.1 -0.1)">
       <use xlink:href="#DejaVuSans-34"/>
       <use xlink:href="#DejaVuSans-30" x="63.623047"/>
      </g>
     </g>
    </g>
    <g id="ytick_2">
     <g id="line2d_17">
      <path d="M 73.44 224.320243 
L 519.84 224.320243 
" clip-path="url(#p359abc20f1)" style="fill: none; stroke: #d9dedb; stroke-opacity: 0.85; stroke-width: 0.8; stroke-linecap: square"/>
     </g>
     <g id="line2d_18"/>
     <g id="text_10">
      <!-- 45 -->
      <g style="fill: #56636f" transform="translate(57.215 228.119462) scale(0.1 -0.1)">
       <defs>
        <path id="DejaVuSans-35" d="M 691 4666 
L 3169 4666 
L 3169 4134 
L 1269 4134 
L 1269 2991 
Q 1406 3038 1543 3061 
Q 1681 3084 1819 3084 
Q 2600 3084 3056 2656 
Q 3513 2228 3513 1497 
Q 3513 744 3044 326 
Q 2575 -91 1722 -91 
Q 1428 -91 1123 -41 
Q 819 9 494 109 
L 494 744 
Q 775 591 1075 516 
Q 1375 441 1709 441 
Q 2250 441 2565 725 
Q 2881 1009 2881 1497 
Q 2881 1984 2565 2268 
Q 2250 2553 1709 2553 
Q 1456 2553 1204 2497 
Q 953 2441 691 2322 
L 691 4666 
z
" transform="scale(0.015625)"/>
       </defs>
       <use xlink:href="#DejaVuSans-34"/>
       <use xlink:href="#DejaVuSans-35" x="63.623047"/>
      </g>
     </g>
    </g>
    <g id="ytick_3">
     <g id="line2d_19">
      <path d="M 73.44 194.767045 
L 519.84 194.767045 
" clip-path="url(#p359abc20f1)" style="fill: none; stroke: #d9dedb; stroke-opacity: 0.85; stroke-width: 0.8; stroke-linecap: square"/>
     </g>
     <g id="line2d_20"/>
     <g id="text_11">
      <!-- 50 -->
      <g style="fill: #56636f" transform="translate(57.215 198.566264) scale(0.1 -0.1)">
       <use xlink:href="#DejaVuSans-35"/>
       <use xlink:href="#DejaVuSans-30" x="63.623047"/>
      </g>
     </g>
    </g>
    <g id="ytick_4">
     <g id="line2d_21">
      <path d="M 73.44 165.213847 
L 519.84 165.213847 
" clip-path="url(#p359abc20f1)" style="fill: none; stroke: #d9dedb; stroke-opacity: 0.85; stroke-width: 0.8; stroke-linecap: square"/>
     </g>
     <g id="line2d_22"/>
     <g id="text_12">
      <!-- 55 -->
      <g style="fill: #56636f" transform="translate(57.215 169.013066) scale(0.1 -0.1)">
       <use xlink:href="#DejaVuSans-35"/>
       <use xlink:href="#DejaVuSans-35" x="63.623047"/>
      </g>
     </g>
    </g>
    <g id="ytick_5">
     <g id="line2d_23">
      <path d="M 73.44 135.660649 
L 519.84 135.660649 
" clip-path="url(#p359abc20f1)" style="fill: none; stroke: #d9dedb; stroke-opacity: 0.85; stroke-width: 0.8; stroke-linecap: square"/>
     </g>
     <g id="line2d_24"/>
     <g id="text_13">
      <!-- 60 -->
      <g style="fill: #56636f" transform="translate(57.215 139.459867) scale(0.1 -0.1)">
       <use xlink:href="#DejaVuSans-36"/>
       <use xlink:href="#DejaVuSans-30" x="63.623047"/>
      </g>
     </g>
    </g>
    <g id="ytick_6">
     <g id="line2d_25">
      <path d="M 73.44 106.10745 
L 519.84 106.10745 
" clip-path="url(#p359abc20f1)" style="fill: none; stroke: #d9dedb; stroke-opacity: 0.85; stroke-width: 0.8; stroke-linecap: square"/>
     </g>
     <g id="line2d_26"/>
     <g id="text_14">
      <!-- 65 -->
      <g style="fill: #56636f" transform="translate(57.215 109.906669) scale(0.1 -0.1)">
       <use xlink:href="#DejaVuSans-36"/>
       <use xlink:href="#DejaVuSans-35" x="63.623047"/>
      </g>
     </g>
    </g>
    <g id="ytick_7">
     <g id="line2d_27">
      <path d="M 73.44 76.554252 
L 519.84 76.554252 
" clip-path="url(#p359abc20f1)" style="fill: none; stroke: #d9dedb; stroke-opacity: 0.85; stroke-width: 0.8; stroke-linecap: square"/>
     </g>
     <g id="line2d_28"/>
     <g id="text_15">
      <!-- 70 -->
      <g style="fill: #56636f" transform="translate(57.215 80.353471) scale(0.1 -0.1)">
       <defs>
        <path id="DejaVuSans-37" d="M 525 4666 
L 3525 4666 
L 3525 4397 
L 1831 0 
L 1172 0 
L 2766 4134 
L 525 4134 
L 525 4666 
z
" transform="scale(0.015625)"/>
       </defs>
       <use xlink:href="#DejaVuSans-37"/>
       <use xlink:href="#DejaVuSans-30" x="63.623047"/>
      </g>
     </g>
    </g>
    <g id="ytick_8">
     <g id="line2d_29">
      <path d="M 73.44 47.001054 
L 519.84 47.001054 
" clip-path="url(#p359abc20f1)" style="fill: none; stroke: #d9dedb; stroke-opacity: 0.85; stroke-width: 0.8; stroke-linecap: square"/>
     </g>
     <g id="line2d_30"/>
     <g id="text_16">
      <!-- 75 -->
      <g style="fill: #56636f" transform="translate(57.215 50.800273) scale(0.1 -0.1)">
       <use xlink:href="#DejaVuSans-37"/>
       <use xlink:href="#DejaVuSans-35" x="63.623047"/>
      </g>
     </g>
    </g>
    <g id="text_17">
     <!-- MIMS-units per minute -->
     <g style="fill: #17212b" transform="translate(51.135312 201.536594) rotate(-90) scale(0.1 -0.1)">
      <defs>
       <path id="DejaVuSans-4d" d="M 628 4666 
L 1569 4666 
L 2759 1491 
L 3956 4666 
L 4897 4666 
L 4897 0 
L 4281 0 
L 4281 4097 
L 3078 897 
L 2444 897 
L 1241 4097 
L 1241 0 
L 628 0 
L 628 4666 
z
" transform="scale(0.015625)"/>
       <path id="DejaVuSans-49" d="M 628 4666 
L 1259 4666 
L 1259 0 
L 628 0 
L 628 4666 
z
" transform="scale(0.015625)"/>
       <path id="DejaVuSans-53" d="M 3425 4513 
L 3425 3897 
Q 3066 4069 2747 4153 
Q 2428 4238 2131 4238 
Q 1616 4238 1336 4038 
Q 1056 3838 1056 3469 
Q 1056 3159 1242 3001 
Q 1428 2844 1947 2747 
L 2328 2669 
Q 3034 2534 3370 2195 
Q 3706 1856 3706 1288 
Q 3706 609 3251 259 
Q 2797 -91 1919 -91 
Q 1588 -91 1214 -16 
Q 841 59 441 206 
L 441 856 
Q 825 641 1194 531 
Q 1563 422 1919 422 
Q 2459 422 2753 634 
Q 3047 847 3047 1241 
Q 3047 1584 2836 1778 
Q 2625 1972 2144 2069 
L 1759 2144 
Q 1053 2284 737 2584 
Q 422 2884 422 3419 
Q 422 4038 858 4394 
Q 1294 4750 2059 4750 
Q 2388 4750 2728 4690 
Q 3069 4631 3425 4513 
z
" transform="scale(0.015625)"/>
       <path id="DejaVuSans-2d" d="M 313 2009 
L 1997 2009 
L 1997 1497 
L 313 1497 
L 313 2009 
z
" transform="scale(0.015625)"/>
       <path id="DejaVuSans-6e" d="M 3513 2113 
L 3513 0 
L 2938 0 
L 2938 2094 
Q 2938 2591 2744 2837 
Q 2550 3084 2163 3084 
Q 1697 3084 1428 2787 
Q 1159 2491 1159 1978 
L 1159 0 
L 581 0 
L 581 3500 
L 1159 3500 
L 1159 2956 
Q 1366 3272 1645 3428 
Q 1925 3584 2291 3584 
Q 2894 3584 3203 3211 
Q 3513 2838 3513 2113 
z
" transform="scale(0.015625)"/>
       <path id="DejaVuSans-74" d="M 1172 4494 
L 1172 3500 
L 2356 3500 
L 2356 3053 
L 1172 3053 
L 1172 1153 
Q 1172 725 1289 603 
Q 1406 481 1766 481 
L 2356 481 
L 2356 0 
L 1766 0 
Q 1100 0 847 248 
Q 594 497 594 1153 
L 594 3053 
L 172 3053 
L 172 3500 
L 594 3500 
L 594 4494 
L 1172 4494 
z
" transform="scale(0.015625)"/>
       <path id="DejaVuSans-70" d="M 1159 525 
L 1159 -1331 
L 581 -1331 
L 581 3500 
L 1159 3500 
L 1159 2969 
Q 1341 3281 1617 3432 
Q 1894 3584 2278 3584 
Q 2916 3584 3314 3078 
Q 3713 2572 3713 1747 
Q 3713 922 3314 415 
Q 2916 -91 2278 -91 
Q 1894 -91 1617 61 
Q 1341 213 1159 525 
z
M 3116 1747 
Q 3116 2381 2855 2742 
Q 2594 3103 2138 3103 
Q 1681 3103 1420 2742 
Q 1159 2381 1159 1747 
Q 1159 1113 1420 752 
Q 1681 391 2138 391 
Q 2594 391 2855 752 
Q 3116 1113 3116 1747 
z
" transform="scale(0.015625)"/>
      </defs>
      <use xlink:href="#DejaVuSans-4d"/>
      <use xlink:href="#DejaVuSans-49" x="86.279297"/>
      <use xlink:href="#DejaVuSans-4d" x="115.771484"/>
      <use xlink:href="#DejaVuSans-53" x="202.050781"/>
      <use xlink:href="#DejaVuSans-2d" x="265.527344"/>
      <use xlink:href="#DejaVuSans-75" x="301.611328"/>
      <use xlink:href="#DejaVuSans-6e" x="364.990234"/>
      <use xlink:href="#DejaVuSans-69" x="428.369141"/>
      <use xlink:href="#DejaVuSans-74" x="456.152344"/>
      <use xlink:href="#DejaVuSans-73" x="495.361328"/>
      <use xlink:href="#DejaVuSans-20" x="547.460938"/>
      <use xlink:href="#DejaVuSans-70" x="579.248047"/>
      <use xlink:href="#DejaVuSans-65" x="642.724609"/>
      <use xlink:href="#DejaVuSans-72" x="704.248047"/>
      <use xlink:href="#DejaVuSans-20" x="745.361328"/>
      <use xlink:href="#DejaVuSans-6d" x="777.148438"/>
      <use xlink:href="#DejaVuSans-69" x="874.560547"/>
      <use xlink:href="#DejaVuSans-6e" x="902.34375"/>
      <use xlink:href="#DejaVuSans-75" x="965.722656"/>
      <use xlink:href="#DejaVuSans-74" x="1029.101562"/>
      <use xlink:href="#DejaVuSans-65" x="1068.310547"/>
     </g>
    </g>
   </g>
   <g id="line2d_31">
    <path d="M 93.730909 222.536105 
L 96.549091 207.273196 
L 99.367273 236.876706 
L 102.185455 205.393525 
L 105.003636 241.519095 
L 107.821818 201.499225 
L 110.64 209.700811 
L 113.458182 235.358018 
L 116.276364 216.675442 
L 119.094545 219.85821 
L 121.912727 201.834434 
L 124.730909 202.511078 
L 127.549091 214.098381 
L 130.367273 184.439633 
L 133.185455 187.226676 
L 136.003636 178.502999 
L 138.821818 180.147836 
L 141.64 189.597336 
L 144.458182 160.19974 
L 147.276364 184.435591 
L 150.094545 188.675466 
L 152.912727 180.31565 
L 155.730909 182.757684 
L 158.549091 190.010083 
L 161.367273 186.354355 
L 164.185455 195.342215 
L 167.003636 175.071112 
L 169.821818 180.512918 
L 172.64 175.54155 
L 175.458182 220.282471 
L 178.276364 179.961009 
L 181.094545 187.609236 
L 183.912727 182.646324 
L 186.730909 169.974401 
L 189.549091 163.815066 
L 192.367273 183.503934 
L 195.185455 197.908582 
L 198.003636 184.846844 
L 200.821818 174.835836 
L 203.64 158.758757 
L 206.458182 190.851823 
L 209.276364 185.829516 
L 212.094545 196.72526 
L 214.912727 203.885823 
L 217.730909 174.408996 
L 220.549091 181.785802 
L 223.367273 181.13303 
L 226.185455 189.989065 
L 229.003636 206.764614 
L 231.821818 187.747394 
L 234.64 181.019549 
L 237.458182 210.27658 
L 240.276364 177.393494 
L 243.094545 175.152505 
L 245.912727 182.730869 
L 248.730909 187.647812 
L 251.549091 159.893304 
L 254.367273 178.135531 
L 257.185455 192.436585 
L 260.003636 184.032068 
L 262.821818 196.579017 
L 265.64 183.738388 
L 268.458182 188.583997 
L 271.276364 184.435229 
L 274.094545 175.089435 
L 276.912727 189.432714 
L 279.730909 185.591978 
L 282.549091 185.061794 
L 285.367273 178.458979 
L 288.185455 168.668408 
L 291.003636 147.73264 
L 293.821818 190.306258 
L 296.64 153.983911 
L 299.458182 195.935153 
L 305.094545 160.836663 
L 307.912727 176.956819 
L 310.730909 144.225728 
L 313.549091 138.074466 
L 316.367273 159.996066 
L 322.003636 140.23709 
L 324.821818 137.174872 
L 327.64 137.673168 
L 330.458182 140.119444 
L 333.276364 127.507258 
L 336.094545 140.488254 
L 338.912727 109.163645 
L 341.730909 119.385749 
L 344.549091 140.210808 
L 347.367273 124.826731 
L 350.185455 122.388704 
L 353.003636 129.627915 
L 355.821818 102.599743 
L 358.64 123.43227 
L 361.458182 102.743358 
L 364.276364 136.206054 
L 367.094545 138.214435 
L 369.912727 126.22179 
L 372.730909 129.932695 
L 375.549091 143.589107 
L 378.367273 104.116728 
L 381.185455 138.281417 
L 384.003636 156.384835 
L 386.821818 135.84943 
L 389.64 126.944204 
L 392.458182 155.260593 
L 395.276364 132.307618 
L 398.094545 159.549703 
L 400.912727 159.996961 
L 403.730909 169.2115 
L 406.549091 186.166677 
L 409.367273 168.756614 
L 412.185455 184.201715 
L 415.003636 203.933239 
L 417.821818 213.570397 
L 420.64 211.15034 
L 423.458182 162.59211 
L 426.276364 203.537551 
L 429.094545 233.66518 
L 431.912727 210.843152 
L 434.730909 212.593763 
L 437.549091 225.588145 
L 440.367273 219.966635 
L 443.185455 210.03738 
L 446.003636 227.752675 
L 448.821818 204.361665 
L 451.64 215.26663 
L 454.458182 240.101096 
L 457.276364 219.26991 
L 460.094545 246.480449 
L 462.912727 216.971964 
L 465.730909 226.770553 
L 468.549091 217.828865 
L 471.367273 255.925969 
L 474.185455 253.482834 
L 477.003636 225.998369 
L 479.821818 243.874807 
L 482.64 210.562132 
L 485.458182 231.701799 
L 488.276364 241.925468 
L 491.094545 216.146208 
L 493.912727 224.070989 
L 496.730909 228.328205 
L 499.549091 213.201382 
L 499.549091 213.201382 
" clip-path="url(#p359abc20f1)" style="fill: none; stroke: #0072b2; stroke-width: 2; stroke-linecap: square"/>
   </g>
   <g id="line2d_32">
    <path d="M 93.730909 167.427187 
L 96.549091 143.747756 
L 99.367273 182.382441 
L 102.185455 154.185603 
L 105.003636 152.697564 
L 107.821818 157.834897 
L 110.64 158.347568 
L 113.458182 151.433889 
L 116.276364 155.662629 
L 119.094545 171.93973 
L 121.912727 139.066484 
L 124.730909 145.053483 
L 127.549091 163.575264 
L 130.367273 151.299046 
L 133.185455 143.279347 
L 136.003636 148.00125 
L 138.821818 125.881753 
L 141.64 151.175178 
L 144.458182 148.240956 
L 147.276364 153.025535 
L 150.094545 118.057619 
L 152.912727 144.621217 
L 155.730909 137.074229 
L 158.549091 156.399236 
L 161.367273 140.382482 
L 164.185455 130.865254 
L 167.003636 133.612473 
L 169.821818 113.974727 
L 172.64 126.562854 
L 175.458182 134.320797 
L 178.276364 162.57043 
L 181.094545 144.75257 
L 183.912727 157.480481 
L 186.730909 127.551065 
L 189.549091 126.86407 
L 192.367273 135.735714 
L 195.185455 111.887477 
L 198.003636 132.32348 
L 200.821818 159.386318 
L 203.64 155.857102 
L 206.458182 134.015814 
L 209.276364 132.984549 
L 212.094545 141.819748 
L 214.912727 139.679699 
L 217.730909 151.925506 
L 220.549091 125.530879 
L 223.367273 156.496314 
L 226.185455 130.465603 
L 229.003636 154.484206 
L 231.821818 156.886577 
L 234.64 157.376211 
L 237.458182 149.915826 
L 240.276364 158.167265 
L 243.094545 132.342881 
L 245.912727 160.784234 
L 248.730909 169.445795 
L 251.549091 157.542208 
L 254.367273 155.466971 
L 257.185455 147.687271 
L 260.003636 180.16342 
L 262.821818 146.083935 
L 265.64 157.424805 
L 268.458182 181.908706 
L 274.094545 145.303209 
L 276.912727 158.031787 
L 279.730909 180.50775 
L 282.549091 181.016969 
L 285.367273 169.13869 
L 288.185455 165.928044 
L 291.003636 169.630873 
L 293.821818 159.788596 
L 296.64 159.846835 
L 299.458182 175.414386 
L 302.276364 124.724632 
L 305.094545 145.352574 
L 307.912727 172.786955 
L 313.549091 151.217483 
L 316.367273 158.389651 
L 319.185455 170.386377 
L 322.003636 144.94645 
L 324.821818 136.963311 
L 327.64 119.48836 
L 330.458182 145.740637 
L 333.276364 129.487321 
L 336.094545 122.461577 
L 338.912727 113.577466 
L 341.730909 101.889973 
L 344.549091 102.259236 
L 347.367273 98.376942 
L 350.185455 103.236377 
L 353.003636 95.234139 
L 355.821818 95.183978 
L 358.64 101.15115 
L 361.458182 82.550857 
L 364.276364 110.316698 
L 367.094545 91.368301 
L 369.912727 79.235506 
L 372.730909 85.945718 
L 375.549091 106.550614 
L 378.367273 97.647469 
L 381.185455 106.713674 
L 384.003636 79.323633 
L 386.821818 78.635995 
L 389.64 102.78146 
L 392.458182 106.081225 
L 395.276364 133.73375 
L 398.094545 95.394676 
L 400.912727 86.07657 
L 403.730909 96.795826 
L 406.549091 108.966394 
L 409.367273 118.819592 
L 412.185455 118.169266 
L 415.003636 148.0029 
L 417.821818 124.679062 
L 420.64 140.807033 
L 423.458182 121.987018 
L 426.276364 147.671424 
L 429.094545 137.047917 
L 431.912727 141.919575 
L 434.730909 146.063955 
L 437.549091 156.565672 
L 440.367273 146.443363 
L 443.185455 149.802081 
L 446.003636 166.340577 
L 448.821818 170.200346 
L 451.64 171.744834 
L 454.458182 174.537154 
L 457.276364 158.703135 
L 460.094545 163.117642 
L 462.912727 178.407404 
L 465.730909 187.991937 
L 468.549091 193.224989 
L 471.367273 170.270699 
L 474.185455 163.055841 
L 477.003636 165.886615 
L 479.821818 189.908221 
L 482.64 171.170227 
L 485.458182 183.381221 
L 488.276364 166.700191 
L 491.094545 175.426087 
L 493.912727 154.318151 
L 496.730909 187.368496 
L 499.549091 165.409311 
L 499.549091 165.409311 
" clip-path="url(#p359abc20f1)" style="fill: none; stroke: #e69f00; stroke-width: 2; stroke-linecap: square"/>
   </g>
   <g id="line2d_33">
    <path d="M 93.730909 128.669028 
L 96.549091 125.766273 
L 99.367273 109.451758 
L 102.185455 117.999221 
L 105.003636 128.922008 
L 107.821818 102.493293 
L 110.64 115.952794 
L 113.458182 111.625905 
L 116.276364 101.18844 
L 119.094545 106.195327 
L 121.912727 107.613347 
L 124.730909 76.80015 
L 127.549091 105.015169 
L 130.367273 108.350458 
L 133.185455 107.607267 
L 136.003636 104.075126 
L 138.821818 103.467572 
L 141.64 89.548209 
L 144.458182 87.191737 
L 147.276364 104.233878 
L 150.094545 101.046883 
L 152.912727 95.654536 
L 155.730909 73.433158 
L 158.549091 82.885114 
L 161.367273 131.623539 
L 164.185455 114.413057 
L 167.003636 91.889523 
L 169.821818 84.568646 
L 172.64 90.654804 
L 175.458182 93.412284 
L 178.276364 73.643441 
L 181.094545 95.259505 
L 183.912727 78.650617 
L 186.730909 79.749212 
L 189.549091 95.072617 
L 192.367273 85.072927 
L 195.185455 125.028337 
L 198.003636 109.412683 
L 200.821818 92.067055 
L 203.64 98.688158 
L 206.458182 111.666793 
L 209.276364 98.521168 
L 212.094545 98.269958 
L 214.912727 95.438587 
L 217.730909 126.407597 
L 220.549091 99.93872 
L 223.367273 123.840743 
L 226.185455 114.77282 
L 229.003636 125.949221 
L 231.821818 116.056121 
L 234.64 115.22225 
L 237.458182 129.455208 
L 240.276364 119.673127 
L 243.094545 131.851804 
L 245.912727 128.665263 
L 248.730909 134.488837 
L 251.549091 132.002361 
L 254.367273 124.775089 
L 257.185455 120.417536 
L 260.003636 147.96525 
L 262.821818 133.766892 
L 265.64 111.782038 
L 268.458182 123.972764 
L 271.276364 132.907003 
L 274.094545 141.463191 
L 276.912727 140.53317 
L 279.730909 139.033649 
L 282.549091 162.244493 
L 285.367273 148.654309 
L 288.185455 165.697591 
L 291.003636 147.476898 
L 293.821818 144.049352 
L 296.64 157.078008 
L 299.458182 129.052073 
L 302.276364 128.995417 
L 305.094545 109.982814 
L 307.912727 140.180344 
L 310.730909 130.064869 
L 313.549091 161.229663 
L 316.367273 132.92304 
L 319.185455 123.371316 
L 322.003636 122.642719 
L 324.821818 118.472239 
L 330.458182 112.191785 
L 333.276364 128.894474 
L 336.094545 110.255755 
L 338.912727 118.04066 
L 341.730909 104.597876 
L 344.549091 95.432516 
L 347.367273 110.273163 
L 350.185455 86.280598 
L 353.003636 79.335447 
L 355.821818 96.806396 
L 358.64 66.946109 
L 361.458182 62.609481 
L 364.276364 56.025982 
L 367.094545 57.486107 
L 369.912727 71.258984 
L 372.730909 57.925643 
L 375.549091 45.957678 
L 378.367273 40.496335 
L 381.185455 34.165969 
L 384.003636 45.74582 
L 386.821818 47.048019 
L 389.64 53.149157 
L 392.458182 46.897447 
L 395.276364 55.235875 
L 398.094545 51.882818 
L 400.912727 34.243695 
L 403.730909 56.62506 
L 406.549091 52.206447 
L 409.367273 49.405691 
L 415.003636 81.565896 
L 417.821818 69.039713 
L 420.64 70.267434 
L 423.458182 65.083923 
L 426.276364 78.495135 
L 429.094545 64.201311 
L 431.912727 56.538367 
L 434.730909 83.277507 
L 437.549091 75.215224 
L 440.367273 77.786837 
L 443.185455 87.796786 
L 446.003636 101.924808 
L 448.821818 111.83034 
L 451.64 98.609916 
L 454.458182 75.314397 
L 457.276364 112.174003 
L 460.094545 112.621048 
L 462.912727 112.505646 
L 465.730909 99.17225 
L 468.549091 109.510361 
L 471.367273 123.683067 
L 474.185455 107.01638 
L 477.003636 125.663007 
L 479.821818 100.893616 
L 482.64 94.571669 
L 485.458182 107.326742 
L 488.276364 114.579061 
L 491.094545 113.081843 
L 493.912727 116.723485 
L 496.730909 99.092124 
L 499.549091 110.851954 
L 499.549091 110.851954 
" clip-path="url(#p359abc20f1)" style="fill: none; stroke: #009e73; stroke-width: 2; stroke-linecap: square"/>
   </g>
   <g id="patch_3">
    <path d="M 73.44 267.013969 
L 73.44 23.077969 
" style="fill: none; stroke: #d9dedb; stroke-width: 0.8; stroke-linejoin: miter; stroke-linecap: square"/>
   </g>
   <g id="patch_4">
    <path d="M 73.44 267.013969 
L 519.84 267.013969 
" style="fill: none; stroke: #d9dedb; stroke-width: 0.8; stroke-linejoin: miter; stroke-linecap: square"/>
   </g>
   <g id="text_18">
    <!-- Continuous movement metric over time -->
    <g style="fill: #17212b" transform="translate(150.963828 17.077969) scale(0.13 -0.13)">
     <defs>
      <path id="DejaVuSans-Bold-43" d="M 4288 256 
Q 3956 84 3597 -3 
Q 3238 -91 2847 -91 
Q 1681 -91 1000 561 
Q 319 1213 319 2328 
Q 319 3447 1000 4098 
Q 1681 4750 2847 4750 
Q 3238 4750 3597 4662 
Q 3956 4575 4288 4403 
L 4288 3438 
Q 3953 3666 3628 3772 
Q 3303 3878 2944 3878 
Q 2300 3878 1931 3465 
Q 1563 3053 1563 2328 
Q 1563 1606 1931 1193 
Q 2300 781 2944 781 
Q 3303 781 3628 887 
Q 3953 994 4288 1222 
L 4288 256 
z
" transform="scale(0.015625)"/>
      <path id="DejaVuSans-Bold-6f" d="M 2203 2784 
Q 1831 2784 1636 2517 
Q 1441 2250 1441 1747 
Q 1441 1244 1636 976 
Q 1831 709 2203 709 
Q 2569 709 2762 976 
Q 2956 1244 2956 1747 
Q 2956 2250 2762 2517 
Q 2569 2784 2203 2784 
z
M 2203 3584 
Q 3106 3584 3614 3096 
Q 4122 2609 4122 1747 
Q 4122 884 3614 396 
Q 3106 -91 2203 -91 
Q 1297 -91 786 396 
Q 275 884 275 1747 
Q 275 2609 786 3096 
Q 1297 3584 2203 3584 
z
" transform="scale(0.015625)"/>
      <path id="DejaVuSans-Bold-6e" d="M 4056 2131 
L 4056 0 
L 2931 0 
L 2931 347 
L 2931 1631 
Q 2931 2084 2911 2256 
Q 2891 2428 2841 2509 
Q 2775 2619 2662 2680 
Q 2550 2741 2406 2741 
Q 2056 2741 1856 2470 
Q 1656 2200 1656 1722 
L 1656 0 
L 538 0 
L 538 3500 
L 1656 3500 
L 1656 2988 
Q 1909 3294 2193 3439 
Q 2478 3584 2822 3584 
Q 3428 3584 3742 3212 
Q 4056 2841 4056 2131 
z
" transform="scale(0.015625)"/>
      <path id="DejaVuSans-Bold-74" d="M 1759 4494 
L 1759 3500 
L 2913 3500 
L 2913 2700 
L 1759 2700 
L 1759 1216 
Q 1759 972 1856 886 
Q 1953 800 2241 800 
L 2816 800 
L 2816 0 
L 1856 0 
Q 1194 0 917 276 
Q 641 553 641 1216 
L 641 2700 
L 84 2700 
L 84 3500 
L 641 3500 
L 641 4494 
L 1759 4494 
z
" transform="scale(0.015625)"/>
      <path id="DejaVuSans-Bold-69" d="M 538 3500 
L 1656 3500 
L 1656 0 
L 538 0 
L 538 3500 
z
M 538 4863 
L 1656 4863 
L 1656 3950 
L 538 3950 
L 538 4863 
z
" transform="scale(0.015625)"/>
      <path id="DejaVuSans-Bold-75" d="M 500 1363 
L 500 3500 
L 1625 3500 
L 1625 3150 
Q 1625 2866 1622 2436 
Q 1619 2006 1619 1863 
Q 1619 1441 1641 1255 
Q 1663 1069 1716 984 
Q 1784 875 1895 815 
Q 2006 756 2150 756 
Q 2500 756 2700 1025 
Q 2900 1294 2900 1772 
L 2900 3500 
L 4019 3500 
L 4019 0 
L 2900 0 
L 2900 506 
Q 2647 200 2364 54 
Q 2081 -91 1741 -91 
Q 1134 -91 817 281 
Q 500 653 500 1363 
z
" transform="scale(0.015625)"/>
      <path id="DejaVuSans-Bold-73" d="M 3272 3391 
L 3272 2541 
Q 2913 2691 2578 2766 
Q 2244 2841 1947 2841 
Q 1628 2841 1473 2761 
Q 1319 2681 1319 2516 
Q 1319 2381 1436 2309 
Q 1553 2238 1856 2203 
L 2053 2175 
Q 2913 2066 3209 1816 
Q 3506 1566 3506 1031 
Q 3506 472 3093 190 
Q 2681 -91 1863 -91 
Q 1516 -91 1145 -36 
Q 775 19 384 128 
L 384 978 
Q 719 816 1070 734 
Q 1422 653 1784 653 
Q 2113 653 2278 743 
Q 2444 834 2444 1013 
Q 2444 1163 2330 1236 
Q 2216 1309 1875 1350 
L 1678 1375 
Q 931 1469 631 1722 
Q 331 1975 331 2491 
Q 331 3047 712 3315 
Q 1094 3584 1881 3584 
Q 2191 3584 2531 3537 
Q 2872 3491 3272 3391 
z
" transform="scale(0.015625)"/>
      <path id="DejaVuSans-Bold-20" transform="scale(0.015625)"/>
      <path id="DejaVuSans-Bold-6d" d="M 3781 2919 
Q 3994 3244 4286 3414 
Q 4578 3584 4928 3584 
Q 5531 3584 5847 3212 
Q 6163 2841 6163 2131 
L 6163 0 
L 5038 0 
L 5038 1825 
Q 5041 1866 5042 1909 
Q 5044 1953 5044 2034 
Q 5044 2406 4934 2573 
Q 4825 2741 4581 2741 
Q 4263 2741 4089 2478 
Q 3916 2216 3909 1719 
L 3909 0 
L 2784 0 
L 2784 1825 
Q 2784 2406 2684 2573 
Q 2584 2741 2328 2741 
Q 2006 2741 1831 2477 
Q 1656 2213 1656 1722 
L 1656 0 
L 531 0 
L 531 3500 
L 1656 3500 
L 1656 2988 
Q 1863 3284 2130 3434 
Q 2397 3584 2719 3584 
Q 3081 3584 3359 3409 
Q 3638 3234 3781 2919 
z
" transform="scale(0.015625)"/>
      <path id="DejaVuSans-Bold-76" d="M 97 3500 
L 1216 3500 
L 2088 1081 
L 2956 3500 
L 4078 3500 
L 2700 0 
L 1472 0 
L 97 3500 
z
" transform="scale(0.015625)"/>
      <path id="DejaVuSans-Bold-65" d="M 4031 1759 
L 4031 1441 
L 1416 1441 
Q 1456 1047 1700 850 
Q 1944 653 2381 653 
Q 2734 653 3104 758 
Q 3475 863 3866 1075 
L 3866 213 
Q 3469 63 3072 -14 
Q 2675 -91 2278 -91 
Q 1328 -91 801 392 
Q 275 875 275 1747 
Q 275 2603 792 3093 
Q 1309 3584 2216 3584 
Q 3041 3584 3536 3087 
Q 4031 2591 4031 1759 
z
M 2881 2131 
Q 2881 2450 2695 2645 
Q 2509 2841 2209 2841 
Q 1884 2841 1681 2658 
Q 1478 2475 1428 2131 
L 2881 2131 
z
" transform="scale(0.015625)"/>
      <path id="DejaVuSans-Bold-72" d="M 3138 2547 
Q 2991 2616 2845 2648 
Q 2700 2681 2553 2681 
Q 2122 2681 1889 2404 
Q 1656 2128 1656 1613 
L 1656 0 
L 538 0 
L 538 3500 
L 1656 3500 
L 1656 2925 
Q 1872 3269 2151 3426 
Q 2431 3584 2822 3584 
Q 2878 3584 2943 3579 
Q 3009 3575 3134 3559 
L 3138 2547 
z
" transform="scale(0.015625)"/>
      <path id="DejaVuSans-Bold-63" d="M 3366 3391 
L 3366 2478 
Q 3138 2634 2908 2709 
Q 2678 2784 2431 2784 
Q 1963 2784 1702 2511 
Q 1441 2238 1441 1747 
Q 1441 1256 1702 982 
Q 1963 709 2431 709 
Q 2694 709 2930 787 
Q 3166 866 3366 1019 
L 3366 103 
Q 3103 6 2833 -42 
Q 2563 -91 2291 -91 
Q 1344 -91 809 395 
Q 275 881 275 1747 
Q 275 2613 809 3098 
Q 1344 3584 2291 3584 
Q 2566 3584 2833 3536 
Q 3100 3488 3366 3391 
z
" transform="scale(0.015625)"/>
     </defs>
     <use xlink:href="#DejaVuSans-Bold-43"/>
     <use xlink:href="#DejaVuSans-Bold-6f" x="73.388672"/>
     <use xlink:href="#DejaVuSans-Bold-6e" x="142.089844"/>
     <use xlink:href="#DejaVuSans-Bold-74" x="213.28125"/>
     <use xlink:href="#DejaVuSans-Bold-69" x="261.083984"/>
     <use xlink:href="#DejaVuSans-Bold-6e" x="295.361328"/>
     <use xlink:href="#DejaVuSans-Bold-75" x="366.552734"/>
     <use xlink:href="#DejaVuSans-Bold-6f" x="437.744141"/>
     <use xlink:href="#DejaVuSans-Bold-75" x="506.445312"/>
     <use xlink:href="#DejaVuSans-Bold-73" x="577.636719"/>
     <use xlink:href="#DejaVuSans-Bold-20" x="637.158203"/>
     <use xlink:href="#DejaVuSans-Bold-6d" x="671.972656"/>
     <use xlink:href="#DejaVuSans-Bold-6f" x="776.171875"/>
     <use xlink:href="#DejaVuSans-Bold-76" x="844.873047"/>
     <use xlink:href="#DejaVuSans-Bold-65" x="910.058594"/>
     <use xlink:href="#DejaVuSans-Bold-6d" x="977.880859"/>
     <use xlink:href="#DejaVuSans-Bold-65" x="1082.080078"/>
     <use xlink:href="#DejaVuSans-Bold-6e" x="1149.902344"/>
     <use xlink:href="#DejaVuSans-Bold-74" x="1221.09375"/>
     <use xlink:href="#DejaVuSans-Bold-20" x="1268.896484"/>
     <use xlink:href="#DejaVuSans-Bold-6d" x="1303.710938"/>
     <use xlink:href="#DejaVuSans-Bold-65" x="1407.910156"/>
     <use xlink:href="#DejaVuSans-Bold-74" x="1475.732422"/>
     <use xlink:href="#DejaVuSans-Bold-72" x="1523.535156"/>
     <use xlink:href="#DejaVuSans-Bold-69" x="1572.851562"/>
     <use xlink:href="#DejaVuSans-Bold-63" x="1607.128906"/>
     <use xlink:href="#DejaVuSans-Bold-20" x="1666.40625"/>
     <use xlink:href="#DejaVuSans-Bold-6f" x="1701.220703"/>
     <use xlink:href="#DejaVuSans-Bold-76" x="1769.921875"/>
     <use xlink:href="#DejaVuSans-Bold-65" x="1835.107422"/>
     <use xlink:href="#DejaVuSans-Bold-72" x="1902.929688"/>
     <use xlink:href="#DejaVuSans-Bold-20" x="1952.246094"/>
     <use xlink:href="#DejaVuSans-Bold-74" x="1987.060547"/>
     <use xlink:href="#DejaVuSans-Bold-69" x="2034.863281"/>
     <use xlink:href="#DejaVuSans-Bold-6d" x="2069.140625"/>
     <use xlink:href="#DejaVuSans-Bold-65" x="2173.339844"/>
    </g>
   </g>
   <g id="legend_1">
    <g id="line2d_34">
     <path d="M 82.44 36.176406 
L 92.44 36.176406 
L 102.44 36.176406 
" style="fill: none; stroke: #0072b2; stroke-width: 2; stroke-linecap: square"/>
    </g>
    <g id="text_19">
     <!-- Day 1 -->
     <g transform="translate(110.44 39.676406) scale(0.1 -0.1)">
      <defs>
       <path id="DejaVuSans-44" d="M 1259 4147 
L 1259 519 
L 2022 519 
Q 2988 519 3436 956 
Q 3884 1394 3884 2338 
Q 3884 3275 3436 3711 
Q 2988 4147 2022 4147 
L 1259 4147 
z
M 628 4666 
L 1925 4666 
Q 3281 4666 3915 4102 
Q 4550 3538 4550 2338 
Q 4550 1131 3912 565 
Q 3275 0 1925 0 
L 628 0 
L 628 4666 
z
" transform="scale(0.015625)"/>
      </defs>
      <use xlink:href="#DejaVuSans-44"/>
      <use xlink:href="#DejaVuSans-61" x="77.001953"/>
      <use xlink:href="#DejaVuSans-79" x="138.28125"/>
      <use xlink:href="#DejaVuSans-20" x="197.460938"/>
      <use xlink:href="#DejaVuSans-31" x="229.248047"/>
     </g>
    </g>
    <g id="line2d_35">
     <path d="M 82.44 50.854531 
L 92.44 50.854531 
L 102.44 50.854531 
" style="fill: none; stroke: #e69f00; stroke-width: 2; stroke-linecap: square"/>
    </g>
    <g id="text_20">
     <!-- Day 2 -->
     <g transform="translate(110.44 54.354531) scale(0.1 -0.1)">
      <use xlink:href="#DejaVuSans-44"/>
      <use xlink:href="#DejaVuSans-61" x="77.001953"/>
      <use xlink:href="#DejaVuSans-79" x="138.28125"/>
      <use xlink:href="#DejaVuSans-20" x="197.460938"/>
      <use xlink:href="#DejaVuSans-32" x="229.248047"/>
     </g>
    </g>
    <g id="line2d_36">
     <path d="M 82.44 65.532656 
L 92.44 65.532656 
L 102.44 65.532656 
" style="fill: none; stroke: #009e73; stroke-width: 2; stroke-linecap: square"/>
    </g>
    <g id="text_21">
     <!-- Day 3 -->
     <g transform="translate(110.44 69.032656) scale(0.1 -0.1)">
      <defs>
       <path id="DejaVuSans-33" d="M 2597 2516 
Q 3050 2419 3304 2112 
Q 3559 1806 3559 1356 
Q 3559 666 3084 287 
Q 2609 -91 1734 -91 
Q 1441 -91 1130 -33 
Q 819 25 488 141 
L 488 750 
Q 750 597 1062 519 
Q 1375 441 1716 441 
Q 2309 441 2620 675 
Q 2931 909 2931 1356 
Q 2931 1769 2642 2001 
Q 2353 2234 1838 2234 
L 1294 2234 
L 1294 2753 
L 1863 2753 
Q 2328 2753 2575 2939 
Q 2822 3125 2822 3475 
Q 2822 3834 2567 4026 
Q 2313 4219 1838 4219 
Q 1578 4219 1281 4162 
Q 984 4106 628 3988 
L 628 4550 
Q 988 4650 1302 4700 
Q 1616 4750 1894 4750 
Q 2613 4750 3031 4423 
Q 3450 4097 3450 3541 
Q 3450 3153 3228 2886 
Q 3006 2619 2597 2516 
z
" transform="scale(0.015625)"/>
      </defs>
      <use xlink:href="#DejaVuSans-44"/>
      <use xlink:href="#DejaVuSans-61" x="77.001953"/>
      <use xlink:href="#DejaVuSans-79" x="138.28125"/>
      <use xlink:href="#DejaVuSans-20" x="197.460938"/>
      <use xlink:href="#DejaVuSans-33" x="229.248047"/>
     </g>
    </g>
   </g>
  </g>
  <g id="text_22">
   <!-- Illustrative example generated from simulated mock data. -->
   <g style="fill: #56636f" transform="translate(7.2 297.030219) scale(0.08 -0.08)">
    <defs>
     <path id="DejaVuSans-6c" d="M 603 4863 
L 1178 4863 
L 1178 0 
L 603 0 
L 603 4863 
z
" transform="scale(0.015625)"/>
     <path id="DejaVuSans-76" d="M 191 3500 
L 800 3500 
L 1894 563 
L 2988 3500 
L 3597 3500 
L 2284 0 
L 1503 0 
L 191 3500 
z
" transform="scale(0.015625)"/>
     <path id="DejaVuSans-78" d="M 3513 3500 
L 2247 1797 
L 3578 0 
L 2900 0 
L 1881 1375 
L 863 0 
L 184 0 
L 1544 1831 
L 300 3500 
L 978 3500 
L 1906 2253 
L 2834 3500 
L 3513 3500 
z
" transform="scale(0.015625)"/>
     <path id="DejaVuSans-67" d="M 2906 1791 
Q 2906 2416 2648 2759 
Q 2391 3103 1925 3103 
Q 1463 3103 1205 2759 
Q 947 2416 947 1791 
Q 947 1169 1205 825 
Q 1463 481 1925 481 
Q 2391 481 2648 825 
Q 2906 1169 2906 1791 
z
M 3481 434 
Q 3481 -459 3084 -895 
Q 2688 -1331 1869 -1331 
Q 1566 -1331 1297 -1286 
Q 1028 -1241 775 -1147 
L 775 -588 
Q 1028 -725 1275 -790 
Q 1522 -856 1778 -856 
Q 2344 -856 2625 -561 
Q 2906 -266 2906 331 
L 2906 616 
Q 2728 306 2450 153 
Q 2172 0 1784 0 
Q 1141 0 747 490 
Q 353 981 353 1791 
Q 353 2603 747 3093 
Q 1141 3584 1784 3584 
Q 2172 3584 2450 3431 
Q 2728 3278 2906 2969 
L 2906 3500 
L 3481 3500 
L 3481 434 
z
" transform="scale(0.015625)"/>
     <path id="DejaVuSans-63" d="M 3122 3366 
L 3122 2828 
Q 2878 2963 2633 3030 
Q 2388 3097 2138 3097 
Q 1578 3097 1268 2742 
Q 959 2388 959 1747 
Q 959 1106 1268 751 
Q 1578 397 2138 397 
Q 2388 397 2633 464 
Q 2878 531 3122 666 
L 3122 134 
Q 2881 22 2623 -34 
Q 2366 -91 2075 -91 
Q 1284 -91 818 406 
Q 353 903 353 1747 
Q 353 2603 823 3093 
Q 1294 3584 2113 3584 
Q 2378 3584 2631 3529 
Q 2884 3475 3122 3366 
z
" transform="scale(0.015625)"/>
     <path id="DejaVuSans-6b" d="M 581 4863 
L 1159 4863 
L 1159 1991 
L 2875 3500 
L 3609 3500 
L 1753 1863 
L 3688 0 
L 2938 0 
L 1159 1709 
L 1159 0 
L 581 0 
L 581 4863 
z
" transform="scale(0.015625)"/>
     <path id="DejaVuSans-2e" d="M 684 794 
L 1344 794 
L 1344 0 
L 684 0 
L 684 794 
z
" transform="scale(0.015625)"/>
    </defs>
    <use xlink:href="#DejaVuSans-49"/>
    <use xlink:href="#DejaVuSans-6c" x="29.492188"/>
    <use xlink:href="#DejaVuSans-6c" x="57.275391"/>
    <use xlink:href="#DejaVuSans-75" x="85.058594"/>
    <use xlink:href="#DejaVuSans-73" x="148.4375"/>
    <use xlink:href="#DejaVuSans-74" x="200.537109"/>
    <use xlink:href="#DejaVuSans-72" x="239.746094"/>
    <use xlink:href="#DejaVuSans-61" x="280.859375"/>
    <use xlink:href="#DejaVuSans-74" x="342.138672"/>
    <use xlink:href="#DejaVuSans-69" x="381.347656"/>
    <use xlink:href="#DejaVuSans-76" x="409.130859"/>
    <use xlink:href="#DejaVuSans-65" x="468.310547"/>
    <use xlink:href="#DejaVuSans-20" x="529.833984"/>
    <use xlink:href="#DejaVuSans-65" x="561.621094"/>
    <use xlink:href="#DejaVuSans-78" x="621.394531"/>
    <use xlink:href="#DejaVuSans-61" x="680.574219"/>
    <use xlink:href="#DejaVuSans-6d" x="741.853516"/>
    <use xlink:href="#DejaVuSans-70" x="839.265625"/>
    <use xlink:href="#DejaVuSans-6c" x="902.742188"/>
    <use xlink:href="#DejaVuSans-65" x="930.525391"/>
    <use xlink:href="#DejaVuSans-20" x="992.048828"/>
    <use xlink:href="#DejaVuSans-67" x="1023.835938"/>
    <use xlink:href="#DejaVuSans-65" x="1087.3125"/>
    <use xlink:href="#DejaVuSans-6e" x="1148.835938"/>
    <use xlink:href="#DejaVuSans-65" x="1212.214844"/>
    <use xlink:href="#DejaVuSans-72" x="1273.738281"/>
    <use xlink:href="#DejaVuSans-61" x="1314.851562"/>
    <use xlink:href="#DejaVuSans-74" x="1376.130859"/>
    <use xlink:href="#DejaVuSans-65" x="1415.339844"/>
    <use xlink:href="#DejaVuSans-64" x="1476.863281"/>
    <use xlink:href="#DejaVuSans-20" x="1540.339844"/>
    <use xlink:href="#DejaVuSans-66" x="1572.126953"/>
    <use xlink:href="#DejaVuSans-72" x="1607.332031"/>
    <use xlink:href="#DejaVuSans-6f" x="1646.195312"/>
    <use xlink:href="#DejaVuSans-6d" x="1707.376953"/>
    <use xlink:href="#DejaVuSans-20" x="1804.789062"/>
    <use xlink:href="#DejaVuSans-73" x="1836.576172"/>
    <use xlink:href="#DejaVuSans-69" x="1888.675781"/>
    <use xlink:href="#DejaVuSans-6d" x="1916.458984"/>
    <use xlink:href="#DejaVuSans-75" x="2013.871094"/>
    <use xlink:href="#DejaVuSans-6c" x="2077.25"/>
    <use xlink:href="#DejaVuSans-61" x="2105.033203"/>
    <use xlink:href="#DejaVuSans-74" x="2166.3125"/>
    <use xlink:href="#DejaVuSans-65" x="2205.521484"/>
    <use xlink:href="#DejaVuSans-64" x="2267.044922"/>
    <use xlink:href="#DejaVuSans-20" x="2330.521484"/>
    <use xlink:href="#DejaVuSans-6d" x="2362.308594"/>
    <use xlink:href="#DejaVuSans-6f" x="2459.720703"/>
    <use xlink:href="#DejaVuSans-63" x="2520.902344"/>
    <use xlink:href="#DejaVuSans-6b" x="2575.882812"/>
    <use xlink:href="#DejaVuSans-20" x="2633.792969"/>
    <use xlink:href="#DejaVuSans-64" x="2665.580078"/>
    <use xlink:href="#DejaVuSans-61" x="2729.056641"/>
    <use xlink:href="#DejaVuSans-74" x="2790.335938"/>
    <use xlink:href="#DejaVuSans-61" x="2829.544922"/>
    <use xlink:href="#DejaVuSans-2e" x="2890.824219"/>
   </g>
  </g>
 </g>
 <defs>
  <clipPath id="p359abc20f1">
   <rect x="73.44" y="23.077969" width="446.4" height="243.936"/>
  </clipPath>
 </defs>
</svg>
